<svg xmlns="http://www.w3.org/2000/svg" viewBox="35.67 22.74 426.21 454.7"><g id="freepik--background-complete--inject-186"><path d="M365.93,203.22c-8.19,16.48-21.31,43.13-27.34,55.37a7.29,7.29,0,0,0,3.31,9.76l45,22.31a7.31,7.31,0,0,0,9.79-3.3l27.17-54.85a16.19,16.19,0,0,0-7.32-21.71h0l4-8.07-29.48-14.61-3.78,7.63-.11-.05A16.2,16.2,0,0,0,365.93,203.22Z" style="fill:#f5f5f5"/><polygon points="390.56 189.15 388.74 192.82 417.71 208.47 420.04 203.76 390.56 189.15" style="fill:#e0e0e0"/><path d="M390.51,183.35h34.61a3,3,0,0,1,3,3v11.41a1.93,1.93,0,0,1-1.93,1.93H389.45a1.93,1.93,0,0,1-1.93-1.93V186.35a3,3,0,0,1,3-3Z" transform="translate(127.43 -161.15) rotate(26.36)" style="fill:#f5f5f5"/><path d="M390.64,192.19c-.22-.11,1.22-3.45,3.22-7.48s3.78-7.2,4-7.09-1.22,3.45-3.22,7.48S390.85,192.3,390.64,192.19Z" style="fill:#e0e0e0"/><path d="M394.52,194.12c-.21-.11,1.23-3.46,3.22-7.48s3.79-7.2,4-7.09-1.23,3.45-3.22,7.47S394.73,194.22,394.52,194.12Z" style="fill:#e0e0e0"/><path d="M398.41,196c-.22-.11,1.23-3.45,3.22-7.48s3.78-7.2,4-7.09-1.23,3.45-3.23,7.48S398.62,196.15,398.41,196Z" style="fill:#e0e0e0"/><path d="M402.29,198c-.21-.11,1.23-3.46,3.22-7.48s3.79-7.2,4-7.09-1.23,3.45-3.22,7.47S402.51,198.07,402.29,198Z" style="fill:#e0e0e0"/><path d="M406.18,199.89c-.22-.1,1.23-3.45,3.22-7.48s3.78-7.2,4-7.09-1.23,3.45-3.23,7.48S406.39,200,406.18,199.89Z" style="fill:#e0e0e0"/><path d="M410.06,201.82c-.21-.11,1.23-3.46,3.22-7.48s3.79-7.2,4-7.09-1.23,3.45-3.22,7.47S410.28,201.92,410.06,201.82Z" style="fill:#e0e0e0"/><path d="M414,203.74c-.22-.1,1.23-3.45,3.22-7.48s3.78-7.19,4-7.09-1.23,3.45-3.23,7.48S414.16,203.85,414,203.74Z" style="fill:#e0e0e0"/><path d="M417.83,205.67c-.21-.11,1.23-3.46,3.23-7.48s3.78-7.2,4-7.09-1.23,3.45-3.22,7.47S418.05,205.77,417.83,205.67Z" style="fill:#e0e0e0"/><rect x="360.85" y="224.09" width="47.15" height="31.19" rx="1.48" transform="translate(146.38 -145.76) rotate(26.36)" style="fill:#ebebeb"/><path d="M396.75,260.8a2.62,2.62,0,0,1,.2-.48c.16-.35.36-.79.61-1.32.57-1.21,1.36-2.86,2.35-4.94,2.07-4.29,5-10.33,8.55-17.67l.15.46-37.06-18.26c-.13,0,1.09-.37.57-.2h0v0l0,.05-.05.1-.1.2-.2.4-.39.81-.8,1.6L369,224.77,365.88,231l-5.81,11.67-.18-.53,26.49,13.34,7.61,3.89,2,1.07a5.72,5.72,0,0,1,.72.4,3.22,3.22,0,0,1-.68-.28l-2-.94-7.63-3.66-26.89-13.11-.35-.17.17-.36,5.76-11.69,3.07-6.2c.52-1,1-2.11,1.57-3.17l.79-1.6.4-.81.2-.4.1-.2.05-.11,0,0v0h0l.58-.2,37,18.43.31.15-.16.31c-3.72,7.35-6.79,13.4-9,17.69-1,2-1.86,3.63-2.47,4.8l-.65,1.23A2.11,2.11,0,0,1,396.75,260.8Z" style="fill:#e0e0e0"/><path d="M399.15,241.56c-.11.21-5.83-2.41-12.78-5.85s-12.49-6.41-12.39-6.62,5.83,2.4,12.78,5.85S399.25,241.34,399.15,241.56Z" style="fill:#e0e0e0"/><path d="M397,245.84c-.11.21-5.83-2.41-12.78-5.85s-12.49-6.41-12.39-6.62,5.83,2.4,12.78,5.84S397.13,245.62,397,245.84Z" style="fill:#e0e0e0"/><path d="M395,250c-.11.21-5.82-2.41-12.77-5.85s-12.5-6.41-12.39-6.62,5.82,2.4,12.77,5.85S395.1,249.73,395,250Z" style="fill:#e0e0e0"/><path d="M415,209.71c-.11.21-6.34-2.66-13.93-6.42s-13.64-7-13.54-7.19,6.34,2.66,13.93,6.42S415.1,209.49,415,209.71Z" style="fill:#e0e0e0"/><path d="M342.59,256.62a18.94,18.94,0,0,1,1.15-2.67l3.4-7.12c2.91-6,7-14.27,11.53-23.38l6.44-12.82c2-3.94,4.17-7.42,6.85-9.56a12.75,12.75,0,0,1,7.32-3,8.82,8.82,0,0,1,2.17.17,2.69,2.69,0,0,1,.72.23,18,18,0,0,0-2.86-.06,12.76,12.76,0,0,0-6.95,3.15c-2.53,2.11-4.62,5.51-6.54,9.45l-6.38,12.85c-4.55,9.1-8.7,17.33-11.75,23.26l-3.65,7A17.07,17.07,0,0,1,342.59,256.62Z" style="fill:#fff"/><path d="M392.45,290.79a12.55,12.55,0,0,1-1.71-1.63c-.52-.55-1.17-1.21-2-1.94s-1.64-1.61-2.68-2.48a81.74,81.74,0,0,0-7.46-5.86,88.14,88.14,0,0,0-10-5.9,87.15,87.15,0,0,0-10.75-4.37,82.5,82.5,0,0,0-9.19-2.39c-1.32-.3-2.53-.45-3.59-.63s-2-.3-2.73-.38a12.74,12.74,0,0,1-2.34-.38,12.65,12.65,0,0,1,2.37,0c.76,0,1.69.1,2.76.24s2.31.25,3.64.51a71.57,71.57,0,0,1,9.32,2.23A78.94,78.94,0,0,1,369,272.21a79.75,79.75,0,0,1,10.07,6,71.88,71.88,0,0,1,7.41,6.06c1,.9,1.85,1.82,2.61,2.59s1.38,1.47,1.87,2.05A12.11,12.11,0,0,1,392.45,290.79Z" style="fill:#fff"/><path d="M400.39,451.38l-51-26a5.21,5.21,0,0,1-2.28-7l53.93-105.68a5.22,5.22,0,0,1,7-2.28l51,26a5.21,5.21,0,0,1,2.28,7L407.4,449.1A5.21,5.21,0,0,1,400.39,451.38Z" style="fill:#f5f5f5"/><path d="M398.43,438.51c-.05.1-8-3.84-17.67-8.8s-17.55-9-17.5-9.15,8,3.84,17.68,8.8S398.48,438.41,398.43,438.51Z" style="fill:#e0e0e0"/><path d="M445.67,341.09c-.05.09-8-3.85-17.68-8.8s-17.55-9.05-17.5-9.15,8,3.84,17.68,8.8S445.71,341,445.67,341.09Z" style="fill:#e0e0e0"/><path d="M379.81,428.77c-.1,0,10.82-21.63,24.37-48.2s24.64-48.08,24.73-48-10.81,21.63-24.38,48.21S379.9,428.82,379.81,428.77Z" style="fill:#e0e0e0"/><path d="M410.34,337.56h.49a3,3,0,0,1,3,3V347a0,0,0,0,1,0,0h-6.53a0,0,0,0,1,0,0v-6.4A3,3,0,0,1,410.34,337.56Z" transform="translate(896.92 120.44) rotate(115.66)" style="fill:#ebebeb"/><path d="M402.84,334h.49a3,3,0,0,1,3,3v6.4a0,0,0,0,1,0,0h-6.53a0,0,0,0,1,0,0V337A3,3,0,0,1,402.84,334Z" transform="translate(-76.75 555.3) rotate(-64.33)" style="fill:#e0e0e0"/><path d="M438.86,351.68h.49a3,3,0,0,1,3,3v6.4a0,0,0,0,1,0,0h-6.53a0,0,0,0,1,0,0v-6.4A3,3,0,0,1,438.86,351.68Z" transform="translate(950.51 114.98) rotate(115.67)" style="fill:#ebebeb"/><path d="M431.35,348.08h.49a3,3,0,0,1,3,3v6.4a0,0,0,0,1,0,0h-6.53a0,0,0,0,1,0,0v-6.4a3,3,0,0,1,3-3Z" transform="translate(-73.32 589.01) rotate(-64.34)" style="fill:#e0e0e0"/><path d="M402.35,353.83h.49a3,3,0,0,1,3,3v6.4a0,0,0,0,1,0,0h-6.53a0,0,0,0,1,0,0v-6.4a3,3,0,0,1,3-3Z" transform="translate(900.12 150.96) rotate(115.67)" style="fill:#ebebeb"/><path d="M394.84,350.22h.49a3,3,0,0,1,3,3v6.4a0,0,0,0,1,0,0h-6.53a0,0,0,0,1,0,0v-6.4A3,3,0,0,1,394.84,350.22Z" transform="translate(-95.95 557.31) rotate(-64.33)" style="fill:#e0e0e0"/><path d="M431.51,368.27H432a3,3,0,0,1,3,3v6.4a0,0,0,0,1,0,0h-6.53a0,0,0,0,1,0,0v-6.4A3,3,0,0,1,431.51,368.27Z" transform="translate(954.93 145.37) rotate(115.67)" style="fill:#ebebeb"/><path d="M424,364.66h.49a3,3,0,0,1,3,3v6.4a0,0,0,0,1,0,0H421a0,0,0,0,1,0,0v-6.4a3,3,0,0,1,3-3Z" transform="translate(-92.43 591.78) rotate(-64.33)" style="fill:#e0e0e0"/><path d="M394.35,370.1h.49a3,3,0,0,1,3,3v6.4a0,0,0,0,1,0,0h-6.53a0,0,0,0,1,0,0v-6.4a3,3,0,0,1,3-3Z" transform="translate(903.32 181.49) rotate(115.67)" style="fill:#ebebeb"/><path d="M386.84,366.49h.49a3,3,0,0,1,3,3v6.4a0,0,0,0,1,0,0h-6.53a0,0,0,0,1,0,0v-6.4a3,3,0,0,1,3-3Z" transform="translate(-115.15 559.33) rotate(-64.33)" style="fill:#e0e0e0"/><path d="M424.16,384.85h.49a3,3,0,0,1,3,3v6.4a0,0,0,0,1,0,0h-6.53a0,0,0,0,1,0,0v-6.4A3,3,0,0,1,424.16,384.85Z" transform="translate(959.34 175.75) rotate(115.67)" style="fill:#ebebeb"/><path d="M416.65,381.24h.49a3,3,0,0,1,3,3v6.4a0,0,0,0,1,0,0h-6.53a0,0,0,0,1,0,0v-6.4A3,3,0,0,1,416.65,381.24Z" transform="translate(-111.54 594.56) rotate(-64.33)" style="fill:#e0e0e0"/><path d="M385,387h.49a3,3,0,0,1,3,3v6.4a0,0,0,0,1,0,0H382a0,0,0,0,1,0,0v-6.4A3,3,0,0,1,385,387Z" transform="translate(905.16 214.21) rotate(115.67)" style="fill:#ebebeb"/><path d="M377.47,383.43H378a3,3,0,0,1,3,3v6.4a0,0,0,0,1,0,0h-6.53a0,0,0,0,1,0,0v-6.4A3,3,0,0,1,377.47,383.43Z" transform="translate(-135.73 560.48) rotate(-64.33)" style="fill:#e0e0e0"/><path d="M415,401.44h.49a3,3,0,0,1,3,3v6.4a0,0,0,0,1,0,0h-6.53a0,0,0,0,1,0,0v-6.4a3,3,0,0,1,3-3Z" transform="translate(961.1 207.83) rotate(115.67)" style="fill:#ebebeb"/><path d="M407.44,397.83h.49a3,3,0,0,1,3,3v6.4a0,0,0,0,1,0,0h-6.53a0,0,0,0,1,0,0v-6.4A3,3,0,0,1,407.44,397.83Z" transform="translate(-131.72 595.66) rotate(-64.33)" style="fill:#e0e0e0"/><path d="M377.39,405.54h.49a3,3,0,0,1,3,3V415a0,0,0,0,1,0,0h-6.53a0,0,0,0,1,0,0v-6.4A3,3,0,0,1,377.39,405.54Z" transform="translate(910.96 247.55) rotate(115.66)" style="fill:#ebebeb"/><path d="M369.88,401.93h.49a3,3,0,0,1,3,3v6.4a0,0,0,0,1,0,0h-6.53a0,0,0,0,1,0,0V405A3,3,0,0,1,369.88,401.93Z" transform="translate(-156.7 564.13) rotate(-64.33)" style="fill:#e0e0e0"/><path d="M405.91,419.24h.49a3,3,0,0,1,3,3v6.4a0,0,0,0,1,0,0h-6.53a0,0,0,0,1,0,0v-6.4A3,3,0,0,1,405.91,419.24Z" transform="translate(964.19 241.49) rotate(115.67)" style="fill:#ebebeb"/><path d="M398.4,415.63h.49a3,3,0,0,1,3,3v6.4a0,0,0,0,1,0,0h-6.53a0,0,0,0,1,0,0v-6.4A3,3,0,0,1,398.4,415.63Z" transform="translate(-152.89 597.61) rotate(-64.33)" style="fill:#e0e0e0"/><rect x="139.24" y="37.7" width="55.25" height="105.44" rx="5.21" transform="translate(12.76 -20.36) rotate(7.26)" style="fill:#f5f5f5"/><path d="M178.33,136.32c0,.09-7.18-.76-16-1.88s-16-2.11-16-2.2,7.19.76,16,1.88S178.34,136.23,178.33,136.32Z" style="fill:#e0e0e0"/><path d="M187.71,48.37c0,.09-7.18-.75-16-1.88s-16-2.1-16-2.19,7.18.75,16,1.88S187.73,48.29,187.71,48.37Z" style="fill:#e0e0e0"/><path d="M161.32,134c-.09,0,2.34-19.62,5.42-43.79s5.65-43.77,5.73-43.76-2.33,19.62-5.41,43.8S161.41,134,161.32,134Z" style="fill:#e0e0e0"/><path d="M157,61.24l.54-5.31,5,.52a2.67,2.67,0,0,1,2.38,2.93h0A2.67,2.67,0,0,1,162,61.76Z" style="fill:#ebebeb"/><path d="M158.41,56l-.54,5.31-5-.51a2.68,2.68,0,0,1-2.38-2.93h0a2.66,2.66,0,0,1,2.93-2.38Z" style="fill:#e0e0e0"/><path d="M182.8,64.22l.54-5.31,5,.51a2.68,2.68,0,0,1,2.38,2.93h0a2.66,2.66,0,0,1-2.93,2.38Z" style="fill:#ebebeb"/><path d="M184.23,59l-.54,5.31-5-.52a2.67,2.67,0,0,1-2.38-2.93h0a2.67,2.67,0,0,1,2.93-2.38Z" style="fill:#e0e0e0"/><path d="M155.32,76l.55-5.31,5,.52a2.67,2.67,0,0,1,2.38,2.92h0a2.68,2.68,0,0,1-2.93,2.38Z" style="fill:#ebebeb"/><path d="M156.76,70.74l-.55,5.31-5-.52a2.66,2.66,0,0,1-2.38-2.92h0a2.66,2.66,0,0,1,2.93-2.38Z" style="fill:#e0e0e0"/><path d="M181.73,79l.55-5.3,5,.51a2.66,2.66,0,0,1,2.38,2.93h0a2.66,2.66,0,0,1-2.92,2.38Z" style="fill:#ebebeb"/><path d="M183.17,73.78l-.55,5.31-5-.52a2.66,2.66,0,0,1-2.38-2.93h0a2.67,2.67,0,0,1,2.92-2.38Z" style="fill:#e0e0e0"/><path d="M153.67,90.68l.55-5.31,5,.51a2.68,2.68,0,0,1,2.38,2.93h0a2.66,2.66,0,0,1-2.93,2.38Z" style="fill:#ebebeb"/><path d="M155.11,85.46l-.55,5.31-5-.52a2.66,2.66,0,0,1-2.38-2.93h0a2.67,2.67,0,0,1,2.92-2.38Z" style="fill:#e0e0e0"/><path d="M180.66,93.77l.55-5.31,5,.52a2.67,2.67,0,0,1,2.38,2.93h0a2.68,2.68,0,0,1-2.93,2.38Z" style="fill:#ebebeb"/><path d="M182.1,88.56l-.54,5.3-5-.51a2.66,2.66,0,0,1-2.38-2.93h0A2.66,2.66,0,0,1,177.1,88Z" style="fill:#e0e0e0"/><path d="M151.15,106.28l.55-5.3,5,.51a2.66,2.66,0,0,1,2.38,2.93h0a2.66,2.66,0,0,1-2.93,2.38Z" style="fill:#ebebeb"/><path d="M152.59,101.07l-.55,5.31-5-.52a2.67,2.67,0,0,1-2.38-2.93h0a2.68,2.68,0,0,1,2.93-2.38Z" style="fill:#e0e0e0"/><path d="M178.17,109.07l.55-5.31,5,.52a2.66,2.66,0,0,1,2.38,2.93h0a2.67,2.67,0,0,1-2.92,2.38Z" style="fill:#ebebeb"/><path d="M179.61,103.86l-.55,5.3-5-.51a2.66,2.66,0,0,1-2.38-2.93h0a2.66,2.66,0,0,1,2.93-2.38Z" style="fill:#e0e0e0"/><path d="M150.43,122.6l.55-5.31,5,.52a2.66,2.66,0,0,1,2.38,2.93h0a2.67,2.67,0,0,1-2.93,2.38Z" style="fill:#ebebeb"/><path d="M151.87,117.39l-.55,5.3-5-.51a2.66,2.66,0,0,1-2.38-2.93h0a2.66,2.66,0,0,1,2.92-2.38Z" style="fill:#e0e0e0"/><path d="M176.14,125.25l.55-5.3,5,.51a2.66,2.66,0,0,1,2.38,2.93h0a2.66,2.66,0,0,1-2.92,2.38Z" style="fill:#ebebeb"/><path d="M177.58,120l-.55,5.31-5-.52a2.66,2.66,0,0,1-2.38-2.93h0a2.67,2.67,0,0,1,2.92-2.38Z" style="fill:#e0e0e0"/><rect x="56.46" y="82.67" width="73.97" height="141.16" rx="5.21" transform="translate(-44.43 38.32) rotate(-18.81)" style="fill:#ebebeb"/><path d="M68.09,114a5.4,5.4,0,1,1-6.86-3.37A5.41,5.41,0,0,1,68.09,114Z" style="fill:#fafafa"/><path d="M97.86,103.84A5.4,5.4,0,1,1,91,100.47,5.39,5.39,0,0,1,97.86,103.84Z" style="fill:#fafafa"/><path d="M77.52,141.66a5.4,5.4,0,1,1-6.86-3.37A5.41,5.41,0,0,1,77.52,141.66Z" style="fill:#fafafa"/><path d="M107.29,131.52a5.4,5.4,0,1,1-6.86-3.37A5.4,5.4,0,0,1,107.29,131.52Z" style="fill:#fafafa"/><path d="M87,169.34A5.41,5.41,0,1,1,80.09,166,5.41,5.41,0,0,1,87,169.34Z" style="fill:#fafafa"/><path d="M116.72,159.2a5.4,5.4,0,1,1-6.86-3.37A5.4,5.4,0,0,1,116.72,159.2Z" style="fill:#fafafa"/><circle cx="91.26" cy="198.77" r="5.41" transform="translate(-109.19 111.27) rotate(-41.76)" style="fill:#fafafa"/><path d="M126.15,186.88a5.4,5.4,0,1,1-6.86-3.37A5.41,5.41,0,0,1,126.15,186.88Z" style="fill:#fafafa"/><path d="M65.19,111.08a29.77,29.77,0,0,1-2.11,4.64,31.68,31.68,0,0,1-2.49,4.44,28.67,28.67,0,0,1,2.11-4.64A30.53,30.53,0,0,1,65.19,111.08Z" style="fill:#e0e0e0"/><path d="M94.35,100.91a31.46,31.46,0,0,1-2.11,4.64,31.1,31.1,0,0,1-2.5,4.44,30.94,30.94,0,0,1,2.11-4.64A30,30,0,0,1,94.35,100.91Z" style="fill:#e0e0e0"/><path d="M74.89,138.76A30.93,30.93,0,0,1,73,143.63a33,33,0,0,1-2.27,4.7,31.64,31.64,0,0,1,1.87-4.87A31.73,31.73,0,0,1,74.89,138.76Z" style="fill:#e0e0e0"/><path d="M104.31,128.56a29.14,29.14,0,0,1-1.62,4.74,29.12,29.12,0,0,1-2,4.58,29.63,29.63,0,0,1,1.61-4.74A29.67,29.67,0,0,1,104.31,128.56Z" style="fill:#e0e0e0"/><path d="M83.44,166.33a28.19,28.19,0,0,1-1.71,4.45,26.64,26.64,0,0,1-2.11,4.29,27,27,0,0,1,1.71-4.46A26.78,26.78,0,0,1,83.44,166.33Z" style="fill:#e0e0e0"/><path d="M113.93,156.65a26.38,26.38,0,0,1-2.07,4.38,27.72,27.72,0,0,1-2.45,4.18,27.4,27.4,0,0,1,2.07-4.38A28.08,28.08,0,0,1,113.93,156.65Z" style="fill:#e0e0e0"/><path d="M93.68,194.39a30.21,30.21,0,0,1-2.24,4.55,31.34,31.34,0,0,1-2.62,4.34,30.74,30.74,0,0,1,2.24-4.55A29.86,29.86,0,0,1,93.68,194.39Z" style="fill:#e0e0e0"/><path d="M123.38,183.36a34.69,34.69,0,0,1-1.88,5.18,34.41,34.41,0,0,1-2.29,5,36.45,36.45,0,0,1,1.89-5.18A35.72,35.72,0,0,1,123.38,183.36Z" style="fill:#e0e0e0"/><path d="M134.24,201.71c0,.11-9.08,3.32-20.37,7.16s-20.47,6.87-20.51,6.76,9.08-3.32,20.37-7.17S134.2,201.59,134.24,201.71Z" style="fill:#e0e0e0"/><path d="M93.78,90.42c0,.12-9.08,3.32-20.37,7.17s-20.47,6.87-20.51,6.76S62,101,73.27,97.18,93.74,90.31,93.78,90.42Z" style="fill:#e0e0e0"/><path d="M73.92,102.93a.3.3,0,0,1-.16,0l-.05,0,0,0h0l.41-.14h0c0,.07,0,.16-.16.19s-.22,0-.25-.06h0l.41-.13h0v0a.09.09,0,0,1,0,.06A.24.24,0,0,1,73.92,102.93Z" style="fill:#e0e0e0"/><path d="M112.41,208.9c-.11,0-8.73-25-19.25-55.85s-19-56-18.85-56S83,122,93.56,152.91,112.52,208.86,112.41,208.9Z" style="fill:#e0e0e0"/><path d="M64.29,341.09h50.54a0,0,0,0,1,0,0v98.65a6.28,6.28,0,0,1-6.28,6.28h-38a6.28,6.28,0,0,1-6.28-6.28V341.09a0,0,0,0,1,0,0Z" transform="translate(-80.1 27.33) rotate(-12.04)" style="fill:#f5f5f5"/><rect x="64.29" y="371.86" width="31.77" height="45.41" transform="translate(-80.52 25.39) rotate(-12.04)" style="fill:#e0e0e0"/><rect x="47.41" y="333.06" width="60.75" height="17.54" rx="2.1" transform="translate(-69.57 23.74) rotate(-12.04)" style="fill:#ebebeb"/><path d="M54.65,355.74a71.18,71.18,0,0,1-2.09-8.53A71,71,0,0,1,51,338.58a73,73,0,0,1,2.09,8.52A73.72,73.72,0,0,1,54.65,355.74Z" style="fill:#e0e0e0"/><path d="M59.44,354.72a73.55,73.55,0,0,1-2.09-8.53,73.78,73.78,0,0,1-1.57-8.63,70.69,70.69,0,0,1,2.09,8.52A70.93,70.93,0,0,1,59.44,354.72Z" style="fill:#e0e0e0"/><path d="M64.24,353.69a69.5,69.5,0,0,1-2.1-8.52,70,70,0,0,1-1.56-8.63,72.37,72.37,0,0,1,2.09,8.52A73.78,73.78,0,0,1,64.24,353.69Z" style="fill:#e0e0e0"/><path d="M69,352.67a70.69,70.69,0,0,1-2.09-8.52,73.72,73.72,0,0,1-1.57-8.64A71.18,71.18,0,0,1,67.46,344,73.38,73.38,0,0,1,69,352.67Z" style="fill:#e0e0e0"/><path d="M73.82,351.65a73.68,73.68,0,0,1-2.09-8.52,73.72,73.72,0,0,1-1.57-8.64,70.11,70.11,0,0,1,2.1,8.52A70,70,0,0,1,73.82,351.65Z" style="fill:#e0e0e0"/><path d="M78.62,350.63a70,70,0,0,1-2.1-8.53A69.68,69.68,0,0,1,75,333.47,73,73,0,0,1,77.05,342,73.72,73.72,0,0,1,78.62,350.63Z" style="fill:#e0e0e0"/><path d="M83.41,349.6a70.07,70.07,0,0,1-2.09-8.52,73.78,73.78,0,0,1-1.57-8.63A70.69,70.69,0,0,1,81.84,341,73.78,73.78,0,0,1,83.41,349.6Z" style="fill:#e0e0e0"/><path d="M88.2,348.58a73,73,0,0,1-2.09-8.52,69.65,69.65,0,0,1-1.56-8.64A73.55,73.55,0,0,1,86.64,340,70,70,0,0,1,88.2,348.58Z" style="fill:#e0e0e0"/><path d="M93,347.56A70.69,70.69,0,0,1,90.91,339a71.29,71.29,0,0,1-1.57-8.64,73.55,73.55,0,0,1,2.09,8.53A73.38,73.38,0,0,1,93,347.56Z" style="fill:#e0e0e0"/><path d="M97.79,346.54A73.68,73.68,0,0,1,95.7,338a73.72,73.72,0,0,1-1.57-8.64,70.69,70.69,0,0,1,2.09,8.52A71.29,71.29,0,0,1,97.79,346.54Z" style="fill:#e0e0e0"/><path d="M102.58,345.52a73.55,73.55,0,0,1-2.09-8.53,70,70,0,0,1-1.56-8.63,73,73,0,0,1,2.09,8.52A70,70,0,0,1,102.58,345.52Z" style="fill:#e0e0e0"/><path d="M107.38,344.49a70.07,70.07,0,0,1-2.09-8.52,73.78,73.78,0,0,1-1.57-8.63,70.69,70.69,0,0,1,2.09,8.52A73.78,73.78,0,0,1,107.38,344.49Z" style="fill:#e0e0e0"/><path d="M87.74,429.38h2.73a3,3,0,0,1,3,3V442a0,0,0,0,1,0,0H84.71a0,0,0,0,1,0,0V432.4a3,3,0,0,1,3-3Z" transform="translate(-318.45 613.71) rotate(-102.04)" style="fill:#ebebeb"/><path d="M98.67,427.05h2.73a3,3,0,0,1,3,3v9.63a0,0,0,0,1,0,0H95.65a0,0,0,0,1,0,0v-9.63A3,3,0,0,1,98.67,427.05Z" transform="translate(503.03 245.17) rotate(77.96)" style="fill:#e0e0e0"/><path d="M105.5,399.33h2.73a3,3,0,0,1,3,3V412a0,0,0,0,1,0,0h-8.77a0,0,0,0,1,0,0v-9.63A3,3,0,0,1,105.5,399.33Z" transform="translate(219.81 809.66) rotate(179.14)" style="fill:#ebebeb"/><path d="M105.33,388.15h2.73a3,3,0,0,1,3,3v9.63a0,0,0,0,1,0,0h-8.77a0,0,0,0,1,0,0v-9.63a3,3,0,0,1,3-3Z" transform="translate(-5.93 1.65) rotate(-0.86)" style="fill:#e0e0e0"/><path d="M112.81,422.18h2.73a3,3,0,0,1,3,3v9.63a0,0,0,0,1,0,0h-8.77a0,0,0,0,1,0,0V425.2A3,3,0,0,1,112.81,422.18Z" transform="translate(434.67 734.99) rotate(148.64)" style="fill:#ebebeb"/><path d="M107,412.63h2.73a3,3,0,0,1,3,3v9.63a0,0,0,0,1,0,0H104a0,0,0,0,1,0,0v-9.63A3,3,0,0,1,107,412.63Z" transform="translate(-202.21 117.6) rotate(-31.36)" style="fill:#e0e0e0"/><path d="M84.45,416.12h2.73a3,3,0,0,1,3,3v9.63a0,0,0,0,1,0,0H81.42a0,0,0,0,1,0,0v-9.63a3,3,0,0,1,3-3Z" transform="translate(-343.53 461.07) rotate(-83.66)" style="fill:#ebebeb"/><path d="M95.56,417.36h2.73a3,3,0,0,1,3,3V430a0,0,0,0,1,0,0H92.54a0,0,0,0,1,0,0v-9.63A3,3,0,0,1,95.56,417.36Z" transform="translate(528.72 374.15) rotate(96.34)" style="fill:#e0e0e0"/><path d="M319.76,203.46h.48a3.79,3.79,0,0,1,3.79,3.79v7.07a.77.77,0,0,1-.77.77h-6.52a.77.77,0,0,1-.77-.77v-7.07a3.79,3.79,0,0,1,3.79-3.79Z" transform="translate(612.35 455.69) rotate(-173.06)" style="fill:#ebebeb"/><path d="M321,193.26h.48a3.79,3.79,0,0,1,3.79,3.79v7.07a.77.77,0,0,1-.77.77H318a.77.77,0,0,1-.77-.77V197a3.79,3.79,0,0,1,3.79-3.79Z" transform="translate(26.41 -37.36) rotate(6.94)" style="fill:#e0e0e0"/><path d="M335.57,443H336a3.79,3.79,0,0,1,3.79,3.79v7.07a.77.77,0,0,1-.77.77h-6.52a.77.77,0,0,1-.77-.77V446.8a3.79,3.79,0,0,1,3.79-3.79Z" transform="translate(818.48 733.84) rotate(157.37)" style="fill:#ebebeb"/><path d="M331.62,433.52h.48a3.79,3.79,0,0,1,3.79,3.79v7.07a.77.77,0,0,1-.77.77H328.6a.77.77,0,0,1-.77-.77v-7.07A3.79,3.79,0,0,1,331.62,433.52Z" transform="translate(-143.52 161.55) rotate(-22.63)" style="fill:#e0e0e0"/></g><g id="freepik--Table--inject-186"><path d="M445.51,476.9c0,.3-91.47.54-204.27.54S37,477.2,37,476.9s91.44-.53,204.28-.53S445.51,476.61,445.51,476.9Z" style="fill:#263238"/></g><g id="freepik--speech-bubbles--inject-186"><polygon points="369.32 100.86 350.54 81.42 345.87 112.17 320.71 111.32 336.46 132 320.62 152.78 346.85 147.61 350.64 174.01 371.85 157.94 398.59 171.94 392.74 144.93 423.08 140.15 399.48 126.22 413.24 102.49 389.65 111.71 386.79 82.45 369.32 100.86" style="fill:#fff"/><path d="M369.32,100.86s.39-.38,1.15-1.17,1.91-2,3.39-3.52l13-13.62-.26-.09c.76,8,1.71,17.84,2.8,29.28l0,.28.26-.11,23.6-9.18-.31-.36-13.78,23.71-.14.24.24.14,23.59,14,.1-.56-30.34,4.76-.33,0,.07.33c1.86,8.61,3.83,17.73,5.85,27l.46-.35-23.16-12.14L372,157.65l-.18-.09-.17.12-21.2,16.07.51.21q-1.95-13.5-3.8-26.39l-.05-.33-.32.06-26.23,5.19.3.48q8.22-10.83,15.82-20.8l.13-.18-.13-.17-15.76-20.65-.21.41,25.15.81h.2l0-.19c1.81-12.12,3.35-22.42,4.6-30.77l-.26.08L364.49,96l3.61,3.68,1.22,1.22s-.41-.45-1.22-1.3l-3.58-3.76L350.65,81.31l-.22-.23,0,.31c-1.29,8.35-2.87,18.65-4.74,30.75l.23-.19-25.16-.88-.54,0,.33.43,15.72,20.69v-.35L320.38,152.6l-.49.63.78-.15,26.24-5.16-.37-.26,3.78,26.39.08.54.44-.33L372,158.2l-.34,0,3.57,1.87,23.17,12.13.62.32-.15-.68c-2-9.29-4-18.4-5.86-27l-.26.38,30.34-4.79.83-.14-.73-.42L399.62,126l.1.38,13.74-23.74.36-.63-.67.27-23.57,9.25.29.18c-1.15-11.42-2.14-21.31-2.93-29.26l0-.33-.22.24L373.82,96l-3.36,3.59C369.71,100.42,369.32,100.86,369.32,100.86Z" style="fill:#263238"/><path d="M319,133.32a5.61,5.61,0,1,1-5.6-5.61A5.6,5.6,0,0,1,319,133.32Z" style="fill:#fff"/><path d="M319,133.32s0-.5-.25-1.35a5.54,5.54,0,0,0-2.05-3,5.61,5.61,0,0,0-2.3-1,5.52,5.52,0,0,0-2.85.26,5.36,5.36,0,0,0-2.51,1.89,5.43,5.43,0,0,0,2.51,8.29,5.45,5.45,0,0,0,5.15-.75,5.55,5.55,0,0,0,2.05-3c.23-.85.21-1.35.25-1.35s0,.12,0,.36a4.82,4.82,0,0,1-.13,1,5.61,5.61,0,0,1-2,3.18,5.74,5.74,0,0,1-5.46.87,5.74,5.74,0,0,1-2.7-2,5.77,5.77,0,0,1,0-6.86,5.74,5.74,0,0,1,2.7-2,5.82,5.82,0,0,1,3-.23,5.64,5.64,0,0,1,4.44,4.28,4.75,4.75,0,0,1,.13,1C319,133.19,319,133.32,319,133.32Z" style="fill:#263238"/><path d="M357.77,123.44H362a3.62,3.62,0,0,1,3.72-3.64,3.44,3.44,0,0,1,3.34,2.2,3.84,3.84,0,0,1-.31,3.45c-.72,1.19-2.3,2.27-5.17,1.76v9.61h4.21v-5.63a8.22,8.22,0,0,0,5.9-8c0-6.23-5.58-7.68-8-7.68C363.92,115.48,357.69,115.92,357.77,123.44Z" style="fill:#263238"/><rect x="363.6" y="138.79" width="4.27" height="3.99" style="fill:#263238"/><polygon points="305.7 36.68 292.43 22.94 289.13 44.67 271.35 44.07 282.48 58.68 271.28 73.37 289.82 69.72 292.5 88.37 307.49 77.02 326.39 86.92 322.25 67.82 343.69 64.44 327.01 54.6 336.74 37.83 320.07 44.35 318.04 23.67 305.7 36.68" style="fill:#fff"/><path d="M305.7,36.68l.81-.83,2.4-2.48c2.11-2.22,5.22-5.46,9.21-9.63l-.18-.06c.54,5.61,1.21,12.61,2,20.69l0,.19.19-.07L336.8,38l-.22-.26c-3,5.18-6.28,10.82-9.74,16.76l-.1.17.17.1,16.67,9.86.08-.4L322.21,67.6l-.23,0,0,.23c1.32,6.08,2.71,12.52,4.13,19.09l.33-.25-16.37-8.57-2.53-1.33-.13-.06-.11.08-15,11.36.36.15c-.91-6.36-1.81-12.59-2.68-18.65l0-.23-.23,0-18.54,3.67.21.33q5.82-7.64,11.18-14.7l.1-.12-.1-.12L271.49,44l-.15.29,17.78.58h.14l0-.13c1.28-8.56,2.37-15.84,3.25-21.74l-.18.05,9.93,10.2,2.56,2.61.86.86-.86-.92-2.53-2.66c-2.24-2.33-5.53-5.77-9.8-10.24l-.16-.16,0,.22c-.91,5.9-2,13.18-3.35,21.73l.16-.13-17.77-.63H271l.23.3q5.22,6.89,11.11,14.62v-.24L271.11,73.24l-.34.45.55-.11,18.54-3.64-.26-.19,2.67,18.65.06.39.31-.24,15-11.35-.25,0,2.53,1.33,16.37,8.57.43.22-.1-.47c-1.42-6.57-2.82-13-4.14-19.1l-.19.27,21.45-3.38.58-.1-.51-.3-16.68-9.83.07.27c3.44-5.94,6.7-11.59,9.7-16.78l.26-.44-.48.19L320,44.21l.2.13c-.81-8.08-1.51-15.07-2.07-20.68l0-.24-.16.17-9.09,9.67c-1,1.11-1.83,2-2.37,2.53S305.7,36.68,305.7,36.68Z" style="fill:#263238"/><path d="M281.93,88.79a4,4,0,1,1-4-4A4,4,0,0,1,281.93,88.79Z" style="fill:#fff"/><path d="M281.93,88.79s0-.35-.18-1a3.92,3.92,0,0,0-1.45-2.11,3.8,3.8,0,0,0-1.62-.71,3.93,3.93,0,0,0-2,.18,3.72,3.72,0,0,0-1.77,1.34,3.82,3.82,0,0,0,0,4.52,3.82,3.82,0,0,0,3.79,1.51,3.79,3.79,0,0,0,1.62-.7,4,4,0,0,0,1.45-2.12c.16-.6.15-.95.18-.95a1,1,0,0,1,0,.25,2.75,2.75,0,0,1-.08.73A4,4,0,0,1,280.43,92a4,4,0,0,1-3.86.61,4.05,4.05,0,0,1-1.91-1.42,4.08,4.08,0,0,1,1.91-6.27,4.1,4.1,0,0,1,2.15-.16,4.15,4.15,0,0,1,1.71.78,4,4,0,0,1,1.43,2.25,2.72,2.72,0,0,1,.08.72A1,1,0,0,1,281.93,88.79Z" style="fill:#263238"/><path d="M299.23,51.79h3a2.51,2.51,0,0,1,2.58-2.53,2.38,2.38,0,0,1,2.32,1.52,2.65,2.65,0,0,1-.21,2.4c-.5.83-1.6,1.58-3.6,1.23v6.68h2.93V57.18a5.73,5.73,0,0,0,4.11-5.59c0-4.33-3.89-5.33-5.55-5.33C303.5,46.26,299.17,46.56,299.23,51.79Z" style="fill:#263238"/><rect x="303.28" y="62.46" width="2.97" height="2.77" style="fill:#263238"/></g><g id="freepik--Character--inject-186"><path d="M193.85,95.08a11.49,11.49,0,0,1,10.67-7.92A15.71,15.71,0,0,1,223.61,84a14,14,0,0,1,22.81,7.39A11.67,11.67,0,0,1,260,108.86a11.23,11.23,0,0,1-.66,22.33L198.3,107.6A11.49,11.49,0,0,1,193.85,95.08Z" style="fill:#263238"/><path d="M261.27,132.43A47.63,47.63,0,0,0,206.6,98l-2.42.45c-25.86,6.38-34.89,31.9-27.8,57.58l19.94,86.35,5.62,10.28L244.25,272l13.24-20.08-1.79-26.55s24.41-8.57,20.06-33.75C273.66,179.41,267.29,154.72,261.27,132.43Z" style="fill:#ffbf9d"/><path d="M255.9,225.26s-15.86,3.94-34.71-3.53c0,0,10.29,16.87,34.94,10Z" style="fill:#ff9a6c"/><path d="M258.3,157.06a3.65,3.65,0,0,1-2.79,4.26,3.48,3.48,0,0,1-4.29-2.55,3.65,3.65,0,0,1,2.78-4.26A3.48,3.48,0,0,1,258.3,157.06Z" style="fill:#263238"/><path d="M258.66,147c-.35.55-3.45-1-7.31-.24s-6.33,3.19-6.83,2.79c-.25-.17,0-1.1,1.12-2.22a9.91,9.91,0,0,1,5.36-2.82,9.65,9.65,0,0,1,5.93.77C258.29,145.93,258.84,146.7,258.66,147Z" style="fill:#263238"/><path d="M225.52,164.85a3.65,3.65,0,0,1-2.79,4.26,3.48,3.48,0,0,1-4.3-2.55,3.65,3.65,0,0,1,2.78-4.26A3.5,3.5,0,0,1,225.52,164.85Z" style="fill:#263238"/><path d="M221.62,153.27c-.36.55-3.45-1-7.31-.23s-6.33,3.19-6.84,2.79c-.24-.17.05-1.1,1.13-2.23a10,10,0,0,1,5.36-2.81,9.65,9.65,0,0,1,5.93.77C221.24,152.25,221.8,153,221.62,153.27Z" style="fill:#263238"/><path d="M239.65,179.53c-.06-.22,2.27-1.08,6.06-2.29,1-.29,1.87-.66,1.91-1.36s-.51-1.74-1.2-2.8l-4.31-7c-6-9.94-10.6-18.18-10.19-18.42s5.61,7.62,11.65,17.56l4.19,7c.58,1.05,1.46,2.2,1.23,3.78a2.53,2.53,0,0,1-1.35,1.74,6.88,6.88,0,0,1-1.63.54C242.13,179.28,239.71,179.75,239.65,179.53Z" style="fill:#263238"/><path d="M242.8,133.36c.86-.73,3.32.72,6.5,1.41s6,.61,6.44,1.65c.19.5-.42,1.29-1.77,1.88a9.62,9.62,0,0,1-10.42-2.47C242.6,134.7,242.42,133.73,242.8,133.36Z" style="fill:#263238"/><path d="M256.71,121.36s-9.55-14.51-17.82-16.77c-10-2.74-12.09,8.07-21.3,7.25s-18.77-3.46-26.46,5c-8.42,9.22-2.86,13.57-1.4,24.83,5.94,45.66.05,60-6.25,39.12-.69-2.29-7.5-2.94-10.29-12.62-3.62-12.55-7-28-5.82-37.57,1-8.09,4.36-14.18,11.1-21.46C189.1,97.63,206,94.29,217.73,93.31S254.1,101.46,256.71,121.36Z" style="fill:#263238"/><path d="M185,179.77a6.94,6.94,0,0,0-8.59-5.2c-4.6,1.31-9.32,4.94-7.21,14.57,3.73,17.08,20.11,9.8,20,9.31C189.14,198.11,186.59,186.91,185,179.77Z" style="fill:#ffbf9d"/><path d="M184.07,192.83c-.09,0-.25.28-.71.62a3,3,0,0,1-2.21.53c-2-.27-4.09-2.8-4.85-5.86a10.14,10.14,0,0,1-.1-4.44,3.51,3.51,0,0,1,1.74-2.77,1.53,1.53,0,0,1,1.93.43c.34.43.3.79.4.8s.3-.37,0-1a1.87,1.87,0,0,0-.91-.92,2.25,2.25,0,0,0-1.74-.08,4.28,4.28,0,0,0-2.52,3.33,10.23,10.23,0,0,0,0,5c.86,3.42,3.32,6.25,5.95,6.43a3.25,3.25,0,0,0,2.62-1.05C184.13,193.25,184.13,192.85,184.07,192.83Z" style="fill:#ff9a6c"/><path d="M179.12,146.43c2.51,1.11,5.16,2.24,7.9,2s5.52-2.35,5.48-5.1c0-1.23-.57-2.56.05-3.63.73-1.28,2.53-1.26,4-1.37a11.16,11.16,0,0,0,9.92-10c1.62,1.67,4.58,1,6.28-.57s2.56-3.86,3.75-5.87,3-4,5.35-4c1.3-.06,2.63.48,3.89.12,2.22-.61,2.83-3.46,2.75-5.76s-.29-5,1.39-6.54,4-1.23,6.12-1.31,4.72-1.06,4.87-3.19a4.13,4.13,0,0,0-1.34-3,11.33,11.33,0,0,0-13.92-1.77,15.34,15.34,0,0,0-28.25,2.22,15.56,15.56,0,0,0-23.43,10.12,11.28,11.28,0,0,0-9.51,18.46c-2.76,2.33-4.83,5.89-4.24,9.46s4.72,6.47,8,4.89a6.25,6.25,0,0,0,11.76,4.16" style="fill:#263238"/><path d="M166.89,141.81c-.07,0,0,1.5,1.68,3.1a5.6,5.6,0,0,0,3.83,1.42A6.07,6.07,0,0,0,177,144l-.75,0a17.67,17.67,0,0,0,4.23,3.65A10,10,0,0,0,184,149a6.78,6.78,0,0,0,3.52-.31A6.92,6.92,0,0,0,192,145a10.09,10.09,0,0,0,.72-3.83,3.33,3.33,0,0,0-.12-1.41c-.08,0-.14.49-.27,1.38a11.39,11.39,0,0,1-1,3.56c-1.17,2.77-6.24,5-10.28,2.16a18,18,0,0,1-4-3.41l-.4-.45-.35.48a5.26,5.26,0,0,1-3.9,2.08,5.12,5.12,0,0,1-3.41-1.06A8.4,8.4,0,0,1,166.89,141.81Z" style="fill:#455a64"/><path d="M192.07,96.55c0,.06.47,0,1.3.22a6,6,0,0,1,3.09,1.77l.26.29.18-.36A21.88,21.88,0,0,1,204,90.2a17,17,0,0,1,6.49-2.73,14.19,14.19,0,0,1,7.66.72,14.43,14.43,0,0,1,5.09,3.31,11.69,11.69,0,0,1,2.85,4.82l.16.54.49-.24a9.79,9.79,0,0,1,7.3-.46,9.68,9.68,0,0,1,4.69,3.46,13.15,13.15,0,0,1,2,4.89,3.62,3.62,0,0,0,0-1.44,10,10,0,0,0-6.39-7.64,10.5,10.5,0,0,0-8,.35l.65.3a12.65,12.65,0,0,0-3-5.27,15.22,15.22,0,0,0-5.44-3.56,15,15,0,0,0-8.2-.74,17.51,17.51,0,0,0-6.81,3,21.26,21.26,0,0,0-7.05,8.76l.44-.07a5.94,5.94,0,0,0-3.43-1.68A2.61,2.61,0,0,0,192.07,96.55Z" style="fill:#455a64"/><path d="M303.2,184.91h0l-.14-1.07h0a3.44,3.44,0,0,0-3.85-3l-25.72,3.32a39.66,39.66,0,0,0-6.13,1.4l-14.43,4.31L246.7,191l1.53,1.44,4.94-.64,15.05.52a40.35,40.35,0,0,0,6.28-.2l25.73-3.32A3.44,3.44,0,0,0,303.2,184.91Z" style="fill:#455a64"/><path d="M298.66,188.19a4.58,4.58,0,0,1,.6-.2,3.22,3.22,0,0,0,1.39-1.07,3.15,3.15,0,0,0,.48-2.65,3,3,0,0,0-2.54-2.25,10.65,10.65,0,0,0-2.16.2l-2.39.32-5.28.71-12.1,1.58a2.84,2.84,0,0,0-2.24,1.68,3.18,3.18,0,0,0,.17,2.76,2.89,2.89,0,0,0,2.24,1.41,7.56,7.56,0,0,0,1.39-.11l1.42-.18,9.89-1.22,6.67-.77,1.82-.18a2.6,2.6,0,0,1,.64,0,3.14,3.14,0,0,1-.63.13l-1.8.29-6.66.94-9.87,1.33-1.41.19a7.93,7.93,0,0,1-1.5.12,3.39,3.39,0,0,1-2.66-1.66,3.56,3.56,0,0,1-.46-1.57,3.31,3.31,0,0,1,.26-1.67,3.4,3.4,0,0,1,2.66-2l12.11-1.54,5.28-.65,2.4-.29a10.76,10.76,0,0,1,2.26-.17,3.27,3.27,0,0,1,2.78,2.57,3.37,3.37,0,0,1-.6,2.84,3.14,3.14,0,0,1-1.53,1A1.9,1.9,0,0,1,298.66,188.19Z" style="fill:#263238"/><rect x="276.19" y="184.76" width="16.29" height="4.07" rx="1.92" transform="translate(-21.55 37.88) rotate(-7.34)" style="fill:#fff"/><path d="M299.07,184.88A2.82,2.82,0,0,0,298,183.5a2,2,0,0,0-1.79,0,1.84,1.84,0,0,0,.44,3.42,1.92,1.92,0,0,0,1.73-.44,2.84,2.84,0,0,0,.74-1.61s.11.17.1.52a2,2,0,0,1-.57,1.36,2.28,2.28,0,0,1-2.1.66,2.32,2.32,0,0,1-.56-4.35,2.26,2.26,0,0,1,2.2.1,2.08,2.08,0,0,1,.9,1.17C299.13,184.68,299.1,184.87,299.07,184.88Z" style="fill:#263238"/><path d="M250,195.65a22.23,22.23,0,0,0-1.79-2.51,8.81,8.81,0,0,0-2.67-1.86,10.29,10.29,0,0,0-3.89-.85,20.29,20.29,0,0,0-7.29,1.35c-1.84.65-3,1.08-3.05.93s1-.79,2.76-1.63a16.89,16.89,0,0,1,7.62-1.72,10.14,10.14,0,0,1,4.27,1,8.54,8.54,0,0,1,2.82,2.24C250.07,194.28,250.12,195.65,250,195.65Z" style="fill:#263238"/><path d="M112.16,239.06l34.51.38,9.66-3L167.09,239l15.26-.68,13-1.81s14.88,24.08,34.84,22.76,28.14-25.41,28.14-25.41l49.11,13,4.5,69.88-4.79,85.82,9.94,73.94-164.59,0-1.38-82.58L143,317.37,102.36,309l-8.24-4.74Z" style="fill:#F2A8A6"/><path d="M264.75,236.56a3.54,3.54,0,0,1-.16,1l-.28,1.21a11.5,11.5,0,0,1-.46,1.63,36.84,36.84,0,0,1-4.77,9.7c-.6,1-1.4,1.88-2.16,2.88s-1.69,1.92-2.6,2.91-2,1.94-3.11,2.8c-.56.45-1.12.93-1.71,1.37l-1.85,1.28a40.23,40.23,0,0,1-8.49,4.3A36.29,36.29,0,0,1,219,267.19a40.7,40.7,0,0,1-9-3l-2-1c-.65-.35-1.27-.73-1.89-1.09-1.27-.68-2.37-1.56-3.5-2.3s-2.09-1.63-3-2.48-1.82-1.65-2.56-2.53a36.51,36.51,0,0,1-6.18-8.86,12.54,12.54,0,0,1-.71-1.54l-.46-1.16a3.36,3.36,0,0,1-.31-1,3.62,3.62,0,0,1,.51.89l.55,1.1a12.94,12.94,0,0,0,.79,1.48,39.67,39.67,0,0,0,6.36,8.54c.74.85,1.67,1.59,2.56,2.43s2,1.57,3,2.38,2.2,1.55,3.45,2.21c.61.34,1.22.71,1.86,1l2,.95a40.47,40.47,0,0,0,8.84,2.83,37.88,37.88,0,0,0,28-5.64l1.82-1.23c.58-.43,1.13-.89,1.69-1.32,1.13-.83,2.08-1.83,3.07-2.7s1.81-1.86,2.6-2.81a35,35,0,0,0,2.16-2.79,39.43,39.43,0,0,0,5-9.39,14.77,14.77,0,0,0,.56-1.59c.14-.45.26-.85.37-1.18A4.12,4.12,0,0,1,264.75,236.56Z" style="fill:#263238"/><path d="M304.18,245.91s18.72,5.43,25.3,16.33c13.24,21.94,43.8,75.83,44.64,76.25,1,.52-48.41,23.81-48.41,23.81l-21.53-28.78Z" style="fill:#F2A8A6"/><path d="M311.55,283.81c.3,0-.15,24-1,53.57s-1.77,53.57-2.07,53.56.15-24,1-53.59S311.25,283.8,311.55,283.81Z" style="fill:#263238"/><g style="opacity:0.30000000000000004"><path d="M191.56,352.94A23.58,23.58,0,0,0,204,376.41c1.86.94,3.9,1.65,5.46,3,1.93,1.7,2.91,4.18,4.15,6.43a28.64,28.64,0,0,0,23.61,14.53c7.8.28,15.33-2.67,23.07-3.55,16.13-1.82,33.29,6.66,47.94,13.65l-1.08-8,.35-7.77-47.13-24.34-40.07-9.93Z"/></g><g style="opacity:0.30000000000000004"><path d="M286.69,315.76c-9.92-7.21-22.64-3.19-33.85-4.52l-.52-.07-.85-.16a17.59,17.59,0,0,1-1.73-.45l-.75-.28h0l-.35-.17a11.46,11.46,0,0,1-1.43-.85l0,0-.18-.14c-.27-.23-.55-.45-.81-.69a16,16,0,0,1-1.38-1.35,10.4,10.4,0,0,1-1.86-2.7,6,6,0,0,1-.38-4.11,10.31,10.31,0,0,1,2.29-4,55.74,55.74,0,0,1,4.34-3.93,19.83,19.83,0,0,0,6.22-12.38,18.64,18.64,0,0,0,0-4.09,18.11,18.11,0,0,0,11.1-10l7.19-28-2.15-.57L261,263.5a12.09,12.09,0,0,1-19.26,4L232,259.18l-6.85,1.1,12.59,11.6a17.93,17.93,0,0,0,12.2,4.76h.33c.48,0,1,0,1.45-.09a16.12,16.12,0,0,1-2.45,9.86,19.31,19.31,0,0,1-4.35,4.58,22.62,22.62,0,0,0-4,4.15,10.56,10.56,0,0,0-1.63,10.2,15.93,15.93,0,0,0,7.87,8.18c4.79,2.13,10.36,1.74,15.48,1.57,5.82-.2,11.45-.47,16.81,1.21a17.43,17.43,0,0,1,6.76,3.88,21,21,0,0,1,5.18,8.34,25.64,25.64,0,0,1,.78,15,35.18,35.18,0,0,1-5.87,12.22c-9.49,12.9-27,17.9-42,13-4-1.3-7.79-3.11-11.63-4.71l-13.91-5.8-.88-.37a1.87,1.87,0,0,0-2.28,1.3,1.89,1.89,0,0,0,1.29,2.28q11.7,4.88,23.39,9.75A42,42,0,0,0,285,362.85c6.76-6.5,11.6-15.79,11.73-25.28C296.83,329.46,293.38,320.62,286.69,315.76Z"/></g><path d="M138,269.73c.29,0,2.44,17.94,4.79,40.14s4,40.22,3.72,40.25-2.44-17.94-4.79-40.14S137.69,269.76,138,269.73Z" style="fill:#263238"/><path d="M151.3,274.94c-.15,0-.3-1.86-.49-4.86s-.46-7.22-.75-11.74-.64-8.62-.88-11.73-.33-4.87-.17-4.89.51,1.81.93,4.81.87,7.14,1.19,11.73.44,8.77.44,11.79S151.45,274.94,151.3,274.94Z" style="fill:#263238"/><path d="M284.13,413.52a4.38,4.38,0,0,1-.87.61c-.58.36-1.45.89-2.58,1.56s-2.51,1.47-4.15,2.35-3.48,1.92-5.59,2.94-4.39,2.2-6.9,3.34-5.2,2.32-8.05,3.53c-5.73,2.35-12.12,4.72-18.94,6.87s-13.45,3.79-19.5,5.12c-3,.62-5.91,1.23-8.63,1.67s-5.25.86-7.57,1.18-4.43.55-6.28.75-3.44.35-4.75.43-2.32.15-3,.18a4,4,0,0,1-1.05,0,3.71,3.71,0,0,1,1-.21c.68-.1,1.68-.23,3-.39s2.89-.33,4.72-.6,3.94-.51,6.24-.91,4.83-.77,7.52-1.31,5.56-1.11,8.58-1.75c6-1.38,12.58-3.08,19.39-5.19s13.16-4.47,18.89-6.75c2.84-1.19,5.56-2.29,8.06-3.44s4.82-2.19,6.92-3.2,4-2,5.65-2.79,3.08-1.57,4.23-2.19,2.06-1.07,2.68-1.38A3.72,3.72,0,0,1,284.13,413.52Z" style="fill:#263238"/><g style="opacity:0.30000000000000004"><path d="M138.45,266.47c-3.26,8.5-5.89,17.39-5.89,26.49a34.4,34.4,0,0,0,10,24.44C140.54,300.59,139,283.4,138.45,266.47Z"/></g><g style="opacity:0.30000000000000004"><path d="M309.56,345a69.38,69.38,0,0,0,1.1-56.54Z"/></g><g style="opacity:0.30000000000000004"><path d="M273.15,435.19c-2.58-.72-5.33-.09-7.92.6-22.68,6-44.26,16.83-67.63,19.14,4.55,4.95,48.78-3.93,72.6-9,3-.64,6.62-1.85,7.26-4.88C278,438.46,275.74,435.91,273.15,435.19Z"/></g><path d="M161,147.68,60.43,214.35s-28.34,20.91-9.19,50.51c12.57,19.42,45.24,30.79,45.24,30.79l15.12-54.57-8.28-.28,69.18-65.07Z" style="fill:#ffbf9d"/><path d="M147,157l13.11-8.68s-.45-18.1.11-19,20.4-20,20.4-20,3,4,.83,8.12l23.52-10.62,24.4,6.35.22,2.14,6.54,2.78s4.44,3.22.57,5.56c0,0,2.66,3,2.38,5.37s-3.3,2.49-3.3,2.49,1.91,1.75-1.18,5.31-25.12,11.85-25.12,11.85A80.3,80.3,0,0,1,193.2,165a94.09,94.09,0,0,1-20.7,10.75l-3.26,2.69" style="fill:#ffbf9d"/><path d="M169.57,178.81l-.66-.79,3.42-2.77a94.48,94.48,0,0,0,20.57-10.69A80.31,80.31,0,0,0,209,148.33l.09-.12.14-.06c.22-.08,22-8.29,24.92-11.71,2.69-3.09,1.28-4.53,1.22-4.59l-.86-.84,1.2,0c.1,0,2.57-.11,2.79-2,.26-2.14-2.22-4.94-2.24-5l-.41-.46.53-.32a2.32,2.32,0,0,0,1.33-1.75c0-1.2-1.31-2.48-1.89-2.91l-6.77-2.88-.22-2.09L205,107.33l-24.73,11.16.7-1.33c1.57-3,.2-5.93-.47-7.07-7.86,7.56-19.33,18.69-19.87,19.47-.32.91-.19,12,0,18.74v.28l-13.34,8.84-.57-.86L159.56,148c-.14-5.64-.37-18.09.18-19s17.17-16.92,20.49-20.11l.42-.41.35.47c.12.16,2.61,3.56,1.4,7.42l22.5-10.15,24.92,6.49.22,2.19,6.37,2.72c.1.07,2.44,1.79,2.36,3.82a3,3,0,0,1-1.34,2.26c.76,1,2.37,3.27,2.13,5.32a3.44,3.44,0,0,1-2.94,2.84c.4.93.55,2.69-1.66,5.24-3,3.49-23.1,11.15-25.19,11.94A81,81,0,0,1,193.5,165.4a95.32,95.32,0,0,1-20.74,10.79Z" style="fill:#ff9a6c"/><path d="M182.55,118.08s-.15.29-.5.74a7,7,0,0,1-.68.79c-.29.29-.6.64-1,1a40.67,40.67,0,0,1-6.57,4.52c-1.33.8-2.58,1.57-3.69,2.32a24.79,24.79,0,0,0-2.78,2.19c-1.48,1.36-2.18,2.41-2.27,2.35a2.92,2.92,0,0,1,.45-.77,6.07,6.07,0,0,1,.63-.83,10.29,10.29,0,0,1,.93-1,21.75,21.75,0,0,1,2.76-2.31c1.11-.78,2.36-1.58,3.7-2.38a51.84,51.84,0,0,0,6.59-4.35C181.69,119,182.47,118,182.55,118.08Z" style="fill:#ff9a6c"/><path d="M229.56,115.27a6.17,6.17,0,0,1-1.39.11l-3.78.1c-3.19.06-7.6.11-12.47.12h-2.65l.11,0c-7.81,3.36-13.92,5.65-14,5.34,0,0,.38-.13,1.07-.41l2.92-1.21,9.82-4.21.05,0h2.7c4.87,0,9.28,0,12.47,0l3.78.07A6.79,6.79,0,0,1,229.56,115.27Z" style="fill:#ff9a6c"/><path d="M236.67,123.61a5.77,5.77,0,0,1-1.31.18l-3.59.3c-3,.23-7.22.51-11.85.79l-3.4.19h.08c-3.56,1.4-6.68,2.6-8.92,3.44l-2.64,1a4.72,4.72,0,0,1-1,.29,4.39,4.39,0,0,1,.91-.46l2.58-1.12c2.21-.92,5.31-2.19,8.86-3.61l0,0h0l3.4-.21c4.63-.28,8.82-.5,11.86-.63l3.6-.13A5.65,5.65,0,0,1,236.67,123.61Z" style="fill:#ff9a6c"/><path d="M235.75,131.47c0,.15-6,1.95-13.46,4s-13.58,3.64-13.61,3.5,6-1.94,13.46-4S235.71,131.33,235.75,131.47Z" style="fill:#ff9a6c"/><path d="M190.39,124.85c0,.09-.48.16-1.21.44a6.79,6.79,0,0,0-2.46,1.7,6.86,6.86,0,0,0-1.48,2.6c-.22.74-.24,1.24-.33,1.24a2.23,2.23,0,0,1,0-1.33,6,6,0,0,1,4.19-4.57C189.87,124.72,190.39,124.79,190.39,124.85Z" style="fill:#ff9a6c"/><path d="M194.38,131.86c0,.09-.46.17-1.15.47a5.61,5.61,0,0,0-2.24,1.78,5.5,5.5,0,0,0-1,2.68,8.76,8.76,0,0,1-.1,1.24c-.06,0-.27-.45-.28-1.26a5,5,0,0,1,1-3A5,5,0,0,1,193.1,132C193.88,131.74,194.38,131.8,194.38,131.86Z" style="fill:#ff9a6c"/><path d="M198.38,140.65c.09.12-.7.73-1,1.84s0,2-.17,2.1-.24-.17-.36-.59a2.93,2.93,0,0,1,0-1.66,3,3,0,0,1,.9-1.41C198.08,140.66,198.35,140.59,198.38,140.65Z" style="fill:#ff9a6c"/><path d="M117.43,227.54a2.32,2.32,0,0,1-.34.39l-1,1c-1,.95-2.26,2.22-3.82,3.77-3.24,3.17-7.7,7.57-12.71,12.35s-9.66,9-13.16,11.88c-1.73,1.46-3.18,2.6-4.19,3.36l-1.18.86a1.87,1.87,0,0,1-.44.28s.12-.14.37-.36l1.12-.94c1-.81,2.38-2,4.08-3.48,3.42-3,8-7.22,13-12L112,232.47c1.65-1.56,3-2.81,3.94-3.65l1.1-1A1.55,1.55,0,0,1,117.43,227.54Z" style="fill:#ff9a6c"/><path d="M287.11,174.7c-2.33-5.84-9.46-6.72-14.95-5.94l-1.7.23.71,2.93s2.15-.52,2.52-.55a21.9,21.9,0,0,1,3.53,0c2.47.21,5.41,1.1,6.8,3.32a8.26,8.26,0,0,1,1,4.93c0,.2,0,.39-.05.59s0,.2,0,.31v.09c-.08.53-.16,1-.26,1.56-.53,2.78-1.28,5.51-2.06,8.22-2.13,7.38-4.64,14.65-7.2,21.89s-5.14,14.17-7.82,21.21q-1.4,3.66-2.81,7.31c-.46,1.18-1,2.35-1.39,3.56a1.11,1.11,0,0,1-.07.16,1.39,1.39,0,0,0,2.69.74c1.23-3.12,2.43-6.25,3.63-9.38q4-10.56,7.86-21.21c2.69-7.52,5.31-15.08,7.56-22.74.83-2.83,1.63-5.67,2.2-8.57S288.22,177.48,287.11,174.7Z" style="fill:#e0e0e0"/><path d="M287.11,174.7a6.7,6.7,0,0,1,.57,1.83,15.61,15.61,0,0,1-.08,5.49c-.76,4.72-2.73,11.35-5.35,19.46-1.32,4.05-2.85,8.46-4.53,13.18s-3.59,9.73-5.54,15c-1,2.64-1.94,5.36-3,8.11L267.55,242c-.27.7-.54,1.41-.82,2.12l-.41,1.06a2.22,2.22,0,0,1-.69,1.06,1.5,1.5,0,0,1-1.29.33,1.72,1.72,0,0,1-1.09-.76,1.46,1.46,0,0,1-.19-1.35l.42-1.07,1.71-4.41c1.13-3,2.3-5.94,3.4-9,2.51-6.83,5-13.46,7.3-19.86s4.35-12.57,6.09-18.44c.86-2.94,1.68-5.79,2.26-8.59a23,23,0,0,0,.57-4.12,7.73,7.73,0,0,0-.8-3.81,5.86,5.86,0,0,0-2.71-2.48,11,11,0,0,0-3.46-1,20,20,0,0,0-3.44-.12,6.76,6.76,0,0,0-1.63.24l-1.56.34-.17,0,0-.17c-.26-1.08-.48-2-.7-2.93l0-.17.17,0a26.29,26.29,0,0,1,8.09-.22,12.56,12.56,0,0,1,5.58,2.14,9,9,0,0,1,2.49,2.78,10.67,10.67,0,0,1,.52,1.17,1.64,1.64,0,0,1-.16-.28c-.1-.19-.23-.49-.44-.85a9.13,9.13,0,0,0-2.51-2.68,12.51,12.51,0,0,0-5.52-2,26.16,26.16,0,0,0-8,.29l.13-.2.71,2.93-.2-.12,1.59-.36a7.66,7.66,0,0,1,1.66-.26,20.82,20.82,0,0,1,3.51.11,11.51,11.51,0,0,1,3.59,1,6.34,6.34,0,0,1,2.9,2.65,8.12,8.12,0,0,1,.87,4,22.62,22.62,0,0,1-.56,4.22c-.58,2.81-1.39,5.68-2.25,8.62-1.72,5.89-3.8,12.07-6.06,18.49s-4.78,13-7.28,19.87c-1.11,3.06-2.27,6-3.41,9l-1.7,4.38-.43,1.1a.9.9,0,0,0,.13.86,1.08,1.08,0,0,0,1.61.31,1.72,1.72,0,0,0,.53-.84l.41-1.07c.28-.7.55-1.41.82-2.11.55-1.4,1.09-2.79,1.62-4.16,1.08-2.75,2.05-5.46,3-8.1,2-5.28,3.83-10.29,5.58-15s3.24-9.11,4.59-13.15c2.67-8.08,4.68-14.69,5.5-19.38a15.78,15.78,0,0,0,.18-5.43A15,15,0,0,0,287.11,174.7Z" style="fill:#263238"/><path d="M219.28,251.29c-2.32-2.13-4.63-4.29-6.93-6.45q-7.84-7.4-15.57-14.93c-5.58-5.46-11.12-11-16.42-16.72-2.08-2.26-4.13-4.54-6.06-6.93l-.6-.75-.12-.15-.28-.38c-.32-.42-.62-.84-.92-1.27a12.43,12.43,0,0,1-1.76-3.39c-1-3.09.5-5.65,2.85-7.44a19.2,19.2,0,0,1,3.7-2.15l.33-.14.3-.12.38-.15a3.74,3.74,0,0,0,.8.51,2.29,2.29,0,0,0,2.07,0,2.1,2.1,0,0,0,.95-1.44,3.73,3.73,0,0,0-.16-1.75,2.77,2.77,0,0,0-1.8-2,2.11,2.11,0,0,0-2,.81,2.9,2.9,0,0,0-.53,1.12c-4.26,1.52-8.84,4.52-9.76,9-.67,3.29.73,6.38,2.6,9a80.87,80.87,0,0,0,5.31,6.5c5.14,5.81,10.62,11.32,16.13,16.77s11,10.77,16.65,16.07c2.91,2.75,5.79,5.57,8.8,8.22l.13.12C218.63,254.47,220.6,252.51,219.28,251.29Z" style="fill:#e0e0e0"/><path d="M219.28,251.29l.09.09a.94.94,0,0,1,.23.29,1.25,1.25,0,0,1-.13,1.39,1.58,1.58,0,0,1-.89.6,1.4,1.4,0,0,1-1.25-.29c-.7-.61-1.47-1.34-2.35-2.15l-6.41-5.93-8.36-8C194,231.36,186.6,224.34,178.85,216c-1.93-2.08-3.89-4.24-5.81-6.52-1-1.14-1.9-2.32-2.79-3.56a17.27,17.27,0,0,1-2.28-4.05,9.8,9.8,0,0,1-.63-4.72,9.23,9.23,0,0,1,.65-2.35,10.1,10.1,0,0,1,1.26-2.09,18.05,18.05,0,0,1,8.12-5.4l-.17.19a3,3,0,0,1,.7-1.37,2.52,2.52,0,0,1,1.44-.79,2.08,2.08,0,0,1,1.6.43,4.06,4.06,0,0,1,1.35,2.77,2.27,2.27,0,0,1-3,2.69,5,5,0,0,1-1.31-.72l.26,0a19.62,19.62,0,0,0-3.9,2,9.32,9.32,0,0,0-3,3,5.64,5.64,0,0,0-.71,4,10.06,10.06,0,0,0,1.68,3.73,60.43,60.43,0,0,0,5.15,6.33c1.75,2,3.45,4,5.21,5.82,7,7.38,13.48,13.75,19,19s9.82,9.54,12.89,12.41l3.5,3.32.9.88a2.28,2.28,0,0,1,.29.3A2.85,2.85,0,0,1,219,251l-.93-.83-3.56-3.26c-3.12-2.83-7.5-7.07-13-12.3s-12-11.55-19.06-18.93c-1.77-1.82-3.49-3.8-5.25-5.82a60.85,60.85,0,0,1-5.2-6.36,10.65,10.65,0,0,1-1.76-3.92,6.18,6.18,0,0,1,.76-4.32,9.87,9.87,0,0,1,3.14-3.16,20.21,20.21,0,0,1,4-2.05l.11,0,.15.08a4.85,4.85,0,0,0,1.13.63,2,2,0,0,0,1.23,0,2,2,0,0,0,1-2.12,3.6,3.6,0,0,0-1.15-2.4,1.7,1.7,0,0,0-2.32.3,2.62,2.62,0,0,0-.57,1.14l0,.14-.13.05a17.54,17.54,0,0,0-7.88,5.21,10.13,10.13,0,0,0-1.2,2,9.33,9.33,0,0,0-.61,2.2,9.18,9.18,0,0,0,.6,4.46,17.32,17.32,0,0,0,2.21,3.94c.88,1.22,1.81,2.4,2.76,3.53,1.91,2.27,3.86,4.43,5.78,6.52,7.71,8.32,15.12,15.36,21.27,21.33l8.29,8.06,6.35,6,2.31,2.18a1.25,1.25,0,0,0,1.12.28,1.51,1.51,0,0,0,.84-.54,1.19,1.19,0,0,0,.16-1.3A4.69,4.69,0,0,0,219.28,251.29Z" style="fill:#263238"/><path d="M280.82,312.68c-9.92-7.21-22.64-3.19-33.85-4.52l-.52-.07-.85-.16a17.59,17.59,0,0,1-1.73-.45l-.75-.28h0l-.35-.17a10.36,10.36,0,0,1-1.43-.85l0,0-.18-.14c-.27-.23-.55-.45-.81-.68A17.71,17.71,0,0,1,238.9,304a10.4,10.4,0,0,1-1.86-2.7,6,6,0,0,1-.38-4.11,10.38,10.38,0,0,1,2.29-4,55.74,55.74,0,0,1,4.34-3.93,19.83,19.83,0,0,0,6.22-12.38,18.64,18.64,0,0,0,0-4.09,18.11,18.11,0,0,0,11.1-10l9-22.34-5.51-2.21-8.9,22.2a12.09,12.09,0,0,1-19.26,4L216,246.1l-4,4.37,19.89,18.33a17.93,17.93,0,0,0,12.2,4.76h.33c.49,0,1,0,1.45-.09a16.12,16.12,0,0,1-2.45,9.86,19.31,19.31,0,0,1-4.35,4.58,22.62,22.62,0,0,0-4,4.15,10.56,10.56,0,0,0-1.63,10.2,15.93,15.93,0,0,0,7.87,8.18c4.79,2.13,10.36,1.74,15.48,1.57,5.82-.2,11.45-.47,16.81,1.21a17.55,17.55,0,0,1,6.76,3.88,21,21,0,0,1,5.18,8.34,25.64,25.64,0,0,1,.78,15,35.18,35.18,0,0,1-5.87,12.22c-9.49,12.9-27,17.9-42,13-4-1.3-7.79-3.11-11.63-4.71l-13.91-5.8-.88-.36a1.85,1.85,0,0,0-2.28,1.29,1.89,1.89,0,0,0,1.29,2.28q11.7,4.88,23.39,9.75a42,42,0,0,0,44.68-8.29c6.76-6.5,11.6-15.79,11.73-25.28C291,326.38,287.51,317.55,280.82,312.68Z" style="fill:#455a64"/><path d="M280.82,312.68s.41.3,1.19.91a22.11,22.11,0,0,1,3.07,3.15,25.46,25.46,0,0,1,3.61,6.16,29.32,29.32,0,0,1,2.2,9.48c.54,7.34-2.17,16.62-9,24.62-.85,1-1.77,2-2.73,2.91l-1.53,1.36-.77.69-.83.63a40.6,40.6,0,0,1-7.33,4.56,42.18,42.18,0,0,1-18.16,4.2,40.19,40.19,0,0,1-10-1.12,62.68,62.68,0,0,1-9.93-3.54l-10.11-4.21-5.21-2.16-2.63-1.1-1.33-.55a3.49,3.49,0,0,1-1.31-.78,1.91,1.91,0,0,1-.56-1.48,2,2,0,0,1,.7-1.42,2,2,0,0,1,1.49-.57,2.59,2.59,0,0,1,.77.23l.68.29,5.47,2.27c3.68,1.55,7.43,3.07,11.21,4.69a71.83,71.83,0,0,0,11.68,4.31,38.7,38.7,0,0,0,12.68.81,39.39,39.39,0,0,0,12.55-3.45,36.07,36.07,0,0,0,18.11-19.22,29.52,29.52,0,0,0,1.81-6.67,25.28,25.28,0,0,0,0-6.95A26.8,26.8,0,0,0,284.7,324a20.19,20.19,0,0,0-3.78-6,16.46,16.46,0,0,0-5.83-4,26.22,26.22,0,0,0-7-1.66c-4.82-.51-9.74-.11-14.68,0A40.74,40.74,0,0,1,246,312a16.63,16.63,0,0,1-7-2.67,17.07,17.07,0,0,1-3.88-3.8,13.08,13.08,0,0,1-2.31-4.9,10.35,10.35,0,0,1,.39-5.38,14,14,0,0,1,2.74-4.61,27.51,27.51,0,0,1,3.85-3.64,17.17,17.17,0,0,0,3.47-3.81,15.9,15.9,0,0,0,2.43-9.74l.29.25a18.3,18.3,0,0,1-10.56-2.15,20,20,0,0,1-4.31-3.23l-3.9-3.6-15.3-14.1-.19-.18.18-.19,4-4.36.18-.19.18.17,14.45,13.33,3.53,3.25a27.55,27.55,0,0,0,3.58,3.05,11.9,11.9,0,0,0,17.19-5.18l.84-2.08,1.66-4.13q3.29-8.21,6.42-16l.09-.2.2.08,5.51,2.21.2.08-.08.2-7.68,19.11c-.64,1.52-1.14,3.06-1.92,4.5a18.23,18.23,0,0,1-10.61,8.78l.13-.19a19.83,19.83,0,0,1-2.29,11.45,19.29,19.29,0,0,1-3.3,4.49c-1.29,1.31-2.74,2.35-4,3.53a11.85,11.85,0,0,0-3,4,5.92,5.92,0,0,0-.13,4.63,10.32,10.32,0,0,0,2.64,3.69,10.77,10.77,0,0,0,3.5,2.56h0a25.66,25.66,0,0,0,8.68,1.26c2.76,0,5.35-.08,7.75-.14a53.62,53.62,0,0,1,12.12.62,23.64,23.64,0,0,1,7,2.49c1.43.87,2.12,1.38,2.12,1.38l-.55-.33c-.36-.21-.87-.59-1.61-1a24.09,24.09,0,0,0-7-2.42,54.47,54.47,0,0,0-12.09-.55c-2.4.08-5,.2-7.77.17a25.59,25.59,0,0,1-8.77-1.24h0a21.65,21.65,0,0,1-1.9-1.1,18.21,18.21,0,0,1-1.67-1.51,10.45,10.45,0,0,1-2.72-3.78,6.28,6.28,0,0,1,.11-4.85,12.58,12.58,0,0,1,3-4.14c1.27-1.2,2.72-2.24,4-3.52a19.57,19.57,0,0,0,5.46-15.67v-.15l.14-.05a17.93,17.93,0,0,0,7.62-4.8,17.14,17.14,0,0,0,2.75-3.81c.75-1.39,1.26-3,1.9-4.47q3.66-9.17,7.65-19.12l.12.28-5.51-2.2.28-.12q-3.12,7.8-6.41,16c-.54,1.36-1.09,2.74-1.65,4.13l-.84,2.08A12.36,12.36,0,0,1,237.48,266a28.74,28.74,0,0,1-3.66-3.09l-3.53-3.26-14.45-13.31.36,0-4,4.37,0-.36,15.3,14.1,3.9,3.59a19.33,19.33,0,0,0,4.21,3.16,17.79,17.79,0,0,0,10.26,2.08l.27,0,0,.27a16.46,16.46,0,0,1-2.51,10.07,17.78,17.78,0,0,1-3.57,3.92,27.38,27.38,0,0,0-3.79,3.58,13.29,13.29,0,0,0-2.64,4.44,9.83,9.83,0,0,0-.38,5.1,12.45,12.45,0,0,0,2.23,4.69,16.37,16.37,0,0,0,3.75,3.68,16.11,16.11,0,0,0,6.83,2.58,40.32,40.32,0,0,0,7.37.34c4.93-.11,9.85-.51,14.75,0a26.57,26.57,0,0,1,7.14,1.7,17,17,0,0,1,6,4.11,21.28,21.28,0,0,1,3.88,6.1,27.28,27.28,0,0,1,1.92,6.89,25.59,25.59,0,0,1,0,7.1,30.15,30.15,0,0,1-1.84,6.79A36.53,36.53,0,0,1,266.91,364a39.66,39.66,0,0,1-12.72,3.49,38.86,38.86,0,0,1-12.84-.83,72.62,72.62,0,0,1-11.76-4.34c-3.76-1.63-7.52-3.16-11.19-4.7l-5.48-2.29-.68-.28a2,2,0,0,0-.62-.2,1.58,1.58,0,0,0-1.16.45,1.54,1.54,0,0,0-.12,2.26,3,3,0,0,0,1.16.68l1.33.56,2.63,1.1,5.2,2.17,10.11,4.22a62.72,62.72,0,0,0,9.86,3.54,40.43,40.43,0,0,0,9.94,1.12,42,42,0,0,0,18-4.13,39.94,39.94,0,0,0,7.28-4.5l.82-.63.77-.68,1.52-1.35c1-.93,1.88-1.89,2.72-2.88,6.77-7.92,9.49-17.12,9-24.4a29.18,29.18,0,0,0-2.14-9.44A25.55,25.55,0,0,0,285,316.8a23.4,23.4,0,0,0-3-3.17C281.2,313,280.82,312.68,280.82,312.68Z" style="fill:#263238"/><path d="M249.4,271.82c-.09,0-.11-.37-.4-.84a1.74,1.74,0,0,0-1.66-.89A1.92,1.92,0,0,0,246,271.5c-.15.52-.08.89-.16.91s-.29-.33-.22-1a2.28,2.28,0,0,1,.41-1.06,2,2,0,0,1,1.18-.81,1.78,1.78,0,0,1,1.4.36,2,2,0,0,1,.7.89C249.59,271.42,249.46,271.83,249.4,271.82Z" style="fill:#263238"/><path d="M264.57,240.74a5.22,5.22,0,0,1-.31,1.2c-.24.75-.6,1.84-1.07,3.18-.95,2.67-2.34,6.33-4,10.31-.85,2-1.69,3.87-2.48,5.57a22.2,22.2,0,0,1-2.51,4.34,9,9,0,0,1-2.51,2.27,6.73,6.73,0,0,1-.84.39c-.2.07-.3.1-.31.08a10.6,10.6,0,0,1,1-.65,9.65,9.65,0,0,0,2.33-2.32c1.66-2.25,3.06-5.95,4.79-9.89s3.14-7.6,4.17-10.24l1.23-3.11A6.33,6.33,0,0,1,264.57,240.74Z" style="fill:#fff"/><path d="M246.87,273.55c-.13.05-.41-.46-.29-1.14s.58-1.05.69-1-.06.52-.16,1.05S247,273.51,246.87,273.55Z" style="fill:#fff"/><path d="M282.34,315.79c0,.07-.95-.59-2.49-1.51a33.54,33.54,0,0,0-13.12-4.53c-1.78-.23-2.89-.26-2.89-.35a10.81,10.81,0,0,1,2.93,0A28.06,28.06,0,0,1,280.06,314,11.23,11.23,0,0,1,282.34,315.79Z" style="fill:#fff"/><path d="M287.76,324.19a15.91,15.91,0,0,1-1-2.39,16.86,16.86,0,0,1-1.08-2.35c.1-.1,1,.76,1.58,2.13A4.21,4.21,0,0,1,287.76,324.19Z" style="fill:#fff"/><path d="M235.48,293.88a13,13,0,0,0-.62,8.35,7.77,7.77,0,0,1,.62-8.35Z" style="fill:#fff"/><circle cx="208.76" cy="351.08" r="18.31" transform="translate(-196.08 405.33) rotate(-66.9)" style="fill:#e0e0e0"/><path d="M190.78,354.54a1.48,1.48,0,0,1-.07-.29c0-.22-.08-.51-.14-.86a8.35,8.35,0,0,1-.16-1.41,12.41,12.41,0,0,1,0-1.94,17,17,0,0,1,1-5.22,18.46,18.46,0,0,1,10.54-11,18.61,18.61,0,0,1,9.72-1.07,17.35,17.35,0,0,1,5.09,1.58,20.49,20.49,0,0,1,2.41,1.35,21.46,21.46,0,0,1,2.19,1.77A18.45,18.45,0,0,1,225.52,359a20.94,20.94,0,0,1-1.39,2.45,20.33,20.33,0,0,1-1.73,2.15,17.21,17.21,0,0,1-4.15,3.36,18.47,18.47,0,0,1-9.41,2.6,18.25,18.25,0,0,1-8.3-2,18.45,18.45,0,0,1-5.57-4.3,17.44,17.44,0,0,1-2.88-4.47,12.5,12.5,0,0,1-.7-1.81,7.78,7.78,0,0,1-.38-1.36c-.08-.35-.14-.64-.19-.86a1.58,1.58,0,0,1,0-.29,28.85,28.85,0,0,0,1.5,4.23,17.52,17.52,0,0,0,2.92,4.36,18.1,18.1,0,0,0,22.8,3.45,16.92,16.92,0,0,0,4-3.28,20.07,20.07,0,0,0,1.68-2.1,19.83,19.83,0,0,0,1.34-2.39,18,18,0,0,0-4-20.94,18.42,18.42,0,0,0-2.13-1.72,20.82,20.82,0,0,0-2.33-1.33,17,17,0,0,0-5-1.55,18.16,18.16,0,0,0-19.9,11.65,17.44,17.44,0,0,0-1.1,5.13A29.6,29.6,0,0,0,190.78,354.54Z" style="fill:#263238"/><g style="opacity:0.30000000000000004"><path d="M196.65,355.51a12.33,12.33,0,1,0,9.78-14.44A12.32,12.32,0,0,0,196.65,355.51Z"/></g><path d="M196.65,352.55a12.33,12.33,0,1,0,9.78-14.44A12.34,12.34,0,0,0,196.65,352.55Z" style="fill:#e0e0e0"/><path d="M196.65,352.55a3.58,3.58,0,0,1-.17-.77,5.66,5.66,0,0,1-.11-.95,9.25,9.25,0,0,1,0-1.31,12.45,12.45,0,0,1,7.8-11,12.57,12.57,0,0,1,6.59-.74,11.79,11.79,0,0,1,3.45,1.07,11.57,11.57,0,0,1,3.12,2.12,12.48,12.48,0,0,1,3.82,6.84,12.63,12.63,0,0,1-1,7.78,12.69,12.69,0,0,1-4.93,5.4,12.48,12.48,0,0,1-6.39,1.75,12.42,12.42,0,0,1-11.31-7.29,8.8,8.8,0,0,1-.47-1.22,6,6,0,0,1-.25-.93,3.46,3.46,0,0,1-.13-.78,23.15,23.15,0,0,0,1,2.84,12.32,12.32,0,0,0,5.67,5.7,12.08,12.08,0,0,0,11.58-.5,12,12,0,0,0,4.71-5.2,12,12,0,0,0-2.69-14,11.66,11.66,0,0,0-3-2,11.26,11.26,0,0,0-3.31-1,12.21,12.21,0,0,0-14.1,11.23A21.86,21.86,0,0,0,196.65,352.55Z" style="fill:#263238"/><path d="M283.78,187.38c.05.35-.18.71-.78.79a1.46,1.46,0,0,1-.84-.12l.15-.4a1,1,0,0,0,.62.11c.25,0,.39-.15.36-.32s-.15-.24-.43-.21l-.22,0,0-.32.37-.55-.9.12-.05-.39,1.48-.19,0,.31-.41.61A.6.6,0,0,1,283.78,187.38Z" style="fill:#263238"/><path d="M285.75,187.1a.73.73,0,0,1-.71.81A.93.93,0,0,1,284,187a1,1,0,0,1,.93-1.27,1.09,1.09,0,0,1,.61.07l-.14.38a.68.68,0,0,0-.4,0,.56.56,0,0,0-.52.68.73.73,0,0,1,.5-.25A.67.67,0,0,1,285.75,187.1Zm-.47.09c0-.2-.18-.3-.4-.27a.33.33,0,0,0-.32.36c0,.18.17.3.41.27A.32.32,0,0,0,285.28,187.19Z" style="fill:#263238"/><path d="M285.72,186a.52.52,0,0,1,.51-.57.51.51,0,0,1,.63.42.52.52,0,0,1-.5.58A.54.54,0,0,1,285.72,186Zm.82-.1a.23.23,0,0,0-.28-.22.24.24,0,0,0-.22.28.25.25,0,0,0,.29.22A.24.24,0,0,0,286.54,185.89Z" style="fill:#263238"/><path d="M393.4,383.74c-1.55-11.55-21.06-44.08-21.06-44.08l-38,18.56,4.82,8.07-52.87-6.05,2.76,33.85s62.39,16.87,73.4,18.33C380.94,414.88,395.56,400,393.4,383.74Z" style="fill:#ffbf9d"/><path d="M380.94,379.56a16,16,0,0,0-.5-1.9,10.13,10.13,0,0,0-3.06-4.25,17.46,17.46,0,0,0-7.06-3.34c-2.89-.73-6.15-1.3-9.55-1.86a165.32,165.32,0,0,0-17.62-1.83c-2.26-.12-4.1-.16-5.37-.21l-1.46-.05a1.61,1.61,0,0,1-.51-.05,1.77,1.77,0,0,1,.51-.06l1.46-.05c1.27,0,3.11,0,5.39,0a139.59,139.59,0,0,1,17.68,1.68c3.43.56,6.67,1.15,9.6,1.91a17.32,17.32,0,0,1,7.18,3.53,10,10,0,0,1,3,4.48,7.09,7.09,0,0,1,.3,1.44A2.29,2.29,0,0,1,380.94,379.56Z" style="fill:#ff9a6c"/><path d="M314.61,363.42,275.36,359l-33.29-16.4-18.2-1.14a2.48,2.48,0,0,0-2.42,3.5,9.25,9.25,0,0,0,4.67,5c4.73,2,11.37,2.05,11.37,2.05l9.16,4.89-14,4.34-11.43-5.72s-5.25-3.35-7.15.24a5.46,5.46,0,0,0,.23,6.07s-5.81.63-3,6.39c1.87,3.8,6.23,8,6.23,8s-1,4,.82,6.85c1.5,2.34,11.67,9,15.43,11.43a4.55,4.55,0,0,0,3,.7l37.12-4.21,40.67,9.94Z" style="fill:#ffbf9d"/><path d="M244.63,371.18a5.42,5.42,0,0,1-1.26.4c-.83.22-2,.49-3.55.75a52.91,52.91,0,0,1-5.34.66,10.1,10.1,0,0,1-1.57.05l-.83-.05c-.27,0-.54-.11-.82-.17a9.57,9.57,0,0,1-1.63-.5,14.9,14.9,0,0,1-1.61-.68,54.72,54.72,0,0,1-10-6.55c-1.19-.95-2.13-1.76-2.76-2.33a5.75,5.75,0,0,1-.95-.94,7,7,0,0,1,1.08.78l2.87,2.19a62.26,62.26,0,0,0,10,6.37,16.35,16.35,0,0,0,1.57.66,10,10,0,0,0,1.56.49c.26.05.52.13.78.17l.76,0a13,13,0,0,0,1.53,0c2-.13,3.8-.33,5.31-.54s2.72-.43,3.56-.58A7.34,7.34,0,0,1,244.63,371.18Z" style="fill:#ff9a6c"/><path d="M244.63,382.91a4.91,4.91,0,0,1-1.19.54,29.12,29.12,0,0,1-3.41,1,33.94,33.94,0,0,1-5.23.77,8.55,8.55,0,0,1-3.15-.28c-.54-.13-1.05-.36-1.59-.53s-1-.46-1.56-.7a56.75,56.75,0,0,1-9.78-6.47c-1.17-.93-2.09-1.73-2.71-2.29a5.14,5.14,0,0,1-.92-.92,6.92,6.92,0,0,1,1,.76l2.81,2.15a65.55,65.55,0,0,0,9.78,6.29,11.68,11.68,0,0,0,6,1.5,37.59,37.59,0,0,0,5.18-.65c1.46-.28,2.63-.6,3.43-.82A8.09,8.09,0,0,1,244.63,382.91Z" style="fill:#ff9a6c"/></g></svg>