<svg xmlns="http://www.w3.org/2000/svg" viewBox="29.05 9.54 450.6 482.31"><g id="freepik--background-complete--inject-204"><path d="M95.38,356c-.35-2.18-10.85-12.87-19.6-18.3s-2.45,13.44-2.45,13.44L69.48,356l-6.65,4.63v5.95l8,10.24h1.75l14.7,3.41,9.8-3.41s2.1-9.19,2.1-10.24S95.73,358.16,95.38,356Z" style="fill:#ebebeb"/><path d="M93.9,354.59a23.69,23.69,0,0,0-5,.54,20.68,20.68,0,0,0-10.18,6.18,30.74,30.74,0,0,0-6,10.45c-.51,1.47-.87,2.68-1.1,3.52a7.65,7.65,0,0,1-.4,1.3,5.8,5.8,0,0,1,.2-1.34,36.33,36.33,0,0,1,1-3.6,29,29,0,0,1,6-10.68,20.18,20.18,0,0,1,10.48-6.19,14.82,14.82,0,0,1,3.71-.34,8.69,8.69,0,0,1,1,.09C93.78,354.55,93.9,354.57,93.9,354.59Z" style="fill:#e0e0e0"/><path d="M97.1,365.72c0,.09-1.44.31-3.74.87a51.19,51.19,0,0,0-8.7,3,51.79,51.79,0,0,0-8,4.55c-1.94,1.35-3.06,2.29-3.12,2.23s.23-.29.73-.74,1.23-1.07,2.18-1.79a42.74,42.74,0,0,1,16.83-7.6c1.17-.24,2.12-.39,2.78-.46A3.9,3.9,0,0,1,97.1,365.72Z" style="fill:#e0e0e0"/><path d="M89.32,367.07a5.81,5.81,0,0,1,.23,1.88,22.06,22.06,0,0,1-.36,4.55,22.77,22.77,0,0,1-1.26,4.39,5.62,5.62,0,0,1-.88,1.68c-.15-.06,1-2.7,1.63-6.16S89.16,367.08,89.32,367.07Z" style="fill:#e0e0e0"/><path d="M84.56,357.65a28.27,28.27,0,0,0-7.35-1.81,20.94,20.94,0,0,0-5.33.3,4.25,4.25,0,0,0-2,.81s.07-.23.39-.49a4,4,0,0,1,1.54-.68,17.28,17.28,0,0,1,5.45-.46,17.57,17.57,0,0,1,5.32,1.25A6.64,6.64,0,0,1,84.56,357.65Z" style="fill:#e0e0e0"/><path d="M85.56,346.6a21.09,21.09,0,0,0-7,1.3,20.89,20.89,0,0,0-5.85,4,5.86,5.86,0,0,1,1.34-1.66,14,14,0,0,1,9.34-3.85A5.87,5.87,0,0,1,85.56,346.6Z" style="fill:#e0e0e0"/><rect x="206.42" y="44.26" width="68.41" height="71.31" style="fill:#e0e0e0"/><rect x="201.79" y="44.26" width="68.41" height="71.31" style="fill:#455a64"/><path d="M270.22,115.6H201.76V44.24h68.46Z" style="fill:#f5f5f5"/><rect x="210.98" y="53.85" width="50.02" height="52.14" style="fill:#fafafa"/><path d="M211,106.34a8.16,8.16,0,0,1-1.23,1.43c-.8.84-1.92,2-3.18,3.22s-2.42,2.35-3.27,3.13a8.16,8.16,0,0,1-1.44,1.21,7,7,0,0,1,1.22-1.43c.8-.85,1.93-2,3.19-3.23s2.42-2.35,3.27-3.14A7.79,7.79,0,0,1,211,106.34Z" style="fill:#e0e0e0"/><path d="M261,106.21a7.76,7.76,0,0,1,1.43,1.23c.85.8,2,1.92,3.23,3.18s2.34,2.42,3.13,3.27a8.33,8.33,0,0,1,1.2,1.44,7.3,7.3,0,0,1-1.43-1.22c-.84-.8-2-1.93-3.23-3.19s-2.35-2.42-3.13-3.27A7.64,7.64,0,0,1,261,106.21Z" style="fill:#e0e0e0"/><path d="M260.86,54a8.36,8.36,0,0,1,1.24-1.44c.8-.84,1.92-2,3.18-3.22s2.41-2.34,3.26-3.13A8.58,8.58,0,0,1,270,45a8.16,8.16,0,0,1-1.23,1.43c-.8.84-1.92,2-3.18,3.23s-2.43,2.35-3.28,3.13A7.29,7.29,0,0,1,260.86,54Z" style="fill:#e0e0e0"/><path d="M210.85,54.12a7.94,7.94,0,0,1-1.44-1.24c-.84-.8-2-1.92-3.22-3.18s-2.35-2.41-3.13-3.26a8,8,0,0,1-1.2-1.45,8.37,8.37,0,0,1,1.42,1.23c.85.8,2,1.92,3.23,3.18s2.35,2.43,3.14,3.28A8.33,8.33,0,0,1,210.85,54.12Z" style="fill:#e0e0e0"/><path d="M260.86,106s0-.09,0-.25V105c0-.66,0-1.6,0-2.82,0-2.47,0-6.06-.05-10.62,0-9.13-.06-22.14-.1-37.72l.19.19-49.87,0h0l.22-.22c0,19.14,0,37,0,52.14l-.19-.19,36.12.1,10.14,0,2.69,0h0l-2.65,0-10.1,0-36.24.1h-.19V106c0-15.1,0-33,0-52.14v-.22H211l49.87,0h.2v.19c0,15.63-.08,28.68-.1,37.84,0,4.55,0,8.12,0,10.58,0,1.21,0,2.14,0,2.78,0,.3,0,.53,0,.71A.82.82,0,0,1,260.86,106Z" style="fill:#e0e0e0"/><path d="M226.77,94.05a11.06,11.06,0,0,1-.49-14.55c1.39-1.6,3.24-2.76,4.52-4.44,2.79-3.64,2.75-9.37,6.63-11.8,2.83-1.78,6.9-.77,9,1.86a9.52,9.52,0,0,1,.89,9.51c-1,2.26-2.71,4.18-3.42,6.54s-.31,5.07-1.06,7.48c-.9,2.91-4,4.75-6.84,5.81a12.85,12.85,0,0,1-9.2-.41" style="fill:#f5f5f5"/><path d="M240.84,70a9.53,9.53,0,0,1-.49,1.38c-.33.88-.86,2.13-1.55,3.66a100.54,100.54,0,0,1-6.18,11.58A102.8,102.8,0,0,1,225,97.35c-1.07,1.3-1.95,2.33-2.59,3a10,10,0,0,1-1,1,9.17,9.17,0,0,1,.89-1.16c.59-.72,1.44-1.78,2.47-3.1a126.12,126.12,0,0,0,7.49-10.73,122.93,122.93,0,0,0,6.27-11.48c.73-1.51,1.3-2.74,1.68-3.6A9.23,9.23,0,0,1,240.84,70Z" style="fill:#e0e0e0"/><path d="M230.49,79.07a15.49,15.49,0,0,1,.4,2.63c.2,1.65.44,3.94.7,6.53l-.34-.17,1.08-.63c2.5-1.46,4.78-2.76,6.44-3.68a21,21,0,0,1,2.73-1.41A20.11,20.11,0,0,1,238.93,84c-1.62,1-3.87,2.33-6.37,3.79l-1.08.63-.3.17,0-.34c-.24-2.6-.43-4.9-.55-6.55A17.16,17.16,0,0,1,230.49,79.07Z" style="fill:#e0e0e0"/><path d="M243.63,75.21a8.94,8.94,0,0,1-1.69.94c-1.06.53-2.55,1.24-4.2,2l-.51.24-.27.12-.05-.29c-.26-1.67-.47-3.15-.6-4.23a6.89,6.89,0,0,1-.12-1.74,7.09,7.09,0,0,1,.42,1.69c.21,1.07.48,2.54.75,4.21L237,78l.52-.24c1.65-.75,3.15-1.41,4.25-1.87A8.21,8.21,0,0,1,243.63,75.21Z" style="fill:#e0e0e0"/><rect x="72.07" y="86.91" width="99.52" height="103.75" style="fill:#e0e0e0"/><rect x="65.33" y="86.91" width="99.52" height="103.75" style="fill:#455a64"/><path d="M164.88,190.69H65.3V86.88h99.58Z" style="fill:#f5f5f5"/><rect x="78.71" y="100.86" width="72.77" height="75.85" style="fill:#fafafa"/><path d="M78.71,177.21a12.65,12.65,0,0,1-1.8,2.09c-1.16,1.23-2.79,2.89-4.62,4.69s-3.52,3.41-4.76,4.55a11.31,11.31,0,0,1-2.1,1.75,11.89,11.89,0,0,1,1.78-2.08c1.17-1.22,2.8-2.89,4.64-4.7s3.52-3.41,4.76-4.55A11.85,11.85,0,0,1,78.71,177.21Z" style="fill:#e0e0e0"/><path d="M151.47,177a11.27,11.27,0,0,1,2.09,1.79c1.23,1.16,2.89,2.8,4.69,4.63s3.41,3.51,4.55,4.75a10.79,10.79,0,0,1,1.75,2.11,12.3,12.3,0,0,1-2.08-1.79c-1.22-1.16-2.89-2.8-4.69-4.64s-3.42-3.52-4.56-4.76A12.51,12.51,0,0,1,151.47,177Z" style="fill:#e0e0e0"/><path d="M151.27,101.06a12.65,12.65,0,0,1,1.8-2.09c1.16-1.23,2.8-2.89,4.63-4.69s3.51-3.41,4.75-4.55a11.85,11.85,0,0,1,2.1-1.75,11.35,11.35,0,0,1-1.78,2.08c-1.17,1.22-2.8,2.89-4.64,4.7s-3.52,3.41-4.76,4.56A11,11,0,0,1,151.27,101.06Z" style="fill:#e0e0e0"/><path d="M78.51,101.24a11.66,11.66,0,0,1-2.09-1.79c-1.23-1.16-2.89-2.8-4.69-4.63s-3.41-3.51-4.55-4.75A11.85,11.85,0,0,1,65.43,88a11.35,11.35,0,0,1,2.08,1.78c1.22,1.16,2.89,2.8,4.7,4.64s3.41,3.52,4.55,4.76A11.35,11.35,0,0,1,78.51,101.24Z" style="fill:#e0e0e0"/><path d="M151.27,176.71s0-.13,0-.37,0-.61,0-1.06c0-.95,0-2.32,0-4.09,0-3.6,0-8.82-.07-15.46,0-13.29-.09-32.21-.15-54.87l.28.28-72.56,0h0l.32-.32c0,27.84,0,53.88,0,75.85l-.27-.28,52.54.14,14.76.08,3.9,0h1a2.37,2.37,0,0,1,.35,0H151l-1,0-3.86,0-14.69.07L78.71,177h-.28v-.28c0-22,0-48-.05-75.85v-.33h.33l72.56,0h.29v.29c-.06,22.73-.11,41.72-.15,55.05,0,6.61,0,11.81-.07,15.39,0,1.76,0,3.11,0,4,0,.44,0,.78,0,1A1.23,1.23,0,0,1,151.27,176.71Z" style="fill:#e0e0e0"/><path d="M123.19,154.78a45.72,45.72,0,0,0-6.67-14.95c-1.17-1.7-2.69-3.47-4.75-3.62a4.72,4.72,0,0,0-4,2.1,9,9,0,0,0-1.42,4.47c-3.51-1.81-7.88-2.43-11.41-.65s-5.66,6.42-3.88,10,6.27,4.57,10.19,5.19a4.41,4.41,0,0,0-1.1,5.4,6.54,6.54,0,0,0,4.77,3.27,9.43,9.43,0,0,0,5.92-.57,34.15,34.15,0,0,0,12.38-10.59" style="fill:#f5f5f5"/><path d="M137.23,156.59a7.74,7.74,0,0,1-1.56,0c-1-.05-2.45-.17-4.23-.35-3.56-.36-8.33-1-13.86-2s-10.21-2.11-13.68-3c-1.73-.46-3.12-.86-4.08-1.16a7.13,7.13,0,0,1-1.47-.52,6.85,6.85,0,0,1,1.54.28l4.12.95c3.49.8,8.32,1.86,13.68,2.83s10.26,1.69,13.8,2.16l4.2.56A7,7,0,0,1,137.23,156.59Z" style="fill:#e0e0e0"/><path d="M111.2,139.38a4.36,4.36,0,0,1,.6,1c.34.66.8,1.64,1.31,2.89a44.62,44.62,0,0,1,2.73,10.23l0,.24-.23.1-.87.38a52.68,52.68,0,0,0-9.61,5.53c-2.31,1.67-3.63,2.85-3.7,2.77a4.67,4.67,0,0,1,.84-.92c.58-.55,1.45-1.33,2.58-2.22a45.21,45.21,0,0,1,9.63-5.76l.88-.38-.2.35a52.57,52.57,0,0,0-2.5-10.16C111.8,140.91,111.1,139.42,111.2,139.38Z" style="fill:#e0e0e0"/><path d="M102.51,143.61A18.77,18.77,0,0,1,104,146c.91,1.48,2.27,3.46,3.78,5.71l.26.39-.45.11-.91.22c-2.86.66-5.47,1.09-7.35,1.43a18.32,18.32,0,0,1-3.07.46,11.94,11.94,0,0,1,3-.91c1.87-.46,4.47-1,7.3-1.62l.9-.21-.19.49c-1.49-2.25-2.8-4.3-3.62-5.84A9.58,9.58,0,0,1,102.51,143.61Z" style="fill:#e0e0e0"/><path d="M129.24,135.65a45.94,45.94,0,0,0,4.47-15.76c.19-2,.15-4.39-1.33-5.82a4.71,4.71,0,0,0-4.44-1,9,9,0,0,0-4,2.51c-1.53-3.64-4.49-6.91-8.34-7.81s-8.46,1.3-9.35,5.15,1.89,7.53,4.49,10.52a4.39,4.39,0,0,0-4.31,3.44,6.52,6.52,0,0,0,1.57,5.56,9.49,9.49,0,0,0,4.91,3.36,34.33,34.33,0,0,0,16.29-.19" style="fill:#f5f5f5"/><path d="M129.25,115.33a3.92,3.92,0,0,1-.08,1.16c-.09.74-.28,1.81-.57,3.12a44.52,44.52,0,0,1-3.6,10l-.12.22-.24-.05-.93-.19a53.09,53.09,0,0,0-11-.94c-2.85.05-4.61.26-4.62.16a4.44,4.44,0,0,1,1.22-.28c.79-.12,1.95-.26,3.38-.34a44.91,44.91,0,0,1,11.2.76l.93.19-.36.18a52.12,52.12,0,0,0,3.75-9.77C128.86,116.93,129.15,115.31,129.25,115.33Z" style="fill:#e0e0e0"/><path d="M120.16,112.57a11.35,11.35,0,0,1,.17,2.73c0,1.69,0,4,0,6.68v.42l-.41-.12-.75-.2c-2.71-.75-5.15-1.46-6.91-2a13.76,13.76,0,0,1-2.82-1,13.63,13.63,0,0,1,2.94.57c1.79.44,4.25,1.08,7,1.83l.75.21-.41.3c.06-2.63.14-5,.23-6.66A13,13,0,0,1,120.16,112.57Z" style="fill:#e0e0e0"/><path d="M113.58,115a2.67,2.67,0,0,1,.48.41l1.29,1.26c.57.54,1.22,1.25,2,2.09s1.59,1.78,2.44,2.9a85.69,85.69,0,0,1,5.68,8,112.5,112.5,0,0,1,5.78,10.6,109.59,109.59,0,0,1,4.53,11.19,84.12,84.12,0,0,1,2.62,9.5c.15.68.28,1.34.41,2s.19,1.21.28,1.76c.17,1.1.32,2,.37,2.84s.1,1.31.14,1.8a2.53,2.53,0,0,1,0,.63,2.49,2.49,0,0,1-.14-.62c-.07-.48-.15-1.07-.26-1.78s-.27-1.72-.47-2.81q-.15-.83-.33-1.74c-.14-.62-.29-1.26-.45-1.94a96.85,96.85,0,0,0-2.74-9.41,119.31,119.31,0,0,0-4.55-11.1c-1.82-3.85-3.8-7.4-5.7-10.56s-3.81-5.89-5.54-8.09c-.82-1.12-1.63-2.09-2.34-2.94s-1.32-1.59-1.86-2.15l-1.2-1.35C113.7,115.15,113.56,115,113.58,115Z" style="fill:#e0e0e0"/><path d="M381.43,407.84c-23-14.07-29.76-42.39-30.46-68.17-.11-4.3-.86-8.8.95-12.69s6.43-6.76,10.38-5.18c3.28,1.3,4.9,4.93,6.87,7.89a25,25,0,0,0,10.66,9c2.82,1.26,6.25,1.92,8.86.26,3.58-2.27,3.71-7.41,3.42-11.68q-.8-11.94-1.6-23.87c-.29-4.27-.57-8.63.51-12.77s3.79-8.08,7.78-9.46,9.16.65,10.28,4.78c.46,1.72.22,3.54.44,5.31s1.18,3.68,2.89,4.07,3.37-.92,4.57-2.25c4.15-4.58,6.8-10.32,9.26-16s4.83-11.52,8.54-16.47,9-9,15.12-9.73,12.84,2.66,14.75,8.57-1.22,12.25-4.75,17.36a95.38,95.38,0,0,1-18.7,20.13c-1.28,1-2.68,2.16-3.1,3.77-.75,2.91,2.12,5.57,5,6.34,3.24.86,6.68.32,10,.51s7.05,1.44,8.51,4.51c2,4.26-1.36,9.06-4.77,12.27a82,82,0,0,1-23.32,15.43c-3.07,1.34-6.32,2.55-8.72,4.91s-3.69,6.3-2,9.21,5.7,3.64,9,2.83,6.09-2.78,9.15-4.15c5.74-2.57,13.34-2.63,17.41,2.21,2.68,3.19,3.18,7.82,2.17,11.87s-3.33,7.63-5.83,10.95c-8.74,11.61-20.24,21.23-33.57,26.78s-25.87,7.6-39.7,3.47" style="fill:#ebebeb"/><path d="M382.25,426.94a188.81,188.81,0,0,1,4.84-35.63,382.37,382.37,0,0,1,12.68-42.13l3.89-10.87c1.29-3.57,2.56-7.1,4-10.49a191.31,191.31,0,0,1,9.51-18.95c3.31-5.88,6.67-11.34,9.85-16.42s6.25-9.76,9.23-13.9a151.78,151.78,0,0,1,15.47-18.49c2-2,3.59-3.56,4.68-4.58l1.26-1.15a2.54,2.54,0,0,1,.44-.37,3.24,3.24,0,0,1-.39.43l-1.2,1.21c-1,1-2.61,2.61-4.57,4.68a160.14,160.14,0,0,0-15.24,18.6c-2.94,4.15-6,8.83-9.13,13.92s-6.49,10.56-9.78,16.44a192.19,192.19,0,0,0-9.42,18.89c-1.45,3.37-2.71,6.88-4,10.45l-3.89,10.87a392.54,392.54,0,0,0-12.72,42,190.93,190.93,0,0,0-5,35.48" style="fill:#e0e0e0"/><path d="M407.9,327.78a9.68,9.68,0,0,1-.53-1.8c-.29-1.16-.66-2.87-1.09-5-.87-4.22-1.86-10.08-2.93-16.55s-2.15-12.3-3.07-16.5c-.46-2.09-.84-3.79-1.13-4.95a9.25,9.25,0,0,1-.35-1.84,7.9,7.9,0,0,1,.65,1.76c.37,1.14.84,2.82,1.37,4.91,1.07,4.17,2.23,10,3.3,16.49l2.7,16.57.86,5A8.23,8.23,0,0,1,407.9,327.78Z" style="fill:#e0e0e0"/><path d="M462.19,314.17a12.72,12.72,0,0,1-2.17.4c-1.4.21-3.43.5-5.93.95-5,.85-11.86,2.26-19.36,4.15s-14.21,3.92-19,5.52c-2.42.78-4.35,1.47-5.7,1.93a12.3,12.3,0,0,1-2.11.66,11.87,11.87,0,0,1,2-.95c1.31-.55,3.22-1.32,5.62-2.17,4.78-1.74,11.49-3.85,19-5.76A193.73,193.73,0,0,1,454,315c2.51-.37,4.56-.59,6-.7A11.18,11.18,0,0,1,462.19,314.17Z" style="fill:#e0e0e0"/><path d="M387.7,390.26a3,3,0,0,1-.42-.65c-.28-.52-.63-1.16-1.06-1.93-.91-1.68-2.17-4.14-3.68-7.21-3-6.13-7-14.72-11.16-24.27s-8-18.18-10.94-24.36L357,324.53l-.92-2a2.51,2.51,0,0,1-.28-.72,3,3,0,0,1,.42.65c.28.52.63,1.15,1.06,1.93.91,1.67,2.17,4.14,3.68,7.21,3,6.12,7,14.72,11.16,24.27s8,18.17,10.94,24.36l3.46,7.31c.37.8.67,1.46.93,2A2.63,2.63,0,0,1,387.7,390.26Z" style="fill:#e0e0e0"/><path d="M459.24,362.29a2.52,2.52,0,0,1-.7.35l-2.08.84-7.66,3c-6.47,2.55-15.36,6.16-25.18,10.17s-18.76,7.54-25.28,10c-3.26,1.2-5.91,2.15-7.75,2.77l-2.13.7a2.7,2.7,0,0,1-.76.19,3,3,0,0,1,.71-.34l2.07-.84,7.66-3c6.47-2.54,15.36-6.16,25.19-10.16s18.75-7.54,25.27-10c3.26-1.21,5.91-2.16,7.75-2.77l2.13-.7A3,3,0,0,1,459.24,362.29Z" style="fill:#e0e0e0"/><path d="M56.91,380.34l-7.84,3.28,1.38,9.11-.32,6,11,2.58,9.11-3.85,6.25,1.06,3.17-4.76-2.11-8.9L75,379l-6.14-1.69s-4.13-6.46-4.5-6.35-6.51,1.37-6.51,1.37l-1.59,3.92.32,3.6" style="fill:#f5f5f5"/><path d="M61.22,401.2a13.38,13.38,0,0,1-1.58-2.75c-.88-1.75-1.85-4.3-3.21-6.91a16.63,16.63,0,0,0-2.36-3.39c-.84-.94-1.8-1.62-2.5-2.32s-1.26-1.25-1.64-1.64-.59-.61-.57-.64a16.5,16.5,0,0,1,2.46,2c.71.65,1.69,1.29,2.6,2.26a16.17,16.17,0,0,1,2.47,3.47c1.39,2.68,2.29,5.22,3.09,7S61.29,401.16,61.22,401.2Z" style="fill:#e0e0e0"/><path d="M77.11,390.44c-.07.06-.92-.93-2.49-2.31a29.64,29.64,0,0,0-14.52-6.95c-2.06-.35-3.37-.4-3.36-.49a3,3,0,0,1,.91-.05,17.54,17.54,0,0,1,2.5.18,26.57,26.57,0,0,1,14.72,7,20.4,20.4,0,0,1,1.71,1.83A3,3,0,0,1,77.11,390.44Z" style="fill:#e0e0e0"/><path d="M68.64,384.42a8.54,8.54,0,0,1,.23,2.48,24.39,24.39,0,0,1-.77,6,13.36,13.36,0,0,1-2.48,5.49,3.31,3.31,0,0,1-2.15,1.28,6.45,6.45,0,0,0,1.87-1.52,14.84,14.84,0,0,0,2.26-5.38,30.71,30.71,0,0,0,.9-5.84A21.4,21.4,0,0,1,68.64,384.42Z" style="fill:#e0e0e0"/><path d="M64.57,372.35a10.65,10.65,0,0,1,0,4.61,10.93,10.93,0,0,1-1.41,4.39c-.14-.06.52-2,.9-4.47S64.42,372.36,64.57,372.35Z" style="fill:#e0e0e0"/><path d="M74.81,387.89A11,11,0,0,1,70,397.44a24.89,24.89,0,0,0,3.18-4.38A24.79,24.79,0,0,0,74.81,387.89Z" style="fill:#e0e0e0"/><path d="M80.26,375.37l8.25-2,0-9.21,1.24-5.91L79.3,354l-9.59,2.41-6-2-3.87,4.22.73,9.11,1.6,6.25L68,376.57s3.09,7,3.47,7,6.64-.36,6.64-.36l2.17-3.63.24-3.61" style="fill:#f5f5f5"/><path d="M79.2,354.1a13.38,13.38,0,0,1,1.14,3c.61,1.86,1.17,4.53,2.11,7.32a16.43,16.43,0,0,0,1.82,3.71c.68,1.06,1.53,1.88,2.11,2.68s1.05,1.42,1.37,1.87.49.69.46.71A16.3,16.3,0,0,1,86.09,371c-.6-.75-1.47-1.54-2.22-2.64a15.72,15.72,0,0,1-1.91-3.8c-1-2.87-1.46-5.51-2-7.4S79.13,354.13,79.2,354.1Z" style="fill:#e0e0e0"/><path d="M61.85,362.29c.08-.05.77,1.06,2.11,2.66a29.61,29.61,0,0,0,13.28,9.1c2,.67,3.26.91,3.25,1a2.79,2.79,0,0,1-.92-.08,19.26,19.26,0,0,1-2.44-.57,26.5,26.5,0,0,1-13.46-9.22,18.82,18.82,0,0,1-1.41-2.07A3.25,3.25,0,0,1,61.85,362.29Z" style="fill:#e0e0e0"/><path d="M69.3,369.54a8.3,8.3,0,0,1,.15-2.49,24.17,24.17,0,0,1,1.67-5.77,13.32,13.32,0,0,1,3.3-5,3.2,3.2,0,0,1,2.32-.93,6.36,6.36,0,0,0-2.08,1.21,15,15,0,0,0-3.06,5,30.41,30.41,0,0,0-1.78,5.63A22.79,22.79,0,0,1,69.3,369.54Z" style="fill:#e0e0e0"/><path d="M71.46,382.09a11,11,0,0,1,.68-4.56,10.78,10.78,0,0,1,2.07-4.11c.13.07-.82,1.88-1.57,4.27S71.61,382.11,71.46,382.09Z" style="fill:#e0e0e0"/><path d="M63.73,365.16a9.45,9.45,0,0,1,2-5.15A9.34,9.34,0,0,1,70,356.47a24.14,24.14,0,0,0-3.82,3.84A24.61,24.61,0,0,0,63.73,365.16Z" style="fill:#e0e0e0"/><path d="M98.74,364.1l8.25-2.05,0-9.2,1.24-5.92L97.78,342.7l-9.59,2.4-6-2-3.87,4.22.73,9.12,1.6,6.25,5.81,2.61s3.09,7,3.47,7,6.65-.36,6.65-.36l2.17-3.63.24-3.6" style="fill:#fafafa"/><path d="M97.68,342.82a13.06,13.06,0,0,1,1.14,3c.61,1.87,1.17,4.53,2.11,7.32a16.87,16.87,0,0,0,1.82,3.71c.69,1.06,1.53,1.88,2.11,2.68s1.06,1.42,1.38,1.87.48.69.45.72a17.21,17.21,0,0,1-2.11-2.36,33.3,33.3,0,0,1-2.23-2.64,16.27,16.27,0,0,1-1.91-3.8c-1-2.87-1.46-5.51-2-7.4S97.61,342.85,97.68,342.82Z" style="fill:#e0e0e0"/><path d="M80.33,351c.08-.05.77,1.06,2.11,2.67a30.38,30.38,0,0,0,6,5.46,30,30,0,0,0,7.27,3.63c2,.67,3.27.92,3.25,1a3.51,3.51,0,0,1-.92-.09,18,18,0,0,1-2.44-.57,26.67,26.67,0,0,1-13.46-9.21,21,21,0,0,1-1.41-2.07A3.39,3.39,0,0,1,80.33,351Z" style="fill:#e0e0e0"/><path d="M87.78,358.26a8.08,8.08,0,0,1,.16-2.48A23.89,23.89,0,0,1,89.61,350a13.43,13.43,0,0,1,3.29-5,3.26,3.26,0,0,1,2.32-.93,6.5,6.5,0,0,0-2.07,1.21,14.69,14.69,0,0,0-3.06,5,30.55,30.55,0,0,0-1.79,5.63A20,20,0,0,1,87.78,358.26Z" style="fill:#e0e0e0"/><path d="M89.94,370.82a11,11,0,0,1,.68-4.56,10.77,10.77,0,0,1,2.07-4.12c.14.07-.82,1.88-1.57,4.27S90.1,370.83,89.94,370.82Z" style="fill:#e0e0e0"/><path d="M82.22,353.88a11,11,0,0,1,6.24-8.69A24,24,0,0,0,84.63,349,24.5,24.5,0,0,0,82.22,353.88Z" style="fill:#e0e0e0"/><path d="M56.64,415c-2.16-1.86-7-7.73-3.27-14.56,1.37-2.51,4.26-3.75,6.88-4.85s5.38-2.06,7.55-3.91c4.09-3.48,5.22-9.26,7.93-13.9,3.12-5.33,8.93-9.32,15.08-9,7,.32,12.91,6.07,15.57,12.62s2.75,13.83,2.81,20.91c0,3.92-.14,8.33-3,11-2.65,2.44-6.64,2.47-10.23,2.36l-38.46-1.18" style="fill:#ebebeb"/><path d="M130.2,309.26H29.05L47.27,417.91a12.14,12.14,0,0,0,8.64,9.67l.35.1c.3.07.6.18.9.23a12.74,12.74,0,0,0,2.06.24l0,.1.49-.08h45.09a12.61,12.61,0,0,0,2.47-.24,12.19,12.19,0,0,0,10.24-10.62l8.78-74.86.4-3h0l3.48-29.65Zm-19.08,69.3H100.74L101.79,347h12Zm3.7-31.53h9.94l-3.7,31.53h-8.93ZM85.17,413.52l-.63-27.39H99.48l-.91,27.39ZM69,386.13H83.53l.63,27.39h-13Zm1.12,27.39H58c-1.16-7.4-2.66-17-4.29-27.39H68Zm-1.71-35L66,347H82.63l.73,31.53Zm15.94,0L83.64,347h17.14l-1,31.53Zm-.9-39.09-.67-29.2H102l-1,29.2Zm-1,0H65.38l-2.27-29.2H81.78Zm-18.09,0H46.31c-.64-4-1.25-7.85-1.8-11.28-1.88-11.81-2.59-16.25-3-17.92H62.1ZM65,347l2.45,31.53H52.47L51,368.89C49.78,361.45,48.61,354,47.5,347ZM51.45,378.56H41.69L36.4,347H46.49C48,356.78,49.74,367.62,51.45,378.56Zm1.19,7.57c1.49,9.48,3,18.82,4.29,27.39H47.56L43,386.13Zm46.94,27.39.91-27.39h10l-2.35,27.39Zm2.46-74,1-29.2H117l-2.5,29.2Zm-61.47-29.2c.4,2.11,2.25,13.6,4.72,29.2H35.14l-4.9-29.2ZM117,413.52h-7.82l2.34-27.39h8.69Zm8.69-74H115.47l2.49-29.2h11.11Z" style="fill:#e0e0e0"/></g><g id="freepik--Tissue--inject-204"><path d="M83.59,414.71l4.56-8.2-7.41-7-3.85-5.45-11.32,5.28-5.28,9.56-6.15,3.35.5,6.31,7.92,6.28,6.25,3.41,6.49-2.73s8,2.79,8.25,2.44,4.71-5.64,4.71-5.64L87,417.86,84.23,415" style="fill:#f5f5f5"/><path d="M84.23,415l.2.18.54.54L87,417.8h0v0c.36,1.21.81,2.72,1.34,4.47l0,.07,0,.06-4.51,5.46-.16.2a.38.38,0,0,1-.17.1h-.25l-.52-.1-1-.26c-.69-.19-1.38-.41-2.09-.63-1.42-.44-2.89-.93-4.42-1.45h.16l-6.49,2.74-.1.05-.1-.06-6.26-3.4h0l-7.92-6.27-.09-.07v-.11c-.16-2-.32-4.14-.5-6.31v-.16l.15-.08.62-.34,5.53-3-.11.1,5.29-9.55,0-.08.07,0,11.34-5.26.16-.08.11.15,3.83,5.47,0,0,7.38,7,.08.08,0,.1-3.42,6-.93,1.59a3.16,3.16,0,0,1-.34.53,4.46,4.46,0,0,1,.27-.57c.22-.4.5-.94.86-1.62.79-1.44,1.9-3.5,3.31-6.08l0,.17-7.45-6.92v0h0l-3.86-5.45.27.08L65.67,399.6l.12-.11-5.27,9.57,0,.07-.07,0-5.52,3-.62.33.13-.25c.17,2.16.34,4.3.5,6.31l-.1-.18,7.91,6.28,0,0,6.25,3.42h-.21l6.5-2.71.08,0,.07,0c1.52.53,3,1,4.4,1.48.7.23,1.39.45,2.07.64l1,.27.48.09h.14s0,0,0,.06l0,.05h0l-.12-.09.17-.19,4.59-5.43,0,.13-1.26-4.5,0,0-2-2.2-.5-.57C84.28,415,84.22,415,84.23,415Z" style="fill:#263238"/><path d="M65.4,399.32a27.15,27.15,0,0,0,.81,6.42,9.07,9.07,0,0,0,3.63,5.2c2.14,1.33,4.8,1.36,7.3,1.69a3.78,3.78,0,0,1,2.78,1.31,5.49,5.49,0,0,1,.54,2.32A7.31,7.31,0,0,0,88,422.32" style="fill:#f5f5f5"/><path d="M88,422.32s-.12,0-.37.06a5.17,5.17,0,0,1-1.08,0,7.43,7.43,0,0,1-6.36-6.71,3.56,3.56,0,0,0-.4-1.51,2.31,2.31,0,0,0-1.24-.93,20.33,20.33,0,0,0-3.58-.56,17.07,17.07,0,0,1-3.67-.75,7.33,7.33,0,0,1-3-1.91,10.67,10.67,0,0,1-2.54-5.29,23.47,23.47,0,0,1-.39-3.93,6.7,6.7,0,0,1,0-1.44,9.05,9.05,0,0,1,.17,1.43,29,29,0,0,0,.55,3.86,10.55,10.55,0,0,0,2.52,5,7,7,0,0,0,2.78,1.77,16,16,0,0,0,3.56.71,19.07,19.07,0,0,1,3.69.6,2.81,2.81,0,0,1,1.5,1.15,4.16,4.16,0,0,1,.45,1.72,7,7,0,0,0,2.49,4.9,7.42,7.42,0,0,0,3.42,1.66C87.43,422.31,88,422.26,88,422.32Z" style="fill:#263238"/><path d="M78.43,413a3.58,3.58,0,0,1-.34,1.05,6.49,6.49,0,0,1-1.68,2.51,3.61,3.61,0,0,1-2,.86,8.68,8.68,0,0,1-2.37-.42,2.16,2.16,0,0,0-1.13.05,2.58,2.58,0,0,0-1,.72c-.3.32-.57.69-.9,1a6.4,6.4,0,0,1-1.13.95A8.38,8.38,0,0,1,62.6,421a13.81,13.81,0,0,1-4.3-1.19,27,27,0,0,1-2.66-1.36,4.57,4.57,0,0,1-.92-.6c0-.09,1.41.67,3.72,1.62a14.81,14.81,0,0,0,4.2,1.06,8.14,8.14,0,0,0,5-1.16,6.76,6.76,0,0,0,1-.87l.91-1a3,3,0,0,1,1.17-.83,2.51,2.51,0,0,1,1.38-.06,9.21,9.21,0,0,0,2.25.45,3.12,3.12,0,0,0,1.77-.71A6.71,6.71,0,0,0,77.91,414,5.75,5.75,0,0,1,78.43,413Z" style="fill:#263238"/><path d="M73.93,412.21a10.71,10.71,0,0,1,.18-2.46,49.28,49.28,0,0,1,3-11.44,9.94,9.94,0,0,1,1.06-2.22,13.86,13.86,0,0,1-.72,2.34c-.47,1.44-1.1,3.42-1.69,5.64s-1,4.26-1.32,5.74A12.82,12.82,0,0,1,73.93,412.21Z" style="fill:#263238"/></g><g id="freepik--Floor--inject-204"><path d="M479.65,428.3c0,.14-99.36.26-221.9.26s-221.92-.12-221.92-.26,99.34-.26,221.92-.26S479.65,428.16,479.65,428.3Z" style="fill:#263238"/></g><g id="freepik--Character--inject-204"><path d="M417.34,416.29c-7.7-2.2-10.72,1.93-10.72,1.93s2.46-14.79-5.42-51.26-44.87-68.74-50.27-78.73c-5.2-9.62-11.11-49.49-13.92-70.28A32.26,32.26,0,0,0,320.74,194a201.6,201.6,0,0,0-21.25-9.92c1.07-.65-7.87-14.54-15.88-14.55-7.27,0-44.88-14-66.65,8-3,3.06-7.54,17.41-7.54,17.41s-7.55,7.95-14,13.92S165.2,276.79,155.77,293s-7.29,50.7-7.29,50.7c-22.11,5.39-39.83,15.69-46.44,41s15,43.53,15,43.53l308.4-.16C424.92,422.08,421.22,417.4,417.34,416.29Z" style="fill:#F2A8A6"/><g style="opacity:0.5"><path d="M276.17,177.15c1.08-.32,15.57.3,19.54,20.22l-15.18.78Z"/></g><g style="opacity:0.5"><path d="M390.85,380.64c-10.12-22-47.2-11.69-55.24-16.92-3.5-2.28-8.69-3.83-13.43-8.62l1,12.43,4.22,61,71.23-.31S401,402.64,390.85,380.64Z"/></g><g style="opacity:0.5"><path d="M210.54,306.41c-1.27.95-27.52,11.39-27.52,12.34s-3.48,36.05-3.48,36.05l-44.91,6.33-19,10.13L108.24,386l-4.61,15.35L114.69,421l6.09,7.3,109.68.31V346.27S213.55,306.41,212,306.41"/></g><g style="opacity:0.5"><path d="M210.21,204.58s4.65-10.35,5.4-11c.35-.32,1.07-3.53,1.72-6.83a18,18,0,0,1,2.92-7.1,16.59,16.59,0,0,1,5.11-4.28h0l8.83,20.17-6.94,9.9Z"/></g><path d="M302.45,198.15l-20.92-3.25L220,200.13s-22,50.54-20.67,51.94c.66.71,18.11,56.34,18.11,56.34l-1.22,45.79s-6.23,7.7-7.3,13.2c-3.35,17.34,111.68,21.49,114.5,11.19v-168Z" style="fill:#455a64"/><path d="M220,200.13s-19.39,2-24.69,15-21.6,87.18-21.6,87.18-2.42,16.12,4.35,24.78c5.77,7.37,23.41,5.79,34,1,17.61-8,31.56-61.43,31.56-61.43l7.61-18.5-28.58-9.36-13,28.1Z" style="fill:#455a64"/><path d="M289.78,196.37c1.06.26,34.62,5,40.72,10.53S335.86,262,335.86,262s-5.35,62.51-10.39,66.57-27.09,19.05-39.46-9.29c-3.61-8.27-11.53-18.38-16.48-28.85a391.06,391.06,0,0,1-16-40l28.19-13.19,21.86,37-4-53.13Z" style="fill:#455a64"/><path d="M217.06,156.09a30,30,0,0,1,22.18-34.17l1.5-.38c16.5-3.2,28.43,9,31.17,25.59l13.67,65.77a3,3,0,0,1-1,3l-32.16,26.37-7.52-34.44s-16.24,1.56-20.42-14C222.42,186.27,219.52,170.44,217.06,156.09Z" style="fill:#ffbe9d"/><path d="M244.73,207.8a39.05,39.05,0,0,0,18.93-11.21s-1.94,12.47-17.88,15Z" style="fill:#eb996e"/><path d="M232.07,165.33c-.31-.27-1.92,1.19-4.39,1.43s-4.39-.82-4.63-.49c-.12.15.23.66,1.07,1.15a6.27,6.27,0,0,0,3.75.76,6.06,6.06,0,0,0,3.45-1.5C232,166,232.22,165.45,232.07,165.33Z" style="fill:#263238"/><path d="M255.63,162.64c-.36-.2-1.65,1.54-4,2.26s-4.47.07-4.64.44c-.09.17.35.6,1.28.92a6.31,6.31,0,0,0,3.82,0,6.08,6.08,0,0,0,3.09-2.16C255.71,163.32,255.8,162.73,255.63,162.64Z" style="fill:#263238"/><path d="M242.51,179.8c0-.14-1.59,0-4.08.29-.63.1-1.24.12-1.45-.27a3.22,3.22,0,0,1-.06-1.92c.2-1.63.41-3.34.62-5.13.82-7.29,1.25-13.22,1-13.25s-1.2,5.86-2,13.14c-.19,1.8-.37,3.51-.54,5.14a3.68,3.68,0,0,0,.3,2.49,1.62,1.62,0,0,0,1.24.64,4.15,4.15,0,0,0,1.07-.12C241,180.32,242.53,179.94,242.51,179.8Z" style="fill:#263238"/><path d="M254.19,153.6c-.52-.48-2.58.93-5.32,2s-5.2,1.38-5.27,2.09c0,.34.63.72,1.77.86a9.82,9.82,0,0,0,8.07-3.07C254.2,154.56,254.43,153.84,254.19,153.6Z" style="fill:#263238"/><path d="M231.27,159.39c-.44-.63-2.58-.35-5.05-.67s-4.49-1-5.06-.51c-.25.26,0,.86.84,1.52a8.73,8.73,0,0,0,8.14,1C231.09,160.23,231.46,159.69,231.27,159.39Z" style="fill:#263238"/><path d="M272.5,159.29c.24-.18,9.93-5.91,12.31,4.85s-8.91,10.94-9,10.64S272.5,159.29,272.5,159.29Z" style="fill:#ffbe9d"/><path d="M277.25,170.21s.22.09.57.17a1.93,1.93,0,0,0,1.41-.29c1-.67,1.6-2.68,1.22-4.64a6.29,6.29,0,0,0-1.12-2.56,2.19,2.19,0,0,0-1.73-1.13,1,1,0,0,0-1,.76c-.08.33,0,.53,0,.56s-.27-.13-.29-.59a1.24,1.24,0,0,1,.28-.77,1.41,1.41,0,0,1,1-.5,2.69,2.69,0,0,1,2.33,1.23,6.57,6.57,0,0,1,1.32,2.86c.41,2.18-.25,4.46-1.71,5.25a2.06,2.06,0,0,1-1.78.1C277.33,170.47,277.22,170.24,277.25,170.21Z" style="fill:#eb996e"/><path d="M243.47,159.05c0,.06-.42.21-1.13.12a3.8,3.8,0,0,1-2.41-1.3,3.84,3.84,0,0,1-.92-2.58c0-.72.23-1.11.29-1.09s0,.43.07,1.08a4.22,4.22,0,0,0,.95,2.25,4.15,4.15,0,0,0,2.09,1.28C243,159,243.46,159,243.47,159.05Z" style="fill:#eb996e"/><path d="M276.6,142.08c0,.22.12.43.16.64,1.92,9.28-.59,21.33-.59,21.33-6.85,1.66-8.15-11.66-8.15-11.66-9.17-1.35-8.89-14.69-11.43-16.13s-8-4.89-23.58,8.13c-6.06,5.06-15.2,7-20.43,7H212l-.16,0a16.25,16.25,0,0,1-5-.89,9.14,9.14,0,0,1-4.67-3.31,5,5,0,0,1-.23-5.47,11.16,11.16,0,0,1-3.79-5.09,6.36,6.36,0,0,1,1-6.06,4.51,4.51,0,0,1,5.8-.87,5.26,5.26,0,0,1,3-7.23c2.7-.79,5.51.75,8.32.88a12.78,12.78,0,0,0,7.64-2.69c2.26-1.56,4.27-3.47,6.58-5a22.31,22.31,0,0,1,16.49-3c5.61,1.18,10.09,2.59,13.24,7.38,3.42-2,8.16-.28,11.31,2.1,0,0,4.34,2.47,4.69,11.09C276.63,140.87,276.6,142.08,276.6,142.08Z" style="fill:#263238"/><path d="M205.71,127c0-.05.58.53,1.73,1.31a15.68,15.68,0,0,0,5.41,2.25,24.21,24.21,0,0,0,8.69.14,59.61,59.61,0,0,0,10.33-2.9,68.12,68.12,0,0,1,10.4-3,25.05,25.05,0,0,1,8.85,0,15.41,15.41,0,0,1,5.56,2.16,10.68,10.68,0,0,1,1.3,1,3.34,3.34,0,0,1,.4.39c0,.05-.61-.48-1.8-1.2a16.34,16.34,0,0,0-5.52-2,25.42,25.42,0,0,0-8.7.16,71.59,71.59,0,0,0-10.32,3,58,58,0,0,1-10.43,2.89,23.9,23.9,0,0,1-8.84-.26,15.09,15.09,0,0,1-5.45-2.44,10.58,10.58,0,0,1-1.23-1.06A2.53,2.53,0,0,1,205.71,127Z" style="fill:#455a64"/><path d="M257.75,131.55s-.65-.44-1.92-1.05a14.47,14.47,0,0,0-5.74-1.24,24.09,24.09,0,0,0-8.61,1.54c-3.13,1.1-6.4,2.78-10,4.27a38.07,38.07,0,0,1-5.36,1.82,26.35,26.35,0,0,1-5.22.74,27.35,27.35,0,0,1-8.84-1.09,26.14,26.14,0,0,1-5.52-2.35c-.61-.34-1.07-.65-1.38-.86a2.57,2.57,0,0,1-.45-.35s.68.39,1.93,1a29.78,29.78,0,0,0,5.52,2.17,27.79,27.79,0,0,0,8.71,1,26.93,26.93,0,0,0,5.13-.75,39.29,39.29,0,0,0,5.28-1.81c3.54-1.48,6.83-3.15,10-4.24a24.1,24.1,0,0,1,8.78-1.46,14.06,14.06,0,0,1,5.82,1.43,9.16,9.16,0,0,1,1.39.87A2.43,2.43,0,0,1,257.75,131.55Z" style="fill:#455a64"/><path d="M276.5,132.31a5.06,5.06,0,0,1-1.95,1.26,10.39,10.39,0,0,1-5.57.75,20,20,0,0,1-5.23-2c-1.29-.58-2.16-.68-2.15-.76a4.61,4.61,0,0,1,2.28.41c1.37.47,3.07,1.53,5.18,1.82a11,11,0,0,0,5.35-.57C275.73,132.75,276.45,132.23,276.5,132.31Z" style="fill:#455a64"/><path d="M276.75,135.13a6.26,6.26,0,0,1-2,1,15.23,15.23,0,0,1-5.42.89,14.93,14.93,0,0,1-5.38-1.1,6.12,6.12,0,0,1-2-1.11c0-.07.8.32,2.11.77a17.38,17.38,0,0,0,10.55.2A20.87,20.87,0,0,1,276.75,135.13Z" style="fill:#455a64"/><path d="M235.42,156a2.93,2.93,0,0,1-.29,2.62c-.71,1.38-1.94,1.88-2,1.74s.9-.76,1.52-2A16.55,16.55,0,0,0,235.42,156Z" style="fill:#eb996e"/><path d="M204.15,279a7.25,7.25,0,0,0,.36-.72l1-2.11,3.71-8.12,13.29-29.44.08-.18.18.07,28.72,9.73.24.08-.09.24-13.87,35c-2.84,7.22-5.68,14.23-8.29,21.07a83.66,83.66,0,0,1-4.44,9.84,36,36,0,0,1-6.13,8.34,33.49,33.49,0,0,1-7.82,6,28.16,28.16,0,0,1-8.78,3,39.35,39.35,0,0,1-8.67.41,30,30,0,0,1-7.9-1.35,16,16,0,0,1-6.23-3.73,16.73,16.73,0,0,1-3.56-5.42,34.45,34.45,0,0,1-2.32-10.1,45.48,45.48,0,0,1-.11-6.55c.09-1.49.22-2.27.22-2.27s0,.2,0,.58-.07.95-.09,1.7a48,48,0,0,0,.2,6.52,34.82,34.82,0,0,0,2.38,10,16.49,16.49,0,0,0,3.53,5.3,15.67,15.67,0,0,0,6.12,3.62,29.47,29.47,0,0,0,7.8,1.29,37.83,37.83,0,0,0,8.57-.43,27.74,27.74,0,0,0,8.64-3,33.53,33.53,0,0,0,7.7-5.93,35.34,35.34,0,0,0,6-8.25,82.9,82.9,0,0,0,4.4-9.79c2.6-6.83,5.45-13.86,8.29-21.08,4.9-12.34,9.6-24.19,13.89-35l.15.32-28.69-9.8.25-.11c-5.58,12.29-10.2,22.37-13.46,29.37-1.63,3.5-2.91,6.23-3.81,8.07-.45.92-.8,1.62-1,2.09A3.12,3.12,0,0,1,204.15,279Z" style="fill:#263238"/><path d="M212.45,261.76a5.68,5.68,0,0,1,.2-1.17l.71-3.14c.63-2.65,1.52-6.29,2.53-10.32,1.81-7.18,3.05-12.06,3.68-14.55.31,0-1.17,6.63-3.18,14.68-1,4-1.95,7.66-2.67,10.28-.36,1.31-.66,2.37-.88,3.1A4.4,4.4,0,0,1,212.45,261.76Z" style="fill:#263238"/><path d="M235.25,179.82s-3.05-3.17-5.76,0-2.41,10.84,2.73,18.63,3.1,37.07,3.1,37.07l30.4-11.36,2.09,9.32A31.88,31.88,0,0,0,278,224.16c3.9-5.92-2-13.48-3.22-18.21s-12.2-12.27-15.42-17.22S248.13,173.68,235.25,179.82Z" style="fill:#fafafa"/><path d="M255.5,248.85s-8.55-18.26-9.74-21.61-6.24-14.53-5.59-16.72,3.58,0,3.58,0-5.95-11.5-4.13-13.94a2.05,2.05,0,0,1,3.21-.23s-3.72-6.62-.57-8.61c1.63-1,4.39,3,4.39,3s2.61-2.88,5,.75,12.24,19.84,12.24,19.84-.58-7.68.81-12.31c.94-3.12,5.48-4.89,5.75,4.59.18,6.14,7.33,35,7.33,35Z" style="fill:#ffbe9d"/><path d="M255.5,248.85l.39-.21,1.15-.55,4.41-2.08,16.24-7.6-.1.2c-1.82-7.4-4-16.25-6-26.25-.48-2.51-1-5.08-1.29-7.77-.13-1.37-.13-2.68-.37-4l-.22-1c-.08-.32-.21-.63-.32-1a3.49,3.49,0,0,0-1.11-1.56,1.59,1.59,0,0,0-1.73-.1,3.33,3.33,0,0,0-1.32,1.43,8.78,8.78,0,0,0-.6,2,20.81,20.81,0,0,0-.33,2.12,51.34,51.34,0,0,0-.14,8.78.27.27,0,0,1-.24.28.28.28,0,0,1-.24-.13l-6.2-10.05-4.65-7.54L251.65,192a5.42,5.42,0,0,0-1.31-1.59,2.19,2.19,0,0,0-1.81-.47,3.4,3.4,0,0,0-1.69.95.26.26,0,0,1-.37,0l0,0a10.49,10.49,0,0,0-2.6-2.67c-.5-.3-1.09-.5-1.5-.17a2.49,2.49,0,0,0-1,1.37,6.92,6.92,0,0,0,.28,3.54,17.61,17.61,0,0,0,1.38,3.32.24.24,0,0,1-.1.33.26.26,0,0,1-.29,0,1.93,1.93,0,0,0-2-.51,2.16,2.16,0,0,0-.83.68,1.8,1.8,0,0,0-.31,1,13.55,13.55,0,0,0,.89,4.51,66.64,66.64,0,0,0,3.53,8.22.22.22,0,0,1-.1.3.24.24,0,0,1-.22,0,4.87,4.87,0,0,0-2.22-.89,1,1,0,0,0-.89.42,1.1,1.1,0,0,0-.17.5l0,.27,0,.3a21.77,21.77,0,0,0,1.21,4.58c1,2.94,2.15,5.69,3.19,8.27,1.92,5.23,4,9.61,5.61,13.26l3.82,8.43q.65,1.42,1,2.22c.11.24.19.42.25.57l.08.2s0,0-.11-.19l-.28-.55-1.06-2.2-3.93-8.38c-1.64-3.62-3.76-8-5.71-13.22-1-2.58-2.19-5.32-3.24-8.28a22.89,22.89,0,0,1-1.25-4.69,2.1,2.1,0,0,1,0-.66,1.58,1.58,0,0,1,.23-.66,1.37,1.37,0,0,1,1.26-.62,5.18,5.18,0,0,1,2.46,1l-.32.28a64.77,64.77,0,0,1-3.58-8.27,13.75,13.75,0,0,1-.93-4.7,2.27,2.27,0,0,1,.41-1.25,2.67,2.67,0,0,1,1-.84,2,2,0,0,1,1.35-.06,3.15,3.15,0,0,1,1.16.67l-.39.3a18.71,18.71,0,0,1-1.43-3.42,7.53,7.53,0,0,1-.29-3.81,3.09,3.09,0,0,1,1.16-1.66,1.39,1.39,0,0,1,1.08-.23,2.72,2.72,0,0,1,1,.39,11.13,11.13,0,0,1,2.75,2.81l-.4,0a3.9,3.9,0,0,1,2-1.12,2.71,2.71,0,0,1,2.21.57,5.69,5.69,0,0,1,1.44,1.71c.39.62.77,1.24,1.15,1.86l4.66,7.54,6.2,10.07-.48.15a52.51,52.51,0,0,1,.15-8.88c.09-.73.19-1.45.35-2.16a8.67,8.67,0,0,1,.64-2.11,3.81,3.81,0,0,1,1.54-1.64,2.13,2.13,0,0,1,2.25.13,4.13,4.13,0,0,1,1.28,1.78c.11.34.25.67.33,1l.24,1c.23,1.37.24,2.77.36,4.07.27,2.64.79,5.22,1.26,7.72,2,10,4.14,18.85,5.92,26.26a.18.18,0,0,1-.1.2l-16.41,7.47-4.41,2-1.13.5Z" style="fill:#eb996e"/><path d="M257.54,212.85c-.13.06-2.67-4.84-5.68-10.95s-5.34-11.12-5.21-11.19,2.67,4.84,5.68,11S257.67,212.78,257.54,212.85Z" style="fill:#eb996e"/><path d="M252.48,217.44c-.13.06-2.4-4.61-5.06-10.43s-4.73-10.58-4.59-10.64,2.39,4.61,5.06,10.42S252.61,217.38,252.48,217.44Z" style="fill:#eb996e"/><path d="M249.62,223.67a7.37,7.37,0,0,1-1.26-1.72,40.31,40.31,0,0,1-4.23-9.29,7.72,7.72,0,0,1-.47-2.08c.15,0,1.11,3,2.76,6.65S249.75,223.59,249.62,223.67Z" style="fill:#eb996e"/><path d="M234.69,196.26a2.67,2.67,0,0,0-3.06-1.26c-2.69.74-7.22,2.12-8.46,3.24-1.8,1.62-5.69,5.91-5.68,8.8,0,.88-.89,2.48-1.2,4a8.9,8.9,0,0,0,0,3,8.75,8.75,0,0,0,2.51,3.66c1.15,1,5.57,11.51,5.57,11.51l2.58,10.54,11.68,4.1,9.62,3.29-5-14.32-7.87,2.76.8-18.32,2.3-4.34-.63-2.75-1.89-.59a2.32,2.32,0,0,0,.32-3.19l-1.64-1.39c2-.75,2.89-2.08,1.83-4.35a3.53,3.53,0,0,0-2.94-.67A4,4,0,0,0,234.69,196.26Z" style="fill:#ffbe9d"/><path d="M234.16,230.29s-.13-.12-.34-.37-.51-.63-.87-1.15a11.22,11.22,0,0,1-1.13-2,6,6,0,0,1-.5-3,7.56,7.56,0,0,1,1.41-3.41,32.43,32.43,0,0,1,2.71-3.2,10.89,10.89,0,0,0,2.38-3.78,3.58,3.58,0,0,0,.07-2.24,1.74,1.74,0,0,0-1.6-1.25,3.5,3.5,0,0,0-2,1.17l-1.83,1.62-3.44,3.06c-2.22,1.92-4.18,3.71-5.15,5.7a7,7,0,0,0-.59,5c.3,1.19.63,1.81.58,1.83s-.1-.14-.25-.43a7.36,7.36,0,0,1-.52-1.35,6.79,6.79,0,0,1-.3-2.27,7.31,7.31,0,0,1,.75-2.95c1-2.08,3-4,5.16-5.89,1.09-1,2.24-2,3.43-3.08l1.81-1.63a3.94,3.94,0,0,1,2.29-1.3,2.26,2.26,0,0,1,2.11,1.6,4.13,4.13,0,0,1-.07,2.56,11.24,11.24,0,0,1-2.51,4,33.64,33.64,0,0,0-2.72,3.12,7.44,7.44,0,0,0-1.39,3.21,5.85,5.85,0,0,0,.4,2.86,11.58,11.58,0,0,0,1,2C233.78,229.7,234.19,230.26,234.16,230.29Z" style="fill:#eb996e"/><path d="M226,218.26s0,0-.12-.16a4.56,4.56,0,0,1-.27-.52,3.61,3.61,0,0,1-.28-.92,1.75,1.75,0,0,1,.24-1.34h0l8-4.52A6.7,6.7,0,0,0,236,209a2.42,2.42,0,0,0,.47-1.38,1.83,1.83,0,0,0-.59-1.31,3.22,3.22,0,0,0-3-.6,21.52,21.52,0,0,0-3.34,1.36l-9.12,4.14a4.29,4.29,0,0,0-1.66,1.31,3.11,3.11,0,0,0-.49,1.89,11.72,11.72,0,0,0,1,3.6,43.36,43.36,0,0,0,2.35,5c.63,1.14,1,1.75,1,1.77s-.13-.13-.33-.41-.48-.7-.82-1.26a34.17,34.17,0,0,1-2.52-4.94,11.71,11.71,0,0,1-1.07-3.71,3.55,3.55,0,0,1,.54-2.16,4.76,4.76,0,0,1,1.81-1.49c2.81-1.33,5.89-2.71,9.14-4.19a21.75,21.75,0,0,1,3.43-1.38,3.68,3.68,0,0,1,3.51.74,2.29,2.29,0,0,1,.74,1.67,2.93,2.93,0,0,1-.57,1.65,7,7,0,0,1-2.53,1.88l-8.14,4.34,0,0a1.6,1.6,0,0,0-.24,1.15,4.23,4.23,0,0,0,.22.9A5.2,5.2,0,0,1,226,218.26Z" style="fill:#eb996e"/><path d="M217.5,209.68a4.87,4.87,0,0,1,.49-1.09,17.09,17.09,0,0,1,1.74-2.79,10.06,10.06,0,0,1,3.87-3,39,39,0,0,1,5.65-1.86l2.95-.82a7,7,0,0,1,2.9-.44,2.58,2.58,0,0,1,1.33.58,2.26,2.26,0,0,1,.68,1.18,2.68,2.68,0,0,1-.53,2.29,4.27,4.27,0,0,1-2.92,1.51,3.59,3.59,0,0,1-1.2,0,7.93,7.93,0,0,1,1.17-.21,4.29,4.29,0,0,0,2.66-1.53,2.35,2.35,0,0,0,.4-2,1.82,1.82,0,0,0-1.65-1.38,6.87,6.87,0,0,0-2.7.45l-3,.83a43.84,43.84,0,0,0-5.59,1.79A10,10,0,0,0,220,206a20.4,20.4,0,0,0-1.85,2.65A4.79,4.79,0,0,1,217.5,209.68Z" style="fill:#eb996e"/><path d="M229.39,200.7a10.45,10.45,0,0,1,1.29-.33,6,6,0,0,0,3.1-1.58,2.75,2.75,0,0,0,.82-2.11,2,2,0,0,0-1.52-1.85,6.64,6.64,0,0,0-2.94.72c-1,.37-2.13.72-3.24,1.09a29.07,29.07,0,0,0-3.15,1.21,7.6,7.6,0,0,0-2.2,2.1c-.61.8-1.15,1.6-1.69,2.33a12.05,12.05,0,0,0-1.44,2,9.16,9.16,0,0,0-.83,3.45c-.05.85,0,1.32,0,1.32a3.69,3.69,0,0,1-.16-1.33,8.62,8.62,0,0,1,.7-3.6,5.22,5.22,0,0,1,.64-1.07c.26-.34.52-.65.78-1,.52-.73,1-1.54,1.66-2.36a7.84,7.84,0,0,1,2.35-2.26,26.89,26.89,0,0,1,3.22-1.25l3.23-1.08a6.72,6.72,0,0,1,3.19-.71,2.16,2.16,0,0,1,1.37.87,2.71,2.71,0,0,1,.5,1.41,3.11,3.11,0,0,1-1,2.4,6,6,0,0,1-3.33,1.53A4.75,4.75,0,0,1,229.39,200.7Z" style="fill:#eb996e"/><path d="M293.56,258.49l-.23-.36-.65-1.08-2.44-4.17c-2.13-3.66-5.18-8.93-9-15.46l.23.07-28.15,13.25.12-.29c3.2,9.19,7.09,19.16,11.74,29.33,5,10.94,10.32,21.09,15.43,30.18,2.56,4.54,5,8.85,7.4,12.81a34.8,34.8,0,0,0,8.16,9.79,17.2,17.2,0,0,0,4.89,2.61A17.8,17.8,0,0,0,306,336a18.24,18.24,0,0,0,7.79-1.41,12.57,12.57,0,0,0,4.15-2.81c.81-.82,1.14-1.34,1.17-1.32s-.08.13-.25.37a8.91,8.91,0,0,1-.84,1,12.34,12.34,0,0,1-4.15,2.91,18.31,18.31,0,0,1-7.88,1.52,18,18,0,0,1-5-.84,17.38,17.38,0,0,1-5-2.63c-3.2-2.39-5.88-5.91-8.31-9.85s-4.88-8.27-7.45-12.81C275.1,301.11,269.74,291,264.75,280c-4.66-10.19-8.54-20.18-11.72-29.4l-.08-.2.2-.1,28.21-13.14.15-.07.08.15c3.73,6.56,6.73,11.86,8.82,15.54,1,1.82,1.81,3.23,2.36,4.22.26.47.46.83.6,1.1A1.62,1.62,0,0,1,293.56,258.49Z" style="fill:#263238"/><path d="M237.34,191.75a2.78,2.78,0,0,1-1.58-.08,6.38,6.38,0,0,1-3.26-2,6.27,6.27,0,0,1-1.51-3.5,2.68,2.68,0,0,1,.14-1.57c.08,0,0,.6.22,1.52a6.89,6.89,0,0,0,1.55,3.21,7,7,0,0,0,3,2A13,13,0,0,1,237.34,191.75Z" style="fill:#e0e0e0"/><path d="M254.39,186.38a3.89,3.89,0,0,1,.62.8c.37.53.87,1.32,1.44,2.33a45.7,45.7,0,0,1,3.68,8.25,46.31,46.31,0,0,1,2,8.81c.14,1.15.22,2.08.24,2.73a4,4,0,0,1,0,1c-.09,0-.22-1.42-.59-3.69a58.5,58.5,0,0,0-2.14-8.7,59.38,59.38,0,0,0-3.51-8.24C255.07,187.64,254.32,186.43,254.39,186.38Z" style="fill:#e0e0e0"/><path d="M239.33,195.06a3.73,3.73,0,0,1-1.65,0,10.63,10.63,0,0,1-6.75-3.91,3.72,3.72,0,0,1-.83-1.42,18.75,18.75,0,0,0,4.1,3.57A18.47,18.47,0,0,0,239.33,195.06Z" style="fill:#e0e0e0"/><path d="M267.14,438.93l34.29,15.55s9.49,3.5,12,2.93c2.79-.64,7.33-2.36,5.92-10.82s-17.67-18.75-17.67-18.75Z" style="fill:#F2A8A6"/><path d="M262.63,412.53l-49.16,16c-2.94,1-6.42,4.09-5.38,8l19.2,55.3s5.92,1.89,4.82-34l41.66-13.72Z" style="fill:#F2A8A6"/><path d="M232.05,474.88c-.07.19-2.3-1.13-5.31-1.07s-5.21,1.43-5.28,1.24a4,4,0,0,1,1.4-.84,10.27,10.27,0,0,1,3.87-.92,9.63,9.63,0,0,1,3.9.76A4.28,4.28,0,0,1,232.05,474.88Z" style="fill:#fff"/><path d="M217.07,427.87s.35,0,.89.32a4.4,4.4,0,0,1,1.67,2,10.37,10.37,0,0,1,.74,3.75,18.8,18.8,0,0,1-.27,4.66,12,12,0,0,1-1.74,4.34,9.34,9.34,0,0,1-2.72,2.69,7.21,7.21,0,0,1-2.37,1,2.49,2.49,0,0,1-.94.09,11,11,0,0,0,3.1-1.4,9.79,9.79,0,0,0,2.53-2.65,12.09,12.09,0,0,0,1.63-4.18,19.32,19.32,0,0,0,.3-4.54,10.77,10.77,0,0,0-.6-3.62,4.46,4.46,0,0,0-1.44-1.95C217.38,428,217.05,427.91,217.07,427.87Z" style="fill:#fff"/><path d="M246.63,453.41a5.72,5.72,0,0,1-.68-1.11c-.41-.73-1-1.8-1.68-3.12-1.39-2.65-3.24-6.35-5.18-10.48s-3.61-7.92-4.77-10.68c-.58-1.37-1-2.5-1.34-3.28a6.83,6.83,0,0,1-.42-1.23,6.78,6.78,0,0,1,.61,1.15c.39.86.89,1.93,1.49,3.22l4.9,10.6,5,10.53,1.53,3.2A6.59,6.59,0,0,1,246.63,453.41Z" style="fill:#fff"/><path d="M375.77,372.08c-7.07-6-8.48-7.07-22.27-8.13S317,365.86,317,365.86,274,379.15,253.45,376.68s-39.29-14-39.29-14-48.75-1.25-55.46.52-19.45,6.37-21.92,14.14-4.25,17,2.82,25.81,42.69,25.11,42.69,25.11l33.51-.52,22.31-7,14.65,31.11s103.57-32.77,108.16-33.12S386,406,386,399.66,382.84,378.09,375.77,372.08Z" style="fill:#263238"/><path d="M260.31,409.75l-.25-.06-.72-.22-2.74-.89c-2.39-.78-5.81-2-10-3.48-8.44-3-20-7.51-32.49-13.1s-23.52-11.25-31.4-15.53c-3.94-2.14-7.1-3.91-9.27-5.17l-2.49-1.45-.64-.39q-.22-.13-.21-.15l.23.1.67.35,2.54,1.37c2.19,1.2,5.39,2.92,9.35,5,7.91,4.19,19,9.78,31.44,15.37s24,10.11,32.39,13.23c4.2,1.56,7.61,2.8,10,3.64l2.72,1,.7.27C260.24,409.7,260.32,409.74,260.31,409.75Z" style="fill:#455a64"/><path d="M338.26,375.28a1.85,1.85,0,0,1-.05.35c-.06.26-.13.6-.22,1-.21.93-.51,2.25-.89,4v0l-.06,0c-8.54,3.39-27.66,10.83-49.89,19.4s-41.4,15.9-50,19.12l.05-.15,2.05,3.48.52.91c.11.21.16.31.16.32a1.63,1.63,0,0,1-.21-.29l-.56-.88L237,419.15l-.07-.11.12-.05c8.54-3.39,27.66-10.83,49.9-19.4s41.39-15.9,50-19.12l-.06.08q.64-2.54,1-3.93l.27-1A2.34,2.34,0,0,1,338.26,375.28Z" style="fill:#455a64"/><path d="M404.42,409.13l-7.57-44.4-20.66-39-25.7-24.09-7.69-32.1-4-38.29-2.71-14.79A18.78,18.78,0,0,0,323.19,202l-28.05-8.69s.57,6.94-1.77,22.11-1.5,39.91-1.5,39.91,18.84,37.47,18.81,56.44c0,25.8,5.36,37.47,11.51,43.69,4.75,4.79,9.94,6.35,13.44,8.62,8,5.24,45.12-5.08,55.23,16.92a90.23,90.23,0,0,1,8,42.48l9.09-.17Z" style="fill:#F2A8A6"/><path d="M220.65,176.25s-3.19,8.58-2.9,15.91c.13,3.46-1.9,6.35-3.86,8.93-2.36,3.12-6.31,7.42-10.4,14.46-1.35,2.33-1.37,5.53-2.59,8.7-5,13,10.74,37.68,10.24,39.21s-30.09,52-24.4,73.58-2.84,27-2.84,27-17.34,2-29.72,1-43.8,2.79-46.82,25.1,13.11,38,13.11,38h-3.12s-18.79-18.45-16.32-33,10.21-29.76,10.21-29.76L138.78,354l17.72-2-2-29.09,4.69-26.74,21.73-53.67,10-22.26,4-10.6,16.5-13,5.2-15.63Z" style="fill:#F2A8A6"/><path d="M332.21,313.84a4,4,0,0,1-.15-.76c-.08-.55-.19-1.28-.33-2.2-.27-1.9-.66-4.66-1.22-8.05S329.2,295.41,328,291a66.6,66.6,0,0,0-5.28-13.74,44.37,44.37,0,0,0-8.95-11.6,35.32,35.32,0,0,0-10-6.54A28,28,0,0,0,296,257c-1.9-.21-3-.2-3-.26a3.76,3.76,0,0,1,.77,0,19.69,19.69,0,0,1,2.22.09,26.86,26.86,0,0,1,7.93,2,35,35,0,0,1,10.19,6.52A44,44,0,0,1,323.21,277a64.67,64.67,0,0,1,5.28,13.87,110.41,110.41,0,0,1,2.38,11.87c.52,3.41.85,6.17,1.06,8.09l.24,2.2A4.57,4.57,0,0,1,332.21,313.84Z" style="fill:#263238"/><path d="M336.2,275.33s-.33-.67-.92-1.88a35.92,35.92,0,0,0-2.91-4.85,33.3,33.3,0,0,0-32.61-13.74,34.92,34.92,0,0,0-5.51,1.31,17.7,17.7,0,0,1-2,.64,2.33,2.33,0,0,1,.48-.24c.33-.14.8-.37,1.44-.59a29.55,29.55,0,0,1,5.51-1.48,32.84,32.84,0,0,1,33,13.89,30.26,30.26,0,0,1,2.79,5c.29.61.45,1.11.58,1.44A1.93,1.93,0,0,1,336.2,275.33Z" style="fill:#263238"/><path d="M355.87,308.65a2.5,2.5,0,0,1,0,.5c0,.33,0,.81-.06,1.42-.07,1.24-.21,3-.48,5.22a49.89,49.89,0,0,1-4.66,16.6,30.84,30.84,0,0,1-5.61,7.71,25.12,25.12,0,0,1-6.29,4.6,19.38,19.38,0,0,1-4.95,1.76,12.4,12.4,0,0,1-1.41.23,1.52,1.52,0,0,1-.49,0,26.09,26.09,0,0,0,6.68-2.34,25.68,25.68,0,0,0,6.12-4.62,31.44,31.44,0,0,0,5.49-7.6A53,53,0,0,0,355,315.74c.31-2.18.5-4,.63-5.18.07-.57.12-1,.17-1.42A1.68,1.68,0,0,1,355.87,308.65Z" style="fill:#263238"/><path d="M400.7,380.14c-.05,0-.17-.94-.57-2.6a26.14,26.14,0,0,0-2.72-6.69,32.38,32.38,0,0,0-6.83-8.22,40.68,40.68,0,0,0-11.15-6.86,60.51,60.51,0,0,0-12.68-3.48c-4-.68-7.65-1-10.71-1.23s-5.55-.33-7.27-.43l-2-.11a3.86,3.86,0,0,1-.69-.08,3.14,3.14,0,0,1,.7,0l2,0c1.72,0,4.21.1,7.28.27a102.39,102.39,0,0,1,10.77,1.11,59.57,59.57,0,0,1,12.8,3.48,40.25,40.25,0,0,1,11.27,7,32,32,0,0,1,6.83,8.4,24.65,24.65,0,0,1,2.59,6.82,15.35,15.35,0,0,1,.32,2A3,3,0,0,1,400.7,380.14Z" style="fill:#263238"/><path d="M293.45,257.45a9.37,9.37,0,0,1,.44-1.65c.34-1.14.79-2.65,1.34-4.47,1.13-3.78,2.64-9,4.15-14.82s2.73-11.12,3.57-15c.41-1.86.74-3.4,1-4.56a11.73,11.73,0,0,1,.42-1.66,9.59,9.59,0,0,1-.22,1.7c-.17,1.09-.45,2.66-.83,4.59-.75,3.88-1.91,9.2-3.42,15s-3.08,11.05-4.31,14.8c-.61,1.87-1.12,3.38-1.5,4.42A10,10,0,0,1,293.45,257.45Z" style="fill:#263238"/><path d="M175.87,344.9a1,1,0,0,1-.08-.22c0-.17-.11-.38-.18-.64-.14-.58-.41-1.41-.63-2.51a65.73,65.73,0,0,1-1.37-9.41,68.72,68.72,0,0,1,4.88-30.79A68.59,68.59,0,0,1,196.64,276a62.41,62.41,0,0,1,7.59-5.74c.93-.63,1.7-1,2.2-1.35l.59-.33c.13-.07.2-.11.21-.1a.86.86,0,0,1-.19.15l-.55.37c-.49.34-1.24.77-2.15,1.43a70.89,70.89,0,0,0-16.91,16.2,67.81,67.81,0,0,0-12.91,31.46,71.08,71.08,0,0,0,.66,23.41c.19,1.1.42,1.94.53,2.52,0,.27.1.48.13.66A.67.67,0,0,1,175.87,344.9Z" style="fill:#263238"/><path d="M207.66,266.27a5.36,5.36,0,0,1-.84.2c-.55.12-1.38.25-2.42.5a74.77,74.77,0,0,0-8.77,2.43A65.52,65.52,0,0,0,183.39,275a56.45,56.45,0,0,0-12.85,10.21,49.15,49.15,0,0,0-8.91,13.76,44.78,44.78,0,0,0-3.43,13,39.73,39.73,0,0,0,0,9.06c.08,1.07.29,1.89.35,2.45a4.89,4.89,0,0,1,.11.86,5.28,5.28,0,0,1-.21-.84c-.1-.56-.34-1.37-.46-2.44a37.68,37.68,0,0,1-.19-9.13,44,44,0,0,1,3.35-13.1,48.62,48.62,0,0,1,9-13.93,56.14,56.14,0,0,1,13-10.28,64.37,64.37,0,0,1,12.37-5.5,67,67,0,0,1,8.84-2.28c1-.22,1.88-.31,2.44-.4A4.32,4.32,0,0,1,207.66,266.27Z" style="fill:#263238"/><path d="M180.26,273.34a5.71,5.71,0,0,1-1.68-1.35,12.76,12.76,0,0,1-3.44-9.59,5.31,5.31,0,0,1,.45-2.11c.08,0-.07.83-.08,2.13a14.31,14.31,0,0,0,3.35,9.33A19.84,19.84,0,0,1,180.26,273.34Z" style="fill:#263238"/><path d="M117.35,360.31a3.44,3.44,0,0,1,.4-.46l1.22-1.24.89-.89c.33-.31.72-.63,1.12-1,.82-.7,1.71-1.54,2.81-2.32l1.7-1.27c.59-.44,1.25-.83,1.91-1.27,1.31-.91,2.81-1.71,4.37-2.59a65,65,0,0,1,10.73-4.44,65.8,65.8,0,0,1,11.4-2.27c1.78-.13,3.47-.3,5.07-.27.79,0,1.56,0,2.3,0l2.11.11c1.36,0,2.56.24,3.63.37.53.07,1,.12,1.48.19l1.23.25,1.7.36a2.18,2.18,0,0,1,.59.16,4.47,4.47,0,0,1-.61-.06l-1.71-.26-1.24-.2c-.45-.06-.95-.1-1.48-.15-1.06-.1-2.26-.27-3.61-.29l-2.1-.08c-.73,0-1.5,0-2.29,0-1.58,0-3.25.17-5,.32a66.53,66.53,0,0,0-11.29,2.29A67.37,67.37,0,0,0,132,349.71c-1.55.86-3,1.64-4.35,2.53-.66.43-1.33.81-1.92,1.24L124,354.72c-1.11.75-2,1.57-2.84,2.24-.41.34-.81.64-1.15,1l-.91.85c-.53.47-1,.86-1.28,1.17A2.57,2.57,0,0,1,117.35,360.31Z" style="fill:#263238"/><path d="M194.35,237.32a3.33,3.33,0,0,1-.13-.6A17.43,17.43,0,0,1,194,235a29.13,29.13,0,0,1,.19-6.56c.69-5.51,3.31-12.89,7.78-20.07,2.16-3.62,4.3-7,5.94-10.27a95.36,95.36,0,0,0,3.85-8.87c1-2.58,1.78-4.67,2.37-6.1.29-.72.53-1.27.69-1.64a3.7,3.7,0,0,1,.28-.56,2.27,2.27,0,0,1-.18.6c-.15.43-.35,1-.6,1.67l-2.22,6.15a87.14,87.14,0,0,1-3.76,9c-1.63,3.29-3.77,6.7-5.93,10.32-4.44,7.14-7.07,14.41-7.85,19.85a32,32,0,0,0-.36,6.49C194.26,236.47,194.41,237.32,194.35,237.32Z" style="fill:#263238"/><path d="M284.64,169.69a1.28,1.28,0,0,1,.43.05,10.26,10.26,0,0,1,1.2.3,15.88,15.88,0,0,1,4.11,2c3.26,2.09,6.9,6.2,9.61,11.42a46.06,46.06,0,0,1,4.45,14.31c.29,1.9.44,3.44.53,4.51a10,10,0,0,1,.06,1.67,11.15,11.15,0,0,1-.27-1.64c-.14-1.06-.35-2.6-.68-4.48a49.17,49.17,0,0,0-4.55-14.13c-2.68-5.16-6.21-9.23-9.36-11.36A20.32,20.32,0,0,0,284.64,169.69Z" style="fill:#263238"/><path d="M292.21,226.92a2.1,2.1,0,0,1,0-.59c0-.39,0-1,0-1.7.07-1.46.22-3.58.47-6.2s.59-5.72,1-9.17q.33-2.58.75-5.39a26.83,26.83,0,0,0,.33-5.77,23.84,23.84,0,0,0-9.19-17.41,15.44,15.44,0,0,0-5.5-2.69c-1.41-.35-2.23-.39-2.22-.45a2.63,2.63,0,0,1,.59,0,11.45,11.45,0,0,1,1.68.24,15.15,15.15,0,0,1,5.67,2.59,23.79,23.79,0,0,1,9.49,17.68,26.35,26.35,0,0,1-.35,5.87q-.4,2.81-.77,5.39c-.48,3.43-.86,6.53-1.16,9.14s-.49,4.72-.62,6.18l-.15,1.68A2.77,2.77,0,0,1,292.21,226.92Z" style="fill:#263238"/><path d="M212.82,264.77a2.24,2.24,0,0,1-.14-.2l-.38-.6-1.4-2.36c-1.19-2.05-2.93-5-4.82-8.85a62.78,62.78,0,0,1-5.16-14,36.73,36.73,0,0,1,.27-18.22A28.44,28.44,0,0,1,203,216a34.17,34.17,0,0,1,2.43-4c1.75-2.53,3.66-4.79,5.38-7a45.89,45.89,0,0,0,4.46-6.56,21.52,21.52,0,0,0,2.36-6.44,50.17,50.17,0,0,0,.35-5.7,13.84,13.84,0,0,1,1-4.23,7.13,7.13,0,0,1,1.43-2.35,2,2,0,0,1,.79-.54,3.94,3.94,0,0,0-.72.61,7.83,7.83,0,0,0-1.31,2.35,14,14,0,0,0-.94,4.18A46.35,46.35,0,0,1,218,192a21.56,21.56,0,0,1-2.34,6.58,45.53,45.53,0,0,1-4.46,6.66c-1.72,2.22-3.62,4.48-5.34,7a28.53,28.53,0,0,0-4.12,8.39,36.57,36.57,0,0,0-.3,18,64.27,64.27,0,0,0,5,14c1.84,3.83,3.53,6.83,4.67,8.91.55,1,1,1.82,1.31,2.4l.34.64C212.8,264.69,212.83,264.76,212.82,264.77Z" style="fill:#263238"/><g style="opacity:0.30000000000000004"><path d="M204.36,269.63A52.87,52.87,0,0,0,180,288.16a63.86,63.86,0,0,0-11.41,28.57c-.25,1.73-.09,4,1.58,4.52a2.63,2.63,0,0,0,2.79-1.33,8.37,8.37,0,0,0,.88-3.17A66.94,66.94,0,0,1,204.77,270"/></g><path d="M296,178.05a11.94,11.94,0,0,0-4.1,1.33,12.17,12.17,0,0,0-3.05,3.05c-.06,0,.06-.52.49-1.23a6.84,6.84,0,0,1,2.29-2.26,6.93,6.93,0,0,1,3.05-1A2.45,2.45,0,0,1,296,178.05Z" style="fill:#fafafa"/><path d="M301.76,224.26a29.17,29.17,0,0,0-4.23-2.57,30.18,30.18,0,0,0-4.78-1.33,8.92,8.92,0,0,1,5,.85A8.83,8.83,0,0,1,301.76,224.26Z" style="fill:#fafafa"/><path d="M336.6,218.92c-.05,0-.2-.45-.65-1.19a9.24,9.24,0,0,0-2.49-2.66,13.38,13.38,0,0,0-4.93-2.19,50,50,0,0,0-6.65-.94c-4.77-.49-9.09-1-12.21-1.32l-3.69-.46a7.13,7.13,0,0,1-1.35-.24,6.81,6.81,0,0,1,1.37,0l3.71.3c3.13.27,7.45.68,12.22,1.17a44.06,44.06,0,0,1,6.71,1,13.46,13.46,0,0,1,5.05,2.35,8.75,8.75,0,0,1,2.43,2.86,5.47,5.47,0,0,1,.4.94A1.09,1.09,0,0,1,336.6,218.92Z" style="fill:#fafafa"/><path d="M342.21,268.17s-.29-.7-.83-2a26.58,26.58,0,0,0-2.88-5,30,30,0,0,0-5.95-6.14A33.91,33.91,0,0,0,323.4,250a46,46,0,0,0-18.86-2.33c-2.45.18-4.42.44-5.78.66l-1.56.24a2,2,0,0,1-.56.06,2.31,2.31,0,0,1,.54-.16c.35-.08.87-.22,1.55-.34a53.8,53.8,0,0,1,5.78-.83,44.46,44.46,0,0,1,19.07,2.21,33.89,33.89,0,0,1,9.27,5.19A29.47,29.47,0,0,1,338.8,261a24.67,24.67,0,0,1,2.77,5.16,15.78,15.78,0,0,1,.51,1.51A2.12,2.12,0,0,1,342.21,268.17Z" style="fill:#fafafa"/><path d="M336.49,346a1.65,1.65,0,0,1-.05-.52c0-.4,0-.89-.05-1.49s-.05-1.43-.1-2.35-.11-2-.2-3.11c-.34-4.6-1.16-10.93-2.32-17.88s-2.37-13.22-3.2-17.77c-.42-2.27-.74-4.12-.95-5.39-.1-.59-.17-1.08-.23-1.47a2.54,2.54,0,0,1-.05-.52,1.72,1.72,0,0,1,.15.5l.33,1.45c.28,1.34.65,3.15,1.11,5.36.93,4.53,2.19,10.79,3.36,17.76a169.82,169.82,0,0,1,2.16,17.94c.08,1.16.12,2.2.13,3.12s0,1.71,0,2.36,0,1.09,0,1.49A1.65,1.65,0,0,1,336.49,346Z" style="fill:#fafafa"/><g style="opacity:0.30000000000000004"><path d="M332.05,309.38c.1,2.69.87,5.27,1.28,7.93s2,5.57,4.65,5.89c2.24.27,4.34-1.53,5.1-3.66a12.79,12.79,0,0,0,.06-6.7c-1.87-9.61-6.41-18.46-11.11-27-4.14-7.55-8.54-15.14-14.9-20.93s-15.06-9.62-23.55-8.2c0,0,12.66.39,20.66,8.25S331.88,304.92,332.05,309.38Z"/></g><g style="opacity:0.30000000000000004"><path d="M294.65,255c6.84-20.22,13-44,8.58-62.11,7.72,8.83,9.39,22.65,6.49,33.59s-10,20.73-16.14,30.23"/></g><path d="M369.44,368c-.09,0-.14-1.14-.53-2.93a22.1,22.1,0,0,0-2.65-6.6,21.88,21.88,0,0,0-4.64-5.38c-1.41-1.17-2.41-1.74-2.36-1.82a2.54,2.54,0,0,1,.74.33,14.37,14.37,0,0,1,1.85,1.2,19.6,19.6,0,0,1,7.42,12.2,13.08,13.08,0,0,1,.21,2.19A2.6,2.6,0,0,1,369.44,368Z" style="fill:#fafafa"/><path d="M404.58,390.7a4,4,0,0,1-.17,1.84,10.35,10.35,0,0,1-2,4,10.24,10.24,0,0,1-3.53,2.75,4.34,4.34,0,0,1-1.77.52,15.93,15.93,0,0,1,1.61-.85,12.08,12.08,0,0,0,3.29-2.75,11.78,11.78,0,0,0,2.07-3.75A16.37,16.37,0,0,1,404.58,390.7Z" style="fill:#fafafa"/><path d="M366.36,308.15a2.56,2.56,0,0,1,.21.48c.11.33.31.8.49,1.43a29.71,29.71,0,0,1,1.12,5.41,32.35,32.35,0,0,1-15,31.33,30.13,30.13,0,0,1-4.92,2.53c-.6.26-1.09.39-1.41.51a1.76,1.76,0,0,1-.51.14,20,20,0,0,1,1.84-.84,35.08,35.08,0,0,0,4.8-2.65,33.42,33.42,0,0,0,13.84-36.38A19.38,19.38,0,0,1,366.36,308.15Z" style="fill:#fafafa"/><g style="opacity:0.30000000000000004"><path d="M374.8,350.13a13.42,13.42,0,0,0-5.37-2.59,39.8,39.8,0,0,1-6.29-1.93,7.78,7.78,0,0,1-4.39-4.62c-.51-1.81-.05-3.73.25-5.59a34.55,34.55,0,0,0-1.81-17.84,1.57,1.57,0,0,0-.62-.9,1.11,1.11,0,0,0-1.38.45,3.38,3.38,0,0,0-.46,1.51c-.93,6.63-3,13.26-7.13,18.54s-9.74,9.67-16.44,9.56l-.37,1.09a22.36,22.36,0,0,0,11.07,2.93c3.85.14,7.71-.25,11.56-.25a58.09,58.09,0,0,1,23.56,5A6,6,0,0,0,374.8,350.13Z"/></g><path d="M160.43,366.07c-.1,0-.26-1.52-.93-3.89a30.19,30.19,0,0,0-1.5-4.05,31.47,31.47,0,0,0-2.62-4.58,32.76,32.76,0,0,0-3.41-4,30.49,30.49,0,0,0-3.29-2.79c-2-1.44-3.39-2.11-3.34-2.2a4.47,4.47,0,0,1,1,.42,9.66,9.66,0,0,1,1.12.59c.42.26.92.52,1.43.89a26.35,26.35,0,0,1,3.41,2.75,27.25,27.25,0,0,1,6.14,8.76,25.39,25.39,0,0,1,1.41,4.14,15,15,0,0,1,.35,1.65,10.84,10.84,0,0,1,.18,1.26A5.18,5.18,0,0,1,160.43,366.07Z" style="fill:#fafafa"/><path d="M186.49,325.9a5.51,5.51,0,0,1-2.09.33,14.19,14.19,0,0,1-9.53-3.31,5.38,5.38,0,0,1-1.43-1.56,17.64,17.64,0,0,0,13.05,4.54Z" style="fill:#fafafa"/><path d="M177.77,301.85c-.08,0-.54-.8-1.59-1.9a12.11,12.11,0,0,0-2-1.72,14.3,14.3,0,0,0-2.9-1.47,14.46,14.46,0,0,0-3.17-.71,12.08,12.08,0,0,0-2.65,0c-1.51.18-2.41.55-2.44.45s.2-.14.6-.31a8.59,8.59,0,0,1,1.78-.51,11.25,11.25,0,0,1,2.75-.15,13.54,13.54,0,0,1,3.31.7,13.15,13.15,0,0,1,3,1.56,11.37,11.37,0,0,1,2,1.87,8.24,8.24,0,0,1,1,1.52C177.71,301.61,177.81,301.83,177.77,301.85Z" style="fill:#fafafa"/><path d="M157.93,316.86a21.76,21.76,0,0,0-5.4.12,21,21,0,0,0-5,2,3.8,3.8,0,0,1,1.25-1,11.26,11.26,0,0,1,3.67-1.44,11,11,0,0,1,3.94-.08A3.73,3.73,0,0,1,157.93,316.86Z" style="fill:#fafafa"/><path d="M178,276.78a4.34,4.34,0,0,1-1.81,0,12.55,12.55,0,0,1-7.65-4,4.4,4.4,0,0,1-1-1.49A16.66,16.66,0,0,0,178,276.78Z" style="fill:#fafafa"/><path d="M197.94,273.36c-.13.07-.78-1.06-2-2s-2.48-1.29-2.44-1.44a5,5,0,0,1,4.46,3.43Z" style="fill:#fafafa"/><path d="M209.18,266.12a1.67,1.67,0,0,1-.47,0c-.31,0-.77-.06-1.34-.17a26.06,26.06,0,0,1-4.82-1.24,28.21,28.21,0,0,1-18.77-24.87,25.89,25.89,0,0,1,.12-5c.06-.59.16-1,.21-1.34a1.59,1.59,0,0,1,.12-.46,18.19,18.19,0,0,1-.13,1.82,31.38,31.38,0,0,0,0,4.92,28.66,28.66,0,0,0,18.53,24.55,30.49,30.49,0,0,0,4.73,1.39C208.54,266,209.19,266.08,209.18,266.12Z" style="fill:#fafafa"/><path d="M200.38,221.28c0,.05-.37-.09-.79-.5a4.41,4.41,0,0,1-1.15-2,4.6,4.6,0,0,1-.08-2.28c.15-.57.36-.87.41-.85a10.47,10.47,0,0,0,.17,3A10.2,10.2,0,0,0,200.38,221.28Z" style="fill:#fafafa"/><path d="M216.12,195.42c0,.05-.41.28-1.18.31a4.71,4.71,0,0,1-4.49-3.37,1.87,1.87,0,0,1,0-1.22c.09,0,.13.45.39,1.11a5.11,5.11,0,0,0,4.15,3.11C215.65,195.43,216.1,195.33,216.12,195.42Z" style="fill:#fafafa"/><path d="M114.48,376.75a3.09,3.09,0,0,1-1.46-.67,8.16,8.16,0,0,1-2.6-2.9,8.27,8.27,0,0,1-1-3.77,3.35,3.35,0,0,1,.25-1.59,9.26,9.26,0,0,1,.12,1.57,9.56,9.56,0,0,0,1.08,3.54,9.44,9.44,0,0,0,2.36,2.86C114,376.39,114.52,376.67,114.48,376.75Z" style="fill:#fafafa"/><path d="M106.58,403.25a6.09,6.09,0,0,1-3.52-.64,6.18,6.18,0,0,1-2.9-2.11c.1-.11,1.34.88,3.1,1.63S106.59,403.1,106.58,403.25Z" style="fill:#fafafa"/><path d="M261.13,105.73a42.43,42.43,0,0,0-1.79,7.18,43.64,43.64,0,0,0,0,7.41,7.11,7.11,0,0,1-.5-2.15,21.18,21.18,0,0,1,0-5.32,21.42,21.42,0,0,1,1.3-5.16A6.75,6.75,0,0,1,261.13,105.73Z" style="fill:#263238"/><path d="M269.08,111.51a34.29,34.29,0,0,0-5.86,3.89,33.22,33.22,0,0,0-4.53,5.38,6,6,0,0,1,.91-1.89,17.93,17.93,0,0,1,7.5-6.69A6.63,6.63,0,0,1,269.08,111.51Z" style="fill:#263238"/><path d="M222.46,109.26a3.72,3.72,0,0,0-2.2-.64,4.48,4.48,0,0,0-2.5.94,3.85,3.85,0,0,0-1.6,3,5.65,5.65,0,0,0,1.58,3.91,6.56,6.56,0,0,0,1.94,1.4,7.81,7.81,0,0,0,2.48.64,11.38,11.38,0,0,0,5.42-1,30.6,30.6,0,0,0,5.21-3,42.3,42.3,0,0,1,5.21-3.24,13.39,13.39,0,0,1,5.55-1.47,18.07,18.07,0,0,1,5.15.6,22.48,22.48,0,0,1,4.27,1.47,8.36,8.36,0,0,1,2.95,2.3,5.79,5.79,0,0,1,1.16,2.57,4.35,4.35,0,0,1-.06,1.79,2,2,0,0,1-.22.57,5.16,5.16,0,0,0,.08-2.32,5.75,5.75,0,0,0-1.19-2.43,8.07,8.07,0,0,0-2.88-2.14,21.65,21.65,0,0,0-4.21-1.39,18.14,18.14,0,0,0-5-.55,13.24,13.24,0,0,0-5.35,1.46,41.43,41.43,0,0,0-5.14,3.21,30.68,30.68,0,0,1-5.31,3.09,11.89,11.89,0,0,1-5.66,1,8.26,8.26,0,0,1-2.62-.7,6.76,6.76,0,0,1-2.06-1.53,5.93,5.93,0,0,1-1.64-4.21,4.15,4.15,0,0,1,.57-1.94,4.41,4.41,0,0,1,1.22-1.31,4.65,4.65,0,0,1,2.68-.91,3.23,3.23,0,0,1,1.72.45,2.46,2.46,0,0,1,.37.28C222.43,109.22,222.47,109.25,222.46,109.26Z" style="fill:#263238"/><path d="M217,153c0-.06.63.09,1.75.14a14.62,14.62,0,0,0,4.67-.62,22,22,0,0,0,6.26-3.15,57.37,57.37,0,0,0,6.5-5.69,59.27,59.27,0,0,1,6.55-5.77,22,22,0,0,1,6.36-3.23,14,14,0,0,1,4.78-.62,10,10,0,0,1,1.3.17,1.43,1.43,0,0,1,.44.12,15.65,15.65,0,0,0-6.41.68,22.74,22.74,0,0,0-6.19,3.27,63.29,63.29,0,0,0-6.47,5.75,52.65,52.65,0,0,1-6.59,5.71,21.07,21.07,0,0,1-6.43,3.11,13.49,13.49,0,0,1-4.79.47,8.83,8.83,0,0,1-1.29-.21A2.19,2.19,0,0,1,217,153Z" style="fill:#263238"/><path d="M277.54,125.74a23.29,23.29,0,0,0-1.53-2.58,10.39,10.39,0,0,0-12.82-3.29,23,23,0,0,0-2.59,1.52s.17-.25.56-.61a9.46,9.46,0,0,1,1.87-1.25A10.31,10.31,0,0,1,276.31,123a8.83,8.83,0,0,1,1,2A2.08,2.08,0,0,1,277.54,125.74Z" style="fill:#263238"/><path d="M339.16,221.88a5.91,5.91,0,0,1-.11-1.36c0-1-.07-2.21-.11-3.69s-.07-3.45-.1-5.48a18.3,18.3,0,0,0-.23-3.19,4,4,0,0,0-1.65-2.74,8.13,8.13,0,0,1-1.41-1.13,2.43,2.43,0,0,1-.61-1.75c0-.6.13-1.14.11-1.64a1.71,1.71,0,0,0-.53-1.24,20.51,20.51,0,0,0-2.54-1.37,5.1,5.1,0,0,1-1.62-2.07,7.23,7.23,0,0,0-1.08-1.74,3.07,3.07,0,0,0-1.28-.81,1.82,1.82,0,0,0-1.27.11,1.33,1.33,0,0,1,1.32-.31,3.15,3.15,0,0,1,1.43.8,6.6,6.6,0,0,1,1.2,1.78,4.76,4.76,0,0,0,1.54,1.87,18.75,18.75,0,0,1,2.62,1.38,2.2,2.2,0,0,1,.71,1.58c0,.58-.09,1.13-.1,1.66a1.93,1.93,0,0,0,.48,1.41,8.79,8.79,0,0,0,1.34,1.05,4.16,4.16,0,0,1,1.26,1.38,5.65,5.65,0,0,1,.58,1.69,17.59,17.59,0,0,1,.21,3.26c0,2,0,3.9,0,5.5s0,2.72-.05,3.7A8.12,8.12,0,0,1,339.16,221.88Z" style="fill:#263238"/><path d="M342.84,226.59a2.19,2.19,0,0,1-.45-1,6.41,6.41,0,0,1,0-3c.24-1.24.84-2.63,1.27-4.18s.66-3.45-.47-4.92c-.27-.37-.58-.74-.83-1.15a3.4,3.4,0,0,1-.48-1.39,14.15,14.15,0,0,1,.22-2.62,6.22,6.22,0,0,0-1.06-4,6.88,6.88,0,0,0-2.06-2,9.11,9.11,0,0,1-.94-.52,2.84,2.84,0,0,1,1,.35,6.28,6.28,0,0,1,2.27,1.94,6.44,6.44,0,0,1,1.24,4.25,14.4,14.4,0,0,0-.19,2.52,4.59,4.59,0,0,0,1.22,2.3,4.62,4.62,0,0,1,.9,2.73,8.82,8.82,0,0,1-.38,2.62c-.48,1.6-1.11,2.94-1.38,4.14a6.69,6.69,0,0,0-.2,2.85C342.71,226.22,342.89,226.57,342.84,226.59Z" style="fill:#263238"/><path d="M163.69,250.77s0-.13,0-.4a11.35,11.35,0,0,1,.11-1.14,19,19,0,0,1,1.09-4.08c.63-1.68,1.5-3.59,2.54-5.72a10.9,10.9,0,0,1,2.17-3.05c.94-.89,2.1-1.62,2.49-2.83s.22-2.63.75-3.88a18.4,18.4,0,0,1,1.87-3.22c1.29-1.94,2.46-3.69,3.45-5.2l2.37-3.47a10.06,10.06,0,0,1,.92-1.24,8.9,8.9,0,0,1-.75,1.35l-2.23,3.57-3.35,5.25a17.91,17.91,0,0,0-1.8,3.14c-.49,1.13-.3,2.47-.73,3.86s-1.77,2.2-2.64,3a10.48,10.48,0,0,0-2.09,2.91c-1.05,2.08-2,4-2.63,5.62a22.88,22.88,0,0,0-1.23,4C163.78,250.23,163.73,250.78,163.69,250.77Z" style="fill:#263238"/><path d="M141,331a1.4,1.4,0,0,0,1.1-.55,2.14,2.14,0,0,0,.43-1.37,3.82,3.82,0,0,0-.76-1.81,13.18,13.18,0,0,1-1.36-2.14,8.3,8.3,0,0,1-.73-2.85,8.51,8.51,0,0,1,.39-3.24,9.36,9.36,0,0,1,1.73-3,7.26,7.26,0,0,0,.9-1.41,3.92,3.92,0,0,0,.34-1.54,15.85,15.85,0,0,0-.41-3.09,8.87,8.87,0,0,1-.09-2.94,8.32,8.32,0,0,1,.77-2.44,7.9,7.9,0,0,1,2.31-2.84,5,5,0,0,1,.83-.55c.21-.1.32-.15.33-.13s-.4.28-1,.83a8.36,8.36,0,0,0-2.11,2.85,8.05,8.05,0,0,0-.54,5.13,15.72,15.72,0,0,1,.45,3.2,4.41,4.41,0,0,1-.37,1.73,8.41,8.41,0,0,1-1,1.51,8.78,8.78,0,0,0-1.66,2.86,8.1,8.1,0,0,0-.4,3,8,8,0,0,0,.64,2.7,13.54,13.54,0,0,0,1.28,2.12,3.94,3.94,0,0,1,.74,2,2.24,2.24,0,0,1-.57,1.51,1.36,1.36,0,0,1-.9.48A.64.64,0,0,1,141,331Z" style="fill:#263238"/><path d="M376,302c-.06,0,.06-.54-.06-1.5a6.34,6.34,0,0,0-1.77-3.56,5.76,5.76,0,0,0-2.34-1.43,12.13,12.13,0,0,1-1.51-.6,3.09,3.09,0,0,1-1.32-1.22c-.6-1.17-.31-2.49-.31-3.69a3.81,3.81,0,0,0-.31-1.75,2.74,2.74,0,0,0-1.3-1.21c-2.34-1.08-5.08,0-7.37-1.06a3.52,3.52,0,0,1-1.39-1.14,4,4,0,0,1-.62-1.55,16.38,16.38,0,0,1-.16-2.88,5.74,5.74,0,0,0-.41-2.24A2.92,2.92,0,0,0,356,276.9a2.41,2.41,0,0,0-1.41-.31,1.64,1.64,0,0,1,1.51.13,3,3,0,0,1,1.28,1.31,5.85,5.85,0,0,1,.51,2.35,18.59,18.59,0,0,0,.22,2.81,3.08,3.08,0,0,0,1.79,2.34,8.41,8.41,0,0,0,3.46.46,8.68,8.68,0,0,1,3.94.57,3.24,3.24,0,0,1,1.53,1.44,4.16,4.16,0,0,1,.36,2c0,1.28-.27,2.51.23,3.46s1.6,1.28,2.55,1.65a6.14,6.14,0,0,1,2.46,1.57,6.36,6.36,0,0,1,1.7,3.8,4.7,4.7,0,0,1-.05,1.14A1.14,1.14,0,0,1,376,302Z" style="fill:#263238"/><path d="M290.81,327.26c-8-9.66-13-21.9-21.74-37.78,0,0-16.53,71.81,4.55,73.5,9.78.79,15.51-5.39,12.37-22.68C283.9,328.78,290.81,327.26,290.81,327.26Z" style="fill:#F2A8A6"/><path d="M278.42,306.47a1.7,1.7,0,0,1,0,.54c-.06.41-.13.92-.21,1.54l-.8,5.64c-.64,4.76-1.44,11.36-2,18.68s-.81,14,.12,18.7a23,23,0,0,0,1.64,5.41c.54,1.22,1,1.85.91,1.88a1.92,1.92,0,0,1-.32-.45,11,11,0,0,1-.77-1.35,20.73,20.73,0,0,1-1.82-5.42c-1-4.76-.8-11.49-.28-18.81s1.41-13.94,2.14-18.7c.36-2.38.71-4.29,1-5.62.12-.61.22-1.11.31-1.52A2.46,2.46,0,0,1,278.42,306.47Z" style="fill:#263238"/><path d="M275.55,352.63a13,13,0,0,1-10.59.94,40.78,40.78,0,0,0,5.35.14A39.55,39.55,0,0,0,275.55,352.63Z" style="fill:#fafafa"/><path d="M286.31,330.19c-.06.14-2.39-.83-5.41-1.45s-5.54-.67-5.54-.82a14.65,14.65,0,0,1,5.65.31A14.5,14.5,0,0,1,286.31,330.19Z" style="fill:#fafafa"/><path d="M277.39,306.29a35.25,35.25,0,0,0-4.7-3.05,34.64,34.64,0,0,0-5.32-1.78,13.23,13.23,0,0,1,10,4.83Z" style="fill:#fafafa"/><g style="opacity:0.30000000000000004"><path d="M278.31,307.08s-8.31,51.78,2,53.08c0,0,3.1,1,4.84-4.84s-.49-12.75-1-16.63a12.3,12.3,0,0,1,2.63-9.24,6.54,6.54,0,0,1,4.07-2.47C290.64,327.33,278.42,307.29,278.31,307.08Z"/></g><path d="M230.79,173.61c0,.71-1.74,1.36-3.95,1.18S223,173.7,223.12,173s1.88-1,3.92-.8S230.77,172.89,230.79,173.61Z" style="fill:#eb996e"/><path d="M262.84,169.11c.32.62-2.5,2.69-6.54,4s-7.54,1.24-7.64.54,3-1.8,6.85-3S262.51,168.45,262.84,169.11Z" style="fill:#eb996e"/></g><g id="freepik--Plant--inject-204"><path d="M372.79,132.14a3.35,3.35,0,0,1,.08-.47c.07-.34.16-.8.29-1.38.27-1.24.67-3,1.17-5.3,1.05-4.62,2.55-11.27,4.41-19.48l14.78-64.4.26-1.14.26,1.14.32,1.43c5.75,25.55,11,48.67,14.73,65.43,1.86,8.36,3.36,15.13,4.41,19.84.5,2.32.9,4.14,1.17,5.4.12.6.22,1.07.29,1.41s.08.48.08.48-.05-.16-.13-.47-.2-.8-.35-1.4c-.29-1.25-.72-3.06-1.26-5.38-1.09-4.7-2.65-11.46-4.57-19.8-3.82-16.75-9.08-39.86-14.89-65.39l-.32-1.43H394c-5.84,25.18-11.12,47.9-14.94,64.36-1.92,8.2-3.49,14.83-4.57,19.44-.55,2.28-1,4.05-1.27,5.28-.14.58-.26,1-.34,1.37S372.79,132.14,372.79,132.14Z" style="fill:#263238"/><path d="M372.77,151.27V135.1h43.14v16.17a18.83,18.83,0,0,1-18.82,18.82H391.6A18.83,18.83,0,0,1,372.77,151.27Z" style="fill:#455a64"/><path d="M372.77,135.1a3.76,3.76,0,0,1,.49.68l1.32,2,4.75,7.42,15.52,24.57.11.18h-.46l15.05-24.71,4.61-7.45,1.27-2a4.15,4.15,0,0,1,.48-.68,6.21,6.21,0,0,1-.39.74l-1.19,2.06-4.46,7.54c-3.84,6.37-9.1,15.12-14.91,24.78l-.22.37-.23-.36-.11-.18L379,145.4c-1.92-3.14-3.49-5.69-4.61-7.51l-1.23-2.06A7.22,7.22,0,0,1,372.77,135.1Z" style="fill:#263238"/><path d="M398.62,41a4.71,4.71,0,1,1-4.71-4.71A4.71,4.71,0,0,1,398.62,41Z" style="fill:#263238"/><path d="M396.36,171.84a2,2,0,1,1-2-2A2,2,0,0,1,396.36,171.84Z" style="fill:#263238"/><path d="M393.45,172.6l.32-.16a4.45,4.45,0,0,0-2,3.33,11.63,11.63,0,0,0,.34,4c.09.42.31.94.74.91s.57-.48.63-.86a8.54,8.54,0,0,0,.07-2.42,4.26,4.26,0,0,0,.93,2.85c.13.16.31.32.5.27s.27-.26.31-.45a9.59,9.59,0,0,0,.31-2.07,3.24,3.24,0,0,0,.64,1.69,1.12,1.12,0,0,0,1.61.1,1.59,1.59,0,0,0,.17-1.18,13.94,13.94,0,0,0-2.82-6.62" style="fill:#263238"/><path d="M375.49,135.1S356.11,112.76,358.26,112s19.38,11.58,19.38,11.58S362.84,90.42,365.8,88s18.57,29.34,18.57,29.34-2.42-46.3,0-46.83,11.3,46.29,11.3,46.29,13.19-42.8,17-42.8-4,41.18-4,41.18,15.61-26.37,18-22.87-11,32-11,32,19.65-16.41,20.46-14.26-21.27,25-21.27,25Z" style="fill:#F2A8A6"/><path d="M372.79,101.46c.13-.06,3.57,7.31,7.67,16.45s7.33,16.62,7.19,16.68-3.57-7.31-7.67-16.46S372.65,101.52,372.79,101.46Z" style="fill:#263238"/><path d="M388.44,105.57c.15,0,.72,6.49,1.28,14.51s.89,14.53.74,14.54-.72-6.48-1.28-14.5S388.29,105.58,388.44,105.57Z" style="fill:#263238"/><path d="M410,84.84a1.86,1.86,0,0,1-.11.53c-.12.39-.26.88-.43,1.47-.4,1.35-.95,3.17-1.62,5.39-1.36,4.55-3.2,10.86-5.07,17.87s-3.42,13.39-4.5,18c-.53,2.25-1,4.11-1.28,5.48l-.37,1.49a2.09,2.09,0,0,1-.16.51,1.76,1.76,0,0,1,.06-.53c.07-.41.16-.91.26-1.51.24-1.31.62-3.2,1.12-5.53,1-4.65,2.48-11,4.35-18.07s3.77-13.31,5.23-17.84c.73-2.26,1.34-4.09,1.79-5.35.21-.57.38-1,.52-1.44A3,3,0,0,1,410,84.84Z" style="fill:#263238"/><path d="M419.37,108.7c.12.09-3.66,5.73-8.45,12.6s-8.76,12.38-8.88,12.29,3.66-5.72,8.45-12.6S419.25,108.62,419.37,108.7Z" style="fill:#263238"/><path d="M382,134.63a7.58,7.58,0,0,1-1.7-1.22,47.22,47.22,0,0,1-3.68-3.4,46.29,46.29,0,0,1-3.31-3.77,7.18,7.18,0,0,1-1.17-1.73c.12-.09,2.13,2.35,4.86,5.13S382.13,134.5,382,134.63Z" style="fill:#263238"/><path d="M393.8,125.75a21.45,21.45,0,0,1,.69,4.61,20.19,20.19,0,0,1,.15,4.65,20.94,20.94,0,0,1-.68-4.6A20,20,0,0,1,393.8,125.75Z" style="fill:#263238"/><path d="M415.91,145.17a10,10,0,0,1-1.67.35c-1.08.19-2.64.43-4.58.7a150,150,0,0,1-15.24,1.36,97.2,97.2,0,0,1-15.3-.64c-1.94-.25-3.51-.51-4.58-.74a12,12,0,0,1-1.66-.39,9.41,9.41,0,0,1,1.69.19c1.08.16,2.65.36,4.59.56a112.14,112.14,0,0,0,15.24.48c6-.2,11.33-.75,15.21-1.19l4.6-.54A12.3,12.3,0,0,1,415.91,145.17Z" style="fill:#fff"/><path d="M415.91,150a12.72,12.72,0,0,1-1.67.34c-1.08.19-2.64.44-4.58.7a150,150,0,0,1-15.24,1.36,97.2,97.2,0,0,1-15.3-.64c-1.94-.25-3.51-.51-4.58-.74a10.41,10.41,0,0,1-1.66-.39,9.41,9.41,0,0,1,1.69.19c1.08.17,2.65.36,4.59.57a113.79,113.79,0,0,0,15.24.48c6-.21,11.33-.76,15.21-1.2l4.6-.53A9.27,9.27,0,0,1,415.91,150Z" style="fill:#fff"/><path d="M394.22,9.54a4.37,4.37,0,0,1,.1,1.11c0,.71.06,1.73.08,3,.05,2.54.08,6,.08,9.92s0,7.38-.08,9.92c0,1.27,0,2.3-.08,3a4.24,4.24,0,0,1-.1,1.1,4.24,4.24,0,0,1-.1-1.1c0-.71-.06-1.74-.08-3-.05-2.54-.08-6-.08-9.92s0-7.38.08-9.92c0-1.27,0-2.29.08-3A4.37,4.37,0,0,1,394.22,9.54Z" style="fill:#263238"/></g></svg>