<svg xmlns="http://www.w3.org/2000/svg" viewBox="8.37 21.97 481.53 457.75"><g id="freepik--background-simple--inject-173"><path d="M488.67,234.08C495.11,177.5,476,120.67,435.82,80.3c-19.75-19.85-46.76-38.56-82.65-47.6C252.54,7.36,187.31,30.58,154.71,92.24s-126.17,51-141,157.36,57.41,223.27,180,229.65,106.84-54.66,173.92-80.85C418.91,378.38,479.07,318.52,488.67,234.08Z" style="fill:#8870E5"/><path d="M488.67,234.08C495.11,177.5,476,120.67,435.82,80.3c-19.75-19.85-46.76-38.56-82.65-47.6C252.54,7.36,187.31,30.58,154.71,92.24s-126.17,51-141,157.36,57.41,223.27,180,229.65,106.84-54.66,173.92-80.85C418.91,378.38,479.07,318.52,488.67,234.08Z" style="fill:#fff;opacity:0.7000000000000001"/></g><g id="freepik--Clouds--inject-173"><path d="M347.5,29.76A46.21,46.21,0,0,0,332,49.89s-4-8.61-19.55-4.31-18.66,14.77-18.66,14.77-4.37-6.15-13.26-3.08-10.25,12.92-10.25,12.92H397.66" style="fill:none;stroke:#263238;stroke-linecap:round;stroke-linejoin:round"/><path d="M406.55,70.19h42.72s-2.88-14.76-11.56-20.91S413,48.66,413,48.66,410,26.51,376.31,22.82a41.91,41.91,0,0,0-22.56,3.3" style="fill:none;stroke:#263238;stroke-linecap:round;stroke-linejoin:round"/><path d="M98.89,68.72A28.53,28.53,0,0,0,93,78s-2.5-5.34-12.11-2.67S69.3,84.44,69.3,84.44s-2.71-3.82-8.22-1.91-6.35,8-6.35,8h54.76" style="fill:none;stroke:#263238;stroke-linecap:round;stroke-linejoin:round"/><path d="M119.12,90.53h46.5s-1.78-9.14-7.16-13-15.28-.38-15.28-.38-1.91-13.72-22.74-16a26.21,26.21,0,0,0-13.08,1.66" style="fill:none;stroke:#263238;stroke-linecap:round;stroke-linejoin:round"/><path d="M286.56,22.92C275.27,21.68,271.68,32,271.68,32s-1.36-2.88-6.56-1.44-6.26,4.95-6.26,4.95a3.8,3.8,0,0,0-4.45-1A5.65,5.65,0,0,0,251,38.82H311s-1-5-3.88-7-8.27-.21-8.27-.21A8.57,8.57,0,0,0,297,27.72" style="fill:none;stroke:#263238;stroke-linecap:round;stroke-linejoin:round"/></g><g id="freepik--Plants--inject-173"><path d="M31.62,397.23a53.4,53.4,0,0,0,10.18,1.92l7.09,5.28a10.17,10.17,0,0,0-5.22,1.74c-3.4,2.36-5.08,12.48-5.15,12.91a.38.38,0,0,0,.13.38.45.45,0,0,0,.39.09c.27-.08,6.55-1.88,10.24-5.47a8,8,0,0,0,2.38-5,10.78,10.78,0,0,0,0-2.64l5,3.74,10.66,27.57a17.72,17.72,0,0,0-1.7-.82c-4.92-2-12-1-12.27-1a.43.43,0,0,0-.32.23.41.41,0,0,0,0,.39c.23.39,5.63,9.47,10.71,11.86S77.63,450,78,449.94a.43.43,0,0,0,.33-.24.5.5,0,0,0,0-.13.4.4,0,0,0-.08-.28L74.48,444v0a28.2,28.2,0,0,0-4.83-4.62l-1.31-3.4a34,34,0,0,0,4.87-4.09c0,3.51.32,8,1.82,10.76,2.66,4.93,10.27,9.5,10.59,9.69a.42.42,0,0,0,.42,0,.41.41,0,0,0,.2-.31v0l.09-6.57v0a28.13,28.13,0,0,0-1.13-6.58l1-3.52c1.79.05,5.87,0,8.63-1s8-7.25,10.46-10.23c2,1.38,3.4,2.25,3.56,2.34a.54.54,0,0,0,.56,0,.57.57,0,0,0,.29-.43v-.05l0-3.16,36.84,12.94-8.19,1.41a.36.36,0,0,0-.27,0,.45.45,0,0,0-.19.11L127.28,439c-1.78-1.39-10.14-7.66-15.28-6.77-5.62,1-15.32,12.58-15.73,13.08a.57.57,0,0,0,.2.87c.53.25,13.09,6.1,18.1,3.61,3.57-1.79,8.83-6.07,11.45-8.29l11.27-1.94q-.1.45-.21,1a13.59,13.59,0,0,0-2.34,5.73,11.87,11.87,0,0,0,1.16,5.84,11.61,11.61,0,0,0,.61,3.26h14.07c-.17-.69-.36-1.37-.58-2a20.86,20.86,0,0,0-2.19-4.26c0-.31,0-.62,0-.93a11,11,0,0,0-2.69-7,14.4,14.4,0,0,0-2.66-2.43l8.4-1.45L179.45,449a28.56,28.56,0,0,0-.89,5.08,49.65,49.65,0,0,0-9.15-7.26.45.45,0,0,0-.39,0,.43.43,0,0,0-.23.31,52.15,52.15,0,0,0-.66,8.28h48.13c-.16-2.4-.44-4.76-.65-6.35,2.35-.46,4-.91,4.15-1a.56.56,0,0,0,.28-.91s0,0,0,0l-6.4-6.26,0,0c-.08-.06-.67-.58-1.64-1.32,1.15-4.73-1.5-12.58-2.53-15.33a16.3,16.3,0,0,0,1.13-2.13c2.06-4.76-.57-21.94-.68-22.67a.56.56,0,0,0-.13-.28.7.7,0,0,0-.19-.15.55.55,0,0,0-.53,0c-.43.27-10.55,6.56-11.68,12.82-.57,3.13.5,8.19,1.71,12.48l-6-9.95,3.14-14.69A15.69,15.69,0,0,0,205,390c2.64-7.51-3.44-22.56-3.7-23.19a.51.51,0,0,0-.09-.16.55.55,0,0,0-.31-.18.57.57,0,0,0-.51.14c-.39.38-9.63,9.36-11.77,16.51-1.73,5.75,3.19,12.39,5.55,15.14l-2.82,13.21-.88-1.45a113.42,113.42,0,0,0-.55-13,.4.4,0,0,0-.1-.23.33.33,0,0,0-.15-.11.42.42,0,0,0-.42.06c-.2.16-2.14,1.76-4.4,3.95l-1.53-2.52L166.33,373.3c1.32-1.72,6.18-8.33,8.34-15,2.45-7.65.54-26.25.45-27a.54.54,0,0,0-.13-.3.54.54,0,0,0-.78-.07c-.66.53-16,13.16-16.26,20.21-.15,4.19,2.37,11.33,4.45,16.46l-4.9-7.21c-.46-5.53-1.9-19.15-5.26-24.33a7.27,7.27,0,0,0-.63-.86,19.23,19.23,0,0,0-6.55-4.51c7.26-4.8,17.29-16.48,17.75-17a.53.53,0,0,0,.13-.31.57.57,0,0,0,0-.26.57.57,0,0,0-.45-.36c-.84-.1-20.57-2.55-25.86,2.12-3.14,2.78-6.58,9.52-8.87,14.56l1.86-8.52c3.69-4.14,12.58-14.56,14-20.56a8.85,8.85,0,0,0,.18-1.05c.86-7.68-7.26-20.16-7.62-20.71a.58.58,0,0,0-.55-.25c-.45.07-4.52,1-9.19,13.89-4.49,12.41,0,28.08.55,30l-8.45,38.75-5.67-18.72c.93-1.54,4.49-7.73,5-12.7a8.31,8.31,0,0,0-.21-3.3c-1.65-5.45-14.36-13.65-14.9-14a.54.54,0,0,0-.49-.06.58.58,0,0,0-.35.35c-.18.56-4.45,13.75-1.36,18.41,2.21,3.33,7.1,8,9.63,10.35l3.49,11.54a14.39,14.39,0,0,0-4.32-1.9,50.32,50.32,0,0,0-3.74-7,.42.42,0,0,0-.4-.18c-.33,0-3.3.74-6.71,10.13-1,.65-1.89,1.34-2.76,2A68.8,68.8,0,0,0,94.4,340a.57.57,0,0,0-.34-.4.59.59,0,0,0-.53.05c-.45.31-11.11,7.54-14.47,14.2-2.44,4.83.31,11.3,2.23,14.82l-.07-.05a.42.42,0,0,0-.62.22,42.18,42.18,0,0,0-1.76,8.36l-2,5.05-5.57-14.43v0h0L58.87,340.27c1.6-1.46,7.54-7.12,10.83-13.36,2.49-4.71,3.93-14.5,4.63-20.79.36-3.19.53-5.48.55-5.75a.58.58,0,0,0-.26-.51.57.57,0,0,0-.58,0C73.3,300.25,56,310,54.5,316.9c-.89,4.1.35,11.56,1.51,17l-3.56-7.94c.51-5.52,1.47-19.19-.93-24.87-3-7.15-18.26-12.85-18.91-13.09a.55.55,0,0,0-.59.13c-.32.31-3,3.49.86,16.63,3.76,12.65,16.65,22.61,18.28,23.83l16.22,36.19-6.66-5a.44.44,0,0,0-.16-.22.43.43,0,0,0-.22-.06l-8.64-6.44c-.21-2.26-1.42-12.63-5.61-15.75-4.57-3.4-19.66-2.45-20.3-2.4a.56.56,0,0,0-.5.73c.19.56,4.59,13.71,9.84,15.62,3.76,1.37,10.48,2.23,13.9,2.61l9.16,6.83-.84.52a13.41,13.41,0,0,0-5.77,2.24,11.83,11.83,0,0,0-3.43,4.86,8.76,8.76,0,0,0-2.33,3.74,15,15,0,0,0-.18,3.85c-.39,1.54-.67,2.89-.85,3.83l-.48-1.07c.38-4.05,1.08-14.06-.68-18.23-2.21-5.23-13.38-9.41-13.86-9.59a.42.42,0,0,0-.43.09c-.24.24-2.23,2.57.63,12.19,2.75,9.27,12.2,16.57,13.39,17.47l11.89,26.52-11.48-8.57c-.16-1.65-1-9.25-4.12-11.54-3.35-2.49-14.41-1.79-14.88-1.76a.4.4,0,0,0-.31.18.42.42,0,0,0-.05.36C24.55,386.2,27.77,395.83,31.62,397.23Zm14-15.63.69-.22c.19,1.09.4,2.14.61,3.11Zm20.84,39.3c-.81,2.19-.69,6-.36,9.24l-3.08-8L67.17,412a8.78,8.78,0,0,0,1.09-.29A18.94,18.94,0,0,0,71,414.23c.34.4.67.81,1,1.2C69.7,416.81,67.27,418.71,66.46,420.9Zm21.34,8.36,1.62-5.94c.9.05,1.77.08,2.59.09A34.24,34.24,0,0,0,87.8,429.26Zm1.33-26a11.32,11.32,0,0,0,1.08-1.61l.73,2.42a12.63,12.63,0,0,0-1.51-.71Zm2.05-4.09q.34-.33.69-.69c0,1,0,2.09.07,3.19Zm17.63-8.87c-2.07-2.46-3.62-4.15-3.8-4.35a.55.55,0,0,0-.55-.17.57.57,0,0,0-.41.41,104.71,104.71,0,0,0-2.14,11.33,41,41,0,0,0-5.09-4.11l1.57-7.2a41.45,41.45,0,0,0,12.2-3.16,16.81,16.81,0,0,0,2.57-1.61l-2.9,10.6Zm.93,30.08,0-2c2.18,1.58,4.51,3.09,6.55,4.34ZM151.42,435h0l-28.44-10c0-2.16,0-10.37-2.24-17.05a25,25,0,0,0-2.19-4.53c.19-.37.36-.71.49-1a15.38,15.38,0,0,0,2.32-.65c4.87-1.78,15.53-15.51,16-16.1a.52.52,0,0,0,.09-.52.53.53,0,0,0-.39-.36c-.48-.13-12-3.15-17.33.34-2.52,1.66-5.29,5.56-7.52,9.23l-.15-.18,2.86-10.43,12.82-7.84a14.64,14.64,0,0,0,6.3,1.3c2.32,3.77,6.9,10.36,10.9,11.06s10.71.37,14.13.14l10.78,5.41a14.68,14.68,0,0,0-4.36,1.82,51.41,51.41,0,0,0-7.64-2.09.39.39,0,0,0-.41.17c-.19.27-1.73,2.9,2.73,11.84-.19,1.13-.33,2.28-.43,3.38A68.07,68.07,0,0,0,147.19,399a.55.55,0,0,0-.53,0,.54.54,0,0,0-.32.42c-.09.53-2.19,13.25.33,20.27,1.83,5.09,8.42,7.55,12.29,8.58l-.08,0a.42.42,0,0,0-.27.6,42.06,42.06,0,0,0,4.86,7l2.24,5Zm17.33,7.14-1.52-3.36a2.81,2.81,0,0,0,.48.12,26.71,26.71,0,0,0,4,.3,43.33,43.33,0,0,0,7.76,7.37Zm19.1-1c.74.7,1.53,1.43,2.36,2.15l-2.33-1.17C187.88,441.75,187.87,441.42,187.85,441.1Zm4.08,10.56-2.88-1.18a9.38,9.38,0,0,0,0-6l5.58,2.8,2.34,3.87A37.84,37.84,0,0,0,191.93,451.66ZM204.69,450a39,39,0,0,0,5.93-.26,21.49,21.49,0,0,0-2.41,2.45l-3.88-.54Zm-1.67-.11-.33,1.53-1.62-.22h0c-.1,0-.92-.07-2.19-.09l-1.84-3a15.51,15.51,0,0,0,3.21,1.31A18.54,18.54,0,0,0,203,449.92Zm-13.48-33a16.59,16.59,0,0,0,.61-3l11,18.13c-.3.52-.57,1.05-.81,1.57l-.34-.08c-4.12-.88-9-.24-12.39.48l-4.14-6.1A41.09,41.09,0,0,0,189.54,416.9Zm-3.69,17.51-.11,0a56.17,56.17,0,0,0-4.25-5.62c-3.69-4.38-7.77-8.44-8.07-8.74a.56.56,0,0,0-.51-.15.59.59,0,0,0-.41.34,47.59,47.59,0,0,0-2,6.5,38.11,38.11,0,0,0-7.39.65,16,16,0,0,0,.81-11.93,8.89,8.89,0,0,0-.36-.93c.71-.43,1.48-.94,2.29-1.51a47.86,47.86,0,0,0,10.5,7.41Zm-2.68-32c-2.91,3-5.78,6.63-5.88,9.22-.11,3.08,1.74,8.31,3.27,12.06L177,418.4c-.27-3.33-1-10.66-2.67-15.28a13.15,13.15,0,0,0-.35-7.22l7.61,3.83ZM153,361c1.85,1.12,3.22,1.84,3.7,2.08L179,395.92l-17.47-8.77c-.48-1.74-2.52-8.58-5.74-12.4a8.47,8.47,0,0,0-2.54-2.13c-1.71-.86-4.53-1-7.52-.85A56.26,56.26,0,0,0,153,361Zm-27.73,8.17a.41.41,0,0,0-.33-.26c-.25,0-2.75-.34-5.89-.48l.78-2.84,6.42-29.46c.88-.09,2.79-.32,5.15-.77a55.19,55.19,0,0,0,3.14,7.45c2.78,5.55,7.45,10.16,11.8,13.58-4,.31-8.7,1-11.92,2.65-5.36,2.71-6.79,10.85-7.16,14.45l-11.53,7.05.45-1.64a111.93,111.93,0,0,0,9-9.32.44.44,0,0,0,.1-.22A.42.42,0,0,0,125.26,369.21Zm-24.42,5.72c2.23-2.5,7-8.1,9.25-12.46a13.1,13.1,0,0,0,5-5.22l2.47,8.15-.82,3c-4.19,0-8.79.37-10.74,2.09-2.3,2-4.82,7-6.5,10.67ZM94,363.48c.16-.28.29-.6.43-.9.8.21,1.71.42,2.67.62a47.51,47.51,0,0,0,1.86,12.71l-3.6,16.48-.09-.06a58,58,0,0,0,1.15-6.94c.63-5.7.77-11.46.78-11.87a.6.6,0,0,0-.24-.48.55.55,0,0,0-.53-.06,44.89,44.89,0,0,0-6.07,3,38.24,38.24,0,0,0-5.57-4.92A16,16,0,0,0,94,363.48Zm-6.23,59.71-3.54,12.92a14.62,14.62,0,0,0-.88-1.66c-1.93-3.16-5.55-5.77-7.65-7.12a41.24,41.24,0,0,0,.84-5.09c.09-.81.17-1.63.23-2.42a14.07,14.07,0,0,0,2.19,1.31A27.35,27.35,0,0,0,87.75,423.19Zm-8.38-41.3a3,3,0,0,0,.24.43,27.52,27.52,0,0,0,2.57,3.15,42.42,42.42,0,0,0,0,10.69L78,385.3ZM49,389.18A41.31,41.31,0,0,0,57,379.39a21.15,21.15,0,0,0,1.58-4.51l.69-.63a10.93,10.93,0,0,0,3.24-6.79,14.65,14.65,0,0,0-.06-3.61l6.83,5.1,11.14,28.81a29.19,29.19,0,0,0-4.3,2.86,49.56,49.56,0,0,0-1-11.64.39.39,0,0,0-.24-.3.44.44,0,0,0-.39,0c-.33.22-8.15,5.52-10.61,10.4-2,3.94.73,9.36,2.07,11.64l-3.73,9.17-4.08-10.56v0h0Z" style="opacity:0.12"/><path d="M472.57,397.23a53.4,53.4,0,0,1-10.18,1.92l-7.08,5.28a10.17,10.17,0,0,1,5.21,1.74c3.4,2.36,5.08,12.48,5.15,12.91a.36.36,0,0,1-.13.38.45.45,0,0,1-.39.09c-.26-.08-6.55-1.88-10.24-5.47a8.07,8.07,0,0,1-2.37-5,10.83,10.83,0,0,1,0-2.64l-5,3.74-10.65,27.57a16.48,16.48,0,0,1,1.69-.82c4.92-2,12-1,12.28-1a.43.43,0,0,1,.31.23.41.41,0,0,1,0,.39c-.22.39-5.62,9.47-10.71,11.86s-13.91,1.53-14.28,1.5a.43.43,0,0,1-.34-.24.28.28,0,0,1,0-.13.4.4,0,0,1,.07-.28l3.82-5.34,0,0a28.37,28.37,0,0,1,4.82-4.62l1.32-3.4a34,34,0,0,1-4.87-4.09c0,3.51-.33,8-1.82,10.76-2.67,4.93-10.28,9.5-10.6,9.69a.4.4,0,0,1-.41,0A.4.4,0,0,1,418,452v0l-.1-6.57v0a28.45,28.45,0,0,1,1.14-6.58l-1-3.52c-1.79.05-5.87,0-8.62-1S401.35,427,398.94,424c-1.95,1.38-3.4,2.25-3.55,2.34a.56.56,0,0,1-.85-.42v-.05l-.05-3.16-36.85,12.94,8.2,1.41a.34.34,0,0,1,.26,0,.4.4,0,0,1,.19.11L376.91,439c1.79-1.39,10.14-7.66,15.29-6.77,5.61,1,15.31,12.58,15.72,13.08a.59.59,0,0,1,.12.48.61.61,0,0,1-.31.39c-.54.25-13.1,6.1-18.1,3.61-3.58-1.79-8.84-6.07-11.46-8.29l-11.26-1.94c.06.3.13.62.2,1a13.59,13.59,0,0,1,2.35,5.73,12,12,0,0,1-1.17,5.84,11.26,11.26,0,0,1-.61,3.26H353.61c.17-.69.36-1.37.59-2a21.28,21.28,0,0,1,2.18-4.26c0-.31,0-.62,0-.93a10.94,10.94,0,0,1,2.7-7,14.09,14.09,0,0,1,2.66-2.43l-8.41-1.45L324.75,449a30.49,30.49,0,0,1,.89,5.08,49.65,49.65,0,0,1,9.15-7.26.42.42,0,0,1,.38,0,.42.42,0,0,1,.24.31,55,55,0,0,1,.66,8.28H287.93c.17-2.4.44-4.76.65-6.35-2.35-.46-4-.91-4.15-1a.58.58,0,0,1-.39-.41.57.57,0,0,1,.11-.5s0,0,0,0l6.41-6.26v0c.08-.06.67-.58,1.64-1.32-1.15-4.73,1.51-12.58,2.53-15.33a17.61,17.61,0,0,1-1.13-2.13c-2-4.76.57-21.94.69-22.67a.55.55,0,0,1,.12-.28.62.62,0,0,1,.2-.15.55.55,0,0,1,.53,0c.43.27,10.55,6.56,11.67,12.82.57,3.13-.49,8.19-1.7,12.48l6-9.95L308,399.61a15.68,15.68,0,0,1-8.8-9.59c-2.64-7.51,3.43-22.56,3.69-23.19a.51.51,0,0,1,.09-.16.55.55,0,0,1,.31-.18.55.55,0,0,1,.51.14c.39.38,9.63,9.36,11.78,16.51,1.72,5.75-3.2,12.39-5.56,15.14l2.83,13.21.88-1.45a108.55,108.55,0,0,1,.55-13,.39.39,0,0,1,.09-.23.36.36,0,0,1,.16-.11.42.42,0,0,1,.42.06c.19.16,2.13,1.76,4.4,3.95l1.52-2.52,16.95-24.94c-1.32-1.72-6.18-8.33-8.33-15-2.46-7.65-.54-26.25-.46-27a.54.54,0,0,1,.13-.3.6.6,0,0,1,.22-.16.56.56,0,0,1,.57.09c.65.53,16,13.16,16.26,20.21.15,4.19-2.37,11.33-4.46,16.46l4.9-7.21c.46-5.53,1.9-19.15,5.26-24.33a8.6,8.6,0,0,1,.63-.86,19.28,19.28,0,0,1,6.56-4.51c-7.27-4.8-17.29-16.48-17.76-17a.61.61,0,0,1-.13-.31.56.56,0,0,1,.49-.62c.84-.1,20.56-2.55,25.85,2.12,3.15,2.78,6.59,9.52,8.88,14.56l-1.86-8.52c-3.7-4.14-12.58-14.56-14-20.56a7.2,7.2,0,0,1-.19-1.05c-.85-7.68,7.26-20.16,7.62-20.71a.58.58,0,0,1,.56-.25c.44.07,4.51,1,9.18,13.89,4.49,12.41,0,28.08-.54,30l8.45,38.75,5.66-18.72c-.93-1.54-4.49-7.73-5-12.7a8.13,8.13,0,0,1,.2-3.3c1.66-5.45,14.36-13.65,14.9-14a.55.55,0,0,1,.5-.06.56.56,0,0,1,.34.35c.19.56,4.45,13.75,1.36,18.41-2.21,3.33-7.1,8-9.62,10.35l-3.5,11.54a14.51,14.51,0,0,1,4.32-1.9,51.54,51.54,0,0,1,3.74-7,.43.43,0,0,1,.41-.18c.32,0,3.3.74,6.71,10.13.95.65,1.88,1.34,2.75,2A68,68,0,0,1,409.8,340a.53.53,0,0,1,.34-.4.56.56,0,0,1,.52.05c.45.31,11.12,7.54,14.48,14.2,2.43,4.83-.32,11.3-2.23,14.82l.07-.05a.41.41,0,0,1,.36,0,.4.4,0,0,1,.25.26,41.42,41.42,0,0,1,1.76,8.36l2,5.05L433,367.81v0h0l12.33-27.51c-1.59-1.46-7.54-7.12-10.83-13.36-2.49-4.71-3.93-14.5-4.63-20.79-.36-3.19-.52-5.48-.54-5.75a.54.54,0,0,1,.26-.51.56.56,0,0,1,.57,0c.74.41,18.06,10.17,19.54,17.06.89,4.1-.34,11.56-1.5,17l3.56-7.94c-.51-5.52-1.47-19.19.92-24.87,3-7.15,18.26-12.85,18.91-13.09a.54.54,0,0,1,.59.13c.33.31,3,3.49-.86,16.63-3.75,12.65-16.64,22.61-18.27,23.83l-16.23,36.19,6.67-5a.44.44,0,0,1,.16-.22.39.39,0,0,1,.21-.06l8.64-6.44c.21-2.26,1.42-12.63,5.61-15.75,4.57-3.4,19.67-2.45,20.3-2.4a.58.58,0,0,1,.44.24.57.57,0,0,1,.06.49c-.18.56-4.58,13.71-9.84,15.62-3.75,1.37-10.48,2.23-13.89,2.61L446,360.7l.83.52a13.45,13.45,0,0,1,5.78,2.24,11.92,11.92,0,0,1,3.43,4.86,8.76,8.76,0,0,1,2.33,3.74,15.45,15.45,0,0,1,.18,3.85c.38,1.54.66,2.89.85,3.83l.47-1.07c-.37-4.05-1.07-14.06.68-18.23,2.21-5.23,13.39-9.41,13.86-9.59a.42.42,0,0,1,.43.09c.24.24,2.23,2.57-.63,12.19-2.75,9.27-12.2,16.57-13.39,17.47l-11.89,26.52,11.49-8.57c.16-1.65,1-9.25,4.11-11.54,3.35-2.49,14.41-1.79,14.88-1.76a.41.41,0,0,1,.36.54C479.65,386.2,476.42,395.83,472.57,397.23Zm-14-15.63-.69-.22c-.19,1.09-.4,2.14-.6,3.11Zm-20.84,39.3c.81,2.19.69,6,.37,9.24l3.07-8L437,412a8.34,8.34,0,0,1-1.09-.29,19.67,19.67,0,0,1-2.7,2.54c-.34.4-.67.81-1,1.2C434.49,416.81,436.92,418.71,437.73,420.9Zm-21.33,8.36-1.63-5.94c-.89.05-1.76.08-2.59.09A34.28,34.28,0,0,1,416.4,429.26Zm-1.34-26a11.18,11.18,0,0,1-1.07-1.61l-.74,2.42a13.4,13.4,0,0,1,1.51-.71ZM413,399.14c-.23-.22-.46-.45-.68-.69,0,1,0,2.09-.07,3.19Zm-17.63-8.87c2.08-2.46,3.62-4.15,3.8-4.35a.56.56,0,0,1,1,.24,102,102,0,0,1,2.14,11.33,41.77,41.77,0,0,1,5.1-4.11l-1.57-7.2a41.3,41.3,0,0,1-12.2-3.16,16.86,16.86,0,0,1-2.58-1.61l2.9,10.6Zm-.93,30.08,0-2c-2.17,1.58-4.51,3.09-6.55,4.34ZM352.78,435h0l28.45-10c0-2.16,0-10.37,2.23-17.05a25.06,25.06,0,0,1,2.2-4.53l-.5-1a15.71,15.71,0,0,1-2.32-.65c-4.87-1.78-15.53-15.51-16-16.1a.57.57,0,0,1-.11-.28.65.65,0,0,1,0-.24.54.54,0,0,1,.39-.36c.49-.13,12-3.15,17.33.34,2.53,1.66,5.3,5.56,7.52,9.23l.15-.18-2.85-10.43-12.82-7.84a14.64,14.64,0,0,1-6.3,1.3c-2.33,3.77-6.91,10.36-10.9,11.06s-10.71.37-14.14.14l-10.77,5.41a14.53,14.53,0,0,1,4.35,1.82,51.41,51.41,0,0,1,7.64-2.09.39.39,0,0,1,.41.17c.19.27,1.74,2.9-2.73,11.84.19,1.13.33,2.28.44,3.38A67.72,67.72,0,0,1,357,399a.53.53,0,0,1,.52,0,.54.54,0,0,1,.32.42c.09.53,2.19,13.25-.33,20.27-1.83,5.09-8.42,7.55-12.28,8.58l.08,0a.41.41,0,0,1,.27.23.4.4,0,0,1,0,.37,41.08,41.08,0,0,1-4.85,7l-2.25,5Zm-17.34,7.14,1.52-3.36a2.81,2.81,0,0,1-.48.12,26.5,26.5,0,0,1-4.05.3,43.33,43.33,0,0,1-7.76,7.37Zm-19.1-1c-.73.7-1.53,1.43-2.36,2.15l2.33-1.17C316.32,441.75,316.32,441.42,316.34,441.1Zm-4.08,10.56,2.88-1.18a9.38,9.38,0,0,1,0-6l-5.58,2.8-2.34,3.87A37.52,37.52,0,0,1,312.26,451.66ZM299.51,450a39.14,39.14,0,0,1-5.94-.26,21.56,21.56,0,0,1,2.42,2.45l3.87-.54Zm1.66-.11.33,1.53,1.63-.22h0c.11,0,.93-.07,2.2-.09l1.83-3a15.22,15.22,0,0,1-3.2,1.31A18.9,18.9,0,0,1,301.17,449.92Zm13.48-33a16.64,16.64,0,0,1-.6-3l-11,18.13a16.73,16.73,0,0,1,.81,1.57l.34-.08c4.13-.88,9-.24,12.39.48l4.15-6.1A41,41,0,0,1,314.65,416.9Zm3.69,17.51.11,0a56.17,56.17,0,0,1,4.25-5.62c3.7-4.38,7.78-8.44,8.07-8.74a.57.57,0,0,1,.92.19,46,46,0,0,1,2,6.5,38.28,38.28,0,0,1,7.4.65,16,16,0,0,1-.82-11.93c.1-.31.24-.62.37-.93-.71-.43-1.49-.94-2.3-1.51a47.62,47.62,0,0,1-10.5,7.41Zm2.68-32c2.91,3,5.79,6.63,5.88,9.22.11,3.08-1.74,8.31-3.26,12.06l3.59-5.28c.28-3.33,1-10.66,2.67-15.28a13.14,13.14,0,0,1,.36-7.22l-7.62,3.83ZM351.21,361c-1.86,1.12-3.22,1.84-3.7,2.08l-22.3,32.8,17.47-8.77c.49-1.74,2.52-8.58,5.75-12.4a8.32,8.32,0,0,1,2.53-2.13c1.72-.86,4.53-1,7.53-.85A55.34,55.34,0,0,1,351.21,361Zm27.72,8.17a.42.42,0,0,1,.34-.26c.24,0,2.74-.34,5.89-.48l-.78-2.84L378,336.17c-.89-.09-2.79-.32-5.16-.77a53.92,53.92,0,0,1-3.14,7.45c-2.78,5.55-7.44,10.16-11.79,13.58,4,.31,8.69,1,11.91,2.65,5.37,2.71,6.79,10.85,7.16,14.45l11.53,7.05-.45-1.64a111.93,111.93,0,0,1-9-9.32.43.43,0,0,1-.09-.22A.41.41,0,0,1,378.93,369.21Zm24.42,5.72c-2.22-2.5-7-8.1-9.24-12.46a13.06,13.06,0,0,1-5-5.22l-2.47,8.15.82,3c4.19,0,8.8.37,10.74,2.09,2.31,2,4.83,7,6.5,10.67Zm6.86-11.45a9.23,9.23,0,0,1-.42-.9c-.81.21-1.71.42-2.68.62a47.67,47.67,0,0,1-1.85,12.71l3.59,16.48.1-.06a54.25,54.25,0,0,1-1.15-6.94c-.64-5.7-.78-11.46-.79-11.87a.6.6,0,0,1,.24-.48.56.56,0,0,1,.53-.06,45.34,45.34,0,0,1,6.08,3,38.17,38.17,0,0,1,5.56-4.92A16,16,0,0,1,410.21,363.48Zm6.24,59.71L420,436.11a14.62,14.62,0,0,1,.88-1.66c1.93-3.16,5.55-5.77,7.66-7.12a39.43,39.43,0,0,1-.84-5.09c-.1-.81-.17-1.63-.24-2.42a14.07,14.07,0,0,1-2.19,1.31A27.29,27.29,0,0,1,416.45,423.19Zm8.38-41.3a4.38,4.38,0,0,1-.24.43,27.52,27.52,0,0,1-2.57,3.15,42.89,42.89,0,0,1,0,10.69l4.2-10.86Zm30.35,7.29a41.06,41.06,0,0,1-7.94-9.79,21.12,21.12,0,0,1-1.59-4.51l-.68-.63a11,11,0,0,1-3.25-6.79,14.6,14.6,0,0,1,.07-3.61L435,369l-11.14,28.81a28.17,28.17,0,0,1,4.3,2.86,50.15,50.15,0,0,1,1-11.64.4.4,0,0,1,.25-.3.42.42,0,0,1,.38,0c.33.22,8.15,5.52,10.61,10.4,2,3.94-.72,9.36-2.07,11.64l3.73,9.17,4.09-10.56v0h0Z" style="opacity:0.12"/></g><g id="freepik--Character--inject-173"><path d="M182.61,371.29l-25.55-6.43S143,343.4,141,340.65s-15.89-9.88-20.78-11.82-21.56-3.49-23.91-.16,1.86,4.35,3.48,4.89l3.25,1.08s-7,.1-10.62,3.5-3.33,8.17-.16,8,8.16-2.08,9.43-2.16,10.18,5.12,10.18,5.12l2.41,3.05s-9.18.86-11.65,2.29-10.79,6.06-7.81,7.79,10.71-1.91,10.71-1.91l11.27,1.87s7.7,11.65,10.65,13.06,13.62,4,15.25,4.51,47.93,34.4,47.93,34.4l9.88-37.23Z" style="fill:#fff;stroke:#263238;stroke-linecap:round;stroke-linejoin:round"/><polygon points="196.17 375.1 181.66 406.87 187.75 411.87 196.17 375.1" style="fill:#263238;stroke:#263238;stroke-linecap:round;stroke-linejoin:round"/><path d="M144.49,346.49,134.92,341s-6.48-1.84-8.76-2.66-3,2.41-1.92,5.21,4.12,4.85,6.75,6.29a26.51,26.51,0,0,0,6.19,2.18s-.16,13.39,1.58,15.83,6.91,3.73,6.91,3.73" style="fill:none;stroke:#263238;stroke-linecap:round;stroke-linejoin:round"/><path d="M112.46,327.7s-4,1.52-2.91,4.64,5.33,3.82,7.24,3.7,6.89,3.42,6.89,3.42" style="fill:none;stroke:#263238;stroke-linecap:round;stroke-linejoin:round"/><polyline points="103 334.64 112.77 338.2 120.9 346.31" style="fill:none;stroke:#263238;stroke-linecap:round;stroke-linejoin:round"/><line x1="116.91" y1="348.78" x2="124.24" y2="343.56" style="fill:none;stroke:#263238;stroke-linecap:round;stroke-linejoin:round"/><polygon points="186.68 348.75 179.04 370.23 205.05 378.87 186.67 343.33 186.68 348.75" style="fill:#8870E5;stroke:#263238;stroke-linecap:round;stroke-linejoin:round"/><path d="M196.17,375.1c.08,1.38-11.81,56.09-17.12,80.48H317.38l-16.5-76.09s22.83-83.33,23.71-93.44-5.19-22.47-10.8-27.17-36.62-8.76-57.56-7.5-41.44,4.55-48.45,11.18-10,20.72-10,20.72-20.54,47.39-14.09,61.2S196.07,373.33,196.17,375.1Z" style="fill:#8870E5;stroke:#263238;stroke-linecap:round;stroke-linejoin:round"/><path d="M213.4,168.43s-12.4.44-18-4.25-4.1-19-2.64-24.4,4.6-12.11,13-14.69,20.76-4.2,26.95-9.6,13.84-10.89,27-9.31,48.94,16.9,53.31,45.34,1,31.9,3.7,37.06,26.12,26.25,27.28,40.68-7.36,20.27-12.57,22.35-20.48,3.89-21.32,4.53-14.17-9.21-34.1-11-31.08-.22-40.35,3-18.08,12.33-22.58,6.39-10.9-23.32-1.13-41.66c4.28-8.05,2-15.8,2.07-24.68S213.4,168.43,213.4,168.43Z" style="fill:#263238;stroke:#263238;stroke-linecap:round;stroke-linejoin:round"/><path d="M298.62,206.46s7.95,8.61-.33,15.31S285.68,232,285.68,232" style="fill:none;stroke:#7d7d7d;stroke-linecap:round;stroke-linejoin:round"/><path d="M270.69,140.35s8.58-1.75,14.53,14.84,27,30.2,27,30.2" style="fill:none;stroke:#7d7d7d;stroke-linecap:round;stroke-linejoin:round"/><path d="M286,175.8s36,28,42.36,38,4.89,26.57-9.13,34" style="fill:none;stroke:#7d7d7d;stroke-linecap:round;stroke-linejoin:round"/><path d="M261.21,133.89S275.5,124,287,122" style="fill:none;stroke:#7d7d7d;stroke-linecap:round;stroke-linejoin:round"/><path d="M252.37,131.12l-22,4a55.46,55.46,0,0,0-22.18,9.18c-4.08,2.9-7.62,6.33-8.22,9.77-1.54,8.78,5.48,8.77,5.48,8.77" style="fill:none;stroke:#7d7d7d;stroke-linecap:round;stroke-linejoin:round"/><path d="M212.76,132.25S214,126,232.52,124A94.32,94.32,0,0,1,266.58,127" style="fill:none;stroke:#7d7d7d;stroke-linecap:round;stroke-linejoin:round"/><polygon points="220.09 255.61 218.52 278.78 232.92 267.27 220.09 255.61" style="fill:#263238;stroke:#263238;stroke-linecap:round;stroke-linejoin:round"/><polygon points="242.5 283.86 220.09 255.61 232.57 246.58 242.5 283.86" style="fill:#8870E5;stroke:#263238;stroke-linecap:round;stroke-linejoin:round"/><path d="M233.54,232.57s-.92,27.91.68,34.91,6.58,17.66,8.27,16.38,37.44-46.92,37.44-46.92-1.56-11.15-2-17.93-.83-13.86-.83-13.86S273,215.46,265,220.37s-26.09,14-28.13,14.41S233.54,232.57,233.54,232.57Z" style="fill:#fff;stroke:#263238;stroke-linecap:round;stroke-linejoin:round"/><path d="M211.29,157.9s.26,24.25-1.65,31.76-1.91,17.57,2.28,23.24,18.62,29.36,23.41,30.26,11.34-3.34,14.77-5.32,22.41-11.11,25.34-16.61,5.29-15.41,5.29-15.41,1.91,2.26,6.23.22a8.9,8.9,0,0,0,5-6.21s-17.3-22.05-24.44-37.6-8.54-24-8.54-24-7.35,5.76-15.9,6.27-12.94-3.66-21.45,2.47S211.29,157.9,211.29,157.9Z" style="fill:#fff;stroke:#263238;stroke-linecap:round;stroke-linejoin:round"/><path d="M234.48,188.51a18.06,18.06,0,0,0-1.43,2,14.07,14.07,0,0,0-2.21,4.39c-.69,3.17,4.92,6,7.4,4.58s1.66-15.19.42-14.48A15.72,15.72,0,0,0,234.48,188.51Z" style="fill:#8870E5"/><path d="M232.2,166.12a103.67,103.67,0,0,1,2.87,13.44c.63,5.58-7.12,15.73-6,17.52,2.64,4.44,7.67,4.57,9.09,3.6" style="fill:none;stroke:#263238;stroke-linecap:round;stroke-linejoin:round"/><path d="M247.75,178.8a6.81,6.81,0,0,1,5.83-1.53,10.41,10.41,0,0,1,5.84,3.79" style="fill:none;stroke:#263238;stroke-linecap:round;stroke-linejoin:round"/><path d="M228.84,179.34s-6.49-4.64-10.87,1.24" style="fill:none;stroke:#263238;stroke-linecap:round;stroke-linejoin:round"/><path d="M231.25,160.26s1.57,1.38-1.83,4-12.3,2.22-12.93,6.4" style="fill:none;stroke:#263238;stroke-linecap:round;stroke-linejoin:round;stroke-width:2px"/><path d="M242.53,160.77s.82,3.79,2.62,4.28,9.21.63,12.87,2.48l3.66,1.85" style="fill:none;stroke:#263238;stroke-linecap:round;stroke-linejoin:round;stroke-width:2px"/><path d="M243.94,219s-2.94-9.59-9.34-7.72-4.69,10.63-2.64,15.24,7.65,4.28,10.2,2.35S243.94,219,243.94,219Z" style="fill:#263238;stroke:#263238;stroke-linecap:round;stroke-linejoin:round"/><path d="M235.8,229.89a7.59,7.59,0,0,0,6.36-1c2.55-1.92,1.78-9.87,1.78-9.87C238.09,220.55,236.33,226.42,235.8,229.89Z" style="fill:#fff;stroke:#263238;stroke-linecap:round;stroke-linejoin:round"/><polygon points="243.75 260.41 242.5 283.86 254.56 272.78 243.75 260.41" style="fill:#263238;stroke:#263238;stroke-linecap:round;stroke-linejoin:round"/><polygon points="243.75 260.41 260.24 288.71 290.38 248.45 281.62 230.63 243.75 260.41" style="fill:#8870E5;stroke:#263238;stroke-linecap:round;stroke-linejoin:round"/><polygon points="331.04 388.93 305.47 386.91 310.14 375.98 331.04 388.93" style="fill:#263238;stroke:#263238;stroke-linecap:round;stroke-linejoin:round"/><path d="M295.24,285.14l-14.58,58s-7.52,7.85-7.47,8.73,13.82,13.38,16,15,25.72,14.44,25.72,14.44L331,388.93s9.75-44.67,9.24-73.05-2.27-52.83-5.57-58.55-21.71-6.69-28.07-4.23A47.56,47.56,0,0,0,296,258.76" style="fill:#8870E5;stroke:#263238;stroke-linecap:round;stroke-linejoin:round"/><path d="M207.9,239.77s3.41,7.49,5,9.46.9,15,.9,15l6.05,31.89-17,12.26-11.58-5.52s1.44-5.71.15-7.4-9-2.72-9-2.72L172,281.87l13.89-10.3c.85-.65,8.47-21.52,8.47-21.52Z" style="fill:#fff;stroke:#263238;stroke-linecap:round;stroke-linejoin:round"/><path d="M242.32,300.74s-6.54-15.3-10.86-23.32-14.94-17.16-19-21.06S199,244.74,199,244.74L181.18,263a181.63,181.63,0,0,0,8.43,22.28c5.81,13,14.23,20.15,18.79,22.25s17.76,9.88,17.76,9.88S243,366.09,253.7,387.05s17.84,31.18,21.73,31.84,6.26.81,7.92-1.07,12.51-13.47,20.83-22.85,10.72-13.66,10.72-13.66l-37.16-27.66s-31-43.71-33-47.14A20.49,20.49,0,0,1,242.32,300.74Z" style="fill:#fff;stroke:#263238;stroke-linecap:round;stroke-linejoin:round"/><polygon points="291.05 363.13 307.96 390.22 314.9 381.31 291.05 363.13" style="fill:#263238;stroke:#263238;stroke-linecap:round;stroke-linejoin:round"/><line x1="194.31" y1="250.05" x2="211.1" y2="268.58" style="fill:none;stroke:#263238;stroke-linecap:round;stroke-linejoin:round"/><line x1="188.11" y1="255.16" x2="202.94" y2="275.57" style="fill:none;stroke:#263238;stroke-linecap:round;stroke-linejoin:round"/><line x1="183.99" y1="260.43" x2="195.66" y2="282.52" style="fill:#fff;stroke:#263238;stroke-linecap:round;stroke-linejoin:round"/><path d="M207.9,239.77,169.18,280s-8.88-29.65-10.32-34-1.83-5.81,2.17-8.12,24.95-13.33,29.15-12.4,8.4,6.9,8.75,7.77,5,.29,5,.29Z" style="fill:#fff;stroke:#263238;stroke-linecap:round;stroke-linejoin:round"/><path d="M173.14,240.79c-2.86.29-5.09.48-5.09.48" style="fill:none;stroke:#263238;stroke-linecap:round;stroke-linejoin:round"/><path d="M198.93,233.21s-11,4.79-14.44,5.89a54.57,54.57,0,0,1-7.56,1.27" style="fill:none;stroke:#263238;stroke-linecap:round;stroke-linejoin:round"/><path d="M302,208.32s2.34,10.18-4.36,16.79-19.39,18.91-17,29.72,9.48,15.11,15.43,15.64,13.65-4.36,13.65-4.36-6.38-7.79-3.14-13,18.46-4.39,21.73-19.08-5-23.17-9.32-25.58" style="fill:#263238;stroke:#263238;stroke-linecap:round;stroke-linejoin:round"/></g><g id="freepik--Table--inject-173"><line x1="39.22" y1="455.58" x2="467.43" y2="455.58" style="fill:none;stroke:#263238;stroke-linecap:round;stroke-linejoin:round"/></g><g id="freepik--flowers-3--inject-173"><polyline points="408.99 448.11 395.95 405.49 381.26 346.53" style="fill:none;stroke:#263238;stroke-linecap:round;stroke-linejoin:round;stroke-width:2px"/><path d="M387,367.37s-12.55-12.67-14.33-19.18,6-19.13,6-19.13,3.61.42,8.11,11.78S387,367.37,387,367.37Z" style="fill:#8870E5;stroke:#263238;stroke-linecap:round;stroke-linejoin:round"/><line x1="395.95" y1="405.49" x2="405.36" y2="370.74" style="fill:none;stroke:#263238;stroke-linecap:round;stroke-linejoin:round;stroke-width:2px"/><line x1="400.65" y1="420.99" x2="379.75" y2="409.05" style="fill:none;stroke:#263238;stroke-linecap:round;stroke-linejoin:round;stroke-width:2px"/><path d="M401.15,384.79s-6.15-9.22-4.85-14S409,358.27,409,358.27s4.26,11.81,1.74,15.87S401.15,384.79,401.15,384.79Z" style="fill:#8870E5;stroke:#263238;stroke-linecap:round;stroke-linejoin:round"/><path d="M398.54,396.14a12.05,12.05,0,0,1,7.82-3.69c4.85-.29,14.2,8.32,14.2,8.32s-7.46,3.07-13.61,2.41S398.54,396.14,398.54,396.14Z" style="fill:#8870E5;stroke:#263238;stroke-linecap:round;stroke-linejoin:round"/><path d="M388.25,414.51a13.4,13.4,0,0,1-11.35.25C370.47,412.1,364,398.82,364,398.82s11.7-.86,17.65,1.93S388.25,414.51,388.25,414.51Z" style="fill:#8870E5;stroke:#263238;stroke-linecap:round;stroke-linejoin:round"/><path d="M406.12,438.18s-7.09.63-11.37-.79-14.38-13.72-14.38-13.72,10.32-3.08,15-.2S406.12,438.18,406.12,438.18Z" style="fill:#8870E5;stroke:#263238;stroke-linecap:round;stroke-linejoin:round"/><path d="M405.73,451s0-7.53,3.18-13.07S419.69,428,419.69,428s1.73,13-1.29,19-12.32,11.92-12.32,11.92Z" style="fill:#8870E5;stroke:#263238;stroke-linecap:round;stroke-linejoin:round"/><path d="M389,379.28s-8.69-.48-15.19-3.38-18-15.58-18-15.58,17.92-2.82,22.62,1.09S389,379.28,389,379.28Z" style="fill:#8870E5;stroke:#263238;stroke-linecap:round;stroke-linejoin:round"/><polyline points="408.46 443.5 376.75 429.38 334.59 407.88" style="fill:none;stroke:#263238;stroke-linecap:round;stroke-linejoin:round;stroke-width:2px"/><path d="M349.74,415.19s-13.86.9-18.6-1.38S323,400.52,323,400.52s2.09-1.91,11.07,1.26S349.74,415.19,349.74,415.19Z" style="fill:#8870E5;stroke:#263238;stroke-linecap:round;stroke-linejoin:round"/><line x1="376.75" y1="429.38" x2="361.13" y2="406.09" style="fill:none;stroke:#263238;stroke-linecap:round;stroke-linejoin:round;stroke-width:2px"/><line x1="388.26" y1="434.54" x2="370.56" y2="440.72" style="fill:none;stroke:#263238;stroke-linecap:round;stroke-linejoin:round;stroke-width:2px"/><path d="M367.24,415.74s-8.56-1.09-10.7-4.29-.9-13.85-.9-13.85,9.12,3.53,10.22,7.09S367.24,415.74,367.24,415.74Z" style="fill:#8870E5;stroke:#263238;stroke-linecap:round;stroke-linejoin:round"/><path d="M372.58,423.08a9.41,9.41,0,0,1,1.82-6.48c2.31-3,12.15-4.1,12.15-4.1s-2,6-5.53,9.24S372.58,423.08,372.58,423.08Z" style="fill:#8870E5;stroke:#263238;stroke-linecap:round;stroke-linejoin:round"/><path d="M378.12,438.52a10.45,10.45,0,0,1-5.66,6.8c-4.85,2.42-16-.56-16-.56s5.48-7.32,10.16-9.39S378.12,438.52,378.12,438.52Z" style="fill:#8870E5;stroke:#263238;stroke-linecap:round;stroke-linejoin:round"/><path d="M401.16,440.11s-3.25,4.49-6.27,6.28-15.42,1.44-15.42,1.44,3.47-7.63,7.55-8.91S401.16,440.11,401.16,440.11Z" style="fill:#8870E5;stroke:#263238;stroke-linecap:round;stroke-linejoin:round"/><path d="M408.5,446.89s-4.42-3.86-6.06-8.54-.34-11.42-.34-11.42,8.54,5.63,10.53,10.48.72,13.34.72,13.34Z" style="fill:#8870E5;stroke:#263238;stroke-linecap:round;stroke-linejoin:round"/><path d="M357.8,420.06s-4.73,4.87-9.75,7.21-18.36,2.62-18.36,2.62,7.5-12,12.19-12.74S357.8,420.06,357.8,420.06Z" style="fill:#8870E5;stroke:#263238;stroke-linecap:round;stroke-linejoin:round"/><polyline points="412.92 429.25 431.89 388.92 460.61 335.37" style="fill:none;stroke:#263238;stroke-linecap:round;stroke-linejoin:round;stroke-width:2px"/><path d="M450.83,354.63s-.79-17.82,2.27-23.84,17.27-10.15,17.27-10.15,2.4,2.73-1.9,14.18S450.83,354.63,450.83,354.63Z" style="fill:#8870E5;stroke:#263238;stroke-linecap:round;stroke-linejoin:round"/><line x1="431.89" y1="388.92" x2="462.2" y2="369.49" style="fill:none;stroke:#263238;stroke-linecap:round;stroke-linejoin:round;stroke-width:2px"/><line x1="424.96" y1="403.56" x2="417.5" y2="380.67" style="fill:none;stroke:#263238;stroke-linecap:round;stroke-linejoin:round;stroke-width:2px"/><path d="M449.65,377.07s1.64-11,5.8-13.62,17.8-.78,17.8-.78-4.78,11.61-9.38,12.93S449.65,377.07,449.65,377.07Z" style="fill:#8870E5;stroke:#263238;stroke-linecap:round;stroke-linejoin:round"/><path d="M440.09,383.73a12.12,12.12,0,0,1,8.27,2.51c3.78,3.05,4.93,15.71,4.93,15.71s-7.59-2.74-11.7-7.35S440.09,383.73,440.09,383.73Z" style="fill:#8870E5;stroke:#263238;stroke-linecap:round;stroke-linejoin:round"/><path d="M420.12,390.43a13.4,13.4,0,0,1-8.57-7.45c-3-6.28,1.14-20.47,1.14-20.47s9.24,7.22,11.78,13.28S420.12,390.43,420.12,390.43Z" style="fill:#8870E5;stroke:#263238;stroke-linecap:round;stroke-linejoin:round"/><path d="M417.47,420s-5.68-4.29-7.9-8.22-1.44-19.82-1.44-19.82,9.71,4.65,11.25,9.92S417.47,420,417.47,420Z" style="fill:#8870E5;stroke:#263238;stroke-linecap:round;stroke-linejoin:round"/><path d="M408.56,429.2s5.08-5.57,11.14-7.54,14.66-.13,14.66-.13-7.46,10.81-13.74,13.23-17.13.56-17.13.56Z" style="fill:#8870E5;stroke:#263238;stroke-linecap:round;stroke-linejoin:round"/><path d="M444.35,364.84s-6.11-6.2-9-12.71-2.87-23.64-2.87-23.64,15.16,9.95,16,16S444.35,364.84,444.35,364.84Z" style="fill:#8870E5;stroke:#263238;stroke-linecap:round;stroke-linejoin:round"/><path d="M419.68,411.93c1.51-3.18-.63-4.87-3.38-2.67-1.17-3.32-3.89-3-4.27.5-3.18-1.52-4.88.62-2.67,3.37-3.33,1.18-3,3.89.49,4.28-1.51,3.18.63,4.88,3.38,2.67,1.18,3.32,3.89,3,4.27-.5,3.18,1.52,4.88-.62,2.67-3.37C423.5,415,423.18,412.32,419.68,411.93Z" style="fill:#fff;stroke:#263238;stroke-linecap:round;stroke-linejoin:round"/><path d="M417.53,414.35a2.78,2.78,0,1,0-2.44,3.09A2.78,2.78,0,0,0,417.53,414.35Z" style="fill:#8870E5;stroke:#263238;stroke-linecap:round;stroke-linejoin:round"/><path d="M432.42,433.22c1.52-3.19-.62-4.88-3.37-2.67-1.18-3.33-3.89-3-4.28.49-3.18-1.51-4.87.63-2.67,3.38-3.32,1.17-3,3.89.5,4.27-1.52,3.18.62,4.88,3.37,2.67,1.18,3.33,3.89,3,4.28-.49,3.18,1.51,4.87-.63,2.67-3.38C436.24,436.31,435.93,433.6,432.42,433.22Z" style="fill:#fff;stroke:#263238;stroke-linecap:round;stroke-linejoin:round"/><path d="M430.28,435.63a2.79,2.79,0,1,0-2.45,3.09A2.78,2.78,0,0,0,430.28,435.63Z" style="fill:#8870E5;stroke:#263238;stroke-linecap:round;stroke-linejoin:round"/><path d="M431.3,413.19c1.52-3.18-.62-4.88-3.37-2.67-1.18-3.33-3.89-3-4.28.49-3.18-1.51-4.87.63-2.67,3.38-3.32,1.18-3,3.89.5,4.27-1.52,3.18.62,4.88,3.37,2.67,1.18,3.33,3.89,3,4.28-.49,3.18,1.51,4.88-.63,2.67-3.38C435.12,416.29,434.81,413.57,431.3,413.19Z" style="fill:#fff;stroke:#263238;stroke-linecap:round;stroke-linejoin:round"/><path d="M429.16,415.6a2.79,2.79,0,1,0-2.45,3.09A2.78,2.78,0,0,0,429.16,415.6Z" style="fill:#8870E5;stroke:#263238;stroke-linecap:round;stroke-linejoin:round"/><path d="M415,406.73c1.52-3.18-.62-4.87-3.37-2.67-1.18-3.32-3.89-3-4.28.5-3.18-1.52-4.88.62-2.67,3.37-3.32,1.18-3,3.89.5,4.28-1.52,3.18.62,4.88,3.37,2.67,1.18,3.32,3.89,3,4.28-.5,3.18,1.52,4.87-.62,2.67-3.37C418.78,409.83,418.47,407.12,415,406.73Z" style="fill:#fff;stroke:#263238;stroke-linecap:round;stroke-linejoin:round"/><path d="M412.82,409.15a2.79,2.79,0,1,0-2.45,3.09A2.79,2.79,0,0,0,412.82,409.15Z" style="fill:#8870E5;stroke:#263238;stroke-linecap:round;stroke-linejoin:round"/><path d="M416.36,432.69c1.51-3.18-.63-4.88-3.38-2.67-1.17-3.32-3.89-3-4.27.5-3.18-1.52-4.88.62-2.67,3.37-3.33,1.18-3,3.89.49,4.28-1.51,3.18.63,4.87,3.38,2.67,1.17,3.32,3.89,3,4.27-.5,3.18,1.52,4.88-.62,2.67-3.37C420.18,435.79,419.86,433.08,416.36,432.69Z" style="fill:#fff;stroke:#263238;stroke-linecap:round;stroke-linejoin:round"/><path d="M414.21,435.11a2.78,2.78,0,1,0-2.44,3.09A2.78,2.78,0,0,0,414.21,435.11Z" style="fill:#8870E5;stroke:#263238;stroke-linecap:round;stroke-linejoin:round"/><path d="M402.1,411.2c1.52-3.18-.62-4.88-3.37-2.67-1.18-3.32-3.89-3-4.28.5-3.18-1.52-4.87.62-2.67,3.37-3.32,1.18-3,3.89.5,4.27-1.52,3.19.62,4.88,3.37,2.67,1.18,3.33,3.89,3,4.28-.49,3.18,1.52,4.88-.63,2.67-3.38C405.92,414.3,405.61,411.58,402.1,411.2Z" style="fill:#fff;stroke:#263238;stroke-linecap:round;stroke-linejoin:round"/><path d="M400,413.62a2.79,2.79,0,1,0-2.45,3.09A2.79,2.79,0,0,0,400,413.62Z" style="fill:#8870E5;stroke:#263238;stroke-linecap:round;stroke-linejoin:round"/><path d="M385.62,422.28c1.52-3.18-.62-4.88-3.37-2.67-1.18-3.32-3.89-3-4.28.5-3.18-1.52-4.88.62-2.67,3.37-3.32,1.18-3,3.89.5,4.28-1.52,3.18.62,4.87,3.37,2.67,1.18,3.32,3.89,3,4.28-.5,3.18,1.52,4.87-.62,2.67-3.37C389.44,425.38,389.13,422.67,385.62,422.28Z" style="fill:#fff;stroke:#263238;stroke-linecap:round;stroke-linejoin:round"/><path d="M383.48,424.7a2.79,2.79,0,1,0-2.45,3.09A2.79,2.79,0,0,0,383.48,424.7Z" style="fill:#8870E5;stroke:#263238;stroke-linecap:round;stroke-linejoin:round"/><path d="M397.06,448.16c1.52-3.18-.62-4.88-3.37-2.67-1.18-3.33-3.89-3-4.27.49-3.19-1.51-4.88.63-2.67,3.38-3.33,1.17-3,3.89.49,4.27-1.52,3.18.63,4.88,3.38,2.67,1.17,3.33,3.89,3,4.27-.49,3.18,1.51,4.88-.63,2.67-3.38C400.89,451.26,400.57,448.54,397.06,448.16Z" style="fill:#fff;stroke:#263238;stroke-linecap:round;stroke-linejoin:round"/><path d="M394.92,450.57a2.79,2.79,0,1,0-2.44,3.09A2.78,2.78,0,0,0,394.92,450.57Z" style="fill:#8870E5;stroke:#263238;stroke-linecap:round;stroke-linejoin:round"/><path d="M411.06,431.2c1.9-4-.79-6.12-4.24-3.35-1.48-4.17-4.88-3.78-5.36.62-4-1.9-6.12.79-3.35,4.24-4.18,1.47-3.78,4.88.62,5.36-1.91,4,.78,6.12,4.23,3.35,1.48,4.17,4.88,3.78,5.37-.62,4,1.9,6.12-.78,3.35-4.23C415.85,435.09,415.45,431.68,411.06,431.2Z" style="fill:#fff;stroke:#263238;stroke-linecap:round;stroke-linejoin:round"/><circle cx="404.89" cy="434.64" r="3.5" transform="translate(-113.07 143.84) rotate(-17.72)" style="fill:#8870E5;stroke:#263238;stroke-linecap:round;stroke-linejoin:round"/><path d="M425.46,423.53c1.91-4-.78-6.12-4.23-3.35-1.48-4.17-4.88-3.78-5.36.62-4-1.9-6.13.79-3.36,4.24-4.17,1.47-3.77,4.88.63,5.36-1.91,4,.78,6.12,4.23,3.35,1.48,4.17,4.88,3.78,5.36-.62,4,1.9,6.13-.78,3.36-4.23C430.26,427.42,429.86,424,425.46,423.53Z" style="fill:#fff;stroke:#263238;stroke-linecap:round;stroke-linejoin:round"/><path d="M422.77,426.56a3.5,3.5,0,1,0-3.07,3.88A3.49,3.49,0,0,0,422.77,426.56Z" style="fill:#8870E5;stroke:#263238;stroke-linecap:round;stroke-linejoin:round"/><path d="M411.7,417.36c1.9-4-.78-6.12-4.24-3.35-1.47-4.18-4.88-3.78-5.36.62-4-1.91-6.12.78-3.35,4.23-4.17,1.48-3.78,4.89.62,5.37-1.9,4,.78,6.12,4.23,3.35,1.48,4.17,4.89,3.77,5.37-.62,4,1.9,6.12-.79,3.35-4.24C416.49,421.24,416.1,417.84,411.7,417.36Z" style="fill:#fff;stroke:#263238;stroke-linecap:round;stroke-linejoin:round"/><circle cx="405.53" cy="420.79" r="3.5" transform="matrix(0.93, -0.37, 0.37, 0.93, -128.2, 182.78)" style="fill:#8870E5;stroke:#263238;stroke-linecap:round;stroke-linejoin:round"/><path d="M398.32,421.69c1.91-4-.78-6.12-4.23-3.35-1.48-4.17-4.89-3.78-5.37.62-4-1.91-6.12.78-3.35,4.23-4.17,1.48-3.77,4.89.62,5.37-1.9,4,.79,6.12,4.24,3.35,1.48,4.17,4.88,3.77,5.36-.62,4,1.9,6.12-.79,3.35-4.24C403.12,425.57,402.72,422.17,398.32,421.69Z" style="fill:#fff;stroke:#263238;stroke-linecap:round;stroke-linejoin:round"/><path d="M395.63,424.72a3.5,3.5,0,1,0-3.07,3.88A3.49,3.49,0,0,0,395.63,424.72Z" style="fill:#8870E5;stroke:#263238;stroke-linecap:round;stroke-linejoin:round"/><path d="M394.73,433.77c1.9-4-.79-6.13-4.24-3.36-1.47-4.17-4.88-3.77-5.36.63-4-1.91-6.12.78-3.35,4.23-4.17,1.48-3.78,4.88.62,5.36-1.9,4,.78,6.13,4.23,3.36,1.48,4.17,4.89,3.77,5.37-.63,4,1.91,6.12-.78,3.35-4.23C399.52,437.65,399.13,434.25,394.73,433.77Z" style="fill:#fff;stroke:#263238;stroke-linecap:round;stroke-linejoin:round"/><path d="M392,436.8a3.5,3.5,0,1,0-3.07,3.87A3.49,3.49,0,0,0,392,436.8Z" style="fill:#8870E5;stroke:#263238;stroke-linecap:round;stroke-linejoin:round"/><path d="M409.92,445.05c1.9-4-.78-6.12-4.24-3.35-1.47-4.18-4.88-3.78-5.36.62-4-1.91-6.12.78-3.35,4.23-4.17,1.48-3.78,4.88.62,5.37-1.9,4,.78,6.12,4.24,3.35,1.47,4.17,4.88,3.77,5.36-.62,4,1.9,6.12-.79,3.35-4.24C414.71,448.93,414.32,445.53,409.92,445.05Z" style="fill:#fff;stroke:#263238;stroke-linecap:round;stroke-linejoin:round"/><path d="M407.23,448.08a3.5,3.5,0,1,0-3.07,3.88A3.49,3.49,0,0,0,407.23,448.08Z" style="fill:#8870E5;stroke:#263238;stroke-linecap:round;stroke-linejoin:round"/><path d="M424.18,441.12c1.52-3.19-.63-4.88-3.38-2.68-1.17-3.32-3.89-3-4.27.5-3.18-1.52-4.88.62-2.67,3.37-3.32,1.18-3,3.89.5,4.28-1.52,3.18.62,4.88,3.37,2.67,1.18,3.32,3.89,3,4.27-.5,3.19,1.52,4.88-.62,2.67-3.37C428,444.21,427.68,441.5,424.18,441.12Z" style="fill:#fff;stroke:#263238;stroke-linecap:round;stroke-linejoin:round"/><path d="M422,443.53a2.79,2.79,0,1,0-2.45,3.09A2.8,2.8,0,0,0,422,443.53Z" style="fill:#8870E5;stroke:#263238;stroke-linecap:round;stroke-linejoin:round"/></g><g id="freepik--flowers-2--inject-173"><path d="M487.67,261c-15.62-11.36-41-28.51-55.57-38.48-42.58-29.21-91.47-53.38-91.47-53.38" style="fill:none;stroke:#263238;stroke-linecap:round;stroke-linejoin:round;stroke-width:2px"/><path d="M377.34,190.48c-2.62-2.92-.86-5.39,2.76-3.9.22-3.91,3.21-4.42,4.71-.8,2.92-2.61,5.4-.86,3.9,2.76,3.91.22,4.42,3.21.81,4.72,2.61,2.92.85,5.39-2.77,3.9-.22,3.91-3.21,4.42-4.71.8-2.92,2.61-5.39.86-3.9-2.76C374.23,195,373.72,192,377.34,190.48Z" style="fill:#fff;stroke:#263238;stroke-linecap:round;stroke-linejoin:round"/><path d="M380.37,192.39a3.1,3.1,0,1,1,3.58,2.53A3.11,3.11,0,0,1,380.37,192.39Z" style="fill:#8870E5;stroke:#263238;stroke-linecap:round;stroke-linejoin:round"/><path d="M370.39,217.15c-2.61-2.92-.86-5.39,2.76-3.9.22-3.91,3.21-4.42,4.71-.8,2.92-2.61,5.4-.86,3.9,2.76,3.92.22,4.43,3.21.81,4.71,2.61,2.92.86,5.4-2.76,3.91-.22,3.91-3.21,4.42-4.72.8-2.92,2.61-5.39.86-3.9-2.76C367.28,221.65,366.77,218.66,370.39,217.15Z" style="fill:#fff;stroke:#263238;stroke-linecap:round;stroke-linejoin:round"/><path d="M373.43,219.06a3.09,3.09,0,1,1,3.57,2.53A3.08,3.08,0,0,1,373.43,219.06Z" style="fill:#8870E5;stroke:#263238;stroke-linecap:round;stroke-linejoin:round"/><path d="M365.33,195.45c-2.61-2.92-.85-5.4,2.77-3.9.21-3.91,3.21-4.42,4.71-.81,2.92-2.61,5.39-.85,3.9,2.77,3.91.22,4.42,3.21.8,4.71,2.61,2.92.86,5.4-2.76,3.9-.22,3.91-3.21,4.42-4.71.81-2.92,2.61-5.4.85-3.9-2.77C362.23,199.94,361.72,197,365.33,195.45Z" style="fill:#fff;stroke:#263238;stroke-linecap:round;stroke-linejoin:round"/><path d="M368.37,197.36a3.1,3.1,0,1,1,3.57,2.53A3.1,3.1,0,0,1,368.37,197.36Z" style="fill:#8870E5;stroke:#263238;stroke-linecap:round;stroke-linejoin:round"/><path d="M380.74,183.47c-2.61-2.92-.85-5.4,2.77-3.9.21-3.91,3.21-4.42,4.71-.81,2.92-2.61,5.39-.85,3.9,2.77,3.91.22,4.42,3.21.8,4.71,2.61,2.92.86,5.4-2.76,3.9-.22,3.91-3.21,4.42-4.71.8-2.92,2.62-5.4.86-3.9-2.76C377.64,188,377.13,185,380.74,183.47Z" style="fill:#fff;stroke:#263238;stroke-linecap:round;stroke-linejoin:round"/><path d="M383.78,185.38a3.1,3.1,0,1,1,3.57,2.53A3.1,3.1,0,0,1,383.78,185.38Z" style="fill:#8870E5;stroke:#263238;stroke-linecap:round;stroke-linejoin:round"/><path d="M387.35,211.58c-2.61-2.92-.85-5.39,2.77-3.9.22-3.91,3.21-4.42,4.71-.8,2.92-2.62,5.4-.86,3.9,2.76,3.91.22,4.42,3.21.8,4.71,2.62,2.92.86,5.4-2.76,3.9-.22,3.91-3.21,4.42-4.71.81-2.92,2.61-5.4.85-3.9-2.77C384.25,216.08,383.74,213.08,387.35,211.58Z" style="fill:#fff;stroke:#263238;stroke-linecap:round;stroke-linejoin:round"/><path d="M390.39,213.49A3.1,3.1,0,1,1,394,216,3.1,3.1,0,0,1,390.39,213.49Z" style="fill:#8870E5;stroke:#263238;stroke-linecap:round;stroke-linejoin:round"/><path d="M395.85,184.22c-2.62-2.92-.86-5.4,2.76-3.9.22-3.91,3.21-4.42,4.71-.81,2.92-2.61,5.4-.85,3.9,2.77,3.91.22,4.42,3.21.81,4.71,2.61,2.92.85,5.4-2.77,3.9-.22,3.91-3.21,4.42-4.71.8-2.92,2.62-5.4.86-3.9-2.76C392.74,188.71,392.23,185.72,395.85,184.22Z" style="fill:#fff;stroke:#263238;stroke-linecap:round;stroke-linejoin:round"/><path d="M398.88,186.13a3.1,3.1,0,1,1,3.58,2.53A3.11,3.11,0,0,1,398.88,186.13Z" style="fill:#8870E5;stroke:#263238;stroke-linecap:round;stroke-linejoin:round"/><path d="M416.88,190.89c-2.61-2.92-.86-5.39,2.76-3.9.22-3.91,3.21-4.42,4.71-.8,2.92-2.61,5.4-.86,3.9,2.76,3.91.22,4.43,3.21.81,4.71,2.61,2.92.86,5.4-2.77,3.9-.21,3.92-3.21,4.43-4.71.81-2.92,2.61-5.39.86-3.9-2.77C413.77,195.39,413.26,192.4,416.88,190.89Z" style="fill:#fff;stroke:#263238;stroke-linecap:round;stroke-linejoin:round"/><path d="M419.91,192.8a3.1,3.1,0,1,1,3.58,2.53A3.1,3.1,0,0,1,419.91,192.8Z" style="fill:#8870E5;stroke:#263238;stroke-linecap:round;stroke-linejoin:round"/><path d="M412.75,222.05c-2.61-2.92-.86-5.39,2.76-3.9.22-3.91,3.21-4.42,4.71-.8,2.92-2.61,5.4-.86,3.9,2.76,3.92.22,4.43,3.21.81,4.71,2.61,2.92.86,5.4-2.76,3.9-.22,3.92-3.21,4.43-4.72.81-2.92,2.61-5.39.86-3.9-2.77C409.64,226.55,409.13,223.56,412.75,222.05Z" style="fill:#fff;stroke:#263238;stroke-linecap:round;stroke-linejoin:round"/><circle cx="418.84" cy="223.44" r="3.1" transform="translate(-50.8 154.22) rotate(-19.69)" style="fill:#8870E5;stroke:#263238;stroke-linecap:round;stroke-linejoin:round"/><path d="M392.54,208.34c-3.28-3.67-1.08-6.77,3.47-4.9.27-4.9,4-5.55,5.91-1,3.67-3.27,6.77-1.07,4.9,3.47,4.91.28,5.55,4,1,5.92,3.27,3.66,1.07,6.77-3.47,4.89-.28,4.91-4,5.55-5.92,1-3.66,3.28-6.77,1.08-4.89-3.47C388.64,214,388,210.22,392.54,208.34Z" style="fill:#fff;stroke:#263238;stroke-linecap:round;stroke-linejoin:round"/><path d="M396.35,210.73a3.89,3.89,0,1,1,4.49,3.18A3.88,3.88,0,0,1,396.35,210.73Z" style="fill:#8870E5;stroke:#263238;stroke-linecap:round;stroke-linejoin:round"/><path d="M374.79,204.66c-3.28-3.67-1.08-6.78,3.46-4.9.28-4.91,4-5.55,5.92-1,3.66-3.28,6.77-1.07,4.89,3.47,4.91.27,5.55,4,1,5.91,3.28,3.67,1.08,6.77-3.47,4.9-.27,4.91-4,5.55-5.91,1-3.66,3.27-6.77,1.07-4.9-3.47C370.89,210.3,370.25,206.54,374.79,204.66Z" style="fill:#fff;stroke:#263238;stroke-linecap:round;stroke-linejoin:round"/><path d="M378.6,207.05a3.89,3.89,0,1,1,4.48,3.17A3.89,3.89,0,0,1,378.6,207.05Z" style="fill:#8870E5;stroke:#263238;stroke-linecap:round;stroke-linejoin:round"/><path d="M387.54,193.78c-3.28-3.67-1.08-6.77,3.46-4.9.28-4.91,4-5.55,5.92-1,3.66-3.27,6.77-1.07,4.89,3.47,4.91.28,5.55,4,1,5.92,3.28,3.66,1.08,6.77-3.47,4.89-.27,4.91-4,5.55-5.91,1-3.66,3.28-6.77,1.08-4.9-3.47C383.64,199.42,383,195.66,387.54,193.78Z" style="fill:#fff;stroke:#263238;stroke-linecap:round;stroke-linejoin:round"/><path d="M391.35,196.17a3.89,3.89,0,1,1,4.48,3.18A3.88,3.88,0,0,1,391.35,196.17Z" style="fill:#8870E5;stroke:#263238;stroke-linecap:round;stroke-linejoin:round"/><path d="M403.15,194.22c-3.28-3.66-1.08-6.77,3.47-4.89.27-4.91,4-5.55,5.91-1,3.67-3.28,6.77-1.08,4.9,3.46,4.9.28,5.55,4,1,5.92,3.27,3.66,1.07,6.77-3.47,4.89-.28,4.91-4,5.55-5.92,1-3.66,3.28-6.77,1.08-4.89-3.47C399.25,199.86,398.61,196.11,403.15,194.22Z" style="fill:#fff;stroke:#263238;stroke-linecap:round;stroke-linejoin:round"/><path d="M407,196.61a3.88,3.88,0,1,1,4.49,3.18A3.88,3.88,0,0,1,407,196.61Z" style="fill:#8870E5;stroke:#263238;stroke-linecap:round;stroke-linejoin:round"/><path d="M410.75,206c-3.28-3.67-1.08-6.77,3.47-4.9.27-4.91,4-5.55,5.91-1,3.67-3.27,6.77-1.07,4.9,3.47,4.9.27,5.55,4,1,5.91,3.27,3.67,1.07,6.78-3.47,4.9-.28,4.91-4,5.55-5.92,1-3.66,3.28-6.77,1.07-4.89-3.47C406.85,211.62,406.21,207.86,410.75,206Z" style="fill:#fff;stroke:#263238;stroke-linecap:round;stroke-linejoin:round"/><circle cx="418.39" cy="207.72" r="3.89" style="fill:#8870E5;stroke:#263238;stroke-linecap:round;stroke-linejoin:round"/><path d="M398.07,222.75c-3.27-3.67-1.07-6.78,3.47-4.9.27-4.91,4-5.55,5.91-1,3.67-3.28,6.78-1.07,4.9,3.47,4.91.27,5.55,4,1,5.91,3.28,3.67,1.07,6.78-3.47,4.9-.27,4.91-4,5.55-5.91,1-3.67,3.27-6.77,1.07-4.9-3.47C394.17,228.39,393.53,224.63,398.07,222.75Z" style="fill:#fff;stroke:#263238;stroke-linecap:round;stroke-linejoin:round"/><path d="M401.88,225.14a3.89,3.89,0,1,1,4.49,3.18A3.9,3.9,0,0,1,401.88,225.14Z" style="fill:#8870E5;stroke:#263238;stroke-linecap:round;stroke-linejoin:round"/><path d="M381.64,223c-2.61-2.92-.86-5.39,2.77-3.9.21-3.91,3.2-4.42,4.71-.8,2.92-2.61,5.39-.86,3.9,2.76,3.91.22,4.42,3.21.8,4.71,2.61,2.92.86,5.4-2.76,3.9-.22,3.92-3.21,4.43-4.71.81-2.92,2.61-5.4.86-3.9-2.76C378.53,227.5,378,224.51,381.64,223Z" style="fill:#fff;stroke:#263238;stroke-linecap:round;stroke-linejoin:round"/><circle cx="387.73" cy="224.39" r="3.1" transform="translate(-52.94 143.8) rotate(-19.69)" style="fill:#8870E5;stroke:#263238;stroke-linecap:round;stroke-linejoin:round"/><line x1="445.69" y1="231.77" x2="444.52" y2="216.93" style="fill:none;stroke:#263238;stroke-linecap:round;stroke-linejoin:round;stroke-width:2px"/><path d="M351.53,174.68a22.9,22.9,0,0,1,.51-13.44,28.5,28.5,0,0,1,8-11.32s7.25,11.51,4.25,17.61S351.53,174.68,351.53,174.68Z" style="fill:#8870E5;stroke:#263238;stroke-linecap:round;stroke-linejoin:round"/><path d="M351.53,174.68a40.24,40.24,0,0,0-10.21,2.06c-5.28,1.83-8.67,11.11-8.4,16.35s1,15,1,15,10-10.71,13.32-18.43A61.7,61.7,0,0,0,351.53,174.68Z" style="fill:#8870E5;stroke:#263238;stroke-linecap:round;stroke-linejoin:round"/><path d="M444.18,222.27s-6.47-7-5.95-14.83,5.49-15.23,5.49-15.23,8.65,10.64,8.43,18.45S444.18,222.27,444.18,222.27Z" style="fill:#8870E5;stroke:#263238;stroke-linecap:round;stroke-linejoin:round"/><path d="M445.72,229.47s3-11.4,11.69-13.49,13.44.5,13.44.5S464,227.28,457.76,229A29.21,29.21,0,0,1,445.72,229.47Z" style="fill:#8870E5;stroke:#263238;stroke-linecap:round;stroke-linejoin:round"/><path d="M351.53,174.68s-7.15-18.47-14.34-22.79-21.22-1.8-21.22-1.8,5.39,9.71,11.87,14.75S346.1,174.82,351.53,174.68Z" style="fill:#8870E5;stroke:#263238;stroke-linecap:round;stroke-linejoin:round"/><polyline points="472.97 251.07 415.08 271.13 357.81 291.43" style="fill:none;stroke:#263238;stroke-linecap:round;stroke-linejoin:round;stroke-width:2px"/><path d="M378.33,284.67s-17.49-3.47-23.9-1.36-12.65,15.54-12.65,15.54,2.34,2.78,14.3.26S378.33,284.67,378.33,284.67Z" style="fill:#8870E5;stroke:#263238;stroke-linecap:round;stroke-linejoin:round"/><line x1="415.09" y1="271.13" x2="391.3" y2="298.16" style="fill:none;stroke:#263238;stroke-linecap:round;stroke-linejoin:round;stroke-width:2px"/><line x1="428.73" y1="265.86" x2="409.11" y2="255.65" style="fill:none;stroke:#263238;stroke-linecap:round;stroke-linejoin:round;stroke-width:2px"/><path d="M400.69,286.89s-11.08,0-14.33,3.67-3.46,17.49-3.46,17.49,12.19-3,14.19-7.32S400.69,286.89,400.69,286.89Z" style="fill:#8870E5;stroke:#263238;stroke-linecap:round;stroke-linejoin:round"/><path d="M408.72,278.45A12.09,12.09,0,0,0,410,287c2.44,4.2,14.77,7.25,14.77,7.25s-1.55-7.92-5.5-12.68S408.72,278.45,408.72,278.45Z" style="fill:#8870E5;stroke:#263238;stroke-linecap:round;stroke-linejoin:round"/><path d="M418.35,259.72a13.37,13.37,0,0,0-6.06-9.6c-5.76-3.9-20.41-2-20.41-2s5.74,10.23,11.35,13.66S418.35,259.72,418.35,259.72Z" style="fill:#8870E5;stroke:#263238;stroke-linecap:round;stroke-linejoin:round"/><path d="M451.64,258.48s-3.38-6.26-6.93-9.05S425.33,245,425.33,245s3.13,10.3,8.11,12.61S451.64,258.48,451.64,258.48Z" style="fill:#8870E5;stroke:#263238;stroke-linecap:round;stroke-linejoin:round"/><path d="M465.19,254.76s-6.26,4.18-9.13,9.87-2.34,14.48-2.34,14.48,11.81-5.74,15.15-11.59S472,250.67,472,250.67Z" style="fill:#8870E5;stroke:#263238;stroke-linecap:round;stroke-linejoin:round"/><path d="M389.4,279.81s-5.2-7-11.21-10.8-22.93-6.41-22.93-6.41,7.55,16.49,13.4,18.25S389.4,279.81,389.4,279.81Z" style="fill:#8870E5;stroke:#263238;stroke-linecap:round;stroke-linejoin:round"/></g><g id="freepik--flowers-1--inject-173"><path d="M16.46,342.88S57.28,288,86.68,252s65.52-69.24,65.52-69.24" style="fill:none;stroke:#263238;stroke-linecap:round;stroke-linejoin:round;stroke-width:2px"/><path d="M125.91,210.52c1.51-3.19-.63-4.88-3.38-2.68-1.18-3.32-3.89-3-4.27.5-3.18-1.52-4.88.63-2.67,3.38-3.33,1.17-3,3.89.49,4.27-1.51,3.18.63,4.88,3.38,2.67,1.17,3.32,3.89,3,4.27-.5,3.18,1.52,4.88-.62,2.67-3.37C129.73,213.61,129.41,210.9,125.91,210.52Z" style="fill:#fff;stroke:#263238;stroke-linecap:round;stroke-linejoin:round"/><path d="M123.76,212.93a2.78,2.78,0,1,0-2.44,3.09A2.79,2.79,0,0,0,123.76,212.93Z" style="fill:#8870E5;stroke:#263238;stroke-linecap:round;stroke-linejoin:round"/><path d="M138.65,231.8c1.52-3.18-.62-4.88-3.37-2.67-1.18-3.33-3.89-3-4.28.49-3.18-1.51-4.88.63-2.67,3.38-3.32,1.18-3,3.89.5,4.27-1.52,3.18.62,4.88,3.37,2.67,1.18,3.33,3.89,3,4.28-.49,3.18,1.51,4.87-.63,2.67-3.38C142.47,234.9,142.16,232.18,138.65,231.8Z" style="fill:#fff;stroke:#263238;stroke-linecap:round;stroke-linejoin:round"/><path d="M136.51,234.21a2.79,2.79,0,1,0-2.45,3.09A2.78,2.78,0,0,0,136.51,234.21Z" style="fill:#8870E5;stroke:#263238;stroke-linecap:round;stroke-linejoin:round"/><path d="M137.53,211.77c1.52-3.18-.62-4.88-3.37-2.67-1.18-3.32-3.89-3-4.28.5-3.18-1.52-4.88.62-2.67,3.37-3.32,1.18-3,3.89.5,4.27-1.52,3.19.62,4.88,3.37,2.67,1.18,3.33,3.89,3,4.28-.49,3.18,1.52,4.87-.63,2.67-3.38C141.35,214.87,141,212.15,137.53,211.77Z" style="fill:#fff;stroke:#263238;stroke-linecap:round;stroke-linejoin:round"/><path d="M135.39,214.19a2.79,2.79,0,1,0-2.45,3.09A2.79,2.79,0,0,0,135.39,214.19Z" style="fill:#8870E5;stroke:#263238;stroke-linecap:round;stroke-linejoin:round"/><path d="M121.19,205.32c1.52-3.19-.62-4.88-3.37-2.67-1.18-3.33-3.89-3-4.28.49-3.18-1.52-4.88.63-2.67,3.38-3.32,1.17-3,3.89.5,4.27-1.52,3.18.62,4.88,3.37,2.67,1.18,3.32,3.89,3,4.27-.5,3.19,1.52,4.88-.62,2.68-3.37C125,208.41,124.69,205.7,121.19,205.32Z" style="fill:#fff;stroke:#263238;stroke-linecap:round;stroke-linejoin:round"/><path d="M119.05,207.73a2.79,2.79,0,1,0-2.45,3.09A2.79,2.79,0,0,0,119.05,207.73Z" style="fill:#8870E5;stroke:#263238;stroke-linecap:round;stroke-linejoin:round"/><path d="M122.58,231.27c1.52-3.18-.62-4.87-3.37-2.67-1.18-3.32-3.89-3-4.27.5-3.19-1.52-4.88.62-2.67,3.37-3.33,1.18-3,3.89.49,4.28-1.52,3.18.63,4.88,3.38,2.67,1.17,3.32,3.89,3,4.27-.5,3.18,1.52,4.88-.62,2.67-3.37C126.41,234.37,126.09,231.66,122.58,231.27Z" style="fill:#fff;stroke:#263238;stroke-linecap:round;stroke-linejoin:round"/><path d="M120.44,233.69a2.79,2.79,0,1,0-2.44,3.09A2.78,2.78,0,0,0,120.44,233.69Z" style="fill:#8870E5;stroke:#263238;stroke-linecap:round;stroke-linejoin:round"/><path d="M108.33,209.78c1.52-3.18-.62-4.88-3.37-2.67-1.18-3.32-3.89-3-4.28.5-3.18-1.52-4.87.62-2.67,3.37-3.32,1.18-3,3.89.5,4.28-1.52,3.18.62,4.87,3.37,2.67,1.18,3.32,3.89,3,4.28-.5,3.18,1.52,4.87-.62,2.67-3.37C112.15,212.88,111.84,210.17,108.33,209.78Z" style="fill:#fff;stroke:#263238;stroke-linecap:round;stroke-linejoin:round"/><path d="M106.19,212.2a2.79,2.79,0,1,0-2.45,3.09A2.79,2.79,0,0,0,106.19,212.2Z" style="fill:#8870E5;stroke:#263238;stroke-linecap:round;stroke-linejoin:round"/><path d="M91.85,220.86c1.52-3.18-.62-4.87-3.37-2.67-1.18-3.32-3.9-3-4.28.5-3.18-1.52-4.88.62-2.67,3.37-3.32,1.18-3,3.89.5,4.28-1.52,3.18.62,4.88,3.37,2.67,1.18,3.32,3.89,3,4.27-.5,3.19,1.52,4.88-.62,2.68-3.37C95.67,224,95.35,221.25,91.85,220.86Z" style="fill:#fff;stroke:#263238;stroke-linecap:round;stroke-linejoin:round"/><path d="M89.71,223.28a2.79,2.79,0,1,0-2.45,3.09A2.79,2.79,0,0,0,89.71,223.28Z" style="fill:#8870E5;stroke:#263238;stroke-linecap:round;stroke-linejoin:round"/><path d="M103.29,246.74c1.52-3.18-.62-4.88-3.37-2.67-1.18-3.33-3.89-3-4.27.5-3.19-1.52-4.88.62-2.68,3.37-3.32,1.18-3,3.89.5,4.27-1.52,3.19.62,4.88,3.37,2.67,1.18,3.33,3.9,3,4.28-.49,3.18,1.52,4.88-.63,2.67-3.38C107.11,249.84,106.8,247.12,103.29,246.74Z" style="fill:#fff;stroke:#263238;stroke-linecap:round;stroke-linejoin:round"/><path d="M101.15,249.15a2.79,2.79,0,1,0-2.45,3.1A2.79,2.79,0,0,0,101.15,249.15Z" style="fill:#8870E5;stroke:#263238;stroke-linecap:round;stroke-linejoin:round"/><path d="M117.28,229.78c1.91-4-.78-6.12-4.23-3.35-1.48-4.17-4.88-3.77-5.36.63-4-1.91-6.13.78-3.36,4.23-4.17,1.48-3.77,4.88.63,5.36-1.91,4,.78,6.12,4.23,3.35,1.48,4.18,4.88,3.78,5.37-.62,4,1.91,6.12-.78,3.35-4.23C122.08,233.67,121.68,230.27,117.28,229.78Z" style="fill:#fff;stroke:#263238;stroke-linecap:round;stroke-linejoin:round"/><path d="M114.6,232.81a3.5,3.5,0,1,0-3.08,3.88A3.51,3.51,0,0,0,114.6,232.81Z" style="fill:#8870E5;stroke:#263238;stroke-linecap:round;stroke-linejoin:round"/><path d="M131.69,222.11c1.91-4-.78-6.12-4.23-3.35-1.48-4.17-4.88-3.77-5.37.62-4-1.9-6.12.79-3.35,4.24-4.17,1.48-3.77,4.88.63,5.36-1.91,4,.78,6.12,4.23,3.35,1.48,4.17,4.88,3.78,5.36-.62,4,1.91,6.12-.78,3.35-4.23C136.49,226,136.09,222.59,131.69,222.11Z" style="fill:#fff;stroke:#263238;stroke-linecap:round;stroke-linejoin:round"/><circle cx="125.53" cy="225.55" r="3.5" transform="translate(-62.69 48.9) rotate(-17.72)" style="fill:#8870E5;stroke:#263238;stroke-linecap:round;stroke-linejoin:round"/><path d="M117.93,215.94c1.9-4-.79-6.12-4.24-3.35-1.47-4.17-4.88-3.78-5.36.62-4-1.9-6.12.78-3.35,4.23-4.17,1.48-3.78,4.89.62,5.37-1.9,4,.78,6.12,4.23,3.35,1.48,4.17,4.89,3.78,5.37-.62,4,1.9,6.12-.79,3.35-4.24C122.72,219.83,122.33,216.42,117.93,215.94Z" style="fill:#fff;stroke:#263238;stroke-linecap:round;stroke-linejoin:round"/><path d="M115.24,219a3.5,3.5,0,1,0-3.07,3.88A3.5,3.5,0,0,0,115.24,219Z" style="fill:#8870E5;stroke:#263238;stroke-linecap:round;stroke-linejoin:round"/><path d="M104.55,220.27c1.9-4-.78-6.12-4.23-3.35-1.48-4.17-4.89-3.78-5.37.62-4-1.9-6.12.78-3.35,4.23-4.17,1.48-3.78,4.89.62,5.37-1.9,4,.79,6.12,4.24,3.35,1.47,4.17,4.88,3.78,5.36-.62,4,1.9,6.12-.79,3.35-4.24C109.34,224.16,109,220.75,104.55,220.27Z" style="fill:#fff;stroke:#263238;stroke-linecap:round;stroke-linejoin:round"/><circle cx="98.39" cy="223.7" r="3.5" transform="translate(-62.11 39.41) rotate(-17.31)" style="fill:#8870E5;stroke:#263238;stroke-linecap:round;stroke-linejoin:round"/><path d="M101,232.35c1.9-4-.79-6.12-4.24-3.36-1.48-4.17-4.88-3.77-5.36.63-4-1.91-6.12.78-3.35,4.23-4.17,1.48-3.78,4.88.62,5.37-1.9,4,.78,6.12,4.23,3.35,1.48,4.17,4.89,3.77,5.37-.63,4,1.91,6.12-.78,3.35-4.23C105.75,236.23,105.35,232.83,101,232.35Z" style="fill:#fff;stroke:#263238;stroke-linecap:round;stroke-linejoin:round"/><path d="M98.27,235.38a3.5,3.5,0,1,0-3.07,3.88A3.5,3.5,0,0,0,98.27,235.38Z" style="fill:#8870E5;stroke:#263238;stroke-linecap:round;stroke-linejoin:round"/><path d="M116.15,243.63c1.9-4-.79-6.12-4.24-3.35-1.47-4.17-4.88-3.78-5.36.62-4-1.9-6.12.78-3.35,4.23-4.17,1.48-3.78,4.89.62,5.37-1.9,4,.78,6.12,4.23,3.35,1.48,4.17,4.89,3.78,5.37-.62,4,1.9,6.12-.79,3.35-4.24C120.94,247.52,120.55,244.11,116.15,243.63Z" style="fill:#fff;stroke:#263238;stroke-linecap:round;stroke-linejoin:round"/><circle cx="109.98" cy="247.06" r="3.5" transform="translate(-67.1 42.67) rotate(-16.91)" style="fill:#8870E5;stroke:#263238;stroke-linecap:round;stroke-linejoin:round"/><path d="M130.41,239.7c1.51-3.19-.63-4.88-3.38-2.67-1.17-3.33-3.89-3-4.27.49-3.18-1.52-4.88.63-2.67,3.38-3.33,1.17-3,3.89.49,4.27-1.51,3.18.63,4.88,3.38,2.67,1.18,3.33,3.89,3,4.27-.5,3.19,1.52,4.88-.62,2.67-3.37C134.23,242.79,133.91,240.08,130.41,239.7Z" style="fill:#fff;stroke:#263238;stroke-linecap:round;stroke-linejoin:round"/><path d="M128.26,242.11a2.78,2.78,0,1,0-2.44,3.09A2.79,2.79,0,0,0,128.26,242.11Z" style="fill:#8870E5;stroke:#263238;stroke-linecap:round;stroke-linejoin:round"/><path d="M63,287.68c1.52-3.19-.62-4.88-3.37-2.68-1.18-3.32-3.89-3-4.28.5-3.18-1.52-4.87.62-2.67,3.37-3.32,1.18-3,3.9.5,4.28-1.52,3.18.62,4.88,3.37,2.67,1.18,3.32,3.89,3,4.28-.5,3.18,1.52,4.88-.62,2.67-3.37C66.79,290.77,66.48,288.06,63,287.68Z" style="fill:#fff;stroke:#263238;stroke-linecap:round;stroke-linejoin:round"/><path d="M60.83,290.09a2.79,2.79,0,1,0-2.45,3.09A2.79,2.79,0,0,0,60.83,290.09Z" style="fill:#8870E5;stroke:#263238;stroke-linecap:round;stroke-linejoin:round"/><path d="M75.72,309c1.51-3.18-.63-4.88-3.38-2.67-1.17-3.33-3.89-3-4.27.49-3.18-1.51-4.88.63-2.67,3.38-3.33,1.17-3,3.89.49,4.27-1.51,3.18.63,4.88,3.38,2.67,1.17,3.33,3.89,3,4.27-.49,3.18,1.51,4.88-.63,2.67-3.38C79.54,312.06,79.22,309.34,75.72,309Z" style="fill:#fff;stroke:#263238;stroke-linecap:round;stroke-linejoin:round"/><path d="M73.57,311.37a2.78,2.78,0,1,0-2.44,3.09A2.77,2.77,0,0,0,73.57,311.37Z" style="fill:#8870E5;stroke:#263238;stroke-linecap:round;stroke-linejoin:round"/><path d="M74.6,288.93c1.51-3.18-.63-4.88-3.38-2.67-1.17-3.33-3.89-3-4.27.5-3.18-1.52-4.88.62-2.67,3.37-3.33,1.18-3,3.89.49,4.27-1.51,3.19.63,4.88,3.38,2.67,1.17,3.33,3.89,3,4.27-.49,3.18,1.52,4.88-.63,2.67-3.38C78.42,292,78.1,289.31,74.6,288.93Z" style="fill:#fff;stroke:#263238;stroke-linecap:round;stroke-linejoin:round"/><path d="M72.45,291.34a2.78,2.78,0,1,0-2.44,3.1A2.78,2.78,0,0,0,72.45,291.34Z" style="fill:#8870E5;stroke:#263238;stroke-linecap:round;stroke-linejoin:round"/><path d="M58.25,282.48c1.52-3.19-.62-4.88-3.37-2.68-1.18-3.32-3.89-3-4.27.5-3.19-1.52-4.88.63-2.67,3.37-3.33,1.18-3,3.9.49,4.28-1.52,3.18.63,4.88,3.38,2.67,1.17,3.32,3.89,3,4.27-.5,3.18,1.52,4.88-.62,2.67-3.37C62.08,285.57,61.76,282.86,58.25,282.48Z" style="fill:#fff;stroke:#263238;stroke-linecap:round;stroke-linejoin:round"/><path d="M56.11,284.89A2.79,2.79,0,1,0,53.67,288,2.79,2.79,0,0,0,56.11,284.89Z" style="fill:#8870E5;stroke:#263238;stroke-linecap:round;stroke-linejoin:round"/><path d="M59.65,308.43c1.52-3.18-.62-4.87-3.37-2.67-1.18-3.32-3.89-3-4.28.5-3.18-1.52-4.88.62-2.67,3.37-3.32,1.18-3,3.89.5,4.28-1.52,3.18.62,4.87,3.37,2.67,1.18,3.32,3.89,3,4.28-.5,3.18,1.52,4.87-.62,2.67-3.37C63.47,311.53,63.16,308.82,59.65,308.43Z" style="fill:#fff;stroke:#263238;stroke-linecap:round;stroke-linejoin:round"/><path d="M57.51,310.85a2.79,2.79,0,1,0-2.45,3.09A2.79,2.79,0,0,0,57.51,310.85Z" style="fill:#8870E5;stroke:#263238;stroke-linecap:round;stroke-linejoin:round"/><path d="M45.4,286.94c1.51-3.18-.63-4.88-3.38-2.67-1.17-3.32-3.89-3-4.27.5-3.18-1.52-4.88.62-2.67,3.37-3.33,1.18-3,3.89.49,4.28-1.51,3.18.63,4.87,3.38,2.67,1.18,3.32,3.89,3,4.27-.5,3.19,1.52,4.88-.62,2.67-3.37C49.22,290,48.9,287.33,45.4,286.94Z" style="fill:#fff;stroke:#263238;stroke-linecap:round;stroke-linejoin:round"/><path d="M43.25,289.36a2.78,2.78,0,1,0-2.44,3.09A2.78,2.78,0,0,0,43.25,289.36Z" style="fill:#8870E5;stroke:#263238;stroke-linecap:round;stroke-linejoin:round"/><path d="M28.91,298c1.52-3.18-.62-4.87-3.37-2.67-1.18-3.32-3.89-3-4.27.5-3.19-1.52-4.88.62-2.67,3.37-3.33,1.18-3,3.89.49,4.28-1.52,3.18.63,4.88,3.38,2.67,1.17,3.32,3.89,3,4.27-.5,3.18,1.52,4.88-.62,2.67-3.37C32.74,301.12,32.42,298.41,28.91,298Z" style="fill:#fff;stroke:#263238;stroke-linecap:round;stroke-linejoin:round"/><path d="M26.77,300.44a2.79,2.79,0,1,0-2.44,3.09A2.79,2.79,0,0,0,26.77,300.44Z" style="fill:#8870E5;stroke:#263238;stroke-linecap:round;stroke-linejoin:round"/><path d="M40.36,323.9c1.52-3.18-.62-4.88-3.37-2.67-1.18-3.33-3.89-3-4.28.5-3.18-1.52-4.88.62-2.67,3.37-3.32,1.18-3,3.89.5,4.27-1.52,3.19.62,4.88,3.37,2.67,1.18,3.33,3.89,3,4.27-.49,3.19,1.52,4.88-.63,2.68-3.38C44.18,327,43.86,324.28,40.36,323.9Z" style="fill:#fff;stroke:#263238;stroke-linecap:round;stroke-linejoin:round"/><path d="M38.22,326.31a2.79,2.79,0,1,0-2.45,3.1A2.79,2.79,0,0,0,38.22,326.31Z" style="fill:#8870E5;stroke:#263238;stroke-linecap:round;stroke-linejoin:round"/><path d="M54.35,306.94c1.91-4-.78-6.12-4.23-3.35-1.48-4.17-4.89-3.77-5.37.63-4-1.91-6.12.78-3.35,4.23-4.17,1.48-3.77,4.88.62,5.36-1.9,4,.79,6.12,4.24,3.35,1.47,4.18,4.88,3.78,5.36-.62,4,1.91,6.12-.78,3.35-4.23C59.14,310.83,58.75,307.43,54.35,306.94Z" style="fill:#fff;stroke:#263238;stroke-linecap:round;stroke-linejoin:round"/><circle cx="48.19" cy="310.38" r="3.5" transform="matrix(0.96, -0.29, 0.29, 0.96, -89.18, 27.91)" style="fill:#8870E5;stroke:#263238;stroke-linecap:round;stroke-linejoin:round"/><path d="M68.76,299.27c1.9-4-.78-6.12-4.24-3.35-1.47-4.17-4.88-3.77-5.36.62-4-1.9-6.12.79-3.35,4.24-4.17,1.47-3.78,4.88.62,5.36-1.9,4,.78,6.12,4.23,3.35,1.48,4.17,4.89,3.78,5.37-.62,4,1.9,6.12-.78,3.35-4.23C73.55,303.16,73.16,299.75,68.76,299.27Z" style="fill:#fff;stroke:#263238;stroke-linecap:round;stroke-linejoin:round"/><circle cx="62.59" cy="302.71" r="3.5" transform="translate(-109.07 45.64) rotate(-22.05)" style="fill:#8870E5;stroke:#263238;stroke-linecap:round;stroke-linejoin:round"/><path d="M55,293.1c1.91-4-.78-6.12-4.23-3.35-1.48-4.17-4.88-3.78-5.36.62-4-1.9-6.13.78-3.36,4.23-4.17,1.48-3.77,4.89.63,5.37-1.91,4,.78,6.12,4.23,3.35,1.48,4.17,4.88,3.78,5.36-.62,4,1.9,6.13-.79,3.36-4.24C59.79,297,59.39,293.58,55,293.1Z" style="fill:#fff;stroke:#263238;stroke-linecap:round;stroke-linejoin:round"/><circle cx="48.83" cy="296.53" r="3.5" transform="matrix(0.96, -0.29, 0.29, 0.96, -85.07, 27.49)" style="fill:#8870E5;stroke:#263238;stroke-linecap:round;stroke-linejoin:round"/><path d="M41.62,297.43c1.9-4-.79-6.12-4.24-3.35-1.48-4.17-4.88-3.78-5.36.62-4-1.9-6.12.78-3.35,4.23-4.18,1.48-3.78,4.89.62,5.37-1.91,4,.78,6.12,4.23,3.35,1.48,4.17,4.88,3.78,5.37-.62,4,1.9,6.12-.79,3.35-4.24C46.41,301.32,46,297.91,41.62,297.43Z" style="fill:#fff;stroke:#263238;stroke-linecap:round;stroke-linejoin:round"/><path d="M38.93,300.46a3.5,3.5,0,1,0-3.07,3.88A3.5,3.5,0,0,0,38.93,300.46Z" style="fill:#8870E5;stroke:#263238;stroke-linecap:round;stroke-linejoin:round"/><path d="M38,309.51c1.91-4-.78-6.13-4.23-3.36-1.48-4.17-4.88-3.77-5.37.63-4-1.91-6.12.78-3.35,4.23-4.17,1.48-3.77,4.88.63,5.37-1.91,4,.78,6.12,4.23,3.35,1.48,4.17,4.88,3.77,5.36-.63,4,1.91,6.12-.78,3.36-4.23C42.82,313.39,42.42,310,38,309.51Z" style="fill:#fff;stroke:#263238;stroke-linecap:round;stroke-linejoin:round"/><circle cx="31.86" cy="312.94" r="3.5" transform="translate(-90.65 23.22) rotate(-17.11)" style="fill:#8870E5;stroke:#263238;stroke-linecap:round;stroke-linejoin:round"/><path d="M53.21,320.79c1.91-4-.78-6.12-4.23-3.35-1.48-4.17-4.88-3.78-5.36.62-4-1.9-6.13.78-3.36,4.23-4.17,1.48-3.77,4.89.63,5.37-1.91,4,.78,6.12,4.23,3.35,1.48,4.17,4.88,3.78,5.36-.62,4,1.9,6.13-.79,3.36-4.24C58,324.68,57.61,321.27,53.21,320.79Z" style="fill:#fff;stroke:#263238;stroke-linecap:round;stroke-linejoin:round"/><path d="M50.52,323.82a3.49,3.49,0,1,0-3.07,3.88A3.49,3.49,0,0,0,50.52,323.82Z" style="fill:#8870E5;stroke:#263238;stroke-linecap:round;stroke-linejoin:round"/><path d="M67.47,316.86c1.52-3.19-.62-4.88-3.37-2.67-1.18-3.33-3.89-3-4.28.49-3.18-1.52-4.87.63-2.67,3.38-3.32,1.17-3,3.89.5,4.27-1.52,3.18.62,4.88,3.37,2.67,1.18,3.32,3.89,3,4.28-.5,3.18,1.52,4.88-.62,2.67-3.37C71.29,320,71,317.24,67.47,316.86Z" style="fill:#fff;stroke:#263238;stroke-linecap:round;stroke-linejoin:round"/><path d="M65.33,319.27a2.79,2.79,0,1,0-2.45,3.09A2.79,2.79,0,0,0,65.33,319.27Z" style="fill:#8870E5;stroke:#263238;stroke-linecap:round;stroke-linejoin:round"/><line x1="77.57" y1="262.85" x2="74.55" y2="250.35" style="fill:none;stroke:#263238;stroke-linecap:round;stroke-linejoin:round;stroke-width:2px"/><line x1="65.14" y1="279.2" x2="88.02" y2="275.43" style="fill:none;stroke:#263238;stroke-linecap:round;stroke-linejoin:round;stroke-width:2px"/><path d="M149,186.18l19.65-17.28s-2.09-1.69-9.76-.8-11.42,3-12,7.21S149,186.18,149,186.18Z" style="fill:#8870E5;stroke:#263238;stroke-linecap:round;stroke-linejoin:round"/><path d="M144.2,190.34a20.7,20.7,0,0,0-3.83-11.49,25.66,25.66,0,0,0-9.79-7.75s-3.35,11.78.79,16.29S144.2,190.34,144.2,190.34Z" style="fill:#8870E5;stroke:#263238;stroke-linecap:round;stroke-linejoin:round"/><path d="M144.2,190.34a36.85,36.85,0,0,1,9.35-.81c5,.25,10.3,7.41,11.38,12s2.93,13.26,2.93,13.26-11.33-6.74-16.17-12.56A55.83,55.83,0,0,1,144.2,190.34Z" style="fill:#8870E5;stroke:#263238;stroke-linecap:round;stroke-linejoin:round"/><path d="M76.19,254.88s3.83-7.67,1.39-14.32S69,228.78,69,228.78s-4.79,11.39-2.62,18.08S76.19,254.88,76.19,254.88Z" style="fill:#8870E5;stroke:#263238;stroke-linecap:round;stroke-linejoin:round"/><path d="M107.92,274s-6.82-5.18-13.81-4S81,276.28,81,276.28s10.3,6.81,17.28,5.91S107.92,274,107.92,274Z" style="fill:#8870E5;stroke:#263238;stroke-linecap:round;stroke-linejoin:round"/><path d="M76.68,261.48s-5.5-9.08-13.5-8.7-11.49,3.83-11.49,3.83,8.65,7.6,14.47,7.48A26.16,26.16,0,0,0,76.68,261.48Z" style="fill:#8870E5;stroke:#263238;stroke-linecap:round;stroke-linejoin:round"/><polyline points="17.53 353.73 57.06 333.14 109.41 302.28" style="fill:none;stroke:#263238;stroke-linecap:round;stroke-linejoin:round;stroke-width:2px"/><path d="M90.56,312.84s17.83.07,23.72-3.23,9.45-17.67,9.45-17.67-2.83-2.28-14.09,2.48S90.56,312.84,90.56,312.84Z" style="fill:#8870E5;stroke:#263238;stroke-linecap:round;stroke-linejoin:round"/><line x1="57.06" y1="333.14" x2="75.25" y2="302.07" style="fill:none;stroke:#263238;stroke-linecap:round;stroke-linejoin:round;stroke-width:2px"/><line x1="42.71" y1="340.66" x2="65.88" y2="347.19" style="fill:none;stroke:#263238;stroke-linecap:round;stroke-linejoin:round;stroke-width:2px"/><path d="M68.18,314.92s10.88-2.08,13.37-6.34.07-17.82.07-17.82S70.21,296,69.08,300.65,68.18,314.92,68.18,314.92Z" style="fill:#8870E5;stroke:#263238;stroke-linecap:round;stroke-linejoin:round"/><path d="M61.92,324.74a12.08,12.08,0,0,0-2.85-8.16c-3.2-3.66-15.89-4.3-15.89-4.3s3,7.48,7.82,11.4S61.92,324.74,61.92,324.74Z" style="fill:#8870E5;stroke:#263238;stroke-linecap:round;stroke-linejoin:round"/><path d="M56,345a13.41,13.41,0,0,0,7.78,8.27c6.4,2.72,20.42-2,20.42-2s-7.6-8.94-13.75-11.23S56,345,56,345Z" style="fill:#8870E5;stroke:#263238;stroke-linecap:round;stroke-linejoin:round"/><path d="M26.62,348.8s4.52,5.51,8.54,7.56S55,357,55,357s-5-9.51-10.37-10.83S26.62,348.8,26.62,348.8Z" style="fill:#8870E5;stroke:#263238;stroke-linecap:round;stroke-linejoin:round"/><path d="M17.75,358.07s5.36-5.29,7.09-11.42S24.38,332,24.38,332s-10.5,7.89-12.67,14.26.13,17.14.13,17.14Z" style="fill:#8870E5;stroke:#263238;stroke-linecap:round;stroke-linejoin:round"/><path d="M80.62,319.72s6.44,5.86,13.06,8.46,23.73,1.92,23.73,1.92-10.55-14.75-16.63-15.36S80.62,319.72,80.62,319.72Z" style="fill:#8870E5;stroke:#263238;stroke-linecap:round;stroke-linejoin:round"/><polyline points="19.64 369.75 62.54 381.84 121.81 395.22" style="fill:none;stroke:#263238;stroke-linecap:round;stroke-linejoin:round;stroke-width:2px"/><path d="M100.85,390s12.94,12.27,19.49,13.9,19-6.4,19-6.4-.5-3.6-12-7.85S100.85,390,100.85,390Z" style="fill:#8870E5;stroke:#263238;stroke-linecap:round;stroke-linejoin:round"/><line x1="62.54" y1="381.84" x2="97.07" y2="371.67" style="fill:none;stroke:#263238;stroke-linecap:round;stroke-linejoin:round;stroke-width:2px"/><line x1="46.94" y1="377.48" x2="59.34" y2="398.12" style="fill:none;stroke:#263238;stroke-linecap:round;stroke-linejoin:round;stroke-width:2px"/><path d="M83.12,376.18s9.35,5.95,14.09,4.55,12.25-12.94,12.25-12.94-11.9-4-15.91-1.39S83.12,376.18,83.12,376.18Z" style="fill:#8870E5;stroke:#263238;stroke-linecap:round;stroke-linejoin:round"/><path d="M71.83,379.05a12.1,12.1,0,0,0,3.52-7.9c.17-4.86-8.64-14-8.64-14s-2.9,7.53-2.11,13.66S71.83,379.05,71.83,379.05Z" style="fill:#8870E5;stroke:#263238;stroke-linecap:round;stroke-linejoin:round"/><path d="M53.69,389.74a13.4,13.4,0,0,0,0,11.35c2.8,6.38,16.22,12.56,16.22,12.56s.6-11.72-2.32-17.6S53.69,389.74,53.69,389.74Z" style="fill:#8870E5;stroke:#263238;stroke-linecap:round;stroke-linejoin:round"/><path d="M29.63,372.4s-.48,7.1,1,11.35,14,14.07,14,14.07,2.84-10.38-.14-15S29.63,372.4,29.63,372.4Z" style="fill:#8870E5;stroke:#263238;stroke-linecap:round;stroke-linejoin:round"/><path d="M16.82,373.07s7.53-.18,13-3.47,9.71-11,9.71-11-13.05-1.45-19,1.71S8.87,372.9,8.87,372.9Z" style="fill:#8870E5;stroke:#263238;stroke-linecap:round;stroke-linejoin:round"/><path d="M88.89,388.2s.68,8.68,3.72,15.11,16,17.66,16,17.66,2.41-18-1.6-22.58S88.89,388.2,88.89,388.2Z" style="fill:#8870E5;stroke:#263238;stroke-linecap:round;stroke-linejoin:round"/></g></svg>