<svg xmlns="http://www.w3.org/2000/svg" viewBox="15.35 27.55 474.45 446.55"><g id="freepik--background-simple--inject-103"><path d="M328.83,58.06S249.49,26.89,173.61,70.88,61.28,205.38,29.83,277.82,19.63,425.43,79.41,461.1s98.47-13.38,181-13.52,105.06,12.73,172.29-33.76,76.55-160.45,20.22-246.54S328.83,58.06,328.83,58.06Z" style="fill:#F2A8A5"/><path d="M328.83,58.06S249.49,26.89,173.61,70.88,61.28,205.38,29.83,277.82,19.63,425.43,79.41,461.1s98.47-13.38,181-13.52,105.06,12.73,172.29-33.76,76.55-160.45,20.22-246.54S328.83,58.06,328.83,58.06Z" style="fill:#fff;opacity:0.7000000000000001"/></g><g id="freepik--Window--inject-103"><path d="M124.76,28.05h0a80.48,80.48,0,0,1,80.48,80.48V398a0,0,0,0,1,0,0h-161a0,0,0,0,1,0,0V108.53a80.48,80.48,0,0,1,80.48-80.48Z" style="fill:none;stroke:#263238;stroke-linecap:round;stroke-linejoin:round"/><path d="M62.46,397.13v-286a62.31,62.31,0,0,1,62.3-62.31h0a62.31,62.31,0,0,1,62.31,62.31v286" style="fill:none;stroke:#263238;stroke-linecap:round;stroke-linejoin:round"/><line x1="124.76" y1="28.05" x2="124.76" y2="397.57" style="fill:none;stroke:#263238;stroke-linecap:round;stroke-linejoin:round"/><line x1="45.15" y1="99.23" x2="204.16" y2="99.23" style="fill:none;stroke:#263238;stroke-linecap:round;stroke-linejoin:round"/><line x1="45.15" y1="149.42" x2="204.16" y2="149.42" style="fill:none;stroke:#263238;stroke-linecap:round;stroke-linejoin:round"/><line x1="45.15" y1="199.61" x2="204.16" y2="199.61" style="fill:none;stroke:#263238;stroke-linecap:round;stroke-linejoin:round"/><line x1="45.15" y1="249.81" x2="204.16" y2="249.81" style="fill:none;stroke:#263238;stroke-linecap:round;stroke-linejoin:round"/><line x1="45.15" y1="300" x2="204.16" y2="300" style="fill:none;stroke:#263238;stroke-linecap:round;stroke-linejoin:round"/><line x1="45.15" y1="350.19" x2="204.16" y2="350.19" style="fill:none;stroke:#263238;stroke-linecap:round;stroke-linejoin:round"/><line x1="66.41" y1="53.17" x2="80.83" y2="66.3" style="fill:none;stroke:#263238;stroke-linecap:round;stroke-linejoin:round"/><line x1="182.51" y1="53.17" x2="168.09" y2="66.3" style="fill:none;stroke:#263238;stroke-linecap:round;stroke-linejoin:round"/></g><g id="freepik--Picture--inject-103"><rect x="302" y="40.75" width="159.02" height="216.6" style="fill:none;stroke:#263238;stroke-linecap:round;stroke-linejoin:round"/><rect x="312.77" y="49.87" width="137.48" height="198.35" style="fill:none;stroke:#263238;stroke-linecap:round;stroke-linejoin:round"/><path d="M450.25,62c-2.25-.56-26.36-6.17-31.81,6.9-5.71,13.71,32,49.13,11.43,77.7s-78.85-14.85-88,8-8,53.7-24,59.42a34.22,34.22,0,0,1-5.12,1.36v32.9H450.25Z" style="fill:none;stroke:#263238;stroke-miterlimit:10"/><path d="M346.81,49.87c10.35,5.7,18,13.93,9.93,24.69-17.14,22.86-42.28,36.57-26.28,49.14S388.73,126,383,90.56c-3.16-19.59-3.17-32.18-.23-40.69Z" style="fill:none;stroke:#263238;stroke-miterlimit:10"/><circle cx="375.59" cy="196.26" r="21.14" transform="translate(-46.71 160.95) rotate(-22.81)" style="fill:none;stroke:#263238;stroke-miterlimit:10"/><path d="M442.44,176.83a8.57,8.57,0,1,1-8.57-8.57A8.57,8.57,0,0,1,442.44,176.83Z" style="fill:none;stroke:#263238;stroke-miterlimit:10"/><path d="M359,106.56a6.86,6.86,0,1,1-6.85-6.86A6.85,6.85,0,0,1,359,106.56Z" style="fill:none;stroke:#263238;stroke-miterlimit:10"/></g><g id="freepik--Plants--inject-103"><path d="M433.11,413.52q3.22-2.26,6.28-4.72A20.88,20.88,0,0,0,433.11,413.52Z" style="fill:#263238"/><path d="M452.86,387.7c-3.9-2-10.87,1.7-13.64,4.45-.18.18-1.94,2.38-2.89,3.61.23-1.48.47-3,.66-4.46.54-4.34.95-8.75,1.38-13.15.13-1.35.27-2.69.42-4,.56.21,7.22,2.69,10.5,2.46,2.91-.21,6.57-1.28,8.25-3.87a5.18,5.18,0,0,0-1.74-7.51c-3.89-2-10.87,1.69-13.64,4.45-.21.21-2.74,3.38-3.35,4.22.31-3,.65-5.9,1.1-8.79a91,91,0,0,1,2.53-11.56c.26.1,7.2,2.72,10.56,2.48,2.91-.2,6.57-1.27,8.25-3.86a5.18,5.18,0,0,0-1.74-7.52c-3.89-2-10.86,1.7-13.64,4.45-.18.18-2.11,2.6-3,3.77l-.22-.12a68,68,0,0,1,4.59-11c1-1.95,2.06-3.76,3.13-5.49,1.25.62,7,3.39,10,3.51s6.67-.54,8.63-2.93a5.19,5.19,0,0,0-.9-7.66c-3.65-2.42-11,.49-14,2.92-.17.14-1.71,1.67-2.81,2.81.49-.78,1-1.59,1.48-2.32,1.83-2.76,3.68-5.17,5.33-7.3.95-1.2,1.83-2.26,2.67-3.25,1.54,0,7.73-.22,10.44-1.49s5.67-3.56,6.31-6.58a5.19,5.19,0,0,0-4.34-6.38c-4.35-.47-9.52,5.5-11.11,9.07-.14.31-1.74,5.38-1.66,5.38h.1c-.83.94-1.7,1.95-2.63,3.07-1.7,2.1-3.61,4.47-5.51,7.2a95.52,95.52,0,0,0-5.71,9.1,67.5,67.5,0,0,0-4.87,11,.57.57,0,0,0,0,.14c0-1.29,0-4.87-.07-5.15-.5-3.88-3.75-11.07-8.06-11.87a5.19,5.19,0,0,0-6,4.87c-.25,3.09,2,6.17,4.16,8.11,2.46,2.2,9.28,4.32,9.82,4.49a93.38,93.38,0,0,0-2.88,11.89c-.42,2.35-.77,4.72-1.08,7.1,0-1.11,0-2.1-.06-2.24-.51-3.88-3.76-11.07-8.06-11.87a5.19,5.19,0,0,0-6,4.88c-.25,3.08,2,6.16,4.16,8.11s8,3.9,9.52,4.39c-.11.91-.23,1.83-.34,2.74-.53,4.4-1,8.78-1.66,13.07-.22,1.51-.49,3-.76,4.47,0-1,0-1.81-.05-1.94-.5-3.88-3.75-11.07-8.06-11.87a5.19,5.19,0,0,0-6,4.88c-.25,3.08,2,6.16,4.16,8.11s7.43,3.71,9.25,4.3c-.32,1.51-.64,3-1,4.47-.28,1-.49,1.95-.82,2.92s-.62,1.93-.93,2.88c-.66,1.8-1.33,3.67-2,5.42-.3.78-.6,1.52-.9,2.27l3.42-2.32c.54-1.53,1.07-3.07,1.62-4.71.29-1,.58-1.92.87-2.9s.51-2,.78-3c.56-2.37,1-4.8,1.43-7.26,1.58.58,7.23,2.54,10.15,2.34a15,15,0,0,0,4.71-1.1c1.5-1.59,3-3.21,4.37-4.88A5,5,0,0,0,452.86,387.7Z" style="fill:#263238"/><path d="M428.21,413.52a20.07,20.07,0,0,0-2.7-9.78,6.29,6.29,0,0,0-.07-1.15,5.18,5.18,0,0,0-6.34-4.39c-4.23,1.12-6.91,8.55-7.11,12.45,0,.23.14,2.75.26,4.33-.22-.92-.41-1.81-.64-2.76-.45-1.87-.94-3.73-1.47-5.72l-.88-2.9c-.27-1-.68-2-1-3-.84-2.29-1.8-4.56-2.81-6.84,1.63-.39,7.43-1.87,9.76-3.65s4.77-4.69,4.75-7.78a5.18,5.18,0,0,0-5.6-5.3c-4.35.47-8.13,7.4-8.92,11.23-.05.24-.31,3.05-.42,4.6-.62-1.36-1.23-2.73-1.91-4.08-1.94-3.92-4-7.83-6.1-11.73-.64-1.2-1.25-2.4-1.88-3.59.59-.14,7.51-1.75,10.12-3.75C407.55,368,410,365.07,410,362a5.18,5.18,0,0,0-5.59-5.31c-4.36.48-8.14,7.41-8.93,11.24,0,.29-.42,4.33-.46,5.37-1.37-2.64-2.72-5.29-3.93-7.94a90.58,90.58,0,0,1-4.28-11c.28-.06,7.51-1.71,10.18-3.76,2.32-1.77,4.78-4.68,4.76-7.77a5.19,5.19,0,0,0-5.6-5.31c-4.35.48-8.13,7.41-8.92,11.24,0,.25-.33,3.33-.43,4.8l-.25,0a65.94,65.94,0,0,1-2.23-11.69c-.24-2.18-.36-4.27-.42-6.31,1.38-.17,7.68-1,10.28-2.58s5.26-4.14,5.58-7.21a5.19,5.19,0,0,0-5-5.89c-4.38,0-8.89,6.47-10.1,10.19-.07.2-.5,2.33-.8,3.89,0-.92-.05-1.87-.05-2.75,0-3.31.22-6.35.43-9,.13-1.52.28-2.9.43-4.19,1.26-.87,6.33-4.44,7.89-7s2.76-6.09,1.62-9a5.19,5.19,0,0,0-7.13-2.94c-3.89,2-4.91,9.85-4.27,13.7.06.34,1.53,5.45,1.59,5.4l.08-.05c-.17,1.24-.34,2.56-.5,4-.26,2.69-.54,5.72-.62,9.05a94,94,0,0,0,.26,10.73,67.6,67.6,0,0,0,2,11.85c0,.05,0,.09,0,.14-.69-1.08-2.71-4.05-2.89-4.26-2.56-2.95-9.24-7.16-13.27-5.45a5.18,5.18,0,0,0-2.3,7.36c1.49,2.71,5,4,7.94,4.47,3.26.48,10.12-1.51,10.67-1.67a90.5,90.5,0,0,0,4.16,11.51c.94,2.18,2,4.35,3,6.51-.63-.91-1.2-1.73-1.29-1.83-2.56-3-9.24-7.17-13.27-5.46a5.18,5.18,0,0,0-2.29,7.36c1.49,2.71,5.05,4.05,7.94,4.47s8.81-1.15,10.36-1.59c.42.83.82,1.66,1.23,2.48,2,4,4,7.9,5.83,11.82.65,1.38,1.24,2.76,1.83,4.15-.55-.81-1-1.5-1.11-1.59-2.56-3-9.24-7.17-13.27-5.46a5.19,5.19,0,0,0-2.3,7.37c1.49,2.7,5,4,7.94,4.46s8.24-1,10.09-1.51c.57,1.44,1.14,2.87,1.62,4.29.31,1,.67,1.89.93,2.89s.54,2,.81,2.91c.45,1.87.92,3.8,1.32,5.63.28,1.28.52,2.5.78,3.73-.64-1.39-1.93-4.07-2.06-4.28-2.08-3.31-8-8.48-12.29-7.4a5.18,5.18,0,0,0-3.39,6.93c1.07,2.9,4.39,4.76,7.18,5.62,3.07.94,9.88.08,10.73,0,.41,2,.79,4,1.11,5.89.24,1.34.45,2.62.65,3.87l2.46-1.46c-.18-.94-.36-1.9-.56-2.89-.4-2.06-.88-4.27-1.39-6.52a55.44,55.44,0,0,0,6-2.82c1.7,1.85,5.42,3.93,7.44,5l1.76-1.18C427.94,415.66,428.2,413.73,428.21,413.52Z" style="fill:#263238"/><path d="M372.45,333.75c3.14,1.37,10.83,1.2,10.83,1.2s-1.65-5-1.79-5.34c-1.69-3.53-7-9.35-11.36-8.76a5.17,5.17,0,0,0-4.16,6.49C366.69,330.35,369.77,332.58,372.45,333.75Z" style="fill:#263238"/><path d="M439.94,319.54c-1.06,2.91.28,6.47,1.87,8.92,1.86,2.88,8.37,7,8.38,7s1.39-5.11,1.44-5.44c.54-3.87-.7-11.67-4.64-13.58A5.19,5.19,0,0,0,439.94,319.54Z" style="fill:#263238"/></g><g id="freepik--Character--inject-103"><path d="M325.07,95.53l-48.79,1.29-1,17.11L322.14,122s.12-16,4.43-26.09" style="fill:#fff;stroke:#263238;stroke-miterlimit:10"/><path d="M343,94.78A2.5,2.5,0,0,0,341,91.06c-3.37-.75-15.65,0-17.52,0s-7.73,6-8.67,17.14-.1,17.14,2.15,18.26,17.51-.37,17.51-.37,3.14-13.79,6-20.13A24.2,24.2,0,0,0,343,94.78Z" style="fill:#fff;stroke:#263238;stroke-miterlimit:10"/><path d="M299.45,448.34c3.14-22.29,6.76-50.38,6.6-60.36-.28-17.47-.78-20.23-.78-20.23H172.38L171.05,371a247.51,247.51,0,0,0-.07,53.34c1.68,14.72,3.08,29.06,4,39.37,16.95-5.24,35.38-11.1,56.95-14.09l.7-49.19,5.46-4.14,2.54,52.3c6.3-.61,12.86-1,19.73-1C275.13,447.56,288,448,299.45,448.34Z" style="fill:#263238;stroke:#263238;stroke-miterlimit:10"/><path d="M204.6,194.86h73.11l8.36,180.25s-10.52,3.68-26.16,3.22-18.48-5.52-33.12-1.38-15.52,7.36-26.13,5.06L190,379.71Z" style="fill:#fff;stroke:#263238;stroke-miterlimit:10"/><path d="M241.76,327.4c-.71,2.13-1.28,3.89-1.62,5.14" style="fill:none;stroke:#263238;stroke-linecap:round;stroke-miterlimit:10"/><path d="M257.58,284.57s-8.51,22.12-13.77,36.94" style="fill:none;stroke:#263238;stroke-linecap:round;stroke-miterlimit:10"/><line x1="237.82" y1="306.21" x2="235.93" y2="310.48" style="fill:none;stroke:#263238;stroke-linecap:round;stroke-miterlimit:10"/><line x1="250.84" y1="276.85" x2="241.28" y2="298.41" style="fill:none;stroke:#263238;stroke-linecap:round;stroke-miterlimit:10"/><path d="M257.56,209.94l.91,81.24-.05,114.41s19,0,30.51-3S314.72,384,314.72,384s-15.57-89.07-16.13-101.37,4-77.52,4-77.52,65.33-76.94,69.5-83.1c6.55-9.69,8.29-17.52,6.74-21.62s-35.89-7.08-39.6-6S330,121.62,330,121.62s-23.56,18.26-32.06,23.1-13.68,7.08-24.41,11.55a73.91,73.91,0,0,0-19.19,12.3Z" style="fill:#F2A8A5;stroke:#263238;stroke-miterlimit:10"/><path d="M289.56,191.61c0,2.34.11,4.51.24,6.4" style="fill:none;stroke:#263238;stroke-miterlimit:10"/><path d="M290.93,151.43s-1.32,19.72-1.39,35.37" style="fill:none;stroke:#263238;stroke-miterlimit:10"/><path d="M295.36,148.82s-2.71,17.52-3.31,26.46" style="fill:none;stroke:#263238;stroke-miterlimit:10"/><path d="M330,121.62s12.58-9.86,15.61-10.37" style="fill:none;stroke:#263238;stroke-miterlimit:10"/><path d="M222.87,207.7l-3.62,101L213.75,409a213.06,213.06,0,0,1-29.59-9.32c-14.63-6-22.55-12.3-22.55-12.3s5.82-32.42,9.64-50.31,8.82-54.78,8.73-60.74-.88-31.68-3.33-45.47-13.54-31.31-13.57-33.17,38.49-17.14,45.51-20.87a41.4,41.4,0,0,1,12.6-4.47l1.88.74Z" style="fill:#F2A8A5;stroke:#263238;stroke-miterlimit:10"/><path d="M222.24,167.83s-7,3.35-8.41,10.06-6.2,32.42-6.51,36.15,1.15,2.24,4.08-1.12,6.19-8.94,7.71-7.45l7.19,7.08h27.58a8.82,8.82,0,0,0,3.68-2.61c1.46-1.86,4-6.34,5.52-4.85s5.39,11.19,6.47,8.95-4.19-29.81-5.82-38.39S247.49,161.86,222.24,167.83Z" style="fill:#fff;stroke:#263238;stroke-miterlimit:10"/><path d="M223.12,176.4s-1.33,33.91,1.76,40.62,11.39,13,19.17,10.44,13.31-7.09,13.55-15.28S255.54,176,255.54,176Z" style="fill:#fff;stroke:#263238;stroke-miterlimit:10"/><path d="M257.6,212.18c.24-8.2-2.06-36.15-2.06-36.15l-32.42.37s-.48,12.23-.19,23.45a33.89,33.89,0,0,0,15-5.18,45.34,45.34,0,0,0,11.82-11.34l7.36,32.39A16.33,16.33,0,0,0,257.6,212.18Z" style="fill:#263238;stroke:#263238;stroke-miterlimit:10"/><path d="M201.16,121.82s-2.82-4.13-5.48,2.07,2.64,14.82,5.09,16.89,9,4.82,9,1.72-2.68-16.54-4.82-21.36S201.16,121.82,201.16,121.82Z" style="fill:#fff;stroke:#263238;stroke-miterlimit:10"/><path d="M279.4,122.86s2.69-4.14,5.55,2.07-2.18,14.81-4.56,16.88-8.88,4.83-8.93,1.72,2.15-16.54,4.14-21.36S279.4,122.86,279.4,122.86Z" style="fill:#fff;stroke:#263238;stroke-miterlimit:10"/><path d="M205.87,136.3s3,18.26,5.24,26.53,21.11,27.23,28,27.57,25-10.68,29.29-22.05,5.39-29.64,5.38-30.67,2.34-25.85-4.34-34.81-34.58-7.58-48.25-.34S200.11,120.79,205.87,136.3Z" style="fill:#fff;stroke:#263238;stroke-miterlimit:10"/><path d="M229.55,152c0,2.19-.94,4-2.18,4s-2.27-1.77-2.3-4,.94-4,2.18-4S229.51,149.79,229.55,152Z" style="fill:#263238"/><path d="M256.08,152c0,2.19-.94,4-2.17,4s-2.27-1.77-2.31-4,.94-4,2.18-4S256.05,149.79,256.08,152Z" style="fill:#263238"/><line x1="231.41" y1="139.05" x2="218.42" y2="145.6" style="fill:none;stroke:#263238;stroke-linecap:round;stroke-miterlimit:10;stroke-width:3px"/><line x1="251.4" y1="139.4" x2="264.27" y2="146.98" style="fill:none;stroke:#263238;stroke-linecap:round;stroke-miterlimit:10;stroke-width:3px"/><path d="M245.91,165.42a4.42,4.42,0,0,1-4.65,4.25,4.59,4.59,0,0,1-4.78-4.25" style="fill:none;stroke:#263238;stroke-linecap:round;stroke-miterlimit:10"/><path d="M237.9,178a7.72,7.72,0,0,1,6.25,0" style="fill:none;stroke:#263238;stroke-linecap:round;stroke-miterlimit:10"/><line x1="220.3" y1="155.75" x2="225.57" y2="156.75" style="fill:none;stroke:#263238;stroke-linecap:round;stroke-miterlimit:10"/><line x1="262.05" y1="155.75" x2="256.33" y2="157.5" style="fill:none;stroke:#263238;stroke-linecap:round;stroke-miterlimit:10"/><path d="M224.11,69.44s-17.79,8.28-23.39,24.82,1.92,33.77,3,38.25,1.83,6.89,1.83,6.89,5.08-5.86,8.83-8.62,11.3-4.13,15.77-5.17,19.91-4.82,24-9,5.42-5.86,5.42-5.86,3.38,17.57,7.94,22.74a25.66,25.66,0,0,1,5.68,10.68s3-6.89,5.31-13.09,3.93-34.81-2.47-46.87S242.58,60.49,224.11,69.44Z" style="fill:#263238;stroke:#263238;stroke-miterlimit:10"/><path d="M259.57,110.8s-13.9,14.81-30,21.71-33,25.15-31.51,34.46,12.95,12.75,11.57,12.75-18.31-3.1-18.18-16.89,14.47-22.05,22-25.5S252.75,115.28,259.57,110.8Z" style="fill:#263238;stroke:#263238;stroke-miterlimit:10"/><path d="M262.83,121.14s4.74,16.54,7.59,22,7.87,18.61,4.23,27.91-6.38,10.68-6.38,10.68,12.27-8.61,12.05-22.74S265.05,130.78,262.83,121.14Z" style="fill:#263238;stroke:#263238;stroke-miterlimit:10"/><ellipse cx="239.86" cy="73.99" rx="17.05" ry="20.51" transform="translate(157.43 311.08) rotate(-87.97)" style="fill:#263238;stroke:#263238;stroke-miterlimit:10"/><ellipse cx="239.98" cy="59.68" rx="9.99" ry="12.24" transform="translate(172.74 297.66) rotate(-88.19)" style="fill:#263238;stroke:#263238;stroke-miterlimit:10"/><path d="M138.27,325.84l.89,56.28s-4.45,24.59-2.19,26.46,9.83,8.57,11.35,10.43,4.51,2.61,6.75,3,8.55-1.49,7.38-4.84-2.6.74-3.73-.38a32.87,32.87,0,0,1-3.05-4.09l2.11-8.2s.49,7.82,2.36,8.2,2.22-1.12,2.17-4.1-.8-3.73-.52-9.32-2-9.69-3.18-12.67-3.49-8.57-3.89-10.44,11.94-46.21,11.94-46.21S158.55,335.16,138.27,325.84Z" style="fill:#fff;stroke:#263238;stroke-miterlimit:10"/><path d="M163.08,197.64s-10.67,8.57-12.33,21.62-2.11,31.67-3.5,37.64-7,52.92-7,52.92,5.3,5.21,9.8,7.45,14.54.37,16,0a31.7,31.7,0,0,0,4.44-1.86s6.13-36.53,6.41-42.86,2.68-19,2.68-19S179.34,212.55,163.08,197.64Z" style="fill:#F2A8A5;stroke:#263238;stroke-miterlimit:10"/><path d="M170.08,269.19c-.82,1.44-1.53,2.71-2,3.68" style="fill:none;stroke:#263238;stroke-miterlimit:10"/><path d="M179.62,253.54s-3.93,6.21-7.34,11.91" style="fill:none;stroke:#263238;stroke-miterlimit:10"/><line x1="170.67" y1="261.74" x2="162.88" y2="274.72" style="fill:none;stroke:#263238;stroke-miterlimit:10"/><path d="M139,302.36s7.56,6.71,14.68,8.95,13.07,1.86,15.67,1.12,3.69-1.87,4.11,1.11-2,13.42-2,16.4-1,4.47-7,5.59-18.65-1.12-22.42-3.73-6.43-6.33-6.11-9.69,1.69-10.8,2-13.41S137.54,303.11,139,302.36Z" style="fill:#fff;stroke:#263238;stroke-miterlimit:10"/><path d="M218.4,247.73a2,2,0,0,0-.29-.22c-2.64-1.65-16.17,1.85-19.6,1.85-11.13,0-15.73-3-16.17,1s-1.39,8.1-.34,10.12,4.55,0,7.59.51,9.17,4,11.7,4,9-4,10.56-4,5.08,1.51,6.08,0C219.5,258.52,220.6,249.84,218.4,247.73Z" style="fill:#fff;stroke:#263238;stroke-miterlimit:10"/><path d="M202.59,259.75a2.16,2.16,0,0,1-2.17,2.21,2.25,2.25,0,0,1-2.24-2.21,2.16,2.16,0,0,1,2.17-2.2A2.25,2.25,0,0,1,202.59,259.75Z" style="fill:none;stroke:#263238;stroke-linecap:round;stroke-miterlimit:10"/><path d="M296.31,247.73a2,2,0,0,0-.29-.22c-2.65-1.65-16.17,1.85-19.6,1.85-11.13,0-15.73-3-16.17,1s-1.39,8.1-.35,10.12,4.56,0,7.6.51,9.17,4,11.7,4,9-4,10.56-4,5.08,1.51,6.08,0C297.4,258.52,298.51,249.84,296.31,247.73Z" style="fill:#fff;stroke:#263238;stroke-miterlimit:10"/><path d="M280.9,260.31a2.16,2.16,0,0,1-2.17,2.2,2.25,2.25,0,0,1-2.24-2.2,2.16,2.16,0,0,1,2.17-2.21A2.25,2.25,0,0,1,280.9,260.31Z" style="fill:none;stroke:#263238;stroke-linecap:round;stroke-miterlimit:10"/></g><g id="freepik--bubble-speech--inject-103"><path d="M166.39,86.56H88.65a5.87,5.87,0,0,0-5.87,5.87v24.94a5.86,5.86,0,0,0,5.87,5.86h64.18l16.47,12.2-5.66-12.2h2.75a5.86,5.86,0,0,0,5.87-5.86V92.43A5.87,5.87,0,0,0,166.39,86.56Z" style="fill:#263238;stroke:#263238;stroke-miterlimit:10"/><path d="M167.35,85.08H89.61a5.86,5.86,0,0,0-5.87,5.86v24.94a5.86,5.86,0,0,0,5.87,5.86h64.18l15.51,13.69-4.7-13.69h2.75a5.86,5.86,0,0,0,5.86-5.86V90.94A5.86,5.86,0,0,0,167.35,85.08Z" style="fill:#fff;stroke:#263238;stroke-miterlimit:10"/><path d="M96.81,94.62v16.65H95V94.62Z" style="fill:#263238"/><path d="M99.69,99h-.76l.59-2.09h-.69V94.62h1.79v2.12Z" style="fill:#263238"/><path d="M108.65,111.24h-1.78L104.11,98v13.27h-1.62V94.62h2.6l2.73,13.29,2.64-13.29h2.59v16.65h-1.76V97.88Z" style="fill:#263238"/><path d="M125.84,98.62v.45h-1.76v-.55c0-1.5-.57-2.37-1.9-2.37s-1.9.87-1.9,2.35c0,3.73,5.58,4.09,5.58,8.77,0,2.52-1.21,4.16-3.75,4.16s-3.74-1.64-3.74-4.16v-1h1.74v1.05c0,1.49.62,2.37,2,2.37s2-.88,2-2.37c0-3.71-5.56-4.07-5.56-8.75,0-2.57,1.18-4.16,3.68-4.16S125.84,96.1,125.84,98.62Z" style="fill:#263238"/><path d="M127.34,98.64c0-2.54,1.26-4.18,3.8-4.18S135,96.1,135,98.64v8.61c0,2.52-1.26,4.18-3.83,4.18s-3.8-1.66-3.8-4.18Zm1.83,8.7c0,1.52.64,2.4,2,2.4s2-.88,2-2.4V98.55c0-1.5-.61-2.4-2-2.4s-2,.9-2,2.4Z" style="fill:#263238"/><path d="M140.44,94.62c2.61,0,3.7,1.33,3.7,3.81v1.35c0,1.83-.64,3-2.06,3.43,1.52.45,2.09,1.68,2.09,3.47v2.59a4.18,4.18,0,0,0,.33,2h-1.88a4.46,4.46,0,0,1-.31-2v-2.61c0-1.88-.88-2.47-2.42-2.47h-1.31v7.11h-1.85V94.62Zm-.48,7.85c1.47,0,2.35-.48,2.35-2.28v-1.6c0-1.49-.54-2.28-1.92-2.28h-1.81v6.16Z" style="fill:#263238"/><path d="M149.8,94.62c2.62,0,3.71,1.33,3.71,3.81v1.35c0,1.83-.64,3-2.07,3.43,1.52.45,2.09,1.68,2.09,3.47v2.59a4.18,4.18,0,0,0,.34,2H152a4.33,4.33,0,0,1-.31-2v-2.61c0-1.88-.88-2.47-2.43-2.47H148v7.11h-1.86V94.62Zm-.47,7.85c1.47,0,2.35-.48,2.35-2.28v-1.6c0-1.49-.55-2.28-1.93-2.28H148v6.16Z" style="fill:#263238"/><path d="M158.17,105.3l-3.52-10.68h1.93l2.59,8.18,2.61-8.18h1.76L160,105.3v6h-1.83Z" style="fill:#263238"/></g></svg>