<svg xmlns="http://www.w3.org/2000/svg" xmlns:xlink="http://www.w3.org/1999/xlink" width="500" zoomAndPan="magnify" viewBox="0 0 375 374.999991" height="500" preserveAspectRatio="xMidYMid meet" version="1.0"><defs><g/><clipPath id="a2aa81b9f1"><path d="M 157 140 L 233.105469 140 L 233.105469 230 L 157 230 Z M 157 140 " clip-rule="nonzero"/></clipPath><clipPath id="5697b3ba4d"><path d="M 142.355469 83 L 217 83 L 217 230 L 142.355469 230 Z M 142.355469 83 " clip-rule="nonzero"/></clipPath></defs><rect x="-37.5" width="450" fill="#ffffff" y="-37.499999" height="449.999989" fill-opacity="1"/><rect x="-37.5" width="450" fill="#ffffff" y="-37.499999" height="449.999989" fill-opacity="1"/><rect x="-37.5" width="450" fill="#7987f8" y="-37.499999" height="449.999989" fill-opacity="1"/><g clip-path="url(#a2aa81b9f1)"><path fill="#ffffff" d="M 208.5 141.796875 C 208.476562 141.816406 208.449219 141.832031 208.421875 141.851562 C 206.253906 143.394531 206.328125 146.617188 208.539062 148.105469 C 218.445312 154.792969 224.972656 166.125 224.972656 178.960938 L 224.972656 211.027344 C 224.972656 215.886719 223.277344 218.917969 219.789062 220.253906 C 213.855469 222.550781 202.671875 219.683594 193.507812 211.335938 L 212.976562 191.871094 C 220.277344 184.550781 220.277344 172.667969 212.976562 165.347656 C 206.128906 158.515625 195.285156 158.078125 187.933594 164.027344 C 180.566406 157.75 169.480469 158.09375 162.519531 165.054688 C 155.199219 172.359375 155.199219 184.242188 162.519531 191.5625 L 182.128906 211.175781 C 182.128906 211.207031 182.113281 211.222656 182.097656 211.207031 L 187.738281 217.109375 C 198.53125 227.054688 212.941406 231.636719 222.722656 227.867188 C 229.425781 225.277344 233.125 219.292969 233.125 211.027344 L 233.125 178.960938 C 233.125 163.5625 225.40625 149.9375 213.652344 141.742188 C 212.097656 140.660156 210.039062 140.699219 208.5 141.796875 Z M 168.269531 185.792969 C 166.277344 183.785156 165.171875 181.128906 165.171875 178.308594 C 165.171875 175.472656 166.28125 172.816406 168.269531 170.808594 C 170.339844 168.738281 173.0625 167.710938 175.769531 167.710938 C 178.492188 167.710938 181.195312 168.742188 183.265625 170.808594 L 187.894531 175.4375 L 192.21875 171.117188 C 196.359375 166.976562 203.074219 166.976562 207.199219 171.117188 C 211.339844 175.242188 211.339844 181.976562 207.199219 186.101562 L 187.894531 205.417969 Z M 168.269531 185.792969 " fill-opacity="1" fill-rule="nonzero"/></g><g clip-path="url(#5697b3ba4d)"><path fill="#ffffff" d="M 155.703125 220.253906 C 152.210938 218.917969 150.515625 215.882812 150.515625 211.027344 L 150.515625 178.960938 C 150.515625 158.550781 167.03125 141.921875 187.394531 141.757812 L 187.394531 141.722656 C 187.511719 141.726562 187.625 141.738281 187.742188 141.738281 C 204.867188 141.738281 218.582031 126.859375 216.632812 109.34375 C 215.148438 96.027344 204.386719 85.265625 191.070312 83.777344 C 173.558594 81.820312 158.671875 95.539062 158.671875 112.664062 C 158.671875 122.621094 163.707031 131.417969 171.355469 136.660156 C 154.414062 143.242188 142.363281 159.710938 142.363281 178.960938 L 142.363281 211.027344 C 142.363281 219.292969 146.066406 225.277344 152.761719 227.867188 C 155.078125 228.75 157.636719 229.171875 160.34375 229.171875 C 166.402344 229.171875 173.1875 227.054688 179.515625 223.253906 C 181.503906 222.058594 181.796875 219.285156 180.179688 217.625 C 178.65625 216.066406 176.28125 215.777344 174.378906 216.84375 C 167.253906 220.847656 160.0625 221.933594 155.703125 220.253906 Z M 166.996094 115.398438 C 165.253906 101.730469 176.800781 90.179688 190.472656 91.917969 C 199.789062 93.105469 207.308594 100.625 208.496094 109.941406 C 210.230469 123.601562 198.691406 135.148438 185.027344 133.417969 C 175.707031 132.234375 168.179688 124.714844 166.996094 115.398438 Z M 166.996094 115.398438 " fill-opacity="1" fill-rule="nonzero"/></g><g fill="#ffffff" fill-opacity="1"><g transform="translate(94.359373, 279.759445)"><g><path d="M 21.484375 0 L 16.140625 0 L 16.140625 -8.15625 L 7.4375 -8.15625 L 7.4375 0 L 2.09375 0 L 2.09375 -21 L 7.4375 -21 L 7.4375 -12.359375 L 16.140625 -12.359375 L 16.140625 -21 L 21.484375 -21 Z M 21.484375 0 "/></g></g></g><g fill="#ffffff" fill-opacity="1"><g transform="translate(117.930218, 279.759445)"><g><path d="M 18.546875 -16.796875 L 7.4375 -16.796875 L 7.4375 -12.625 L 17.453125 -12.625 L 17.453125 -8.4375 L 7.4375 -8.4375 L 7.4375 -4.203125 L 18.875 -4.203125 L 18.875 0 L 2.09375 0 L 2.09375 -21 L 18.546875 -21 Z M 18.546875 -16.796875 "/></g></g></g><g fill="#ffffff" fill-opacity="1"><g transform="translate(138.14236, 279.759445)"><g><path d="M 16.046875 -3.875 L 6.875 -3.875 L 5.34375 0 L -0.15625 0 L 8.90625 -21 L 14.40625 -21 L 23.25 0 L 17.546875 0 Z M 14.484375 -7.921875 L 11.484375 -15.6875 L 8.4375 -7.921875 Z M 14.484375 -7.921875 "/></g></g></g><g fill="#ffffff" fill-opacity="1"><g transform="translate(161.233388, 279.759445)"><g><path d="M 7.4375 -4.46875 L 16.34375 -4.46875 L 16.34375 0 L 2.09375 0 L 2.09375 -21 L 7.4375 -21 Z M 7.4375 -4.46875 "/></g></g></g><g fill="#ffffff" fill-opacity="1"><g transform="translate(178.026859, 279.759445)"><g><path d="M 10.171875 -21.234375 C 13.304688 -21.234375 16.066406 -20.457031 18.453125 -18.90625 L 16.4375 -14.734375 C 15.34375 -15.367188 14.164062 -15.890625 12.90625 -16.296875 C 11.644531 -16.710938 10.582031 -16.921875 9.71875 -16.921875 C 8.175781 -16.921875 7.40625 -16.410156 7.40625 -15.390625 C 7.40625 -14.734375 7.785156 -14.203125 8.546875 -13.796875 C 9.304688 -13.398438 10.226562 -13.054688 11.3125 -12.765625 C 12.40625 -12.472656 13.5 -12.117188 14.59375 -11.703125 C 15.6875 -11.296875 16.613281 -10.632812 17.375 -9.71875 C 18.132812 -8.800781 18.515625 -7.640625 18.515625 -6.234375 C 18.515625 -4.210938 17.722656 -2.632812 16.140625 -1.5 C 14.554688 -0.375 12.546875 0.1875 10.109375 0.1875 C 8.367188 0.1875 6.648438 -0.113281 4.953125 -0.71875 C 3.253906 -1.320312 1.773438 -2.144531 0.515625 -3.1875 L 2.578125 -7.296875 C 3.640625 -6.367188 4.890625 -5.609375 6.328125 -5.015625 C 7.765625 -4.429688 9.046875 -4.140625 10.171875 -4.140625 C 11.023438 -4.140625 11.691406 -4.289062 12.171875 -4.59375 C 12.660156 -4.90625 12.90625 -5.363281 12.90625 -5.96875 C 12.90625 -6.550781 12.628906 -7.035156 12.078125 -7.421875 C 11.523438 -7.816406 10.835938 -8.109375 10.015625 -8.296875 C 9.203125 -8.484375 8.3125 -8.738281 7.34375 -9.0625 C 6.382812 -9.382812 5.492188 -9.734375 4.671875 -10.109375 C 3.859375 -10.492188 3.175781 -11.097656 2.625 -11.921875 C 2.070312 -12.753906 1.796875 -13.75 1.796875 -14.90625 C 1.796875 -16.832031 2.5625 -18.367188 4.09375 -19.515625 C 5.625 -20.660156 7.648438 -21.234375 10.171875 -21.234375 Z M 10.171875 -21.234375 "/></g></g></g><g fill="#ffffff" fill-opacity="1"><g transform="translate(197.339358, 279.759445)"><g><path d="M 18.546875 -16.796875 L 7.4375 -16.796875 L 7.4375 -12.625 L 17.453125 -12.625 L 17.453125 -8.4375 L 7.4375 -8.4375 L 7.4375 -4.203125 L 18.875 -4.203125 L 18.875 0 L 2.09375 0 L 2.09375 -21 L 18.546875 -21 Z M 18.546875 -16.796875 "/></g></g></g><g fill="#ffffff" fill-opacity="1"><g transform="translate(217.551499, 279.759445)"><g><path d="M 21.484375 0 L 16.765625 0 L 7.109375 -12.9375 L 7.109375 0 L 2.09375 0 L 2.09375 -21 L 6.8125 -21 L 16.5 -8.046875 L 16.5 -21 L 21.484375 -21 Z M 21.484375 0 "/></g></g></g><g fill="#ffffff" fill-opacity="1"><g transform="translate(241.122344, 279.759445)"><g><path d="M 10.171875 -21.234375 C 13.304688 -21.234375 16.066406 -20.457031 18.453125 -18.90625 L 16.4375 -14.734375 C 15.34375 -15.367188 14.164062 -15.890625 12.90625 -16.296875 C 11.644531 -16.710938 10.582031 -16.921875 9.71875 -16.921875 C 8.175781 -16.921875 7.40625 -16.410156 7.40625 -15.390625 C 7.40625 -14.734375 7.785156 -14.203125 8.546875 -13.796875 C 9.304688 -13.398438 10.226562 -13.054688 11.3125 -12.765625 C 12.40625 -12.472656 13.5 -12.117188 14.59375 -11.703125 C 15.6875 -11.296875 16.613281 -10.632812 17.375 -9.71875 C 18.132812 -8.800781 18.515625 -7.640625 18.515625 -6.234375 C 18.515625 -4.210938 17.722656 -2.632812 16.140625 -1.5 C 14.554688 -0.375 12.546875 0.1875 10.109375 0.1875 C 8.367188 0.1875 6.648438 -0.113281 4.953125 -0.71875 C 3.253906 -1.320312 1.773438 -2.144531 0.515625 -3.1875 L 2.578125 -7.296875 C 3.640625 -6.367188 4.890625 -5.609375 6.328125 -5.015625 C 7.765625 -4.429688 9.046875 -4.140625 10.171875 -4.140625 C 11.023438 -4.140625 11.691406 -4.289062 12.171875 -4.59375 C 12.660156 -4.90625 12.90625 -5.363281 12.90625 -5.96875 C 12.90625 -6.550781 12.628906 -7.035156 12.078125 -7.421875 C 11.523438 -7.816406 10.835938 -8.109375 10.015625 -8.296875 C 9.203125 -8.484375 8.3125 -8.738281 7.34375 -9.0625 C 6.382812 -9.382812 5.492188 -9.734375 4.671875 -10.109375 C 3.859375 -10.492188 3.175781 -11.097656 2.625 -11.921875 C 2.070312 -12.753906 1.796875 -13.75 1.796875 -14.90625 C 1.796875 -16.832031 2.5625 -18.367188 4.09375 -19.515625 C 5.625 -20.660156 7.648438 -21.234375 10.171875 -21.234375 Z M 10.171875 -21.234375 "/></g></g></g><g fill="#ffffff" fill-opacity="1"><g transform="translate(260.434843, 279.759445)"><g><path d="M 18.546875 -16.796875 L 7.4375 -16.796875 L 7.4375 -12.625 L 17.453125 -12.625 L 17.453125 -8.4375 L 7.4375 -8.4375 L 7.4375 -4.203125 L 18.875 -4.203125 L 18.875 0 L 2.09375 0 L 2.09375 -21 L 18.546875 -21 Z M 18.546875 -16.796875 "/></g></g></g></svg>