<svg xmlns="http://www.w3.org/2000/svg" viewBox="0 55 500 372.56"><g id="freepik--background-complete--inject-116"><rect y="382.4" width="500" height="0.25" style="fill:#ebebeb"/><rect x="416.78" y="398.49" width="33.12" height="0.25" style="fill:#ebebeb"/><rect x="322.53" y="401.21" width="8.69" height="0.25" style="fill:#ebebeb"/><rect x="396.59" y="389.21" width="19.19" height="0.25" style="fill:#ebebeb"/><rect x="52.46" y="390.89" width="43.19" height="0.25" style="fill:#ebebeb"/><rect x="104.56" y="390.89" width="6.33" height="0.25" style="fill:#ebebeb"/><rect x="131.47" y="395.11" width="93.68" height="0.25" style="fill:#ebebeb"/><path d="M237,337.8H43.91a5.71,5.71,0,0,1-5.7-5.71V60.66A5.71,5.71,0,0,1,43.91,55H237a5.71,5.71,0,0,1,5.71,5.71V332.09A5.71,5.71,0,0,1,237,337.8ZM43.91,55.2a5.46,5.46,0,0,0-5.45,5.46V332.09a5.46,5.46,0,0,0,5.45,5.46H237a5.47,5.47,0,0,0,5.46-5.46V60.66A5.47,5.47,0,0,0,237,55.2Z" style="fill:#ebebeb"/><path d="M453.31,337.8H260.21a5.72,5.72,0,0,1-5.71-5.71V60.66A5.72,5.72,0,0,1,260.21,55h193.1A5.71,5.71,0,0,1,459,60.66V332.09A5.71,5.71,0,0,1,453.31,337.8ZM260.21,55.2a5.47,5.47,0,0,0-5.46,5.46V332.09a5.47,5.47,0,0,0,5.46,5.46h193.1a5.47,5.47,0,0,0,5.46-5.46V60.66a5.47,5.47,0,0,0-5.46-5.46Z" style="fill:#ebebeb"/><path d="M85.62,346.06c0-.4-1.35-39.68-7.74-45.89-6.21-6-13.34-.23-13.64,0l-.64-.76c.08-.07,8.13-6.64,15,0,6.68,6.49,8,44.94,8,46.58Z" style="fill:#e0e0e0"/><path d="M86.17,353.78c0-.47-4.37-47.16,12.68-66.73l.75.66c-16.76,19.24-12.48,65.5-12.44,66Z" style="fill:#e0e0e0"/><path d="M85.53,348.84l-1-.07c0-.53,3.33-53.07-9.17-64.58l.67-.73C88.9,295.28,85.68,346.66,85.53,348.84Z" style="fill:#e0e0e0"/><path d="M87.16,348.81h-1c0-1.45.42-35.49,10.09-41a6.8,6.8,0,0,1,6.25-.61c5.85,2.41,8.75,12.82,8.87,13.26l-1,.27c0-.11-2.88-10.38-8.28-12.61a5.91,5.91,0,0,0-5.38.55C87.57,313.89,87.17,348.46,87.16,348.81Z" style="fill:#e0e0e0"/><path d="M83.4,348.83l-1-.05c0-.27,1.46-26.91-5.73-36.29-1.74-2.28-3.63-3.36-5.63-3.22-4.71.33-8.66,7.22-8.7,7.29l-.87-.49c.17-.3,4.25-7.43,9.5-7.8,2.35-.16,4.53,1.05,6.49,3.61C84.88,321.56,83.46,347.72,83.4,348.83Z" style="fill:#e0e0e0"/><path d="M85,352.46c-.19-2.59-4.7-63.41,3.23-74.12l.8.59c-7.7,10.42-3.08,72.82-3,73.45Z" style="fill:#e0e0e0"/><path d="M104.66,313.32s-4.76,1.75-3.34,5.89,16.44,10.94,16.44,10.94,6.3-5.77.52-15.15S104.79,310.36,104.66,313.32Z" style="fill:#ebebeb"/><path d="M84,305.44s5.07-.21,5.35,4.15-11,16.44-11,16.44-8-2.91-6.31-13.79S82.74,302.76,84,305.44Z" style="fill:#ebebeb"/><path d="M79.71,284.56s3.37-.36,3.1-2.42-13.12-7.34-20.7,1.21c0,0,4.86,8.34,11.87,8.45S79.71,284.56,79.71,284.56Z" style="fill:#ebebeb"/><path d="M86,279.57s-3.06,1.48-3.92-.41,7.25-13.18,18.21-9.92c0,0,.29,9.64-5.61,13.44S86,279.57,86,279.57Z" style="fill:#ebebeb"/><path d="M70,311.66s2.33-1.88-.19-2.8-14.84-.66-15,11.56c0,0,14.36,2.38,16.14-2.27S70,311.66,70,311.66Z" style="fill:#ebebeb"/><path d="M99.31,284.25s-2.33-1.88.18-2.79,14.85-.66,15,11.56c0,0-14.36,2.38-16.14-2.27S99.31,284.25,99.31,284.25Z" style="fill:#ebebeb"/><path d="M91.72,294.1s-.21-2.29,1.64-1.39,8.27,7.83,1.61,14.41c0,0-9-6.64-7.36-10.1S91.72,294.1,91.72,294.1Z" style="fill:#ebebeb"/><path d="M67.94,297.35s1.39-1.82-.65-2.05-11.18,2.22-9.05,11.34c0,0,11.13-.84,11.61-4.63S67.94,297.35,67.94,297.35Z" style="fill:#ebebeb"/><polygon points="105.55 382.67 67.35 382.67 63.23 340.85 109.67 340.85 105.55 382.67" style="fill:#f0f0f0"/><rect x="61.19" y="336.24" width="50.52" height="9.23" style="fill:#e6e6e6"/><rect x="319.57" y="116.58" width="98.72" height="266.1" transform="translate(737.85 499.25) rotate(180)" style="fill:#ebebeb"/><rect x="386.85" y="145.84" width="22.72" height="99.29" transform="translate(796.41 390.96) rotate(180)" style="fill:#fafafa"/><path d="M401.88,265.18a4.53,4.53,0,1,0,4.53-4.53A4.53,4.53,0,0,0,401.88,265.18Z" style="fill:#e0e0e0"/><rect x="349.98" y="98.33" width="37.89" height="8.94" transform="translate(737.85 205.6) rotate(180)" style="fill:#f5f5f5"/><rect x="161.69" y="129.04" width="89.31" height="70.29" transform="translate(370.53 -42.16) rotate(90)" style="fill:#e6e6e6"/><rect x="172.8" y="121.14" width="67.09" height="86.1" transform="translate(412.69 328.37) rotate(180)" style="fill:#f0f0f0"/><path d="M190.08,161.5c2.6,2.88,3.25-2.83,3.25-2.83L200.77,146l1.61,13-5.58,40.18s-5.13,1.52-5.45,2.38,8.77,1.09,9.75,0-1-2.38-1-2.38l7-33.22.12.53,6.92,32.69s-1.94,1.29-1,2.38,10.07.86,9.74,0-5.44-2.38-5.44-2.38L211.93,159l1.61-13L221,158.67s.65,5.71,3.25,2.83-2-5.46-2-5.46l-8.08-14-4.46-1.54-1-1.24s5.72-10.27-1.48-10.47v0h-.22v0c-7.2.2-1.49,10.47-1.49,10.47l-1,1.24L200.12,142,192,156S187.49,158.64,190.08,161.5Z" style="fill:#fafafa"/><path d="M207.27,128.76V166.5l6.92,32.69s-1.94,1.29-1,2.38,10.07.86,9.74,0-5.44-2.38-5.44-2.38L211.93,159l1.61-13L221,158.67s.65,5.71,3.25,2.83-2-5.46-2-5.46l-8.08-14-4.46-1.54-1-1.24S214.47,129,207.27,128.76Z" style="fill:#e6e6e6"/><rect x="183.14" y="131.16" width="9.29" height="3.62" transform="translate(375.58 265.94) rotate(180)" style="fill:#e6e6e6"/><rect x="179.99" y="147.44" width="9.29" height="3.62" transform="translate(369.28 298.49) rotate(180)" style="fill:#e6e6e6"/><rect x="224.1" y="164.52" width="9.29" height="3.62" transform="translate(457.48 332.67) rotate(180)" style="fill:#e6e6e6"/><rect x="220.39" y="131.02" width="9.29" height="3.62" transform="translate(450.06 265.67) rotate(180)" style="fill:#e6e6e6"/><rect x="183.14" y="170.53" width="9.29" height="3.62" transform="translate(375.58 344.68) rotate(180)" style="fill:#e6e6e6"/><rect x="221.55" y="184.38" width="9.29" height="3.62" transform="translate(452.39 372.37) rotate(180)" style="fill:#e6e6e6"/><rect x="178.5" y="188" width="9.29" height="3.62" transform="translate(366.29 379.61) rotate(180)" style="fill:#e6e6e6"/><rect x="81.18" y="130.24" width="90.15" height="67.89" transform="translate(-37.93 290.45) rotate(-90)" style="fill:#e6e6e6"/><rect x="93.92" y="120.71" width="64.68" height="86.95" style="fill:#f5f5f5"/><rect x="93.92" y="120.71" width="64.68" height="21.61" style="fill:#fafafa"/><rect x="93.92" y="162.32" width="64.68" height="23.76" style="fill:#fafafa"/><path d="M100,130.56a6.55,6.55,0,1,0,6.54-6.55A6.54,6.54,0,0,0,100,130.56Z" style="fill:#f5f5f5"/><circle cx="148.63" cy="152.18" r="6.55" style="fill:#fafafa"/><circle cx="105.76" cy="175.27" r="6.55" style="fill:#f5f5f5"/><circle cx="147.86" cy="196.89" r="6.55" style="fill:#fafafa"/></g><g id="freepik--Shadow--inject-116"><ellipse id="freepik--path--inject-116" cx="250" cy="416.24" rx="193.89" ry="11.32" style="fill:#f5f5f5"/></g><g id="freepik--Plant--inject-116"><path d="M408.46,403.22s5.27-24.88-4.32-38.36,8.66-.16,10.76,12.46c0,0,3.15-22.56-6.15-38.44s8.1-2.84,9.58,13.52c0,0,2.85-20.13-1.42-31.44s3.16-4,6,3.05-.9,24.65-.9,24.65,7.46-32.47,14.53-29.88-10.56,23.85-13,34.92c0,0,8.33-14.89,14.65-11.79s-9.79,4.64-17.16,26.84l-2.59,10.41s7.66-14.69,12.67-10.06S416.27,381.74,411.65,404Z" style="fill:#F2A8A6"/><path d="M409.49,404.65S410.6,373.28,426.1,360s-10.33-2.77-16.61,11.72c0,0,3-28,18.83-44.2s-8.86-5.82-15.51,13.33c0,0,2.59-25,11.08-37.23s-2.59-5.78-8.12,1.86-6.28,29.79-6.28,29.79.74-41.11-8.49-40.12,5.54,31.72,5.17,45.7c0,0-5.54-20.32-14-18.48s10.34,8.47,12.55,37.26v13.24S399.9,353,392.51,357s14,19.56,12.92,47.61Z" style="fill:#F2A8A6"/><path d="M409.49,404.65S410.6,373.28,426.1,360s-10.33-2.77-16.61,11.72c0,0,3-28,18.83-44.2s-8.86-5.82-15.51,13.33c0,0,2.59-25,11.08-37.23s-2.59-5.78-8.12,1.86-6.28,29.79-6.28,29.79.74-41.11-8.49-40.12,5.54,31.72,5.17,45.7c0,0-5.54-20.32-14-18.48s10.34,8.47,12.55,37.26v13.24S399.9,353,392.51,357s14,19.56,12.92,47.61Z" style="fill:#fff;opacity:0.2;isolation:isolate"/><path d="M396,402.82h23.59a11,11,0,0,1,11,11v4.92a0,0,0,0,1,0,0H385a0,0,0,0,1,0,0v-4.92A11,11,0,0,1,396,402.82Z" transform="translate(815.5 821.56) rotate(180)" style="fill:#263238"/><path d="M436.51,400.2v3.47a4.21,4.21,0,0,1-4.21,4.21H383.2a4.2,4.2,0,0,1-4.21-4.21V400.2Z" style="fill:#263238"/><path d="M436.51,400.2v3.47a4.21,4.21,0,0,1-4.21,4.21H383.2a4.2,4.2,0,0,1-4.21-4.21V400.2Z" style="fill:#fff;opacity:0.2;isolation:isolate"/></g><g id="freepik--speech-bubble--inject-116"><path d="M293.86,145.55a35.14,35.14,0,0,0-28.63,55.53l-10.3,12,14.15-7.46a35.15,35.15,0,1,0,24.78-60.08Z" style="fill:#F2A8A6"/><path d="M293.86,145.55a35.14,35.14,0,0,0-28.63,55.53l-10.3,12,14.15-7.46a35.15,35.15,0,1,0,24.78-60.08Z" style="fill:#fff;opacity:0.7000000000000001"/><path d="M287,167l2.61,4.57a1.13,1.13,0,0,1-.47.52,1,1,0,0,1-.71.05l-2-4.86Z" style="fill:#F2A8A6"/><path d="M287,167l2.61,4.57a1.13,1.13,0,0,1-.47.52,1,1,0,0,1-.71.05l-2-4.86Z" style="fill:#fff;opacity:0.1"/><path d="M285.93,167.34c.11.22.52.23.92,0s.64-.53.53-.75-.51-.23-.91,0S285.83,167.12,285.93,167.34Z" style="fill:#F2A8A6"/><path d="M285.93,167.34c.11.22.52.23.92,0s.64-.53.53-.75-.51-.23-.91,0S285.83,167.12,285.93,167.34Z" style="fill:#fff;opacity:0.1"/><path d="M279.56,174.47l5,1.73a1.12,1.12,0,0,1,0,.71,1,1,0,0,1-.5.5l-4.7-2.36Z" style="fill:#F2A8A6"/><path d="M279.56,174.47l5,1.73a1.12,1.12,0,0,1,0,.71,1,1,0,0,1-.5.5l-4.7-2.36Z" style="fill:#fff;opacity:0.1"/><path d="M279,175.46c.22.1.55-.16.72-.57s.13-.82-.09-.92-.54.17-.72.58S278.79,175.37,279,175.46Z" style="fill:#F2A8A6"/><path d="M279,175.46c.22.1.55-.16.72-.57s.13-.82-.09-.92-.54.17-.72.58S278.79,175.37,279,175.46Z" style="fill:#fff;opacity:0.1"/><path d="M281,189.91l4.26-3.08a1.1,1.1,0,0,1,.57.42.94.94,0,0,1,.13.69l-4.63,2.5Z" style="fill:#F2A8A6"/><path d="M281,189.91l4.26-3.08a1.1,1.1,0,0,1,.57.42.94.94,0,0,1,.13.69l-4.63,2.5Z" style="fill:#fff;opacity:0.1"/><path d="M281.48,190.92c.21-.13.18-.54-.05-.91s-.6-.58-.8-.46-.18.54.05.92S281.28,191.05,281.48,190.92Z" style="fill:#F2A8A6"/><path d="M281.48,190.92c.21-.13.18-.54-.05-.91s-.6-.58-.8-.46-.18.54.05.92S281.28,191.05,281.48,190.92Z" style="fill:#fff;opacity:0.1"/><path d="M288.07,195.06l1.42-5.06a1.09,1.09,0,0,1,.7,0,1,1,0,0,1,.54.46l-2.06,4.84Z" style="fill:#F2A8A6"/><path d="M288.07,195.06l1.42-5.06a1.09,1.09,0,0,1,.7,0,1,1,0,0,1,.54.46l-2.06,4.84Z" style="fill:#fff;opacity:0.1"/><path d="M289.09,195.54c.08-.22-.19-.53-.61-.68s-.83-.08-.91.15.2.53.62.68S289,195.77,289.09,195.54Z" style="fill:#F2A8A6"/><path d="M289.09,195.54c.08-.22-.19-.53-.61-.68s-.83-.08-.91.15.2.53.62.68S289,195.77,289.09,195.54Z" style="fill:#fff;opacity:0.1"/><path d="M298.28,193.9l-2.51-4.62a1.12,1.12,0,0,1,.49-.51,1,1,0,0,1,.7,0l1.9,4.91Z" style="fill:#F2A8A6"/><path d="M298.28,193.9l-2.51-4.62a1.12,1.12,0,0,1,.49-.51,1,1,0,0,1,.7,0l1.9,4.91Z" style="fill:#fff;opacity:0.1"/><path d="M299.35,193.53c-.1-.22-.51-.24-.91-.05s-.65.51-.55.73.51.25.91.06S299.45,193.75,299.35,193.53Z" style="fill:#F2A8A6"/><path d="M299.35,193.53c-.1-.22-.51-.24-.91-.05s-.65.51-.55.73.51.25.91.06S299.45,193.75,299.35,193.53Z" style="fill:#fff;opacity:0.1"/><path d="M309.81,178.92l-5.12,1.21a1.13,1.13,0,0,1-.37-.61,1,1,0,0,1,.15-.69l5.24-.53Z" style="fill:#F2A8A6"/><path d="M309.81,178.92l-5.12,1.21a1.13,1.13,0,0,1-.37-.61,1,1,0,0,1,.15-.69l5.24-.53Z" style="fill:#fff;opacity:0.1"/><path d="M309.74,177.79c-.24,0-.37.43-.3.87s.33.77.57.73.37-.43.29-.87S310,177.75,309.74,177.79Z" style="fill:#F2A8A6"/><path d="M309.74,177.79c-.24,0-.37.43-.3.87s.33.77.57.73.37-.43.29-.87S310,177.75,309.74,177.79Z" style="fill:#fff;opacity:0.1"/><path d="M299.67,167.88l-2.1,4.83a1.19,1.19,0,0,1-.71-.07,1,1,0,0,1-.46-.54l2.71-4.51Z" style="fill:#F2A8A6"/><path d="M299.67,167.88l-2.1,4.83a1.19,1.19,0,0,1-.71-.07,1,1,0,0,1-.46-.54l2.71-4.51Z" style="fill:#fff;opacity:0.1"/><path d="M298.72,167.27c-.11.21.12.55.52.76s.81.19.92,0-.12-.56-.52-.76S298.83,167.05,298.72,167.27Z" style="fill:#F2A8A6"/><path d="M298.72,167.27c-.11.21.12.55.52.76s.81.19.92,0-.12-.56-.52-.76S298.83,167.05,298.72,167.27Z" style="fill:#fff;opacity:0.1"/><path d="M305.42,188.34l-4.79-2.17a1.12,1.12,0,0,1,.08-.7,1,1,0,0,1,.54-.46l4.47,2.77Z" style="fill:#F2A8A6"/><path d="M305.42,188.34l-4.79-2.17a1.12,1.12,0,0,1,.08-.7,1,1,0,0,1,.54-.46l4.47,2.77Z" style="fill:#fff;opacity:0.1"/><path d="M306.05,187.4c-.21-.11-.55.11-.76.51s-.21.8,0,.91.56-.11.77-.5S306.27,187.51,306.05,187.4Z" style="fill:#F2A8A6"/><path d="M306.05,187.4c-.21-.11-.55.11-.76.51s-.21.8,0,.91.56-.11.77-.5S306.27,187.51,306.05,187.4Z" style="fill:#fff;opacity:0.1"/><circle cx="293.26" cy="180.89" r="12.29" style="fill:#F2A8A6"/><circle cx="293.26" cy="180.89" r="12.29" style="fill:#fff;opacity:0.2"/><path d="M293.57,164.37l.35,5.25a1.14,1.14,0,0,1-.66.26,1,1,0,0,1-.66-.26l.34-5.25Z" style="fill:#F2A8A6"/><path d="M293.57,164.37l.35,5.25a1.14,1.14,0,0,1-.66.26,1,1,0,0,1-.66-.26l.34-5.25Z" style="fill:#fff;opacity:0.4"/><path d="M292.45,164.26c0,.24.36.43.81.43s.81-.19.81-.43-.37-.44-.81-.44S292.45,164,292.45,164.26Z" style="fill:#F2A8A6"/><path d="M292.45,164.26c0,.24.36.43.81.43s.81-.19.81-.43-.37-.44-.81-.44S292.45,164,292.45,164.26Z" style="fill:#fff;opacity:0.2"/><path d="M283.93,170.27l4.13,3.26a1.09,1.09,0,0,1-.24.66,1,1,0,0,1-.64.32l-3.67-3.77Z" style="fill:#F2A8A6"/><path d="M283.93,170.27l4.13,3.26a1.09,1.09,0,0,1-.24.66,1,1,0,0,1-.64.32l-3.67-3.77Z" style="fill:#fff;opacity:0.4"/><path d="M283.1,171c.18.16.56,0,.86-.31s.4-.73.22-.89-.57,0-.87.31S282.92,170.87,283.1,171Z" style="fill:#F2A8A6"/><path d="M283.1,171c.18.16.56,0,.86-.31s.4-.73.22-.89-.57,0-.87.31S282.92,170.87,283.1,171Z" style="fill:#fff;opacity:0.2"/><path d="M305.27,169.58l-3.7,3.74a1.16,1.16,0,0,1-.63-.31,1,1,0,0,1-.24-.67l4.15-3.23Z" style="fill:#F2A8A6"/><path d="M305.27,169.58l-3.7,3.74a1.16,1.16,0,0,1-.63-.31,1,1,0,0,1-.24-.67l4.15-3.23Z" style="fill:#fff;opacity:0.4"/><path d="M304.61,168.67c-.18.16-.09.56.21.89s.68.48.86.32.09-.57-.21-.9S304.79,168.51,304.61,168.67Z" style="fill:#F2A8A6"/><path d="M304.61,168.67c-.18.16-.09.56.21.89s.68.48.86.32.09-.57-.21-.9S304.79,168.51,304.61,168.67Z" style="fill:#fff;opacity:0.2"/><path d="M306.27,175.78l-3.8,2a1.25,1.25,0,0,1-.45-.53,1.11,1.11,0,0,1,0-.69L306,175.2Z" style="fill:#F2A8A6"/><path d="M306.27,175.78l-3.8,2a1.25,1.25,0,0,1-.45-.53,1.11,1.11,0,0,1,0-.69L306,175.2Z" style="fill:#fff;opacity:0.4"/><path d="M305.79,174.77c-.26.11-.33.53-.16.94s.52.66.78.55.33-.53.15-.94S306,174.66,305.79,174.77Z" style="fill:#F2A8A6"/><path d="M305.79,174.77c-.26.11-.33.53-.16.94s.52.66.78.55.33-.53.15-.94S306,174.66,305.79,174.77Z" style="fill:#fff;opacity:0.2"/><path d="M297.91,172.65l-.39,1.82s-.45.31-.78.17a.88.88,0,0,1-.43-.68l1-1.55Z" style="fill:#F2A8A6"/><path d="M297.91,172.65l-.39,1.82s-.45.31-.78.17a.88.88,0,0,1-.43-.68l1-1.55Z" style="fill:#fff;opacity:0.5"/><path d="M296.71,172.61a.81.81,0,0,0,1.49.62.81.81,0,0,0-1.49-.62Z" style="fill:#F2A8A6"/><path d="M296.71,172.61a.81.81,0,0,0,1.49.62.81.81,0,0,0-1.49-.62Z" style="fill:#fff;opacity:0.30000000000000004"/><path d="M291,171.89l.93,1.61s-.13.52-.47.64a.87.87,0,0,1-.77-.21l-.28-1.83Z" style="fill:#F2A8A6"/><path d="M291,171.89l.93,1.61s-.13.52-.47.64a.87.87,0,0,1-.77-.21l-.28-1.83Z" style="fill:#fff;opacity:0.5"/><path d="M290.12,172.66a.82.82,0,0,0,1.53-.54.82.82,0,0,0-1.53.54Z" style="fill:#F2A8A6"/><path d="M290.12,172.66a.82.82,0,0,0,1.53-.54.82.82,0,0,0-1.53.54Z" style="fill:#fff;opacity:0.30000000000000004"/><path d="M285.68,176.92l1.81.4s.31.46.16.79-.67.43-.67.43l-1.55-1Z" style="fill:#F2A8A6"/><path d="M285.68,176.92l1.81.4s.31.46.16.79-.67.43-.67.43l-1.55-1Z" style="fill:#fff;opacity:0.5"/><path d="M285.63,178.12a.81.81,0,1,0-.34-1A.75.75,0,0,0,285.63,178.12Z" style="fill:#F2A8A6"/><path d="M285.63,178.12a.81.81,0,1,0-.34-1A.75.75,0,0,0,285.63,178.12Z" style="fill:#fff;opacity:0.30000000000000004"/><path d="M287.12,186.2l1-1.57s.53-.13.79.12a.87.87,0,0,1,.17.78l-1.5,1.1Z" style="fill:#F2A8A6"/><path d="M287.12,186.2l1-1.57s.53-.13.79.12a.87.87,0,0,1,.17.78l-1.5,1.1Z" style="fill:#fff;opacity:0.5"/><path d="M288.23,186.66a.82.82,0,1,0-1.08,0A.77.77,0,0,0,288.23,186.66Z" style="fill:#F2A8A6"/><path d="M288.23,186.66a.82.82,0,1,0-1.08,0A.77.77,0,0,0,288.23,186.66Z" style="fill:#fff;opacity:0.30000000000000004"/><path d="M294.4,188l-.78-1.69s.18-.52.53-.6a.9.9,0,0,1,.75.27l.12,1.86Z" style="fill:#F2A8A6"/><path d="M294.4,188l-.78-1.69s.18-.52.53-.6a.9.9,0,0,1,.75.27l.12,1.86Z" style="fill:#fff;opacity:0.5"/><path d="M295.39,187.35a.77.77,0,0,0-1-.5.78.78,0,0,0-.61.89.81.81,0,0,0,1.57-.39Z" style="fill:#F2A8A6"/><path d="M295.39,187.35a.77.77,0,0,0-1-.5.78.78,0,0,0-.61.89.81.81,0,0,0,1.57-.39Z" style="fill:#fff;opacity:0.30000000000000004"/><path d="M299.48,185.54l-1.73-.7a1,1,0,0,1,0-.8.9.9,0,0,1,.74-.31l1.36,1.28Z" style="fill:#F2A8A6"/><path d="M299.48,185.54l-1.73-.7a1,1,0,0,1,0-.8.9.9,0,0,1,.74-.31l1.36,1.28Z" style="fill:#fff;opacity:0.5"/><path d="M299.72,184.36a.81.81,0,1,0,.17,1.07A.76.76,0,0,0,299.72,184.36Z" style="fill:#F2A8A6"/><path d="M299.72,184.36a.81.81,0,1,0,.17,1.07A.76.76,0,0,0,299.72,184.36Z" style="fill:#fff;opacity:0.30000000000000004"/><path d="M300.9,180.24l-1.81.41s-.47-.28-.48-.64a.85.85,0,0,1,.43-.67l1.84.26Z" style="fill:#F2A8A6"/><path d="M300.9,180.24l-1.81.41s-.47-.28-.48-.64a.85.85,0,0,1,.43-.67l1.84.26Z" style="fill:#fff;opacity:0.5"/><path d="M300.43,179.13a.77.77,0,0,0-.68.84.72.72,0,1,0,.68-.84Z" style="fill:#F2A8A6"/><path d="M300.43,179.13a.77.77,0,0,0-.68.84.72.72,0,1,0,.68-.84Z" style="fill:#fff;opacity:0.30000000000000004"/><path d="M278,178.66l5.24.41a1.12,1.12,0,0,1,.17.69,1,1,0,0,1-.35.61l-5.15-1.08Z" style="fill:#F2A8A6"/><path d="M278,178.66l5.24.41a1.12,1.12,0,0,1,.17.69,1,1,0,0,1-.35.61l-5.15-1.08Z" style="fill:#fff;opacity:0.4"/><path d="M277.73,179.76c.23,0,.48-.3.54-.74s-.08-.83-.32-.86-.48.29-.54.74S277.49,179.72,277.73,179.76Z" style="fill:#F2A8A6"/><path d="M277.73,179.76c.23,0,.48-.3.54-.74s-.08-.83-.32-.86-.48.29-.54.74S277.49,179.72,277.73,179.76Z" style="fill:#fff;opacity:0.2"/><path d="M279.9,185.31l4.84-2.05a1.06,1.06,0,0,1,.46.53.94.94,0,0,1,0,.71l-5.07,1.4Z" style="fill:#F2A8A6"/><path d="M279.9,185.31l4.84-2.05a1.06,1.06,0,0,1,.46.53.94.94,0,0,1,0,.71l-5.07,1.4Z" style="fill:#fff;opacity:0.4"/><path d="M280.16,186.4c.23-.07.29-.48.15-.9s-.46-.7-.68-.62-.3.49-.15.91S279.93,186.48,280.16,186.4Z" style="fill:#F2A8A6"/><path d="M280.16,186.4c.23-.07.29-.48.15-.9s-.46-.7-.68-.62-.3.49-.15.91S279.93,186.48,280.16,186.4Z" style="fill:#fff;opacity:0.2"/><path d="M293.8,197.05l-.9-5.18a1.1,1.1,0,0,1,.62-.33,1,1,0,0,1,.68.19l.22,5.26Z" style="fill:#F2A8A6"/><path d="M293.8,197.05l-.9-5.18a1.1,1.1,0,0,1,.62-.33,1,1,0,0,1,.68.19l.22,5.26Z" style="fill:#fff;opacity:0.4"/><path d="M294.93,197.05c0-.24-.41-.4-.85-.35s-.79.28-.76.52.41.4.85.35S295,197.29,294.93,197.05Z" style="fill:#F2A8A6"/><path d="M294.93,197.05c0-.24-.41-.4-.85-.35s-.79.28-.76.52.41.4.85.35S295,197.29,294.93,197.05Z" style="fill:#fff;opacity:0.2"/><path d="M308.33,184.86l-5.16-1a1.15,1.15,0,0,1-.09-.71,1,1,0,0,1,.42-.57l5,1.66Z" style="fill:#F2A8A6"/><path d="M308.33,184.86l-5.16-1a1.15,1.15,0,0,1-.09-.71,1,1,0,0,1,.42-.57l5,1.66Z" style="fill:#fff;opacity:0.4"/><path d="M308.73,183.8c-.24-.06-.52.24-.63.67s0,.83.22.89.51-.24.63-.67S309,183.86,308.73,183.8Z" style="fill:#F2A8A6"/><path d="M308.73,183.8c-.24-.06-.52.24-.63.67s0,.83.22.89.51-.24.63-.67S309,183.86,308.73,183.8Z" style="fill:#fff;opacity:0.2"/><path d="M283.61,194.28l2.74-4.49a1.14,1.14,0,0,1,.69.17.94.94,0,0,1,.38.59l-3.3,4.09Z" style="fill:#F2A8A6"/><path d="M283.61,194.28l2.74-4.49a1.14,1.14,0,0,1,.69.17.94.94,0,0,1,.38.59l-3.3,4.09Z" style="fill:#fff;opacity:0.4"/><path d="M284.46,195c.14-.2,0-.56-.41-.82s-.77-.31-.91-.11,0,.57.41.82S284.32,195.22,284.46,195Z" style="fill:#F2A8A6"/><path d="M284.46,195c.14-.2,0-.56-.41-.82s-.77-.31-.91-.11,0,.57.41.82S284.32,195.22,284.46,195Z" style="fill:#fff;opacity:0.2"/><path d="M304.92,193.22l-4-3.42a1.15,1.15,0,0,1,.27-.66,1,1,0,0,1,.65-.29l3.52,3.92Z" style="fill:#F2A8A6"/><path d="M304.92,193.22l-4-3.42a1.15,1.15,0,0,1,.27-.66,1,1,0,0,1,.65-.29l3.52,3.92Z" style="fill:#fff;opacity:0.4"/><path d="M305.78,192.49c-.17-.16-.56,0-.87.28s-.43.71-.25.88.56,0,.87-.27S306,192.66,305.78,192.49Z" style="fill:#F2A8A6"/><path d="M305.78,192.49c-.17-.16-.56,0-.87.28s-.43.71-.25.88.56,0,.87-.27S306,192.66,305.78,192.49Z" style="fill:#fff;opacity:0.2"/><path d="M295.44,177.76a.83.83,0,0,0,.83.83.84.84,0,0,0,.84-.83.85.85,0,0,0-.84-.84A.84.84,0,0,0,295.44,177.76Z" style="fill:#fff;opacity:0.2"/><path d="M294.32,182.59a.84.84,0,0,0,.83.84.85.85,0,0,0,.84-.84.84.84,0,0,0-.84-.83A.83.83,0,0,0,294.32,182.59Z" style="fill:#fff;opacity:0.2"/><path d="M300.81,185.9a.84.84,0,0,0,.83.84.85.85,0,0,0,.84-.84.84.84,0,0,0-.84-.83A.83.83,0,0,0,300.81,185.9Z" style="fill:#fff;opacity:0.2"/><circle cx="297.64" cy="188.82" r="0.83" style="fill:#fff;opacity:0.2"/><path d="M289.19,177a.83.83,0,1,0,.83-.83A.83.83,0,0,0,289.19,177Z" style="fill:#fff;opacity:0.2"/><path d="M285.59,181.24a.85.85,0,0,0,.84.84.84.84,0,0,0,.83-.84.83.83,0,0,0-.83-.83A.84.84,0,0,0,285.59,181.24Z" style="fill:#fff;opacity:0.2"/><path d="M284.42,187.15a.85.85,0,0,0,.84.84.84.84,0,0,0,.83-.84.83.83,0,0,0-.83-.83A.84.84,0,0,0,284.42,187.15Z" style="fill:#fff;opacity:0.2"/><path d="M292.43,179.34a.83.83,0,1,0,1.66,0,.83.83,0,1,0-1.66,0Z" style="fill:#fff;opacity:0.2"/><path d="M289.89,187.85a.84.84,0,0,0,.84.83.83.83,0,0,0,.83-.83.84.84,0,0,0-.83-.84A.85.85,0,0,0,289.89,187.85Z" style="fill:#fff;opacity:0.2"/><path d="M293.92,171.89a.83.83,0,1,0,1.66,0,.83.83,0,1,0-1.66,0Z" style="fill:#fff;opacity:0.2"/><circle cx="284.47" cy="175.73" r="0.83" style="fill:#fff;opacity:0.2"/><circle cx="300.07" cy="175.51" r="0.83" style="fill:#fff;opacity:0.2"/><path d="M292.79,176.15a.41.41,0,0,0,.42.41.41.41,0,0,0,.41-.41.41.41,0,0,0-.41-.42A.42.42,0,0,0,292.79,176.15Z" style="fill:#fff;opacity:0.2"/><path d="M288.48,171.34a.42.42,0,0,0,.84,0,.42.42,0,1,0-.84,0Z" style="fill:#fff;opacity:0.2"/><path d="M297.9,171.47a.41.41,0,0,0,.41.42.42.42,0,1,0,0-.84A.41.41,0,0,0,297.9,171.47Z" style="fill:#fff;opacity:0.2"/><path d="M303,180a.42.42,0,0,0,.42.42.41.41,0,0,0,.41-.42.41.41,0,0,0-.41-.41A.41.41,0,0,0,303,180Z" style="fill:#fff;opacity:0.2"/><path d="M289.84,181.07a.42.42,0,0,0,.84,0,.42.42,0,0,0-.84,0Z" style="fill:#fff;opacity:0.2"/><path d="M282.58,182.49a.42.42,0,1,0,.84,0,.42.42,0,0,0-.84,0Z" style="fill:#fff;opacity:0.2"/><path d="M290.56,184.75a.41.41,0,0,0,.41.42.42.42,0,0,0,0-.84A.41.41,0,0,0,290.56,184.75Z" style="fill:#fff;opacity:0.2"/><path d="M287.91,189.51a.42.42,0,0,0,.84,0,.42.42,0,0,0-.84,0Z" style="fill:#fff;opacity:0.2"/><path d="M293,189.51a.42.42,0,0,0,.83,0,.42.42,0,1,0-.83,0Z" style="fill:#fff;opacity:0.2"/><path d="M293.86,206.62A25.91,25.91,0,1,1,312.19,199,25.76,25.76,0,0,1,293.86,206.62Zm0-48.84a22.92,22.92,0,1,0,16.2,6.71h0A22.74,22.74,0,0,0,293.86,157.78Z" style="fill:#F2A8A6"/><rect x="292.36" y="156.28" width="3" height="48.84" transform="translate(-41.7 260.71) rotate(-45)" style="fill:#F2A8A6"/></g><g id="freepik--character-2--inject-116"><rect x="213.47" y="340.39" width="107.01" height="76.46" style="fill:#2e353a"/><rect x="213.47" y="340.39" width="107.01" height="76.46" style="fill:#fff;opacity:0.2"/><rect x="213.47" y="340.39" width="62.38" height="76.46" style="fill:#fff;opacity:0.2"/><polygon points="324.49 411.93 209.77 411.93 206.77 418.74 327.49 418.74 324.49 411.93" style="fill:#2e353a"/><polygon points="274.49 411.93 209.77 411.93 206.77 418.74 273.49 418.74 274.49 411.93" style="fill:#fff;opacity:0.2"/><path d="M197.6,250.6h51.64l16.95,37.48h44.4a9.89,9.89,0,0,1,9.89,9.89v34.8a9.15,9.15,0,0,1-9.15,9.16H231l-41.69-77.46a9.46,9.46,0,0,1-.82-6.84h0A9.43,9.43,0,0,1,197.6,250.6Z" style="fill:#F2A8A6"/><path d="M320.48,298v34.8a9.16,9.16,0,0,1-8.68,9.15H231l-41.69-77.46a9.42,9.42,0,0,1,8.29-13.87h51.64l16.95,37.48H311A9.88,9.88,0,0,1,320.48,298Z" style="fill:#fff;opacity:0.5"/><path d="M320.48,298v34.8a9.16,9.16,0,0,1-8.68,9.15h-.15a8.41,8.41,0,0,1-8-8.4v-37.1a8.39,8.39,0,0,1,7.35-8.33A9.88,9.88,0,0,1,320.48,298Z" style="opacity:0.2;isolation:isolate"/><path d="M303.67,321v20.95H231l-41.69-77.46a9.41,9.41,0,0,1,5.9-13.56,10.56,10.56,0,0,1,6.72,5.1l36.37,65Z" style="fill:#fff;opacity:0.2"/><rect x="220.49" y="325.98" width="121.09" height="20.32" rx="10.16" style="fill:#F2A8A6"/><path d="M341.58,336.14a10.17,10.17,0,0,1-10.16,10.16H230.66a10.16,10.16,0,1,1,0-20.32H331.42A10.16,10.16,0,0,1,341.58,336.14Z" style="fill:#fff;opacity:0.5"/><path d="M287.58,336.14a10.17,10.17,0,0,1-10.16,10.16H210.66a10.16,10.16,0,1,1,0-20.32h66.76A10.16,10.16,0,0,1,287.58,336.14Z" style="fill:#fff;opacity:0.2"/><path d="M391.33,376.27l-33.25-40.95a9.9,9.9,0,0,0-8.63-3.62H307.2a9.87,9.87,0,0,0-7.09,2.18h0a9.93,9.93,0,0,0-1.45,14l33.26,41a9.9,9.9,0,0,0,7.68,3.67h43.92a9.93,9.93,0,0,0,7.81-16.19Z" style="fill:#F2A8A6"/><path d="M345.88,390.24h0a9.92,9.92,0,0,1-14-1.45l-33.25-41a9.92,9.92,0,0,1,1.44-14h0a9.94,9.94,0,0,1,14,1.44l33.25,40.95A9.93,9.93,0,0,1,345.88,390.24Z" style="fill:#fff;opacity:0.2"/><path d="M391.33,376.27l-33.25-40.95a9.9,9.9,0,0,0-8.63-3.62H307.2a9.87,9.87,0,0,0-7.09,2.18h0a9.93,9.93,0,0,0-1.45,14l33.26,41a9.9,9.9,0,0,0,7.68,3.67h43.92a9.93,9.93,0,0,0,7.81-16.19Z" style="fill:#fff;opacity:0.5"/><path d="M225.45,256.93a.23.23,0,0,1-.2-.1c-2.79-3.71-1.54-12.27.59-16.78a7.3,7.3,0,0,0-.64-7.34.25.25,0,1,1,.39-.31,7.81,7.81,0,0,1,.7,7.87c-2.07,4.39-3.32,12.7-.64,16.26a.25.25,0,0,1-.05.35A.23.23,0,0,1,225.45,256.93Z" style="fill:#263238"/><path d="M224.1,232.78s-7.48-11.16,1.12-19.78c6.95-7,20.11-5.67,26.84,7.25,6.26,12-.12,13.46,8,18.62s8.78,10.48,4,20.48-18.14,14.86-26.83,9.88-12.31-21-10.06-28.15S224.1,232.78,224.1,232.78Z" style="fill:#263238"/><path d="M268.72,250.85h-.08a.25.25,0,0,1-.16-.31c1.4-4.46-3.08-8.17-7-11.44a26.77,26.77,0,0,1-4.65-4.46c-1.16-1.7-1.37-3.85-1.6-6.35-.39-4.15-.83-8.85-5.75-13.49-7.74-7.32-17.09-3.27-17.18-3.23a.24.24,0,0,1-.33-.13.25.25,0,0,1,.12-.33c.1,0,9.74-4.22,17.74,3.33,5.05,4.77,5.52,9.78,5.9,13.81.23,2.42.42,4.51,1.52,6.1a25.65,25.65,0,0,0,4.55,4.37c4.06,3.37,8.67,7.19,7.17,12A.25.25,0,0,1,268.72,250.85Z" style="fill:#263238"/><path d="M299.22,283.31l6,2.11s7.88.28,8.75.62,1,6.72,1.08,7.41-7.72,1.08-8.59.47-1.7-3.16-1.7-3.16l-8-3.47Z" style="fill:#ebb376"/><path d="M303.67,284.3l-2,5.22s-10-2-18.6-4.09c-5.64-1.38-10.68-2.8-11.85-3.74-1.62-1.29-5.4-9.34-8.51-16.4-2.61-5.94-4.75-11.2-4.75-11.2l2.81-2.86c6.29,2.17,16.53,23.75,16.53,23.75Z" style="fill:#F2A8A6"/><path d="M283.09,285.43c-5.64-1.38-10.68-2.8-11.85-3.74-1.62-1.29-5.4-9.34-8.51-16.4l2.47-4.08S276.28,272.69,283.09,285.43Z" style="opacity:0.2;isolation:isolate"/><polygon points="388.57 369.27 384.12 372.85 378.41 367.24 373.18 362.09 377.77 356.98 383.49 363.49 388.57 369.27" style="fill:#ebb376"/><path d="M383,373.89c-.49-.4,4.61-6.23,4.61-6.23s6.74-.83,10.42-3.83,4.3.73,1.16,4.83l-7.79,10.14C389.18,381.71,388.1,378,383,373.89Z" style="fill:#2e353a"/><path d="M388.86,367.64h-.05a.29.29,0,0,1-.16-.11c0-.07-1.09-1.7-.79-2.81a1.24,1.24,0,0,1,.65-.8.73.73,0,0,1,.87,0,1.82,1.82,0,0,1,.22,1.5,3,3,0,0,1,1.13-1.11.87.87,0,0,1,.69,0c.46.2.56.48.57.69,0,1-2.51,2.37-3,2.63Zm2.23-2.93a.45.45,0,0,0-.18,0c-.56.23-1.17,1.31-1.55,2.1,1-.6,2.16-1.41,2.14-1.86,0-.09-.09-.18-.27-.25A.32.32,0,0,0,391.09,364.71Zm-2.09-.45a.6.6,0,0,0-.27.09.73.73,0,0,0-.4.49,3.25,3.25,0,0,0,.46,2c.34-1.14.51-2.31.27-2.52Z" style="fill:#577afa"/><polygon points="383.6 363.62 378.51 367.36 373.23 362.15 377.79 357.01 383.6 363.62" style="opacity:0.2;isolation:isolate"/><path d="M276.92,287.52l5.75,9.94s50.21,9.34,57.59,13.66,40,48.52,40,48.52L374,364.43l-50.37-39.68-57.46-5.59Z" style="fill:#2e353a"/><path d="M276.92,287.52l5.75,9.94s50.21,9.34,57.59,13.66,40,48.52,40,48.52L374,364.43l-50.37-39.68-57.46-5.59Z" style="opacity:0.30000000000000004;isolation:isolate"/><polygon points="377.16 371.24 372.93 375.08 366.89 369.82 361.36 364.98 365.64 359.61 371.74 365.77 377.16 371.24" style="fill:#ebb376"/><path d="M371.86,374.89c-.41-.48,5.68-5.27,5.68-5.27s6.78.42,10.94-1.85,4.1,1.51.25,5l-9.51,8.54C376.48,383.72,376.1,379.86,371.86,374.89Z" style="fill:#2e353a"/><path d="M378.79,369.83h0l-.08,0h0l-.07-.05h0a.15.15,0,0,1-.05-.06h0c0-.07-.76-1.87-.26-2.91a1.24,1.24,0,0,1,.78-.67c.49-.14.74,0,.86.16.24.3.15.9-.06,1.52a3,3,0,0,1,1.31-.89.91.91,0,0,1,.69.12.77.77,0,0,1,.42.78c-.15,1-2.9,1.87-3.45,2Zm2.62-2.48h-.11c-.59.13-1.39,1.07-1.91,1.78,1.13-.4,2.38-1,2.45-1.43,0-.09-.06-.19-.22-.3A.37.37,0,0,0,381.41,367.35Zm-2-.82a.74.74,0,0,0-.23,0,.72.72,0,0,0-.49.41,3.25,3.25,0,0,0,.1,2c.54-1.06.93-2.18.73-2.43A.16.16,0,0,0,379.46,366.53Z" style="fill:#577afa"/><polygon points="371.86 365.9 367 369.93 361.41 365.04 365.67 359.64 371.86 365.9" style="opacity:0.2;isolation:isolate"/><path d="M369.38,361.17l-7,6.88c-23.71-18-45.33-37.06-45.33-37.06-34.41,4.72-60.54-.65-63.51-2.33-13.36-7.58-7-34.08-7-34.08L275.3,284.3c2.42,3.43,4,11.38,4.79,16.45.42,2.65.62,4.51.62,4.51,32.61,6.82,43.32,6.68,49,13.21C334.69,324.2,369.38,361.17,369.38,361.17Z" style="fill:#2e353a"/><polygon points="361.28 367.24 368.88 358.96 371.15 363.28 364.89 369.9 361.28 367.24" style="fill:#F2A8A6"/><polygon points="246.54 294.57 246.17 297.98 276.92 287.52 275.2 283.96 246.54 294.57" style="opacity:0.5;isolation:isolate"/><path d="M262.68,288.75l1.34,3.32a.74.74,0,0,0,.93.41l4.46-1.67a.73.73,0,0,0,.43-.94l-1.29-3.29a.72.72,0,0,0-.92-.41l-4.52,1.62A.73.73,0,0,0,262.68,288.75Z" style="fill:#fff"/><polygon points="255.15 291.34 255.93 295.47 254.8 295.8 253.83 291.71 255.15 291.34" style="fill:#263238"/><polygon points="271.24 285.43 272.89 289.52 273.93 289.22 272.32 284.93 271.24 285.43" style="fill:#263238"/><path d="M280.71,305.26l-6.78-1.18,6.16-3.33C280.51,303.4,280.71,305.26,280.71,305.26Z" style="opacity:0.30000000000000004;isolation:isolate"/><polygon points="372.2 364.47 379.91 356.29 382.12 360.64 375.77 367.18 372.2 364.47" style="fill:#F2A8A6"/><path d="M275.85,285.3l-29.31,9.28a180.59,180.59,0,0,1-14.7-19,85.68,85.68,0,0,1-6.17-10.84c-1.89-4.08-3.09-8-3-11.24,0,0,1.92-.66,5.16-1.42a79.43,79.43,0,0,1,27.38-1.8,55.88,55.88,0,0,1,5.61,1Z" style="fill:#F2A8A6"/><path d="M238.48,246.92a17.27,17.27,0,0,1,0,6.75l10.15-2c-1.95-1.15-2.91-8.48-3.39-11.48-.24-1.43-.36-2.76-.42-3.68s-.06-1.28-.06-1.28l-3.66,1.89-6,3.08A20.33,20.33,0,0,1,238.48,246.92Z" style="fill:#ebb376"/><path d="M235.17,240.22a20.33,20.33,0,0,1,3.31,6.7,13.73,13.73,0,0,0,6.79-6.71c-.24-1.43-.36-2.76-.42-3.68-1.31.19-2.55.4-3.72.61Z" style="opacity:0.2;isolation:isolate"/><path d="M238.3,210.87s-16.72-5.44-21.07,10.48,8.44,14.77,8.44,14.77Z" style="fill:#263238"/><path d="M231,216.78c-7.89,2.26-9.22,7.21-7.47,15.51,2.18,10.37,6.5,16.94,15.75,12C251.87,237.45,244.13,213,231,216.78Z" style="fill:#ebb376"/><path d="M228.53,230.38a17.22,17.22,0,0,1-1.36,3.94,2.25,2.25,0,0,0,2.34.29Z" style="fill:#d58745"/><path d="M233.18,228.36c.17.65.66,1.09,1.09,1s.65-.73.48-1.38-.66-1.09-1.09-1S233,227.7,233.18,228.36Z" style="fill:#263238"/><path d="M233.85,227l-1.57-.18S233.3,227.78,233.85,227Z" style="fill:#263238"/><path d="M225,230.34c.17.65.66,1.09,1.09,1s.65-.74.48-1.39-.66-1.09-1.09-1S224.86,229.69,225,230.34Z" style="fill:#263238"/><path d="M225.7,228.94l-1.57-.19S225.15,229.76,225.7,228.94Z" style="fill:#263238"/><path d="M235.46,223.46a.42.42,0,0,1-.21-.06,3.9,3.9,0,0,0-3.41-.18.38.38,0,0,1-.48-.19.37.37,0,0,1,.19-.48,4.61,4.61,0,0,1,4.12.25.38.38,0,0,1,.09.51A.37.37,0,0,1,235.46,223.46Z" style="fill:#263238"/><path d="M222.9,226.1a.34.34,0,0,1-.23-.08.36.36,0,0,1,0-.51,4.19,4.19,0,0,1,3.26-1.68.36.36,0,1,1,0,.72,3.49,3.49,0,0,0-2.66,1.43A.36.36,0,0,1,222.9,226.1Z" style="fill:#263238"/><path d="M243.46,227.61S237.91,222.18,237,217c0,0-17.47-1.92-13.69,14.18,0,0-5.57-13.66,7.91-17.86s19.1,15.67,13.79,23.59C245.05,236.93,246.9,231,243.46,227.61Z" style="fill:#263238"/><path d="M231.33,238.15a.38.38,0,0,1-.34-.23.37.37,0,0,1,.22-.47c2.72-1,2.78-2.92,2.78-3a.36.36,0,0,1,.36-.36h0a.36.36,0,0,1,.36.36c0,.1,0,2.49-3.25,3.68A.3.3,0,0,1,231.33,238.15Z" style="fill:#263238"/><path d="M224.13,234.73a10.06,10.06,0,0,1,4.21-2,94.37,94.37,0,0,1,10-.13l4.28,8.47s-3.68,4.7-11.69,4.87C230.89,245.94,225,243.22,224.13,234.73Z" style="fill:#F2A8A6"/><path d="M224.13,234.73a10.06,10.06,0,0,1,4.21-2,94.37,94.37,0,0,1,10-.13l4.28,8.47s-3.68,4.7-11.69,4.87C230.89,245.94,225,243.22,224.13,234.73Z" style="fill:#fff;opacity:0.5"/><path d="M241.94,241.32a.31.31,0,0,1-.18-.07.26.26,0,0,1,0-.36,13.76,13.76,0,0,0,4.4-9.52,6.23,6.23,0,0,0-1.49-4.42,1,1,0,0,0-.94-.32c-1.87.35-4.4,5.18-5.21,7a.26.26,0,0,1-.34.13.25.25,0,0,1-.12-.33c.12-.28,3.07-6.83,5.57-7.3a1.48,1.48,0,0,1,1.39.45,6.75,6.75,0,0,1,1.64,4.78,14.26,14.26,0,0,1-4.55,9.88A.31.31,0,0,1,241.94,241.32Z" style="fill:#fff"/><path d="M242.65,229.64a3.6,3.6,0,0,1,2.82-4.23c2.52-.43,5.12,4.26-.61,7.2C244,233,243.3,232.33,242.65,229.64Z" style="fill:#ebb376"/><path d="M249.71,258.35c-9.81.74-18.75-4.28-21.91-6.3a79.43,79.43,0,0,1,27.38-1.8C256.68,253.51,257.15,257.78,249.71,258.35Z" style="fill:#ebb376"/><path d="M231.84,275.55a85.68,85.68,0,0,1-6.17-10.84,9.22,9.22,0,0,1,3.64-2.63S234.5,269.11,231.84,275.55Z" style="opacity:0.2;isolation:isolate"/><path d="M209.14,291.34h39.19a6.55,6.55,0,0,1,6.55,6.55v41a7.08,7.08,0,0,1-7.08,7.08H210.16a7.57,7.57,0,0,1-7.57-7.57V297.89A6.55,6.55,0,0,1,209.14,291.34Z" style="fill:#F2A8A6"/><path d="M254.88,297.89v41a7.08,7.08,0,0,1-5.91,7,6.41,6.41,0,0,1-1.16.1H210.16a7.57,7.57,0,0,1-7.57-7.57V297.89a6.55,6.55,0,0,1,6.55-6.55h39.2a2.68,2.68,0,0,1,.4,0A6.54,6.54,0,0,1,254.88,297.89Z" style="fill:#fff;opacity:0.5"/><path d="M254.88,297.89v41a7.08,7.08,0,0,1-5.91,7,7.55,7.55,0,0,1-6.38-7.47V297.89a6.16,6.16,0,1,1,12.29,0Z" style="opacity:0.2;isolation:isolate"/><path d="M228.83,288.11l6,2.11s7.89.28,8.75.62,1,6.72,1.08,7.41-7.72,1.09-8.58.48-1.7-3.17-1.7-3.17l-8-2.75Z" style="fill:#ebb376"/><path d="M222.64,253.47c-5.62,2.1-17.15,26.06-17.15,30.83s27.82,10,27.82,10l2.66-4s-19.22-7.32-19.83-9S227.59,266,227.59,266s1.25-5.28,0-7.6S222.64,253.47,222.64,253.47Z" style="fill:#ebb376"/><path d="M222.64,253.47c-2.3-.93-7.78,7.12-7.78,7.12L226.73,269l1.92-1.53S232.4,257.43,222.64,253.47Z" style="fill:#F2A8A6"/><polygon points="213.47 261.21 214.41 258.42 227.52 269.02 226.59 270.15 213.47 261.21" style="fill:#F2A8A6"/><polygon points="213.47 261.21 214.41 258.42 227.52 269.02 226.59 270.15 213.47 261.21" style="fill:#fff;opacity:0.6000000000000001"/></g><g id="freepik--character-1--inject-116"><g id="freepik--group--inject-116"><polygon points="174.9 249.14 168.57 253.29 166.3 247.41 172.82 244.13 174.9 249.14" style="fill:#e4897b"/><path d="M141.47,252.8c.1.23,6.44,7.46,10.24,8.29S170,253.63,170,253.63l-3.27-8.21s-11.77,4.25-12.76,4.74-4.55-4.31-4.55-4.31Z" style="fill:#F2A8A6"/><path d="M141.47,252.8c.1.23,6.44,7.46,10.24,8.29S170,253.63,170,253.63l-3.27-8.21s-11.77,4.25-12.76,4.74-4.55-4.31-4.55-4.31Z" style="fill:#fff;opacity:0.1"/><path d="M170.94,244l2.9,7.5,2.24-1.61,2.74-.32c1.4-.16,7.43-4.37,7.74-5s-4.17-10.23-4.43-10.06-8.77,5.27-9.23,5.45-.67,3.49-.67,3.49Z" style="fill:#F2A8A6"/><path d="M170.94,244l2.9,7.5,2.24-1.61,2.74-.32c1.4-.16,7.43-4.37,7.74-5s-4.17-10.23-4.43-10.06-8.77,5.27-9.23,5.45-.67,3.49-.67,3.49Z" style="fill:#fff;opacity:0.8"/><rect x="180.02" y="236.47" width="1.39" height="8.05" transform="translate(196.47 540.91) rotate(-146.08)" style="fill:#F2A8A6"/><rect x="180.02" y="236.47" width="1.39" height="8.05" transform="translate(196.47 540.91) rotate(-146.08)" style="fill:#fff;opacity:0.30000000000000004"/><rect x="176.89" y="243.58" width="3.03" height="0.7" transform="translate(190.32 545.91) rotate(-146.08)" style="fill:#F2A8A6"/><rect x="176.89" y="243.58" width="3.03" height="0.7" transform="translate(190.32 545.91) rotate(-146.08)" style="fill:#fff;opacity:0.5"/><polygon points="178.75 237.21 184.49 241.07 183.29 238.59 181.51 237.39 178.75 237.21" style="fill:#F2A8A6"/><rect x="178.08" y="239.11" width="6.91" height="0.31" transform="translate(198.67 539.12) rotate(-146.08)" style="fill:#F2A8A6"/><rect x="178.08" y="239.11" width="6.91" height="0.31" transform="translate(198.67 539.12) rotate(-146.08)" style="fill:#fff;opacity:0.6000000000000001"/><polygon points="178.75 237.21 184.49 241.07 183.29 238.59 181.51 237.39 178.75 237.21" style="fill:#fff;opacity:0.5"/><polygon points="188.95 228.61 188.61 228.38 192.62 222.43 192.51 223.31 188.95 228.61" style="fill:#F2A8A6"/><rect x="188.22" y="227.67" width="1.12" height="1.65" transform="translate(217.93 523.45) rotate(-146.08)" style="fill:#F2A8A6"/><rect x="188.22" y="227.67" width="1.12" height="1.65" transform="translate(217.93 523.45) rotate(-146.08)" style="fill:#fff;opacity:0.5"/><path d="M183.43,227.65h3.92a0,0,0,0,1,0,0V239a.48.48,0,0,1-.48.48h-3a.48.48,0,0,1-.48-.48v-11.3A0,0,0,0,1,183.43,227.65Z" transform="translate(208.92 530.79) rotate(-146.08)" style="fill:#F2A8A6"/><path d="M183.43,227.65h3.92a0,0,0,0,1,0,0V239a.48.48,0,0,1-.48.48h-3a.48.48,0,0,1-.48-.48v-11.3A0,0,0,0,1,183.43,227.65Z" transform="translate(208.92 530.79) rotate(-146.08)" style="fill:#fff;opacity:0.6000000000000001"/><path d="M172.33,193.57s-3.86,26.07-5.14,27.29-17.14-3.52-17.14-3.52l2.25-25.48Z" style="fill:#F2A8A6"/><path d="M172.33,193.57s-3.86,26.07-5.14,27.29-17.14-3.52-17.14-3.52l2.25-25.48Z" style="fill:#fff;opacity:0.8"/><path d="M166.49,206.12a17.05,17.05,0,0,1-1.36,3.93,2.27,2.27,0,0,0,2.34.3Z" style="fill:#c63"/><path d="M168.18,201.2a.31.31,0,0,1-.2-.07,3.91,3.91,0,0,0-3.42-.17.37.37,0,0,1-.29-.67,4.61,4.61,0,0,1,4.12.25.36.36,0,0,1,.09.5A.34.34,0,0,1,168.18,201.2Z" style="fill:#263238"/><path d="M166.38,203.76c-.2.64,0,1.27.41,1.41s.94-.28,1.15-.92,0-1.27-.41-1.41S166.59,203.12,166.38,203.76Z" style="fill:#263238"/><path d="M163.3,214.27a12.6,12.6,0,0,1-6.8,5.33,12.16,12.16,0,0,1-1.85.45,11.24,11.24,0,0,1-12.08-6.18c-2.86-5.69-1.13-10.63,1.13-19.2a12.14,12.14,0,0,1,19.67-6.33C170.53,194.4,167.59,207.29,163.3,214.27Z" style="fill:#e4897b"/><path d="M156.5,219.6a12.16,12.16,0,0,1-1.85.45,11.29,11.29,0,0,1-9.35-2.6,13.17,13.17,0,0,1,2.43-2.36A17.46,17.46,0,0,1,156.5,219.6Z" style="opacity:0.2;isolation:isolate"/><path d="M129.85,222.85c1.45,5.71,14.36,6.48,14.36,6.48s6.57,2.15,6.55-.36c-2.91-2.71-3.49-5.28-2.85-7.67a11.63,11.63,0,0,1,2.14-4,23.17,23.17,0,0,1,1.66-1.91L146.09,200C144,206.32,136,221.3,129.85,222.85Z" style="fill:#e4897b"/><path d="M162.16,183.94s2.67-.64,5.3,4.18c2.22,4.06-1.79,5.43-1.12,9.94s-3.17,7.46-3.17,7.46-3.15,3.38-6.28,2.08c0,0-3.65,2.32-4.3,5.74S145.3,211.45,140,213c0,0-4-3-4.66-11.3A28.77,28.77,0,0,1,136.8,191s1-5.09,6.88-8.52S160.54,179.94,162.16,183.94Z" style="fill:#263238"/><path d="M163.65,207s-3.1,7.86-6.14,9.35a8.76,8.76,0,0,1-.26,3.45s9.55-1.46,10.45-11Z" style="fill:#F2A8A6"/><path d="M163.65,207s-3.1,7.86-6.14,9.35a8.76,8.76,0,0,1-.26,3.45s9.55-1.46,10.45-11Z" style="fill:#fff;opacity:0.5"/><path d="M157.83,217.1a.25.25,0,0,1-.22-.14c-.12-.24-3-5.9-2.4-10a4.91,4.91,0,0,1,2.5-3.93,3.88,3.88,0,0,1,3.61.14c2,1.17,3,4.89,3.09,5.05a.25.25,0,0,1-.49.13s-1-3.68-2.85-4.75a3.42,3.42,0,0,0-3.14-.13,4.43,4.43,0,0,0-2.22,3.56c-.58,3.9,2.32,9.6,2.35,9.65a.26.26,0,0,1-.11.34A.27.27,0,0,1,157.83,217.1Z" style="fill:#fff"/><path d="M155.88,205.25a5.77,5.77,0,0,0,1.58,4.65c1.48,1.28,3.39-.76,4-3.38.5-2.31.36-5.85-1.61-6S156,202.79,155.88,205.25Z" style="fill:#e4897b"/><polygon points="140.57 410.41 149.32 409.21 150.53 388.42 141.8 389.63 140.57 410.41" style="fill:#ebb376"/><polygon points="141.8 389.63 150.53 388.43 149.84 400.31 141.12 401.08 141.8 389.63" style="opacity:0.2;isolation:isolate"/><path d="M170.44,312c-2.51,27.58-14.9,85.63-14.9,85.63l-16.1-1.23s-.66-53.87,6.08-81.43c-11.22-1.29-49.37,5.29-56.83-7.64a2.53,2.53,0,0,1-.13-.22c-4-7.4,1.21-35.22,1.21-35.22l49,2.93,2.14,13.37c7,2.5,13.85,3.8,19.23,6.08C167,297.18,171.38,301.62,170.44,312Z" style="fill:#F2A8A6"/><path d="M150,408.15l-9.88-.61a.63.63,0,0,0-.69.55h0l-1,7.8a1.57,1.57,0,0,0,1.44,1.65c3.45.16,5.11.06,9.45.3,2.67.16,7.93.72,11.61.37s3.24-4,1.65-4.16c-3.78-.43-8.77-3.2-11.13-5.31A2.5,2.5,0,0,0,150,408.15Z" style="fill:#263238"/><path d="M150.19,409.23l.18,0s.2.06.23.09,0,0,0,.06a.11.11,0,0,0,.08,0,10.66,10.66,0,0,0,2.3.46,2.38,2.38,0,0,0,1.67-.33,1.1,1.1,0,0,0,.32-1.13.79.79,0,0,0-.44-.62,3.68,3.68,0,0,0-2.44.45,3.18,3.18,0,0,0,.87-2,.85.85,0,0,0-.75-.67,1.31,1.31,0,0,0-1,.23c-.92.8-1.07,3.29-1.07,3.44h0Zm.95-.51-.18.1c0-.83.19-2.23.74-2.7a.61.61,0,0,1,.45-.16l.1,0c.29,0,.36.2.37.32A4.15,4.15,0,0,1,151.14,408.72Zm.12.44c1.07-.59,2.58-1.23,3.14-1a.35.35,0,0,1,.21.3.74.74,0,0,1-.19.72C154,409.59,152.82,409.57,151.26,409.16Z" style="fill:#F2A8A6"/><path d="M89.77,271.91s11.38-75.86,71.48-49.5l2.4,19.68-4.17,4.85s-15.71,11.11-20.69,27.9Z" style="fill:#F2A8A6"/><path d="M163.65,242.09l-4.17,4.85a57.63,57.63,0,0,0-6.33,5.45c-5,4.85-11.47,12.69-14.36,22.45l-49-2.93s11.38-75.86,71.48-49.5l2,16.66Z" style="fill:#fff;opacity:0.2"/><path d="M163.65,242.09l-4.17,4.85a57.63,57.63,0,0,0-6.33,5.45A46.29,46.29,0,0,1,155,233.75l8.29,5.32Z" style="opacity:0.2;isolation:isolate"/><path d="M193,265.65l8.68,4.1a23,23,0,0,1,2.46-3.08,52.7,52.7,0,0,1,9.37-1.5c.64.2,2,7.92,1,8.94s-9.24,2-9.24,2l-2.16-.73-11.6-3.22Z" style="fill:#e4897b"/><path d="M161.25,222.41c5.87,2.24,10.75,27.27,12.46,29.52S198,267,198,267l-2,7.7s-25.45-8.9-28.88-11.8-11.6-21.25-11.6-21.25a31.85,31.85,0,0,1,0-12.63C157,222.67,161.25,222.41,161.25,222.41Z" style="fill:#F2A8A6"/><path d="M161.25,222.41c5.87,2.24,10.75,27.27,12.46,29.52S198,267,198,267l-2,7.7s-25.45-8.9-28.88-11.8-11.6-21.25-11.6-21.25a31.85,31.85,0,0,1,0-12.63C157,222.67,161.25,222.41,161.25,222.41Z" style="fill:#fff;opacity:0.2"/><polygon points="136.4 189.7 172.79 194.12 172.33 197.67 135.71 193.05 136.4 189.7" style="fill:#F2A8A6"/><path d="M200.52,268.8v8.05l2.66-.7,2.68.7c1.36.35,8.5-1.4,9-1.83s-.2-11-.5-11-10.09,1.75-10.58,1.75-1.88,3-1.88,3Z" style="fill:#fff"/><path d="M170.44,312c-2.51,27.58-14.9,85.63-14.9,85.63l-16.1-1.23s-.66-53.87,6.08-81.43c-11.22-1.29-49.37,5.29-56.83-7.64,5,2.07,13.74,3.34,27.13-2.24l44.34-10.82C167,297.18,171.38,301.62,170.44,312Z" style="opacity:0.2;isolation:isolate"/><polygon points="163.96 407.91 172.78 408.05 177.15 387.69 168.33 387.56 163.96 407.91" style="fill:#ebb376"/><path d="M174,408.37s0,.05,0,.07h.07a11.34,11.34,0,0,0,2.2.8,2.4,2.4,0,0,0,1.71-.07,1.12,1.12,0,0,0,.5-1.07.77.77,0,0,0-.34-.67,3.52,3.52,0,0,0-2.47.07,3.23,3.23,0,0,0,1.2-1.86.76.76,0,0,0-.58-.76,1,1,0,0,0-.88.08c-1,.65-1.31,3.13-1.33,3.27h.15l-.15,0-.15,0A.13.13,0,0,0,174,408.37Zm.62-.52-.19.07c.16-.82.53-2.17,1.15-2.55a.55.55,0,0,1,.47-.09l.09,0c.28.09.33.25.32.37C176.45,406.28,175.49,407.32,174.65,407.85Zm.06.45c1.14-.42,2.73-.83,3.25-.48a.36.36,0,0,1,.16.33.73.73,0,0,1-.3.68C177.33,409.14,176.19,408.94,174.71,408.3Z" style="fill:#F2A8A6"/><polygon points="168.33 387.56 177.14 387.7 174.65 399.34 165.91 398.77 168.33 387.56" style="opacity:0.2;isolation:isolate"/><path d="M180.7,397.58,165,393.91s6.26-52.67,14.6-71.29c-.72-.19-1.66-.43-2.83-.71-2.11-.5-4.91-1.12-8.19-1.84-22.85-4.95-69.09-14-69.09-14l19.71-20.62s83.66,7.91,86.63,29.67C207.21,325.54,180.7,397.58,180.7,397.58Z" style="fill:#F2A8A6"/><path d="M173.6,407.11,163.93,405a.63.63,0,0,0-.77.44h0L161,413a1.56,1.56,0,0,0,1.17,1.85c3.39.68,5,.84,9.3,1.74,2.62.56,7.73,1.92,11.42,2.13s3.8-3.45,2.26-3.86c-3.66-1-8.18-4.5-10.19-6.94A2.49,2.49,0,0,0,173.6,407.11Z" style="fill:#263238"/></g><path d="M82.9,311.76h66.92a5,5,0,0,1,5,5v6.69a0,0,0,0,1,0,0H77.9a0,0,0,0,1,0,0v-6.69A5,5,0,0,1,82.9,311.76Z" style="fill:#F2A8A6"/><path d="M82.9,311.76h66.92a5,5,0,0,1,5,5v6.69a0,0,0,0,1,0,0H77.9a0,0,0,0,1,0,0v-6.69A5,5,0,0,1,82.9,311.76Z" style="opacity:0.30000000000000004;isolation:isolate"/><rect x="55.42" y="227.07" width="56.66" height="39.92" rx="14.58" transform="translate(167.5 494.05) rotate(180)" style="fill:#F2A8A6"/><g style="opacity:0.30000000000000004;isolation:isolate"><rect x="55.42" y="227.07" width="56.66" height="39.92" rx="14.58" transform="translate(167.5 494.05) rotate(180)"/></g><path d="M80.83,396l28.82-2.83V346.67h11.42v46.48L150,396a5.62,5.62,0,0,1,5.07,5.59v4.32H75.77v-4.32A5.62,5.62,0,0,1,80.83,396Z" style="fill:#263238"/><path d="M80.83,396l28.82-2.83V346.67h11.42v46.48L150,396a5.62,5.62,0,0,1,5.07,5.59v4.32H75.77v-4.32A5.62,5.62,0,0,1,80.83,396Z" style="fill:#fff;opacity:0.2;isolation:isolate"/><circle cx="152.01" cy="411.27" r="7.47" style="fill:#263238"/><circle cx="78.82" cy="411.27" r="7.47" style="fill:#263238"/><path d="M111.81,319.31h7.09a4.13,4.13,0,0,1,4.13,4.13v31.93a0,0,0,0,1,0,0H107.68a0,0,0,0,1,0,0V323.44A4.13,4.13,0,0,1,111.81,319.31Z" transform="translate(230.71 674.68) rotate(180)" style="fill:#263238"/><path d="M111.81,319.31h7.09a4.13,4.13,0,0,1,4.13,4.13v31.93a0,0,0,0,1,0,0H107.68a0,0,0,0,1,0,0V323.44A4.13,4.13,0,0,1,111.81,319.31Z" transform="translate(230.71 674.68) rotate(180)" style="fill:#fff;opacity:0.30000000000000004;isolation:isolate"/><path d="M88.06,256s-2.18,54,12.85,63.3H83.75s-13.3-18.4-9.54-63.3Z" style="fill:#263238"/><path d="M88.06,256s-2.18,54,12.85,63.3H83.75s-13.3-18.4-9.54-63.3Z" style="fill:#fff;opacity:0.30000000000000004;isolation:isolate"/><rect x="74.7" y="317.6" width="83.33" height="5.84" rx="2.01" style="fill:#263238"/><rect x="74.7" y="317.6" width="83.33" height="5.84" rx="2.01" style="fill:#fff;opacity:0.6000000000000001;isolation:isolate"/><rect x="64.51" y="239.19" width="32.01" height="22.55" rx="8.24" style="fill:#263238"/><rect x="64.51" y="239.19" width="32.01" height="22.55" rx="8.24" style="fill:#fff;opacity:0.2;isolation:isolate"/></g></svg>