<svg xmlns="http://www.w3.org/2000/svg" viewBox="12.41 30 474.31 448.03"><g id="freepik--background-complete--inject-70"><polygon points="203.53 55.74 203.53 142.52 78.89 142.52 74.4 56.35 203.53 55.74" style="fill:#e0e0e0"/><rect x="93.73" y="37.02" width="85.99" height="124.64" transform="translate(37.38 236.07) rotate(-90)" style="fill:#fff"/><path d="M199.64,142.93H73.81V55.75H199.64ZM75,141.75H198.45V56.94H75Z" style="fill:#e0e0e0"/><rect x="87.9" y="67.03" width="97.64" height="64.62" style="fill:#fff"/><path d="M185.54,67l-.48,0h-1.39l-5.36,0-20.12.07-70.29.14.29-.28c0,19.74,0,41.62,0,64.62h0l-.31-.31,97.64.07-.24.24c0-19.66.1-35.79.13-47,0-5.61,0-10,.06-13,0-1.48,0-2.62,0-3.41s0-1.19,0-1.19,0,.38,0,1.13,0,1.91,0,3.37c0,3,0,7.36.06,13,0,11.27.08,27.44.13,47.17v.25h-.25L87.9,132h-.3v-.31h0c0-23,0-44.88,0-64.62v-.28h.28l70.48.14,20.05.07,5.31,0h1.36Z" style="fill:#e0e0e0"/><path d="M74.4,56.1a10.82,10.82,0,0,1,2.15,1.39c1.27.92,3,2.23,4.88,3.73s3.53,2.92,4.69,4A10.07,10.07,0,0,1,87.9,67c-.11.13-3.11-2.34-6.85-5.33S74.29,56.24,74.4,56.1Z" style="fill:#e0e0e0"/><path d="M199,56.35c.11.13-2.83,2.63-6.55,5.58s-6.84,5.23-7,5.1a62.82,62.82,0,0,1,6.56-5.58C195.83,58.5,198.94,56.21,199,56.35Z" style="fill:#e0e0e0"/><path d="M199,142.35l-13.9-11.26" style="fill:#fff"/><path d="M185.05,131.09c.11-.14,3.3,2.28,7.14,5.39a66.61,66.61,0,0,1,6.76,5.87c-.11.13-3.31-2.28-7.15-5.39S184.94,131.22,185.05,131.09Z" style="fill:#e0e0e0"/><path d="M74.4,142.34c-.1-.14,2.8-2.61,6.49-5.53s6.77-5.17,6.88-5a59.51,59.51,0,0,1-6.49,5.52C77.59,140.21,74.51,142.47,74.4,142.34Z" style="fill:#e0e0e0"/><rect x="127.63" y="67.26" width="21.64" height="61.44" transform="translate(40.46 236.43) rotate(-90)" style="fill:#e0e0e0"/><rect x="273.46" y="30" width="207.49" height="446.45" style="fill:#e0e0e0"/><rect x="284.98" y="42.24" width="184.91" height="434.21" style="fill:#ebebeb"/><circle cx="449.74" cy="263.38" r="10.17" style="fill:#e0e0e0"/><rect x="319.08" y="89.63" width="121.6" height="48.77" style="fill:#f5f5f5"/><path d="M440.68,138.4s0-.31,0-.88,0-1.43,0-2.53c0-2.23,0-5.5-.05-9.7,0-8.42,0-20.59-.09-35.66l.18.18-121.59.08h0l.26-.26c0,17.07,0,33.55,0,48.77l-.25-.25,87.15.11,25.31.07,6.77,0,1.76,0,.61,0h-.58l-1.73,0-6.72,0-25.25.07-87.32.12h-.25v-.25c0-15.22,0-31.7,0-48.77v-.26h.27l121.59.08h.18v.18c0,15.12-.08,27.32-.1,35.77,0,4.19,0,7.44,0,9.66,0,1.09,0,1.92,0,2.5S440.68,138.4,440.68,138.4Z" style="fill:#e0e0e0"/><rect x="12.41" y="186.9" width="37.64" height="37.64" style="fill:#f5f5f5"/><rect x="12.41" y="230.53" width="37.64" height="37.64" style="fill:#f5f5f5"/><rect x="55.51" y="186.9" width="37.64" height="37.64" style="fill:#f5f5f5"/><rect x="55.51" y="230.53" width="37.64" height="37.64" style="fill:#f5f5f5"/><rect x="98.02" y="186.9" width="37.64" height="37.64" style="fill:#f5f5f5"/><rect x="98.02" y="230.53" width="37.64" height="37.64" style="fill:#f5f5f5"/><rect x="140.6" y="186.93" width="37.64" height="37.64" style="fill:#f5f5f5"/><rect x="140.6" y="230.56" width="37.64" height="37.64" style="fill:#f5f5f5"/><rect x="183.18" y="186.93" width="37.64" height="37.64" style="fill:#f5f5f5"/><rect x="183.18" y="230.56" width="37.64" height="37.64" style="fill:#f5f5f5"/><rect x="227.3" y="186.93" width="37.64" height="37.64" style="fill:#f5f5f5"/><rect x="227.3" y="230.56" width="37.64" height="37.64" style="fill:#f5f5f5"/></g><g id="freepik--Floor--inject-70"><path d="M486.72,476.44c0,.15-106,.26-236.71.26s-236.73-.11-236.73-.26,106-.26,236.73-.26S486.72,476.3,486.72,476.44Z" style="fill:#263238"/></g><g id="freepik--Plant--inject-70"><path d="M80.85,444.79S76.22,413,76.6,394.43s0-39.36,0-39.36h2.13s-1.44,36.77.13,58.94,5.71,30.78,5.71,30.78h-3.7" style="fill:#263238"/><path d="M94.64,319.25a5.62,5.62,0,0,0-1.94-2.85c-1.36-.86-3.13-.5-4.64,0-6.45,2.28-12.16,14.3-14.77,20.63l8.56,28.84C97.3,351.57,100,332.76,94.64,319.25Z" style="fill:#455a64"/><path d="M92.2,317.57a1.59,1.59,0,0,1-.13.37c-.11.28-.24.63-.42,1.05-.37.91-.9,2.23-1.53,3.87-1.26,3.27-2.86,7.85-4.3,13s-2.41,9.92-3,13.37c-.31,1.73-.53,3.13-.68,4.1-.07.46-.14.83-.18,1.12a2.08,2.08,0,0,1-.09.39,1.51,1.51,0,0,1,0-.4c0-.29.07-.67.11-1.12.11-1,.3-2.39.57-4.13a122.87,122.87,0,0,1,7.34-26.43c.66-1.63,1.22-2.94,1.64-3.83.19-.42.35-.76.48-1A1.29,1.29,0,0,1,92.2,317.57Z" style="fill:#263238"/><path d="M78,372.82a26.14,26.14,0,0,1-13.19-21.93c-.31-6.41,1.66-12.69,3.89-18.69a2.4,2.4,0,0,1,.9-1.36,2.31,2.31,0,0,1,2.19.34c5.83,3.32,9.36,9.65,11.24,16.09a32.46,32.46,0,0,1,1.32,13.23A22,22,0,0,1,78,372.82" style="fill:#455a64"/><path d="M78,372.82a2.19,2.19,0,0,1,0-.39l0-1.11c0-1,0-2.35-.12-4.06a109.38,109.38,0,0,0-1.49-13.33c-.89-5.16-2-9.79-2.76-13.13-.4-1.64-.72-3-1-4-.1-.44-.18-.8-.25-1.08a1.78,1.78,0,0,1-.06-.39,2.93,2.93,0,0,1,.13.37c.08.28.18.63.31,1.06.26.93.63,2.27,1.06,3.94.86,3.33,2,7.95,2.87,13.13a96.9,96.9,0,0,1,1.39,13.38c0,1.72,0,3.11,0,4.07,0,.45,0,.82,0,1.11A1.13,1.13,0,0,1,78,372.82Z" style="fill:#263238"/><g style="opacity:0.30000000000000004"><path d="M78,372.82a26.14,26.14,0,0,1-13.19-21.93c-.31-6.41,1.66-12.69,3.89-18.69a2.4,2.4,0,0,1,.9-1.36,2.31,2.31,0,0,1,2.19.34c5.83,3.32,9.36,9.65,11.24,16.09a32.46,32.46,0,0,1,1.32,13.23A22,22,0,0,1,78,372.82"/></g><path d="M87.1,421.53c7.89,1.73,14.4,7.3,22,10,5,1.79,10.74,2.43,14.77,5.95-1-2.44-3.26-4.06-5.48-5.45a98.32,98.32,0,0,0-20-9.53c-3.58-1.23-7.47-2.27-11.12-1.25" style="fill:#455a64"/><path d="M75.68,428.56c-9.89-.16-20.3-8.58-30.15-9.08,10.31-3.32,25.06-.61,30.15,9.08" style="fill:#455a64"/><path d="M79.54,404.84a32.2,32.2,0,0,1,15.81-1.08,96.6,96.6,0,0,1,15.44,4.2c-.51-3.43-3.29-6-5.9-8.3a41.48,41.48,0,0,0-6.2-4.76,13.76,13.76,0,0,0-7.43-2.1,11.78,11.78,0,0,0-8.2,4.14,13.64,13.64,0,0,0-3.52,7.9" style="fill:#455a64"/><path d="M59.25,393.92c-6.23-5.31-15.66-4.79-23.84-4.61a194.48,194.48,0,0,1,37,23C72.71,406.56,67.11,400.63,59.25,393.92Z" style="fill:#455a64"/><g style="opacity:0.30000000000000004"><path d="M59.25,393.92c-6.23-5.31-15.66-4.79-23.84-4.61a194.48,194.48,0,0,1,37,23C72.71,406.56,67.11,400.63,59.25,393.92Z"/></g><path d="M82.34,386.58A69.94,69.94,0,0,1,91.92,381c3.27-1.49,6.33-3.86,9.5-5.57,4.1-2.23,7.65-5.31,11.42-8.07s7.9-5.24,12.51-6a24.53,24.53,0,0,0-11.38.66,72.73,72.73,0,0,0-10.72,4.17c-4.86,2.19-9.8,4.43-13.77,8s-7.56,7-7.14,12.36" style="fill:#455a64"/><path d="M108.93,428.56a1.17,1.17,0,0,1-.31-.13l-.86-.45c-.75-.4-1.82-1-3.16-1.66-.67-.35-1.41-.72-2.21-1.09s-1.65-.79-2.57-1.18a36.47,36.47,0,0,0-6.09-2.12,12.92,12.92,0,0,0-6.34-.16,17.39,17.39,0,0,0-2.69.8,13.58,13.58,0,0,0-4.89,3.37c-.58.61-.86,1-.88,1a1.15,1.15,0,0,1,.18-.3c.12-.18.32-.44.59-.77a12.79,12.79,0,0,1,2.7-2.37,13.18,13.18,0,0,1,2.19-1.17,17.34,17.34,0,0,1,2.72-.85,13.18,13.18,0,0,1,6.5.13,36.42,36.42,0,0,1,6.14,2.17c.92.41,1.78.81,2.57,1.21s1.53.77,2.19,1.14c1.34.71,2.39,1.33,3.11,1.76l.84.51C108.84,428.49,108.94,428.55,108.93,428.56Z" style="fill:#263238"/><path d="M68.3,423.66a2.84,2.84,0,0,1,.62.18,14.31,14.31,0,0,1,1.61.7,19.55,19.55,0,0,1,8.27,7.94,15.9,15.9,0,0,1,.76,1.58,2.84,2.84,0,0,1,.21.62c-.06,0-.43-.82-1.19-2.07A22.06,22.06,0,0,0,75,428.15a22.49,22.49,0,0,0-4.59-3.39C69.13,424.06,68.28,423.72,68.3,423.66Z" style="fill:#263238"/><path d="M46.42,393.42a2.68,2.68,0,0,1,.42.13L48,394l1.87.69c.73.27,1.52.67,2.42,1.07a56.86,56.86,0,0,1,12.88,8.2,63.58,63.58,0,0,1,6,5.91,67.57,67.57,0,0,1,4.26,5.4c1.13,1.6,2,2.93,2.57,3.86l.68,1.06a2.14,2.14,0,0,1,.22.38,2.21,2.21,0,0,1-.28-.34c-.17-.23-.42-.58-.73-1-.62-.9-1.51-2.21-2.66-3.78s-2.6-3.4-4.3-5.33a67,67,0,0,0-6-5.86A60.55,60.55,0,0,0,52.21,396c-.88-.4-1.66-.82-2.38-1.11L48,394.1l-1.16-.48A2,2,0,0,1,46.42,393.42Z" style="fill:#263238"/><path d="M94.38,399.28a3.52,3.52,0,0,1-.79-.1l-.9-.17c-.36-.07-.77-.07-1.22-.11a12.28,12.28,0,0,0-9.89,3.63,14.13,14.13,0,0,0-2,2.46,21.84,21.84,0,0,0-1.36,2.59,3.16,3.16,0,0,1,.2-.77,11.92,11.92,0,0,1,.95-1.95,13.35,13.35,0,0,1,2-2.56,12.19,12.19,0,0,1,3.16-2.38,12,12,0,0,1,7-1.27,11.81,11.81,0,0,1,1.23.17l.9.23A3.77,3.77,0,0,1,94.38,399.28Z" style="fill:#263238"/><path d="M104.32,368.45a1.78,1.78,0,0,1-.37.23l-1.11.6c-1,.51-2.34,1.28-4,2.27s-3.64,2.23-5.73,3.72a47.62,47.62,0,0,0-6.4,5.36A16.18,16.18,0,0,0,84.09,384c-.65,1.24-1.27,2.45-1.84,3.6a64,64,0,0,0-2.75,6.25,39,39,0,0,0-1.34,4.41c-.25,1.06-.34,1.65-.37,1.65a1.63,1.63,0,0,1,0-.44c0-.28.1-.7.21-1.24a32.61,32.61,0,0,1,1.24-4.46A58.64,58.64,0,0,1,82,387.48c.56-1.17,1.17-2.37,1.82-3.62a16,16,0,0,1,2.67-3.47A45.35,45.35,0,0,1,92.91,375c2.11-1.49,4.1-2.7,5.79-3.68s3.1-1.69,4.08-2.17l1.14-.55A1.92,1.92,0,0,1,104.32,368.45Z" style="fill:#263238"/><path d="M76.59,398.39a4.39,4.39,0,0,1-.19-.83c-.12-.61-.27-1.38-.44-2.29a63.17,63.17,0,0,0-1.87-7.42,64.07,64.07,0,0,0-2.82-7.11l-1-2.12a3.82,3.82,0,0,1-.31-.8,5.37,5.37,0,0,1,.44.74c.26.48.63,1.19,1.06,2.07a51.74,51.74,0,0,1,2.94,7.11,53.1,53.1,0,0,1,1.78,7.49c.15,1,.26,1.76.32,2.31A3.62,3.62,0,0,1,76.59,398.39Z" style="fill:#263238"/><path d="M75.88,375.89a26.92,26.92,0,0,0-3.22-10.68A35.25,35.25,0,0,0,48.77,347.4l22.12,33,2.85,5.89A17,17,0,0,0,75.88,375.89Z" style="fill:#455a64"/><rect x="56.17" y="440.85" width="51.43" height="9.11" style="fill:#FF725E"/><polygon points="60.01 448.16 64.39 476.44 98.53 476.44 103.76 448.16 60.01 448.16" style="fill:#FF725E"/><path d="M107.57,450c0,.1-11.6.18-25.9.18s-25.91-.08-25.91-.18,11.59-.18,25.91-.18S107.57,449.88,107.57,450Z" style="fill:#263238"/></g><g id="freepik--character-2--inject-70"><path d="M288.2,175.25a5.09,5.09,0,0,0,1.65-10,5.3,5.3,0,0,0-5.06-8.69,6.35,6.35,0,0,0-9.81-4.7,7.15,7.15,0,0,0-8.77.27,5.07,5.07,0,0,0-4,8.82" style="fill:#263238"/><path d="M289,175.92a21.59,21.59,0,0,0-22.48-18.76l-1.12.06c-12,1.3-17.61,12.22-16,24.19l3.73,40,.21,1.94,28.06,4.19-.55-10.22s11.49-2.37,11.06-14C291.7,197.78,290.33,186.3,289,175.92Z" style="fill:#ae7461"/><path d="M281,217.31a28.16,28.16,0,0,1-15.39-3.68s4,8.15,15.48,6.53Z" style="fill:#6f4439"/><path d="M286.46,186.6a1.66,1.66,0,0,1-1.51,1.75,1.59,1.59,0,0,1-1.78-1.41,1.66,1.66,0,0,1,1.51-1.75A1.59,1.59,0,0,1,286.46,186.6Z" style="fill:#263238"/><path d="M286.77,181.71c-.2.23-1.5-.64-3.27-.55s-3,1.05-3.25.84.09-.49.64-.93a4.56,4.56,0,0,1,2.58-.94,4.37,4.37,0,0,1,2.62.7C286.66,181.23,286.86,181.61,286.77,181.71Z" style="fill:#263238"/><path d="M270.26,187.46a1.66,1.66,0,0,1-1.51,1.75A1.58,1.58,0,0,1,267,187.8a1.65,1.65,0,0,1,1.51-1.74A1.58,1.58,0,0,1,270.26,187.46Z" style="fill:#263238"/><path d="M269.3,182.91c-.19.23-1.49-.64-3.27-.55s-3,1-3.24.84.09-.49.64-.93a4.5,4.5,0,0,1,2.58-.94,4.27,4.27,0,0,1,2.61.71C269.19,182.43,269.4,182.81,269.3,182.91Z" style="fill:#263238"/><path d="M276.41,195.78a11.53,11.53,0,0,1,2.86-.66c.46-.07.88-.19.94-.5a2.3,2.3,0,0,0-.37-1.33l-1.51-3.39c-2.11-4.83-3.66-8.82-3.47-8.9s2.06,3.77,4.17,8.6l1.46,3.41a2.61,2.61,0,0,1,.33,1.77,1.13,1.13,0,0,1-.72.7,2.61,2.61,0,0,1-.76.15A11.47,11.47,0,0,1,276.41,195.78Z" style="fill:#263238"/><path d="M260.51,178.51c.06-.5,1.67-.55,3.46-1.13s3.17-1.4,3.49-1c.15.19,0,.68-.55,1.25a5.68,5.68,0,0,1-2.45,1.51,5.54,5.54,0,0,1-2.85.13C260.89,179.07,260.48,178.75,260.51,178.51Z" style="fill:#263238"/><path d="M280,174c.43-.34,1.81.32,3.55.63s3.27.28,3.54.75c.11.23-.19.59-.9.86a6.09,6.09,0,0,1-5.71-1.11C279.93,174.65,279.8,174.21,280,174Z" style="fill:#263238"/><path d="M287.6,170.67s-3.42-7.1-7-8.61c-4.33-1.84-5.92,2.89-10,2s-8.22-2.69-12.19.63c-4.34,3.63-2.11,5.92-2.13,11.07-.1,20.88-3.61,27-5.17,17.2-.18-1.07-3.2-1.77-3.87-6.29-.86-5.86-1.45-13-.34-17.24.93-3.57,2.82-6.11,6.29-9,5.47-4.51,13.27-5,18.6-4.72S287.63,161.57,287.6,170.67Z" style="fill:#263238"/><path d="M251.82,192.58a3.14,3.14,0,0,0-3.54-2.86c-2.15.31-4.49,1.66-4.13,6.11.65,7.9,8.44,5.62,8.44,5.4S252.12,195.88,251.82,192.58Z" style="fill:#ae7461"/><path d="M250.63,198.39s-.13.11-.36.24a1.38,1.38,0,0,1-1,.1c-.86-.23-1.67-1.5-1.83-2.92a4.49,4.49,0,0,1,.23-2,1.6,1.6,0,0,1,.94-1.15.72.72,0,0,1,.85.31c.12.22.08.38.13.39s.16-.15.07-.47a1,1,0,0,0-.36-.47,1,1,0,0,0-.77-.14,2,2,0,0,0-1.34,1.35,4.69,4.69,0,0,0-.3,2.24c.18,1.58,1.12,3,2.29,3.24a1.45,1.45,0,0,0,1.24-.31C250.63,198.59,250.66,198.41,250.63,198.39Z" style="fill:#6f4439"/><path d="M251.21,177.24a7.48,7.48,0,0,0,3.43,1.38,2.59,2.59,0,0,0,2.77-2c.07-.55-.1-1.18.24-1.63s1.21-.41,1.88-.37a5,5,0,0,0,5.06-3.88,2.13,2.13,0,0,0,2.86.13,11.34,11.34,0,0,0,2-2.42,3.26,3.26,0,0,1,2.65-1.49,7.54,7.54,0,0,0,1.74.29c1-.14,1.48-1.38,1.59-2.42s.17-2.25,1-2.85,1.86-.32,2.82-.22,2.19-.2,2.39-1.14a1.87,1.87,0,0,0-.43-1.42,5.11,5.11,0,0,0-6.14-1.64,7,7,0,0,0-12.83-.71A7.05,7.05,0,0,0,251.16,160a5.11,5.11,0,0,0-5.39,7.72,4.83,4.83,0,0,0-2.48,4c.05,1.64,1.73,3.19,3.29,2.69a2.83,2.83,0,0,0,5,2.57" style="fill:#263238"/><path d="M275.83,159.9s0,0,0,.14,0,.24,0,.43a5.19,5.19,0,0,1-.5,1.55,5.74,5.74,0,0,1-1.66,2,5.3,5.3,0,0,1-3.2,1.09l.13-.19a2.9,2.9,0,0,1-.05,2.2,8.55,8.55,0,0,1-1.26,2,6.09,6.09,0,0,1-.84.95,2.77,2.77,0,0,1-1.23.53,2.88,2.88,0,0,1-2.59-.79l.29-.1a6,6,0,0,1-2.32,4.24,4.39,4.39,0,0,1-2.55,1,7.87,7.87,0,0,1-2.59-.44l.21-.1a6.25,6.25,0,0,1-1.76,2.53,3.3,3.3,0,0,1-2.71.89,4.36,4.36,0,0,1-3.53-3.24l.18.07a4.12,4.12,0,0,1-2.7.54,4.39,4.39,0,0,1-1.93-.76,3.89,3.89,0,0,1-.94-.92,1.62,1.62,0,0,1-.22-.4,4.62,4.62,0,0,0,1.23,1.21,4.29,4.29,0,0,0,1.89.67,3.89,3.89,0,0,0,2.54-.54l.15-.1,0,.17a4.11,4.11,0,0,0,3.33,3,3,3,0,0,0,2.47-.83,6,6,0,0,0,1.64-2.41l.06-.15.15,0a7.4,7.4,0,0,0,2.47.41,4,4,0,0,0,2.36-.91,5.6,5.6,0,0,0,2.19-4l0-.37.26.27a2.57,2.57,0,0,0,2.29.7,2.42,2.42,0,0,0,1.09-.46,5.28,5.28,0,0,0,.8-.89,8.14,8.14,0,0,0,1.23-1.93,2.6,2.6,0,0,0,.07-2l-.07-.18h.2a5.09,5.09,0,0,0,3.06-1,5.63,5.63,0,0,0,1.66-1.86A6.18,6.18,0,0,0,275.83,159.9Z" style="fill:#455a64"/><path d="M271,200.7a13.44,13.44,0,0,0,3.77.82,13.23,13.23,0,0,0,3.85.25A25.86,25.86,0,0,0,271,200.7Z" style="fill:#263238"/><path d="M252.51,221.7A82.64,82.64,0,0,0,243.65,239c-3.45,9.57-4,42.52-4,42.52L266.23,367s16.21-1.76,18.07-3.94,39.81-44.68,38.74-44.68-11.78-4-11.78-4-12.35-59.73-16.6-68.23-10.51-18-10.51-18Z" style="fill:#FF725E"/><path d="M432.89,391.61l6.19,24.59s27.07,2,28.66,6.4l-47.25,13.72L409.27,398.4Z" style="fill:#263238"/><path d="M423.87,418.4a2,2,0,0,0-.69,2.59,1.93,1.93,0,0,0,2.56.71,2.13,2.13,0,0,0,.72-2.75,2,2,0,0,0-2.74-.44" style="fill:#e0e0e0"/><path d="M420.49,436.32l-1-3.87,45.67-11.7s2.37.3,2.56,1.85Z" style="fill:#455a64"/><path d="M439.77,415.74c.06.23-1.06.67-2,1.74s-1.24,2.22-1.48,2.19-.28-1.46.85-2.74S439.76,415.51,439.77,415.74Z" style="fill:#fff"/><path d="M445.32,416.35c.12.21-.76.89-1.26,2.09s-.43,2.31-.66,2.36-.76-1.2-.11-2.69S445.26,416.13,445.32,416.35Z" style="fill:#fff"/><path d="M449.86,421.46c-.19.11-.85-.94-.62-2.38s1.15-2.25,1.31-2.09-.32,1-.49,2.22S450.08,421.38,449.86,421.46Z" style="fill:#fff"/><path d="M437.74,410.29c0,.24-1.19.23-2.46.7s-2.18,1.17-2.36,1,.56-1.27,2.08-1.8S437.8,410.08,437.74,410.29Z" style="fill:#fff"/><path d="M312.94,320.11s66.74-18.65,71.77-19.31,20.9-1.16,25.74,9.34,32.8,98.76,31.92,99.42L413,418.76l-28.29-79.62s-24.5,18.65-28.24,18.8-74.09,6.19-74.09,6.19L284.19,340Z" style="fill:#455a64"/><path d="M392.39,325.48a67.35,67.35,0,0,1-3.93,7.42,66.46,66.46,0,0,1-4.38,7.17,68.41,68.41,0,0,1,3.93-7.42A66.46,66.46,0,0,1,392.39,325.48Z" style="fill:#263238"/><path d="M272.82,283.14s19.29,33.19,23.05,35.06S356.54,309,356.54,309L356,295.79l-49.83-1.27-9.64-24.91Z" style="fill:#ae7461"/><path d="M303.2,302.52c-.13-.08.84-2,1.76-4.48s1.45-4.56,1.6-4.53a19.28,19.28,0,0,1-3.36,9Z" style="fill:#6f4439"/><path d="M282.87,238.08c-11.56-13.66-33.43-2.6-30.06,15a18.29,18.29,0,0,0,1.6,4.7c5.87,11.75,15.08,31.29,15.08,31.29s29.95-14,29.72-15.49-8.95-26.42-16.12-35.21Z" style="fill:#FF725E"/><path d="M282.87,238.08l.25.27.67.86a34.79,34.79,0,0,1,2.35,3.47A115.37,115.37,0,0,1,293,256.53c1.3,3,2.65,6.35,4,10,.67,1.82,1.37,3.7,2,5.67l.23.74.11.4.05.2a.5.5,0,0,1-.11.35,5.89,5.89,0,0,1-1.3,1c-.9.58-1.84,1.12-2.8,1.65-7.68,4.19-16.39,8.36-25.62,12.73l-.23.11-.11-.23-2.75-5.71-6.93-14.38q-1.66-3.48-3.29-6.83c-.53-1.12-1.06-2.23-1.59-3.32a27.81,27.81,0,0,1-1.45-3.32,18.19,18.19,0,0,1,.53-13.29,18,18,0,0,1,8-8.42,17.63,17.63,0,0,1,9.42-2,16.39,16.39,0,0,1,7,2.14,18.81,18.81,0,0,1,3.63,2.86c.33.38.6.68.79.91a2.37,2.37,0,0,1,.26.31,21.07,21.07,0,0,0-4.78-3.9,16.36,16.36,0,0,0-6.89-2,17.47,17.47,0,0,0-9.23,2.06,17.29,17.29,0,0,0-8.27,21.23,27.44,27.44,0,0,0,1.44,3.26l1.6,3.31,3.3,6.84L267,283.22c.94,2,1.87,3.9,2.75,5.72l-.35-.13c9.22-4.36,17.94-8.51,25.62-12.67.95-.53,1.89-1.06,2.77-1.62a6.12,6.12,0,0,0,1.19-.92l0,0s0,0,0,0h0l-.05-.18-.09-.36-.23-.74c-.63-2-1.32-3.84-2-5.65-1.34-3.63-2.66-7-3.93-10A124.51,124.51,0,0,0,286,242.78a40.48,40.48,0,0,0-2.27-3.51c-.26-.37-.47-.67-.63-.88A2,2,0,0,1,282.87,238.08Z" style="fill:#263238"/><path d="M350.93,296.3l19.39-1.93,13.83,2.68,9.55,6L393,304.3H391s-.11,1.71-1.14,1.93-8.55-3.08-8.9-3.08-4.33-1.25-4.33-1.25l7.87,7.07s-.57,2.4-3.42,1.48-8.73-5.24-8.73-5.24l-3.36-.57s-11.07,4.45-14.26,4.67-7.32-2.64-7.32-2.64Z" style="fill:#ae7461"/><path d="M376.78,301.88c-.08.13-1.41-.51-3.18-.91a14.31,14.31,0,0,1-3.23-.82,8.66,8.66,0,0,1,3.35.32A6,6,0,0,1,376.78,301.88Z" style="fill:#6f4439"/><path d="M391,304.3a20.74,20.74,0,0,1-2.46-1.61c-.75-.51-1.64-1.13-2.64-1.77a15.06,15.06,0,0,0-3.39-1.76,59.83,59.83,0,0,0-6.88-1.53,16.53,16.53,0,0,1-2.89-.58,14.76,14.76,0,0,1,2.94.22,42.16,42.16,0,0,1,7,1.39,14.43,14.43,0,0,1,3.5,1.86c1,.67,1.87,1.32,2.59,1.87A15.32,15.32,0,0,1,391,304.3Z" style="fill:#6f4439"/><circle cx="365.73" cy="453.87" r="22.57" style="fill:#455a64"/><path d="M403.87,397.53a19.13,19.13,0,0,0-17.66-11.72h-3.48a1.48,1.48,0,0,1-1.47-1.24,16.86,16.86,0,0,0-9.11-12.4,1.52,1.52,0,0,1-.86-1.36v-32a12.21,12.21,0,0,0-12.21-12.21H266.29a1.5,1.5,0,0,0-1.5,1.5h0a1.5,1.5,0,0,0,1.5,1.5h92.79a9.21,9.21,0,0,1,9.21,9.21V369a1.51,1.51,0,0,1-1.71,1.48,17.15,17.15,0,0,0-1.9-.11H265.74a1.5,1.5,0,0,1-1.5-1.45l-2.75-89.74a18.07,18.07,0,0,0-18.14-17.6H217.62a3,3,0,0,0-3,3h0a3,3,0,0,0,3,3h25.73a12.09,12.09,0,0,1,12.14,11.78L258.43,375a1.49,1.49,0,0,0,1.5,1.45H363.18a12.3,12.3,0,0,1,12.3,12.3V429.8a1.5,1.5,0,0,0,1.5,1.5h3a1.51,1.51,0,0,0,1.5-1.5V392.31a1.5,1.5,0,0,1,1.5-1.5h3.23a14.13,14.13,0,0,1,13,8.6l15.47,39.72a1.5,1.5,0,0,0,1.94.85l1.86-.72a1.5,1.5,0,0,0,.86-1.94Z" style="fill:#e0e0e0"/><path d="M403.87,397.53s.35.85,1,2.53,1.65,4.17,2.93,7.44c2.57,6.56,6.35,16.21,11.21,28.65.15.39.31.78.46,1.18a1.65,1.65,0,0,1-.11,1.32,1.78,1.78,0,0,1-1.07.8l-1.22.48a2,2,0,0,1-1.35.22,1.59,1.59,0,0,1-1.08-.89l-1-2.56-4.24-10.86-9.62-24.63a20.18,20.18,0,0,0-1.44-3.26,14.63,14.63,0,0,0-2.18-2.86,14,14,0,0,0-6.34-3.64,14.23,14.23,0,0,0-3.75-.48h-2.91a1.54,1.54,0,0,0-.86.18,1.41,1.41,0,0,0-.56.65,2.22,2.22,0,0,0-.1.91v6q0,8.07,0,16.59,0,4.26,0,8.63v5.51a2.25,2.25,0,0,1-.2,1.17,1.75,1.75,0,0,1-.94.79,3.91,3.91,0,0,1-1.16.09h-2.25a1.72,1.72,0,0,1-1.8-1.43c0-1.56,0-3,0-4.58,0-3.06,0-6.15,0-9.27q0-9.37,0-19.16v-4.91c0-1.64.07-3.32-.1-4.93a12.16,12.16,0,0,0-9.45-10.31,24.51,24.51,0,0,0-5.09-.27H350.19l-89.67,0c-.26,0-.47,0-.76,0a1.72,1.72,0,0,1-.8-.29,1.77,1.77,0,0,1-.78-1.45l-.09-3-.18-6q-.2-6-.37-12-.37-12.12-.76-24.52-.78-24.78-1.59-50.55a11.7,11.7,0,0,0-6.9-9.89,13.38,13.38,0,0,0-6.25-1.07H219c-.56,0-1.08,0-1.68,0a3.27,3.27,0,0,1-3-3.78,3.3,3.3,0,0,1,2.26-2.59,3.84,3.84,0,0,1,.89-.14h26a18.3,18.3,0,0,1,18.17,17.2q.85,27.33,1.69,54,.41,13.31.81,26.41.09,3.27.2,6.54l.1,3.26a1.29,1.29,0,0,0,.55,1.19,1.22,1.22,0,0,0,.64.21h94.92c2,0,4-.06,6,.11a1.29,1.29,0,0,0,1.12-.45,1.68,1.68,0,0,0,.28-1.26V339.15a9.73,9.73,0,0,0-.35-2.8,9,9,0,0,0-8.21-6.48c-3.77,0-7.55,0-11.29,0l-43.52,0H266.49a1.85,1.85,0,0,1-1.28-.39,1.66,1.66,0,0,1-.61-1.2,1.71,1.71,0,0,1,1.68-1.81h35.05l34.07,0h23.15c.61,0,1.23,0,1.85.07a15.85,15.85,0,0,1,1.8.34,12.21,12.21,0,0,1,6.05,3.7,11.15,11.15,0,0,1,1.94,2.9,13.55,13.55,0,0,1,1.23,6.62q0,6.61,0,12.71c0,4.06,0,7.95,0,11.65,0,1.86,0,3.67,0,5.43a7.62,7.62,0,0,0,.05,1.28,1.43,1.43,0,0,0,.75.9,17.27,17.27,0,0,1,8.06,8.63,20.68,20.68,0,0,1,1.16,4.13,1.47,1.47,0,0,0,1.56.9h2a21.47,21.47,0,0,1,7,.9,19.8,19.8,0,0,1,5.27,2.62,18.1,18.1,0,0,1,3.44,3.12c.45.49.8,1,1.14,1.44s.6.89.83,1.28a17.78,17.78,0,0,1,.93,1.81l.28.63s-.11-.21-.3-.62a18.49,18.49,0,0,0-1-1.79c-.23-.39-.52-.8-.83-1.27s-.7-.94-1.15-1.43a18.32,18.32,0,0,0-3.44-3.08,19.33,19.33,0,0,0-5.25-2.58,21,21,0,0,0-7-.87h-2a1.64,1.64,0,0,1-1.72-1,20.19,20.19,0,0,0-1.17-4.12,16.79,16.79,0,0,0-5.82-7.22,18,18,0,0,0-2.17-1.29,1.67,1.67,0,0,1-.85-1,6.69,6.69,0,0,1-.06-1.33c0-1.76,0-3.57,0-5.43,0-3.7,0-7.59,0-11.65s0-8.3,0-12.71a13.21,13.21,0,0,0-1.21-6.5,11.33,11.33,0,0,0-1.9-2.83,11.69,11.69,0,0,0-2.67-2.22,11.35,11.35,0,0,0-3.24-1.38,13.14,13.14,0,0,0-1.77-.33c-.6,0-1.19-.08-1.81-.07H335.4l-34.07,0H266.28A1.3,1.3,0,0,0,265,328.2a1.33,1.33,0,0,0,1.49,1.22H348.2c3.75,0,7.5,0,11.32,0a9.32,9.32,0,0,1,5.39,2,9.51,9.51,0,0,1,3.61,7.74v8.72q0,5.85,0,11.77v8.93a5.38,5.38,0,0,1,0,.78,1.62,1.62,0,0,1-.37.78,1.8,1.8,0,0,1-1.54.64c-2-.17-4-.1-6-.12H265.66a1.74,1.74,0,0,1-.89-.29,1.83,1.83,0,0,1-.79-1.61l-.1-3.26c-.07-2.17-.13-4.35-.2-6.54q-.4-13.09-.81-26.41-.84-26.6-1.69-53.94a17.77,17.77,0,0,0-17.65-16.72H218.39a5.37,5.37,0,0,0-1.58.12,2.75,2.75,0,0,0-1.89,2.17,2.72,2.72,0,0,0,1.08,2.66,2.75,2.75,0,0,0,1.4.52c.52,0,1.1,0,1.64,0h23a14.07,14.07,0,0,1,6.46,1.12,12.28,12.28,0,0,1,7.2,10.32q.81,25.77,1.58,50.58.38,12.39.74,24.51.19,6.06.37,12.05l.18,6,.1,3a1.26,1.26,0,0,0,.55,1.06,1.28,1.28,0,0,0,.58.21c.2,0,.48,0,.72,0l89.67,0h10.44a24.26,24.26,0,0,1,5.17.28,12.52,12.52,0,0,1,9.77,10.67c.18,1.69.08,3.33.11,5V397q0,9.78,0,19.16,0,4.68,0,9.27c0,1.51,0,3.08,0,4.53a1.33,1.33,0,0,0,1.43,1.11h2.25a3.45,3.45,0,0,0,1-.07,1.32,1.32,0,0,0,.73-.62,1.78,1.78,0,0,0,.16-1v-1.11c0-1.47,0-2.94,0-4.4v-8.63q0-8.52,0-16.59v-6a2.68,2.68,0,0,1,.13-1,1.65,1.65,0,0,1,.7-.8,1.78,1.78,0,0,1,1-.23h2.91a14.48,14.48,0,0,1,3.83.5,14.18,14.18,0,0,1,6.47,3.73,14.36,14.36,0,0,1,2.23,2.93,20.33,20.33,0,0,1,1.45,3.29l9.58,24.65,4.22,10.87,1,2.55a1.38,1.38,0,0,0,.93.77,1.83,1.83,0,0,0,1.22-.21l1.23-.47a1.66,1.66,0,0,0,1-.71c.46-.74-.09-1.55-.36-2.33-4.82-12.45-8.57-22.12-11.12-28.68-1.26-3.28-2.22-5.78-2.88-7.46S403.87,397.53,403.87,397.53Z" style="fill:#263238"/><path d="M354.93,332.37H344.86a10.65,10.65,0,0,1-6.79-2.44l-7.46-6.19a10.65,10.65,0,0,0-6.78-2.45H268.44V378h97.12V343A10.63,10.63,0,0,0,354.93,332.37Z" style="fill:#263238"/><polygon points="234.47 274.9 262.65 273.3 266.71 377.06 264.16 376.92 247.33 377.67 234.47 274.9" style="fill:#263238"/><path d="M326.88,409.56a65.57,65.57,0,1,1-.77-10.21,66.46,66.46,0,0,1,.77,10.21,1.25,1.25,0,0,0,2.5,0,68.44,68.44,0,1,0-.81,10.53,71.39,71.39,0,0,0,.81-10.53A1.25,1.25,0,0,0,326.88,409.56Z" style="fill:#263238"/><path d="M293.17,409.76l-26-.18,26,0,18.41,0,5.58.07,1.52,0a2.66,2.66,0,0,1,.52,0l-.53,0-1.51,0-5.58,0Z" style="fill:#263238"/><path d="M292.32,417,267,411l25.4,5.75,17.93,4.13,5.43,1.3,1.47.37a2.09,2.09,0,0,1,.51.16,3.37,3.37,0,0,1-.52-.09l-1.49-.31-5.45-1.21Z" style="fill:#263238"/><path d="M289.89,423.76l-23.38-11.48L290,423.58l16.56,8.05,5,2.48,1.35.69a1.76,1.76,0,0,1,.46.27l-.49-.2-1.38-.64-5-2.4Z" style="fill:#263238"/><path d="M286,429.86l-20.24-16.4,20.36,16.24,14.35,11.53,4.33,3.53,1.16,1a3.32,3.32,0,0,1,.39.36,3,3,0,0,1-.43-.3l-1.21-.93-4.37-3.46Z" style="fill:#263238"/><path d="M280.86,434.93l-16.12-20.46L281,434.81l11.45,14.41,3.44,4.4.92,1.21a3.4,3.4,0,0,1,.3.44,3.05,3.05,0,0,1-.36-.4l-1-1.17-3.5-4.34Z" style="fill:#263238"/><path d="M274.71,438.75l-11.15-23.53,11.34,23.44c3.1,6.48,5.92,12.35,8,16.6l2.37,5.05.62,1.38a3.09,3.09,0,0,1,.2.5,3.94,3.94,0,0,1-.26-.47c-.16-.31-.39-.76-.68-1.35l-2.45-5Z" style="fill:#263238"/><path d="M267.88,441.09c-3.1-14-5.55-25.16-5.61-25.43l5.8,25.39c1.58,7,3,13.36,4,18,.5,2.3.9,4.17,1.18,5.45l.3,1.49a3.17,3.17,0,0,1,.09.53,2.33,2.33,0,0,1-.16-.51c-.08-.34-.2-.84-.36-1.48-.3-1.28-.73-3.14-1.26-5.43Z" style="fill:#263238"/><path d="M260.68,441.86c.1-14.38.17-25.77.17-26.05,0,.28,0,11.67,0,26.05,0,7.18,0,13.69,0,18.4,0,2.36-.05,4.27-.06,5.59,0,.65,0,1.16,0,1.51a3.6,3.6,0,0,1,0,.53,2,2,0,0,1,0-.53c0-.35,0-.86,0-1.52,0-1.31,0-3.22,0-5.58C260.64,455.55,260.66,449,260.68,441.86Z" style="fill:#263238"/><path d="M253.49,441c3.28-14,5.88-25.08,5.95-25.36-.06.28-2.58,11.38-5.75,25.41-1.61,7-3.06,13.34-4.12,17.94-.55,2.29-1,4.14-1.29,5.42-.17.64-.29,1.14-.38,1.48a3.24,3.24,0,0,1-.15.5,2.55,2.55,0,0,1,.08-.52c.07-.34.18-.84.31-1.49.29-1.28.7-3.14,1.21-5.44C250.41,454.35,251.87,448,253.49,441Z" style="fill:#263238"/><path d="M246.68,438.58C253,425.67,258,415.45,258.16,415.2l-11.3,23.47-8,16.56c-1,2.11-1.89,3.82-2.48,5l-.69,1.35a3.24,3.24,0,0,1-.26.46,2.85,2.85,0,0,1,.2-.49c.14-.32.36-.78.63-1.38l2.4-5C240.69,450.89,243.53,445,246.68,438.58Z" style="fill:#263238"/><path d="M240.59,434.69,257,414.45l-16.23,20.37-11.52,14.36-3.53,4.32-1,1.16a2.5,2.5,0,0,1-.36.39s.1-.15.3-.43l.93-1.2,3.46-4.38Z" style="fill:#263238"/><path d="M235.51,429.55,256,413.43l-20.33,16.28-14.41,11.45-4.4,3.44-1.2.92a2.43,2.43,0,0,1-.44.3,2.91,2.91,0,0,1,.39-.35l1.17-1,4.34-3.51C224.78,438.07,229.88,434,235.51,429.55Z" style="fill:#263238"/><path d="M231.69,423.41c13-6.16,23.27-11.05,23.53-11.16L231.78,423.6l-16.6,8-5.05,2.38-1.38.62-.49.2a2.61,2.61,0,0,1,.46-.26l1.35-.69,5-2.45Z" style="fill:#263238"/><path d="M229.34,416.58,254.77,411l-25.39,5.81-17.95,4.05L206,422l-1.49.31-.52.08a1.89,1.89,0,0,1,.51-.15l1.47-.37,5.44-1.26Z" style="fill:#263238"/><path d="M228.57,409.39l26.05.15-26.05,0-18.4,0-5.58-.06-1.52,0-.53,0a2.72,2.72,0,0,1,.53,0l1.52,0,5.58,0Z" style="fill:#263238"/><path d="M229.42,402.19l25.36,5.94-25.41-5.74-17.94-4.11L206,397l-1.47-.38a2.5,2.5,0,0,1-.51-.15l.53.08,1.48.31,5.45,1.21Z" style="fill:#263238"/><path d="M231.85,395.38l23.38,11.46c-.25-.11-10.52-5-23.47-11.28l-16.57-8-5-2.48-1.35-.69a3.24,3.24,0,0,1-.46-.26,2.85,2.85,0,0,1,.49.2l1.38.63,5,2.4Z" style="fill:#263238"/><path d="M235.73,389.28,256,405.66l-20.37-16.22-14.37-11.51-4.32-3.53-1.17-1a3.32,3.32,0,0,1-.39-.36,2.43,2.43,0,0,1,.44.3l1.2.93,4.38,3.45C225.05,380.71,230.13,384.78,235.73,389.28Z" style="fill:#263238"/><path d="M240.87,384.2,257,404.65l-16.29-20.33-11.46-14.4-3.44-4.39-.92-1.21a2.43,2.43,0,0,1-.3-.44,4.92,4.92,0,0,1,.36.39c.22.27.54.67,1,1.17l3.51,4.35Z" style="fill:#263238"/><path d="M247,380.38c6.18,13,11.06,23.27,11.18,23.52l-11.36-23.43-8-16.59-2.38-5.05c-.27-.6-.48-1.07-.63-1.38a2.44,2.44,0,0,1-.19-.5,3.94,3.94,0,0,1,.26.47l.69,1.35c.58,1.18,1.41,2.9,2.45,5Z" style="fill:#263238"/><path d="M253.84,378l5.63,25.43c-.06-.27-2.61-11.37-5.82-25.39-1.59-7-3-13.36-4.06-17.95l-1.19-5.46-.3-1.48a3.74,3.74,0,0,1-.08-.53,4.44,4.44,0,0,1,.15.51c.08.34.21.84.37,1.47l1.26,5.44C250.84,364.67,252.26,371,253.84,378Z" style="fill:#263238"/><path d="M261,377.26c-.08,14.38-.14,25.77-.15,26,0-.27,0-11.66-.05-26,0-7.19,0-13.69,0-18.41,0-2.35,0-4.26.06-5.58,0-.66,0-1.17,0-1.51a2,2,0,0,1,0-.53,3.6,3.6,0,0,1,0,.53c0,.34,0,.85,0,1.51,0,1.32,0,3.23,0,5.58C261.06,363.57,261.05,370.07,261,377.26Z" style="fill:#263238"/><path d="M268.22,378.1c-3.27,14-5.86,25.09-5.92,25.36.06-.27,2.56-11.38,5.72-25.4,1.61-7,3.06-13.35,4.11-17.95.54-2.29,1-4.14,1.29-5.43.16-.64.29-1.13.37-1.47a2.33,2.33,0,0,1,.16-.51,3.17,3.17,0,0,1-.09.53l-.3,1.48c-.29,1.29-.7,3.15-1.21,5.45C271.29,364.76,269.84,371.1,268.22,378.1Z" style="fill:#263238"/><path d="M275,380.53c-6.32,12.91-11.33,23.14-11.46,23.38l11.28-23.47,8-16.57,2.48-5,.69-1.35a2.61,2.61,0,0,1,.26-.46,3.91,3.91,0,0,1-.2.49c-.14.32-.36.78-.63,1.38l-2.4,5Z" style="fill:#263238"/><path d="M281.14,384.41l-16.37,20.26L281,384.28c4.49-5.61,8.56-10.69,11.51-14.36l3.52-4.33,1-1.17a4.07,4.07,0,0,1,.35-.39,2.43,2.43,0,0,1-.3.44l-.92,1.2-3.46,4.38Z" style="fill:#263238"/><path d="M286.22,389.54l-20.44,16.14,20.32-16.29,14.4-11.47,4.39-3.44,1.21-.92a2.22,2.22,0,0,1,.43-.3,2.91,2.91,0,0,1-.39.35l-1.17,1-4.34,3.51Z" style="fill:#263238"/><path d="M290,395.68l-23.51,11.19L290,395.5l16.58-8,5-2.37,1.38-.63a3.09,3.09,0,0,1,.5-.2l-.46.26-1.36.69-5,2.46Z" style="fill:#263238"/><path d="M292.4,402.51,267,408.15l25.39-5.83,17.95-4.07,5.45-1.18,1.49-.31.52-.08a2.24,2.24,0,0,1-.51.15l-1.47.37-5.43,1.27Z" style="fill:#263238"/><path d="M260.87,471.4a61.84,61.84,0,1,1,61.84-61.84A61.91,61.91,0,0,1,260.87,471.4Zm0-118.68a56.84,56.84,0,1,0,56.84,56.84A56.91,56.91,0,0,0,260.87,352.72Z" style="fill:#e0e0e0"/><path d="M260.87,471.4a61.84,61.84,0,1,1,61.84-61.84A61.91,61.91,0,0,1,260.87,471.4Zm0-118.68a56.84,56.84,0,1,0,56.84,56.84A56.91,56.91,0,0,0,260.87,352.72Z" style="fill:none"/><path d="M260.87,352.72l.92,0,2.71.11,2,.09c.73.07,1.52.21,2.38.33l2.78.42a9.32,9.32,0,0,1,1.52.31l1.6.41A53.73,53.73,0,0,1,290,360.65a56.91,56.91,0,0,1,16.22,14.42l1.84,2.46c.58.87,1.1,1.78,1.66,2.68l.83,1.36a12.12,12.12,0,0,1,.79,1.41c.47,1,.94,2,1.43,3l.72,1.5c.19.52.38,1.05.58,1.58l1.18,3.21c.36,1.08.6,2.22.91,3.35.15.57.29,1.14.44,1.71.07.29.16.57.22.86l.13.88a53.19,53.19,0,0,1,.86,7.21c0,1.23.16,2.47.15,3.72s-.13,2.51-.19,3.78c-.05.63,0,1.27-.12,1.9s-.2,1.27-.29,1.9c-.21,1.27-.36,2.57-.62,3.84a60.45,60.45,0,0,1-2.23,7.61l-.69,1.9c-.12.31-.23.64-.36.95l-.44.91-1.78,3.69c-.65,1.2-1.41,2.36-2.12,3.55-.37.59-.69,1.21-1.11,1.77l-1.26,1.68a64.36,64.36,0,0,1-5.5,6.48l-3.19,2.9-.8.73c-.28.23-.58.44-.87.66l-1.75,1.31-1.75,1.31c-.62.4-1.25.77-1.88,1.15l-1.89,1.15-.94.58-1,.49-4,1.94-4.22,1.56a56.27,56.27,0,0,1-36,0l-4.23-1.55-4-1.95c-.33-.16-.67-.31-1-.49l-1-.57L230.78,458l-1.88-1.15-1.75-1.32-1.75-1.31-.87-.65-.8-.73-3.2-2.91a67.09,67.09,0,0,1-5.5-6.48l-1.25-1.68c-.43-.56-.74-1.18-1.12-1.76-.7-1.2-1.46-2.35-2.12-3.56s-1.19-2.47-1.78-3.69l-.44-.91c-.13-.31-.23-.64-.35-.95l-.7-1.9a60.39,60.39,0,0,1-2.22-7.61c-.27-1.27-.41-2.57-.62-3.84-.1-.63-.2-1.27-.29-1.9s-.08-1.27-.12-1.91c-.07-1.26-.13-2.52-.19-3.77s.1-2.49.15-3.72a53.19,53.19,0,0,1,.85-7.21l.14-.88c.06-.29.14-.58.21-.86l.45-1.71c.31-1.13.54-2.27.91-3.36s.79-2.15,1.18-3.2c.19-.53.39-1.06.58-1.58l.72-1.51,1.43-2.95a10.2,10.2,0,0,1,.79-1.41l.83-1.37c.56-.9,1.08-1.81,1.65-2.67l1.85-2.46a56.76,56.76,0,0,1,16.22-14.42A53.73,53.73,0,0,1,247,354.41l1.59-.41a9.54,9.54,0,0,1,1.52-.31l2.78-.42c.86-.12,1.65-.26,2.38-.33l2-.09,2.7-.11.92,0-.92.07-2.7.17-2,.11c-.73.08-1.52.23-2.38.36l-2.76.43a9.3,9.3,0,0,0-1.51.33l-1.59.41a53.85,53.85,0,0,0-15.09,6.3,56.69,56.69,0,0,0-16.08,14.39c-.6.81-1.21,1.63-1.83,2.45s-1.08,1.77-1.63,2.66l-.82,1.36a10.63,10.63,0,0,0-.78,1.4l-1.42,2.94c-.23.5-.47,1-.71,1.49l-.57,1.57c-.38,1.06-.77,2.12-1.16,3.19s-.6,2.21-.9,3.33l-.44,1.7c-.07.28-.15.57-.21.85l-.13.88a52.27,52.27,0,0,0-.84,7.16c0,1.22-.16,2.45-.14,3.68s.13,2.49.19,3.75c.05.63,0,1.26.13,1.89s.19,1.26.29,1.89c.21,1.26.35,2.54.62,3.81a59.89,59.89,0,0,0,2.22,7.54l.68,1.88c.12.31.23.63.36.94l.44.9c.58,1.22,1.17,2.43,1.76,3.66s1.41,2.34,2.11,3.52c.37.58.69,1.2,1.11,1.75l1.24,1.67a63.38,63.38,0,0,0,5.46,6.41l3.17,2.88.79.72.86.65,1.74,1.3,1.74,1.3,1.86,1.14,1.87,1.14.94.57,1,.49,4,1.92,4.19,1.54a55.81,55.81,0,0,0,35.69,0l4.19-1.54,4-1.93c.33-.16.67-.31,1-.48l.94-.57,1.87-1.14c.62-.38,1.25-.75,1.86-1.14l1.74-1.3,1.73-1.3c.29-.22.58-.42.86-.65l.8-.72,3.17-2.88a64.5,64.5,0,0,0,5.45-6.42l1.25-1.66c.42-.55.73-1.17,1.11-1.75.7-1.18,1.45-2.33,2.1-3.52s1.18-2.45,1.77-3.66l.44-.9c.13-.31.23-.63.35-.94l.69-1.88a59.89,59.89,0,0,0,2.22-7.54c.26-1.27.41-2.55.62-3.81.09-.63.19-1.26.29-1.89s.08-1.26.12-1.89c.07-1.26.13-2.5.19-3.74s-.1-2.47-.14-3.69a52.45,52.45,0,0,0-.83-7.16l-.14-.87c-.05-.29-.14-.57-.21-.86-.14-.57-.29-1.13-.43-1.69-.31-1.12-.54-2.26-.9-3.34l-1.16-3.18c-.2-.53-.39-1.05-.58-1.57l-.71-1.5c-.47-1-.95-2-1.41-2.93a12.06,12.06,0,0,0-.78-1.41l-.82-1.35c-.56-.9-1.07-1.81-1.64-2.66l-1.82-2.45a56.59,56.59,0,0,0-16.08-14.4,54,54,0,0,0-15.09-6.3l-1.59-.41a9.3,9.3,0,0,0-1.51-.33l-2.77-.43c-.86-.13-1.64-.28-2.37-.36l-2-.11-2.7-.17Z" style="fill:#263238"/><path d="M260.87,471.4l1-.06c.67,0,1.65,0,2.94-.13A63,63,0,0,0,276,469.42a61.68,61.68,0,0,0,16.43-6.86,62.57,62.57,0,0,0,17.51-15.68,61.62,61.62,0,0,0,11.52-25.95,60.88,60.88,0,0,0,.88-15.88,62.39,62.39,0,0,0-1.16-8.26,66,66,0,0,0-2.36-8.23,61.64,61.64,0,0,0-115.82,0,65.9,65.9,0,0,0-2.35,8.23,61.55,61.55,0,0,0,11.23,50.09,62.65,62.65,0,0,0,17.52,15.69,62,62,0,0,0,16.43,6.85,62.92,62.92,0,0,0,11.14,1.79c1.29.11,2.28.09,2.94.13l1,.06s-1.36,0-3.94-.09a60.54,60.54,0,0,1-11.19-1.69,62,62,0,0,1-16.53-6.8,62.87,62.87,0,0,1-17.66-15.72A61.79,61.79,0,0,1,199,405a61.41,61.41,0,0,1,1.16-8.32,66.48,66.48,0,0,1,2.36-8.3,62,62,0,0,1,78-37.75,57.39,57.39,0,0,1,9,3.81,61,61,0,0,1,8.14,5.07,62.27,62.27,0,0,1,21.64,28.87,66.54,66.54,0,0,1,2.37,8.3,63.15,63.15,0,0,1,.25,24.31A61.89,61.89,0,0,1,310.2,447.1a62.66,62.66,0,0,1-17.66,15.71A61.78,61.78,0,0,1,276,469.62a60.66,60.66,0,0,1-11.19,1.69C262.23,471.44,260.87,471.4,260.87,471.4Z" style="fill:#263238"/><path d="M267.77,409.56a6.9,6.9,0,1,1-6.9-6.9A6.9,6.9,0,0,1,267.77,409.56Z" style="fill:#263238"/><circle cx="365.73" cy="453.34" r="13.72" style="fill:#263238"/><path d="M372.24,427.8h11.33s1.16,6.13,0,7.75c-.9,1.26-10.46,14.33-14.68,20.08a3.72,3.72,0,0,1-4.87,1h0a3.72,3.72,0,0,1-1.42-5l9.9-18.63Z" style="fill:#263238"/><path d="M372.24,427.8a2.42,2.42,0,0,1,0,.36c0,.27.05.61.08,1,.06.93.15,2.22.26,3.86v.07c-1.61,3.06-3.93,7.52-6.75,12.9l-2.23,4.23a20.53,20.53,0,0,0-1.09,2.21,3.55,3.55,0,0,0,.17,2.38,3.5,3.5,0,0,0,4.19,1.92,3.69,3.69,0,0,0,2-1.61l1.68-2.3,9.65-13.17,2.16-2.93c.34-.48.71-.95,1-1.4a3.75,3.75,0,0,0,.4-1.51,26,26,0,0,0-.44-6l.18.15-8.25-.1-2.27,0-.81,0s.24,0,.74,0l2.23,0,8.36-.1h.15l0,.15a25.81,25.81,0,0,1,.5,6.09,4,4,0,0,1-.44,1.71c-.33.5-.68.95-1,1.43L380.65,440,371,453.14c-.56.78-1.13,1.55-1.68,2.31a4.22,4.22,0,0,1-2.29,1.79,4,4,0,0,1-2.86-.21,3.92,3.92,0,0,1-1.95-2,4,4,0,0,1-.18-2.72,19.71,19.71,0,0,1,1.14-2.3l2.26-4.21L372.38,433v.07c-.05-1.68-.09-3-.12-3.95,0-.4,0-.73,0-1A1.42,1.42,0,0,1,372.24,427.8Z" style="fill:#455a64"/><path d="M270.72,318.93H360.4a3.09,3.09,0,0,1,3.09,3.09v.37a3.09,3.09,0,0,1-3.09,3.09h-92a0,0,0,0,1,0,0V321.2A2.27,2.27,0,0,1,270.72,318.93Z" style="fill:#263238"/><path d="M359.53,325.48c0,.15-20.28.26-45.29.26s-45.29-.11-45.29-.26,20.27-.26,45.29-.26S359.53,325.34,359.53,325.48Z" style="fill:#455a64"/><path d="M260.23,376c-.14,0-1.64-22.46-3.35-50.16s-3-50.19-2.82-50.2,1.64,22.45,3.34,50.16S260.37,376,260.23,376Z" style="fill:#455a64"/><rect x="413.4" y="434.72" width="36.84" height="9.79" style="fill:#263238"/></g><g id="freepik--character-1--inject-70"><path d="M147.89,187s-11.48,33.77-8.81,42.77,13.73,11.77,13.73,11.77l8.6-13.1Z" style="fill:#ffbf9d"/><rect x="118.9" y="214.24" width="72.28" height="48.33" rx="4.93" style="fill:#263238"/><rect x="122.81" y="217.74" width="65.37" height="40.16" style="fill:#fafafa"/><path d="M128.15,255.3c-.14,0-.26-7.62-.26-17s.12-17,.26-17,.26,7.62.26,17S128.29,255.3,128.15,255.3Z" style="fill:#263238"/><path d="M132.27,255.3c-.14,0-.26-7.62-.26-17s.12-17,.26-17,.26,7.62.26,17S132.42,255.3,132.27,255.3Z" style="fill:#263238"/><path d="M136.39,255.3c-.14,0-.26-7.62-.26-17s.12-17,.26-17,.26,7.62.26,17S136.54,255.3,136.39,255.3Z" style="fill:#263238"/><path d="M140.51,255.3c-.14,0-.26-7.62-.26-17s.12-17,.26-17,.26,7.62.26,17S140.66,255.3,140.51,255.3Z" style="fill:#263238"/><path d="M144.64,255.3c-.15,0-.26-7.62-.26-17s.11-17,.26-17,.26,7.62.26,17S144.78,255.3,144.64,255.3Z" style="fill:#263238"/><path d="M148.76,255.3c-.15,0-.26-7.62-.26-17s.11-17,.26-17,.26,7.62.26,17S148.9,255.3,148.76,255.3Z" style="fill:#263238"/><path d="M152.88,255.3c-.15,0-.26-7.62-.26-17s.11-17,.26-17,.26,7.62.26,17S153,255.3,152.88,255.3Z" style="fill:#263238"/><path d="M157,255.3c-.14,0-.26-7.62-.26-17s.12-17,.26-17,.26,7.62.26,17S157.14,255.3,157,255.3Z" style="fill:#263238"/><path d="M161.12,255.3c-.14,0-.26-7.62-.26-17s.12-17,.26-17,.26,7.62.26,17S161.27,255.3,161.12,255.3Z" style="fill:#263238"/><path d="M165.24,255.3c-.14,0-.26-7.62-.26-17s.12-17,.26-17,.26,7.62.26,17S165.39,255.3,165.24,255.3Z" style="fill:#263238"/><path d="M169.36,255.3c-.14,0-.26-7.62-.26-17s.12-17,.26-17,.26,7.62.26,17S169.51,255.3,169.36,255.3Z" style="fill:#263238"/><path d="M173.49,255.3c-.15,0-.26-7.62-.26-17s.11-17,.26-17,.26,7.62.26,17S173.63,255.3,173.49,255.3Z" style="fill:#263238"/><path d="M177.61,255.3c-.15,0-.26-7.62-.26-17s.11-17,.26-17,.26,7.62.26,17S177.75,255.3,177.61,255.3Z" style="fill:#263238"/><path d="M181.73,255.3c-.15,0-.26-7.62-.26-17s.11-17,.26-17,.26,7.62.26,17S181.87,255.3,181.73,255.3Z" style="fill:#263238"/><path d="M171,439.63l-7,22.54s25.55,9.15,25.89,13.84l-49.19.56-.27-16.44,3.77-22.29Z" style="fill:#263238"/><path d="M148.74,460.21a2,2,0,0,0-1.36,2.31,1.93,1.93,0,0,0,2.27,1.37,2.11,2.11,0,0,0,1.43-2.45,2,2,0,0,0-2.52-1.17" style="fill:#e0e0e0"/><path d="M140.68,476.57l-.07-4,47.29,1s2.2.93,2,2.47Z" style="fill:#455a64"/><path d="M164.77,461.91c0,.24-1.2.36-2.38,1.15s-1.79,1.8-2,1.71.12-1.49,1.56-2.41S164.82,461.69,164.77,461.91Z" style="fill:#fff"/><path d="M170,464c0,.23-1,.65-1.79,1.67s-1,2.11-1.26,2.1-.41-1.37.61-2.62S170,463.76,170,464Z" style="fill:#fff"/><path d="M173,470.13c-.22.05-.57-1.14,0-2.47s1.72-1.86,1.83-1.66-.59.91-1.07,2S173.19,470.1,173,470.13Z" style="fill:#fff"/><path d="M164.27,456.12c-.1.22-1.2-.1-2.56,0s-2.41.54-2.54.34.88-1.07,2.48-1.18S164.39,455.93,164.27,456.12Z" style="fill:#fff"/><path d="M131,116.07a9.22,9.22,0,0,1-2.86-7.37c.37-2.71,2.83-5.17,5.55-4.91a6.69,6.69,0,0,1,9.81-7.69,3.53,3.53,0,0,1,2.15-3.59c1.18-.61,5.73-.53,7.07,2.11l5.66,21.95a14.21,14.21,0,0,1,.09,20.12,7,7,0,0,1-7.34,10.78,6.63,6.63,0,1,1-12.61-3.6c-3.18,1.11-6.78-1.42-7.76-4.64s.09-6.74,1.78-9.65A7.41,7.41,0,0,1,131,116.07Z" style="fill:#263238"/><path d="M148.78,98.24c-3,1.06-3.61,3.55-4.2,5.63-1.27,4.47.41,11,3,14.87s5.34,5.81,9.95,6.37q0-10.58,0-21.15Z" style="fill:#FF725E"/><path d="M147.32,110.42a7.32,7.32,0,0,1,.45-9.38c-1.38-1.65-1-4.25.37-6a14.27,14.27,0,0,1,5.25-3.63A9.87,9.87,0,0,1,164.72,84c2.47-3.8,7.89-4.51,12.27-3.33a11.77,11.77,0,0,0,3.24.63,19.79,19.79,0,0,0,2.41-.38c4.41-.7,8.87,2.33,10.69,6.41a8.07,8.07,0,0,0,1,1.89,10.9,10.9,0,0,0,2.22,1.7,7.08,7.08,0,0,1,2.83,5.17c.11,1.72-.4,3.56.36,5.1.38.78,1.05,1.39,1.35,2.2.87,2.35-1.7,4.82-1.16,7.26.11.5.34,1,.49,1.45a4.29,4.29,0,0,1-.2,3,6.32,6.32,0,0,0-.91,2.21,7,7,0,0,0,.4,1.79c.33,1.45-2.71,7.17-3.95,8L158,128.31a7.06,7.06,0,0,1-5.6-6A2.7,2.7,0,0,0,152,121a3,3,0,0,0-1.05-.64c-2.46-1.26-2.83-4.59-2.63-7.35a3.16,3.16,0,0,0,0-1.15A4.25,4.25,0,0,0,147.32,110.42Z" style="fill:#263238"/><path d="M158.15,110.24a20.23,20.23,0,0,1,10.34-17.88,25,25,0,0,1,9.61-2.54,15.38,15.38,0,0,1,9,1.67c2.09.45,9.88,7.27,10.44,14.85.62,8.42,1.05,18.72.12,25-1.87,12.66-11.54,14.38-11.54,14.38l.68,10.49L193,170.63l-23.91,11.73-7.79-24.11Z" style="fill:#ffbf9d"/><path d="M194.13,116.6a1.62,1.62,0,0,1-1.54,1.65,1.55,1.55,0,0,1-1.69-1.44,1.63,1.63,0,0,1,1.55-1.66A1.55,1.55,0,0,1,194.13,116.6Z" style="fill:#263238"/><path d="M194.65,111.22c-.2.22-1.44-.68-3.18-.66s-3,.91-3.21.7.11-.48.66-.89a4.5,4.5,0,0,1,2.57-.82,4.34,4.34,0,0,1,2.53.79C194.56,110.75,194.75,111.13,194.65,111.22Z" style="fill:#263238"/><path d="M184.6,125.11a11.51,11.51,0,0,1,2.82-.55c.45,0,.87-.14.94-.44a2.28,2.28,0,0,0-.31-1.32c-.43-1.07-.88-2.2-1.36-3.38-1.88-4.81-3.25-8.76-3.05-8.84s1.88,3.77,3.76,8.58c.45,1.18.89,2.31,1.3,3.39a2.62,2.62,0,0,1,.25,1.75,1.13,1.13,0,0,1-.73.66,2.72,2.72,0,0,1-.75.11A11.1,11.1,0,0,1,184.6,125.11Z" style="fill:#263238"/><path d="M186.08,145.73a32.32,32.32,0,0,1-17-4.33s4.61,8.86,17.24,7.54Z" style="fill:#ff9a6c"/><path d="M193.43,104.26c-.29.43-1.63.16-3.19.31s-2.85.57-3.19.19c-.16-.19,0-.6.54-1a4.71,4.71,0,0,1,2.52-.92,4.64,4.64,0,0,1,2.62.52C193.33,103.67,193.55,104.05,193.43,104.26Z" style="fill:#263238"/><path d="M174.89,117.83a1.61,1.61,0,0,0,1.64,1.56,1.55,1.55,0,0,0,1.6-1.54,1.63,1.63,0,0,0-1.64-1.56A1.55,1.55,0,0,0,174.89,117.83Z" style="fill:#263238"/><path d="M170.79,112.17c.22.2,1.4-.77,3.14-.85s3.06.73,3.24.51-.13-.47-.71-.85a4.49,4.49,0,0,0-2.61-.67,4.3,4.3,0,0,0-2.48.94C170.85,111.69,170.69,112.08,170.79,112.17Z" style="fill:#263238"/><path d="M170.64,105.33c.37.38,1.69-.09,3.31-.19s3,.12,3.29-.31c.13-.21-.11-.59-.72-.94a5.08,5.08,0,0,0-2.72-.52,4.94,4.94,0,0,0-2.6.93C170.65,104.73,170.48,105.15,170.64,105.33Z" style="fill:#263238"/><path d="M160.32,122.19c0-.94-1.13-3.14-2.06-3.28-2.49-.36-7-.11-6.93,6.19,0,8.62,8.68,6.8,8.7,6.56S160.36,125.44,160.32,122.19Z" style="fill:#ffbf9d"/><path d="M157.63,128.52s-.15.11-.4.22a1.45,1.45,0,0,1-1.12,0c-.91-.33-1.69-1.77-1.73-3.32a4.85,4.85,0,0,1,.41-2.16,1.71,1.71,0,0,1,1.12-1.15.76.76,0,0,1,.89.4c.12.25.06.42.11.43s.18-.14.11-.5a1,1,0,0,0-.34-.54,1.15,1.15,0,0,0-.83-.21,2.09,2.09,0,0,0-1.56,1.34,5.06,5.06,0,0,0-.51,2.41c.06,1.73.95,3.35,2.2,3.71a1.6,1.6,0,0,0,1.37-.24C157.62,128.73,157.66,128.54,157.63,128.52Z" style="fill:#ff9a6c"/><path d="M199.36,105.68c-1.75-1-2.88-2.44-2.79-4.42-1.15.35-2.34-1.08-3-2s-1.52-1.43-1.48-2.6A1.26,1.26,0,0,0,192,96a1.45,1.45,0,0,0-.95-.52,5.66,5.66,0,0,1-3.85-3.82,12.69,12.69,0,0,1-5.9,1,4.86,4.86,0,0,1-4,2,4.79,4.79,0,0,1-3.89-2.23,4.19,4.19,0,0,1-2.78,2,12.61,12.61,0,0,1-3.58.23,4.79,4.79,0,0,1-3.21,5.46c-.3.09-.66.19-.8.47a1.14,1.14,0,0,0,.15.92,3.75,3.75,0,0,1-2.57,4.82,2.74,2.74,0,0,1-.22,4.4c-.31.18-.72.41-.66.76a.71.71,0,0,0,.19.35,5.41,5.41,0,0,1,1.39,2.73,2,2,0,0,1-1.69,2.25,2.67,2.67,0,0,1,1.11,1.81c0,.73-.73,1.47-1.43,1.22a47.36,47.36,0,0,1-4.8-1.11c-2.47-3.16.57-6.74.77-10.7a25.24,25.24,0,0,1,3.62-11.3,19.35,19.35,0,0,1,3-4.06,26.8,26.8,0,0,1,4.71-3.43A24.24,24.24,0,0,1,173.48,86c4.65-1.12,9.51.44,13.87,2.32a20.43,20.43,0,0,1,4.72,2.6,17.77,17.77,0,0,1,4,4.93,21.3,21.3,0,0,1,3.21,8.48" style="fill:#263238"/><path d="M201.07,103.4a3.32,3.32,0,0,0-.48-.92c-.19-.28-.45-.61-.7-1a4.07,4.07,0,0,1-.5-1.61,11.69,11.69,0,0,1,0-2.13,9.76,9.76,0,0,0-.1-2.56,7.16,7.16,0,0,0-2.24-3.9,10.55,10.55,0,0,0-1.38-1,5.2,5.2,0,0,1-1.32-1.11,6.82,6.82,0,0,1-.84-1.61,11.1,11.1,0,0,0-2.14-3.31A11.28,11.28,0,0,0,188,81.7a9.92,9.92,0,0,0-2.08-.75,8.83,8.83,0,0,0-3.43-.12c-.38.06-.76.15-1.14.22a5.62,5.62,0,0,1-2.31,0c-.77-.14-1.53-.41-2.33-.6a15.1,15.1,0,0,0-5-.39,13.71,13.71,0,0,0-2.52.5,8.53,8.53,0,0,0-4.3,2.92l-.32.43.14-.06a9.72,9.72,0,0,0-7.4,1.6,9.6,9.6,0,0,0-4.08,6l.07-.08a25.39,25.39,0,0,0-3,1.63,9.18,9.18,0,0,0-2.44,2.24,5.91,5.91,0,0,0-1.08,3,4.09,4.09,0,0,0,.86,2.9V101a7.13,7.13,0,0,0-1.93,4.45,7.34,7.34,0,0,0,1,4.27,7,7,0,0,0,.58.84c.21.26.43.5.6.76a1.77,1.77,0,0,1,.32.84,4.51,4.51,0,0,1,0,.9,14.4,14.4,0,0,0,.13,3.27,6.91,6.91,0,0,0,.89,2.47,4.14,4.14,0,0,0,1.35,1.38c.45.29.85.4,1.07.56a2.43,2.43,0,0,1,.32.25,1.29,1.29,0,0,0-.3-.28c-.22-.17-.62-.29-1-.58a4.17,4.17,0,0,1-1.31-1.38,6.74,6.74,0,0,1-.84-2.44,14.2,14.2,0,0,1-.11-3.24,5.63,5.63,0,0,0,0-.92,2.06,2.06,0,0,0-.34-.92c-.18-.27-.4-.52-.61-.78a7,7,0,0,1-.56-.82,7.09,7.09,0,0,1-.91-4.17,7,7,0,0,1,1.88-4.31l.07-.07-.06-.08a3.8,3.8,0,0,1-.8-2.75,5.63,5.63,0,0,1,1-2.86,8.88,8.88,0,0,1,2.38-2.18,27.29,27.29,0,0,1,3-1.61l.05,0v-.06a9.76,9.76,0,0,1,11.18-7.34l.09,0,.05-.08.3-.41a8.24,8.24,0,0,1,4.18-2.83,12.91,12.91,0,0,1,2.46-.49,15,15,0,0,1,4.89.38c.79.18,1.55.45,2.35.6a6.12,6.12,0,0,0,1.21.1,6.56,6.56,0,0,0,1.18-.14l1.14-.23a10.77,10.77,0,0,1,1.13-.1,9.06,9.06,0,0,1,2.21.21,10.65,10.65,0,0,1,2,.73,11.37,11.37,0,0,1,5.43,5.71,6.85,6.85,0,0,0,.87,1.65,5.52,5.52,0,0,0,1.37,1.15,10,10,0,0,1,1.36,1A6.49,6.49,0,0,1,198,92.55a7.2,7.2,0,0,1,1.16,2.63,9.92,9.92,0,0,1,.12,2.52,11.79,11.79,0,0,0,0,2.15,3.92,3.92,0,0,0,.54,1.63,12.28,12.28,0,0,0,.72,1,6.08,6.08,0,0,1,.4.66C201,103.32,201.06,103.41,201.07,103.4Z" style="fill:#455a64"/><path d="M168.74,82.06a6.79,6.79,0,0,0,.64-.34,5.9,5.9,0,0,1,1.87-.58,5.46,5.46,0,0,1,5.45,2.68,4.68,4.68,0,0,1,.44,1,1,1,0,0,1,0,.9l-.2.3.34-.1a3.52,3.52,0,0,1,2.67.28,3.43,3.43,0,0,1,1.49,1.57,4,4,0,0,1,.35,1.42c0,.34,0,.53,0,.53s0,0,0-.13a3,3,0,0,0,0-.4A3.63,3.63,0,0,0,180,86a3.72,3.72,0,0,0-2.85-.33l.14.19a1.32,1.32,0,0,0,.09-1.13,4.91,4.91,0,0,0-.46-1,5.78,5.78,0,0,0-2.75-2.39,5.5,5.5,0,0,0-3-.34,5.41,5.41,0,0,0-1.89.67,3.7,3.7,0,0,0-.46.3A1,1,0,0,0,168.74,82.06Z" style="fill:#455a64"/><path d="M154.9,92.15s.09.12.3.3a5.91,5.91,0,0,0,1,.67,4.11,4.11,0,0,0,1.72.49,3.09,3.09,0,0,0,2.13-.68l-.19,0c.09.12.17.24.26.35s.2.23.3.34a5.21,5.21,0,0,0,2.17,1.31,5.52,5.52,0,0,0,2.06.23A5,5,0,0,0,166,94.8a1.71,1.71,0,0,0,.45-.25,7.36,7.36,0,0,1-1.82.4,5.38,5.38,0,0,1-2-.28,5.23,5.23,0,0,1-2.06-1.26l-.28-.32-.24-.33-.09-.11-.1.09a3,3,0,0,1-2,.64,4.22,4.22,0,0,1-1.66-.42C155.38,92.53,154.93,92.11,154.9,92.15Z" style="fill:#455a64"/><path d="M150.45,100.2a.62.62,0,0,0,0,.16,1.25,1.25,0,0,0,.2.41,2.27,2.27,0,0,0,1.4.91,4.42,4.42,0,0,0,2.45-.3c.44-.17.89-.33,1.36-.56a2.31,2.31,0,0,0,1.17-1.1l.05-.14-.2.07a10.05,10.05,0,0,0,2.58,1.5,4.42,4.42,0,0,0,2.42.21,3.19,3.19,0,0,0,1.48-.7,1.76,1.76,0,0,0,.31-.32c.06-.08.09-.13.08-.13s-.15.15-.45.38a3.42,3.42,0,0,1-1.45.59,4.36,4.36,0,0,1-2.31-.26,10.07,10.07,0,0,1-2.5-1.48l-.14-.11-.06.17-.05.12a2.11,2.11,0,0,1-1,1,12.42,12.42,0,0,1-1.32.56,4.29,4.29,0,0,1-2.33.35,2.27,2.27,0,0,1-1.36-.79A5,5,0,0,1,150.45,100.2Z" style="fill:#455a64"/><path d="M178.38,126.25a24.4,24.4,0,0,1,5.66,2.34c.11.88-1.43,2.76-2.26,3.07a3.09,3.09,0,0,1-2.76-.44,3.79,3.79,0,0,1-1.21-2.4A5.72,5.72,0,0,1,178.38,126.25Z" style="fill:#ff9a6c"/><path d="M181.53,131.76a5.53,5.53,0,0,1-1.91-.45,3.29,3.29,0,0,1-1.11-4.93l-.29.08a34.84,34.84,0,0,0,5.38,1.85,37.39,37.39,0,0,0-5.19-2.32l-.17-.07-.12.14a3.73,3.73,0,0,0-.38,4,3.57,3.57,0,0,0,1.72,1.54A2.52,2.52,0,0,0,181.53,131.76Z" style="fill:#263238"/><path d="M155.46,132a2.76,2.76,0,1,0,2.89-2.62A2.77,2.77,0,0,0,155.46,132Z" style="fill:#455a64"/><path d="M162.62,130.62l4.24-6.55,19.1-2.9a5,5,0,0,1,2.63.29l9.52,3.71s1.66,17.5-12,20.56h0S167.83,147.37,162.62,130.62Z" style="fill:#455a64"/><path d="M159,118.81a31.88,31.88,0,0,1,4.37,2.56,32.3,32.3,0,0,1,4.23,2.8,20.87,20.87,0,0,1-4.5-2.36A20.66,20.66,0,0,1,159,118.81Z" style="fill:#455a64"/><path d="M193,129.93a77.69,77.69,0,0,1-8.86-.58,75.87,75.87,0,0,1-8.81-1.08,73.52,73.52,0,0,1,8.86.57A76.68,76.68,0,0,1,193,129.93Z" style="fill:#263238"/><path d="M192.44,134.32a12.83,12.83,0,0,1-2.69-.1c-1.65-.13-3.93-.39-6.44-.78s-4.75-.84-6.37-1.21a12.19,12.19,0,0,1-2.59-.73,15.36,15.36,0,0,1,2.66.37l6.38,1.06,6.41.93A15,15,0,0,1,192.44,134.32Z" style="fill:#263238"/><path d="M190,139.15a8.33,8.33,0,0,1-2.25,0,43.78,43.78,0,0,1-5.39-.73A43.17,43.17,0,0,1,177.1,137a8.29,8.29,0,0,1-2.08-.87c0-.14,3.3,1,7.44,1.77S190,139,190,139.15Z" style="fill:#263238"/><path d="M142.61,276s11.5,62.86,11.5,67.17a46.36,46.36,0,0,1-1.8,10.42l-14,90.44L174,451.22s20.38-94.32,20.74-106.82c.46-15.81-6.15-70.94-6.15-70.94Z" style="fill:#FF725E"/><path d="M177.5,431.53l-11.9,22.39s18.77,19.61,17,24l-44.25-21.5,17.1-35.65Z" style="fill:#263238"/><path d="M152.85,445.35a2,2,0,0,0-2.25,1.46,1.93,1.93,0,0,0,1.42,2.24,2.12,2.12,0,0,0,2.38-1.55,2,2,0,0,0-1.74-2.17" style="fill:#e0e0e0"/><path d="M138.33,456.38l1.86-3.53,41.73,21.94s1.55,1.81.66,3.09Z" style="fill:#455a64"/><path d="M166.43,454c-.11.22-1.24-.21-2.64,0s-2.41.81-2.57.63.77-1.28,2.47-1.46S166.57,453.87,166.43,454Z" style="fill:#fff"/><path d="M170.14,458.22c0,.23-1.17.14-2.35.7s-1.86,1.42-2.07,1.31.25-1.4,1.73-2.07S170.23,458,170.14,458.22Z" style="fill:#fff"/><path d="M170.08,465.05c-.22-.05,0-1.27,1.13-2.18s2.37-.9,2.37-.67-.93.55-1.84,1.31S170.3,465.14,170.08,465.05Z" style="fill:#fff"/><path d="M168.57,448.64c-.18.15-1-.63-2.29-1.14s-2.4-.59-2.42-.83,1.26-.56,2.74.06S168.76,448.52,168.57,448.64Z" style="fill:#fff"/><path d="M200.8,275.61c0,1.8,13.5,71.12,12.57,82.62s-38.09,91.08-38.09,91.08l-30.15-15.65,30.15-69V354.27l-25-63.75-5.16-17.06Z" style="fill:#FF725E"/><path d="M200.8,275.61l-1,0L197,275.5l-11-.38-40.86-1.49.17-.22c1.61,5.29,3.35,11,5.18,17h0l25,63.74,0,0v10.51l0,.05-27.88,63.8c-.75,1.73-1.51,3.45-2.26,5.17l-.11-.33,30.14,15.65-.35.12c10.92-23.55,21-45.78,29.38-66.07,2.09-5.07,4.08-10,5.85-14.9.86-2.43,1.7-4.84,2.35-7.25a12.88,12.88,0,0,0,.55-3.63c0-.61,0-1.21,0-1.82l-.12-1.81c-.33-4.82-1-9.44-1.57-13.87s-1.28-8.66-1.92-12.69c-2.59-16.11-4.91-29-6.47-37.83-.77-4.42-1.37-7.85-1.78-10.18-.18-1.16-.34-2-.42-2.63s-.1-.91-.1-.91.06.29.15.89.26,1.49.46,2.64c.43,2.32,1.06,5.74,1.87,10.16,1.62,8.84,4,21.7,6.63,37.81.64,4,1.3,8.26,1.94,12.69s1.27,9.05,1.61,13.89l.12,1.83v1.85a13.52,13.52,0,0,1-.56,3.72c-.65,2.43-1.49,4.84-2.35,7.29-1.77,4.87-3.75,9.84-5.83,14.92-8.4,20.32-18.42,42.56-29.33,66.11l-.11.25-.24-.13L145,433.89l-.22-.11.1-.23,2.26-5.17c9.81-22.42,19.24-44,27.9-63.79l0,.1V354.28l0,.08c-9.33-23.86-17.82-45.55-24.94-63.77h0c-1.82-6.05-3.54-11.78-5.14-17.07l-.07-.24h.24l41,1.68,10.95.47,2.82.13Z" style="fill:#263238"/><path d="M160.64,148S152.34,153,148,161.7s-4.71,14.42-3,34.32c1.32,15.46,5.53,31.95,4.07,34.58-4.77,8.63-8.93,27.15-11.11,38.1a81.27,81.27,0,0,0-1.55,16.39l0,6.46,72.33-1.67-4.12-68.55s1.56-18.63-.31-29.05-11.19-29.57-11.19-29.57Z" style="fill:#FF725E"/><path d="M208.72,289.88a3.64,3.64,0,0,1-.74.06l-2.11.05-7.76.17c-6.56.15-15.6.46-25.6.8s-19.06.6-25.62.65c-3.27,0-5.93,0-7.76,0l-2.11-.05a5.23,5.23,0,0,1-.74,0,3.52,3.52,0,0,1,.74-.06l2.11-.06,7.76-.17c6.55-.15,15.6-.45,25.6-.8s19-.59,25.61-.64c3.28,0,5.93,0,7.77,0l2.11,0A4.35,4.35,0,0,1,208.72,289.88Z" style="fill:#263238"/><path d="M155,185.14c.71.23,12.31,45.5,15.87,50.48s46.25,23.77,46.25,23.77l9.45-8.14-37.75-28.64-13-46.52Z" style="fill:#ffbf9d"/><path d="M173.39,159.48c-6-7.36-19-6-23.07,2.32a31.66,31.66,0,0,0-3,15.95c1.16,19.65,10.11,40.32,10.11,40.32l31.46-10.9s-9.63-34.33-11.56-39.92A53.34,53.34,0,0,0,173.39,159.48Z" style="fill:#FF725E"/><path d="M173.39,159.48a4.78,4.78,0,0,1,.55.77c.34.53.79,1.33,1.34,2.4s1.2,2.39,1.9,4,1.18,3.53,1.84,5.65c2.56,8.49,6,20.57,10.07,34.83l.06.21-.21.08-31.46,10.91-.23.08-.09-.22c-.11-.25-.22-.53-.33-.8a145.49,145.49,0,0,1-8.92-31.63c-.2-1.25-.32-2.49-.48-3.72s-.21-2.44-.32-3.63a33.78,33.78,0,0,1,.16-7,30.94,30.94,0,0,1,1.49-6.36,19.07,19.07,0,0,1,2.71-5.39,12.11,12.11,0,0,1,4.25-3.46,14.36,14.36,0,0,1,4.66-1.46,14.82,14.82,0,0,1,7.71.84,13.64,13.64,0,0,1,4.16,2.62l.86,1a2.81,2.81,0,0,1,.28.33,1.6,1.6,0,0,1-.32-.3l-.89-.91a13.7,13.7,0,0,0-4.17-2.51,14.7,14.7,0,0,0-7.59-.74,14.05,14.05,0,0,0-4.55,1.47,11.88,11.88,0,0,0-4.11,3.39,18.81,18.81,0,0,0-2.62,5.29,30.45,30.45,0,0,0-1.44,6.28,33.73,33.73,0,0,0-.14,6.91c.12,1.18.18,2.39.33,3.61s.29,2.46.5,3.7a146.34,146.34,0,0,0,8.92,31.5c.11.27.22.54.33.79l-.33-.14L188.78,207l-.15.29c-4-14.27-7.4-26.37-9.89-34.88-.63-2.12-1.17-4-1.77-5.64s-1.31-2.92-1.83-4A30.94,30.94,0,0,0,173.39,159.48Z" style="fill:#263238"/><path d="M226.35,251.17c.28.07,9.86,3.55,12,4.75s6.74,7.45,6.45,9.65-.21,3.55-.78,3.9-4.39,0-4.39,0-.86,4-5,2.27c0,0-1.7,2.89-4.75.45,0,0-2.91,1.33-4.05-.8l-.5-1.56a89,89,0,0,1-7.16-7.1,13.61,13.61,0,0,1-2.27-4.4Z" style="fill:#ffbf9d"/><path d="M239.23,262.57A10.65,10.65,0,0,1,240,266a10.43,10.43,0,0,1,.12,3.53,15,15,0,0,1-.64-3.46A13.93,13.93,0,0,1,239.23,262.57Z" style="fill:#ff9a6c"/><path d="M234.46,265.89a6.72,6.72,0,0,1,.5,3,7,7,0,0,1-.39,3,13.54,13.54,0,0,1-.13-3A14.19,14.19,0,0,1,234.46,265.89Z" style="fill:#ff9a6c"/><path d="M231.06,269c.14.07-.11.82-.38,1.75s-.45,1.69-.59,1.67-.19-.84.09-1.82S230.94,268.94,231.06,269Z" style="fill:#ff9a6c"/><path d="M237.66,262.51c.14,0,.22.81-.41,1.52s-1.45.73-1.45.59.58-.37,1.06-.94S237.51,262.5,237.66,262.51Z" style="fill:#ff9a6c"/><path d="M241.26,259.39c.13,0,0,.79-.58,1.47s-1.34.89-1.39.76.49-.5,1-1.1S241.12,259.34,241.26,259.39Z" style="fill:#ff9a6c"/><path d="M233,266.18c.15,0,.09.76-.61,1.24s-1.42.27-1.38.13.57-.19,1.08-.56S232.9,266.14,233,266.18Z" style="fill:#ff9a6c"/><path d="M228.6,269.61c.13.07-.15.64-.83.83s-1.23-.12-1.16-.25.51-.09,1-.24S228.48,269.52,228.6,269.61Z" style="fill:#ff9a6c"/></g></svg>