<svg xmlns="http://www.w3.org/2000/svg" viewBox="13.9 34.91 453.56 435.01"><g id="freepik--background-complete--inject-33"><rect x="216.47" y="36.75" width="115.79" height="191.44" style="fill:#e0e0e0"/><rect x="222.75" y="45.24" width="103.12" height="174.53" style="fill:#fff"/><rect x="220.31" y="74.55" width="108.82" height="8.08" style="fill:#e0e0e0"/><path d="M313.36,99.6c.1.11-14.86,14.66-33.41,32.51s-33.68,32.24-33.78,32.13,14.86-14.65,33.41-32.51S313.25,99.5,313.36,99.6Z" style="fill:#e0e0e0"/><path d="M293,100c.1.11-9.42,9.53-21.25,21.06s-21.52,20.78-21.62,20.67,9.41-9.53,21.25-21S292.86,99.93,293,100Z" style="fill:#e0e0e0"/><rect x="375.28" y="34.91" width="83.37" height="137.99" style="fill:#e0e0e0"/><rect x="372.51" y="34.91" width="83.37" height="137.99" style="fill:#ebebeb"/><rect x="376.06" y="37.71" width="76.27" height="132.4" style="fill:#fff"/><rect x="390.58" y="54.92" width="46.9" height="97.99" style="fill:#ebebeb"/><path d="M390.58,118.23c-.11-9.15,8.12-18.09,17.18-19.37,4.33-.61,8.92.25,13-1.4,7.2-3,9.5-12.54,16.75-15.38l.33,70.83H390.58Z" style="fill:#e0e0e0"/><rect x="45.87" y="38.72" width="71.98" height="104.33" style="fill:#e0e0e0"/><rect x="42.26" y="38.72" width="71.98" height="104.33" style="fill:#f5f5f5"/><rect x="51.21" y="50.02" width="54.09" height="81.73" style="fill:#fff"/><path d="M105.3,131.75s0-.14,0-.4,0-.65,0-1.16c0-1,0-2.53,0-4.48,0-3.92,0-9.63-.05-16.84,0-14.41,0-34.82-.09-58.85l.18.18H51.21L51.4,50c0,30.83,0,59.26,0,81.73l-.15-.16,39.37.09,10.88,0h2.85l1,0-1,0h-2.83l-10.84,0-39.47.09h-.16v-.16c0-22.47,0-50.9,0-81.73v-.2h.2l54.09,0h.18V50c0,24.08-.07,44.53-.09,59,0,7.19,0,12.89,0,16.8,0,1.93,0,3.42,0,4.44,0,.5,0,.88,0,1.14S105.3,131.75,105.3,131.75Z" style="fill:#e0e0e0"/><path d="M114.45,38.72a13.2,13.2,0,0,1-1.29,1.86c-.83,1.12-2,2.64-3.38,4.29S107.16,48,106.23,49a12.65,12.65,0,0,1-1.59,1.62,12.87,12.87,0,0,1,1.38-1.8l3.46-4.2,3.46-4.21A12.78,12.78,0,0,1,114.45,38.72Z" style="fill:#e0e0e0"/><path d="M105.58,131.49a66.56,66.56,0,0,0,9.43,11.8" style="fill:#fff"/><path d="M115,143.29a11.82,11.82,0,0,1-1.64-1.5,51.62,51.62,0,0,1-3.56-4,52.36,52.36,0,0,1-3.14-4.36,10.09,10.09,0,0,1-1.09-1.93,15.93,15.93,0,0,1,1.32,1.77c.8,1.12,1.91,2.64,3.21,4.27s2.55,3.05,3.46,4.07A14.83,14.83,0,0,1,115,143.29Z" style="fill:#e0e0e0"/><path d="M42.25,143l9.43-11.64" style="fill:#fff"/><path d="M51.68,131.33a72.59,72.59,0,0,1-4.56,5.94,72.42,72.42,0,0,1-4.87,5.7A72.59,72.59,0,0,1,46.81,137C49.42,133.82,51.6,131.27,51.68,131.33Z" style="fill:#e0e0e0"/><path d="M42.26,38.72a62.08,62.08,0,0,1,4.58,5.47,67.13,67.13,0,0,1,4.27,5.71,64.2,64.2,0,0,1-4.58-5.47A69,69,0,0,1,42.26,38.72Z" style="fill:#e0e0e0"/><rect x="70.33" y="66.61" width="18.11" height="51.43" style="fill:#e0e0e0"/><path d="M36.37,362.64a29.31,29.31,0,0,0-12.61-4.34c-2.06-.22-4.31-.16-6,1.09a1.23,1.23,0,0,0-.61,1.09,1.38,1.38,0,0,0,.58.75,18,18,0,0,0,18.61,1.41" style="fill:#e0e0e0"/><path d="M36.05,362.28a61.16,61.16,0,0,1-8.15-7.17,20.51,20.51,0,0,1-5.1-9.44,3.8,3.8,0,0,1,.4-3.16c6.49,5.07,11.59,11.63,12.85,19.77" style="fill:#e0e0e0"/><path d="M36.3,362.59a29.59,29.59,0,0,1,.16-10.7,14.42,14.42,0,0,1,5.69-8.82c1.12,2.62.64,5.64-.15,8.38a40.8,40.8,0,0,1-5.65,11.9" style="fill:#e0e0e0"/><path d="M42.67,374a18.64,18.64,0,0,0-10.11,5.12A19.17,19.17,0,0,0,26.77,389c3.79-.23,7-2.9,9.34-5.9s3.94-6.28,6.51-9.09" style="fill:#e0e0e0"/><path d="M44.05,375.82a25,25,0,0,1,2.88-23.6c2.2,7.83,1.4,16.68-2.88,23.6" style="fill:#e0e0e0"/><path d="M52.46,385.83a18.06,18.06,0,0,0-17.25,9.93c-.21.43-.4,1-.11,1.35a1.28,1.28,0,0,0,1.14.34c3.4-.22,6.41-2.27,8.9-4.6s4.65-5,7.4-7" style="fill:#e0e0e0"/><path d="M52.19,385.29a32.14,32.14,0,0,1-.32-18c.64-2.31,1.7-4.74,3.83-5.82a.74.74,0,0,1,.59-.1c.18.06.28.25.37.42a10.8,10.8,0,0,1,.9,5.15,31.71,31.71,0,0,1-.81,5.21c-.67,3.19-1,6.61-2.77,9.36a18.47,18.47,0,0,0-1.11,2.05c-.33.7-.34.95-.64,1.5" style="fill:#e0e0e0"/><path d="M74.46,388.6a23.14,23.14,0,0,1,4.05-19c.29-.38.68-.78,1.15-.74.73.07.92,1,.89,1.77a34.44,34.44,0,0,1-6.09,18" style="fill:#e0e0e0"/><path d="M76.46,390a27.71,27.71,0,0,0,22.71-4.62,18.34,18.34,0,0,0-12.29-1.51c-4.11.94-7.86,2.78-10.42,6.13" style="fill:#e0e0e0"/><path d="M78.15,385.8c4.27-7,12.46-11.5,20.61-11.92-.94,3.32-3.66,5.9-6.74,7.45a37.41,37.41,0,0,1-9.89,2.9c-1.32.25-3.12.53-4,1.57" style="fill:#e0e0e0"/><path d="M74.88,365.53a59.14,59.14,0,0,0,2.63-12.07,20,20,0,0,0-2.4-11.94c-4,7.72-4.39,16.73-.35,24.42" style="fill:#e0e0e0"/><path d="M88.3,358.74c4.67-8.47,14.18-15.24,23.81-16.19-3.72,9.25-13.84,16.39-23.81,16.19" style="fill:#e0e0e0"/><path d="M85.37,360.4c7,1.06,12.88,5.5,19.38,8.2a8.81,8.81,0,0,0,4.38.84,3.43,3.43,0,0,0,2.15-6.07,9.49,9.49,0,0,0-3.18-1.93c-7.08-2.95-14.67-3-22.13-1.23" style="fill:#e0e0e0"/><path d="M81.35,365.28c1.57.45,2.11,1.27,3.36,2.33a36.27,36.27,0,0,0,14.69,7.55c.56.14,1.3.19,1.58-.31s-.07-1-.38-1.38a20.2,20.2,0,0,0-8.88-6c-3.39-1.26-6.33-2.79-10.37-2.46" style="fill:#e0e0e0"/><path d="M76.8,335.82a27.85,27.85,0,0,0,21.33,7.26,1.5,1.5,0,0,0,1-.35c.53-.59-.11-1.49-.74-2-6.26-4.88-13.86-6.91-21.56-4.93" style="fill:#e0e0e0"/><path d="M82.19,333.85a29.74,29.74,0,0,1,26.6-4.39A21.13,21.13,0,0,1,96.12,335a40.17,40.17,0,0,1-13.93-1.18" style="fill:#e0e0e0"/><path d="M80.05,320.31c-.62-6.25-.22-11.19-.65-17.48,0-.5-.14-1.1-.61-1.29-.66-.25-1.2.56-1.42,1.22A20.08,20.08,0,0,0,80,320.18" style="fill:#e0e0e0"/><path d="M79.6,321A36.82,36.82,0,0,0,90,310.93c2.05-2.8,3.78-6.15,3.31-9.59a9.9,9.9,0,0,0-7.47,3.71A20.8,20.8,0,0,0,82,312.72c-.83,2.75-1.41,5.58-2.38,8.29" style="fill:#e0e0e0"/><path d="M89.78,318.18a83.93,83.93,0,0,0,25.51-15c-3.05-1.23-6.54-.5-9.58.73a30.19,30.19,0,0,0-16.06,14.24" style="fill:#e0e0e0"/><path d="M82.46,324.43a52.13,52.13,0,0,0,14.17.07c4.59-.77,8.93-2.59,13.22-4.4a1.6,1.6,0,0,0,.9-.68,1,1,0,0,0-.33-1.13,2.7,2.7,0,0,0-1.12-.53,24.51,24.51,0,0,0-14.29.86,65.52,65.52,0,0,0-12.55,5.81" style="fill:#e0e0e0"/><path d="M55.58,336a25,25,0,0,1-.23-20.74c1.95,3,2.19,6.77,1.83,10.31s-1.43,7.19-1.5,10.75" style="fill:#e0e0e0"/><path d="M42.74,329.56a28.94,28.94,0,0,0-21.49,9.16A20.13,20.13,0,0,0,33,336.54a60.11,60.11,0,0,0,10.08-6.75" style="fill:#e0e0e0"/><path d="M34.11,326.68c-3.92-.32-7.69-.81-11.47.35a13.78,13.78,0,0,0-8.74,7.41,20.58,20.58,0,0,0,10.75-2,60.78,60.78,0,0,0,9.46-5.73" style="fill:#e0e0e0"/><path d="M46.89,326.81c-3.53-2.31-7.15-4.67-11.26-5.63s-8.88-.25-11.74,2.85c3.32,2,7.36,2.18,11.22,2.18s8.58,0,12.22,1.24" style="fill:#e0e0e0"/><path d="M46.91,327c-6-5.93-8.32-16.57-5.89-24.68A37.65,37.65,0,0,1,46.91,327" style="fill:#e0e0e0"/><path d="M63.5,310.21c1.14-2.65,1.94-5.43,3-8.12a23.33,23.33,0,0,1,4.22-7.48,11.1,11.1,0,0,1,7.48-3.87,30.12,30.12,0,0,1-14.51,19.51" style="fill:#e0e0e0"/><path d="M60.5,313.7c-1.88-2.59-4.06-6.11-6.61-8s-5.88-3.11-9-2.36A20.94,20.94,0,0,0,60.5,313.7" style="fill:#e0e0e0"/><path d="M61.1,310.42a44.25,44.25,0,0,1-3-9.64,15.06,15.06,0,0,1,1.5-9.8c3.32,6.26,4.38,13,1.64,19.51" style="fill:#e0e0e0"/><path d="M63.53,291c1.88-6.21,7.56-10.78,13.7-12.88a5.21,5.21,0,0,1,2.4-.36,2.09,2.09,0,0,1,1.77,1.48c.23,1.06-.65,2-1.47,2.7A46.49,46.49,0,0,1,63.53,291" style="fill:#e0e0e0"/><path d="M63.6,285.9c.24-4,.49-8.06,1.79-11.85s3.81-7.35,7.46-9c.62,4-1.16,8.06-3.31,11.54s-4.74,6.76-6,10.64" style="fill:#e0e0e0"/><path d="M63.5,288.66c-1.55-4.53-1.71-10.27-4.42-14.21-1.89-2.76-4.92-4.64-6.55-7.55a11.43,11.43,0,0,0,.38,8.57,24.67,24.67,0,0,0,5,7.17c2,2.14,3.72,3.75,5.58,6" style="fill:#e0e0e0"/><path d="M63.53,421.88c-.12,0-.22-30.18-.23-67.4s.08-67.4.2-67.4.23,30.17.24,67.4S63.65,421.88,63.53,421.88Z" style="fill:#e0e0e0"/><path d="M89.91,331.48a6.49,6.49,0,0,1-1.14.43l-3.12,1c-2.63.9-6.25,2.2-10.18,3.81s-7.55,3-9.64,4.83a6.94,6.94,0,0,0-1.93,2.56c-.3.71-.36,1.14-.4,1.13a.91.91,0,0,1,0-.31,4,4,0,0,1,.22-.88,6.82,6.82,0,0,1,1.89-2.74,17.12,17.12,0,0,1,4.18-2.59c1.68-.78,3.53-1.6,5.5-2.41,3.94-1.61,7.58-2.87,10.24-3.69,1.33-.42,2.42-.72,3.17-.92A6.56,6.56,0,0,1,89.91,331.48Z" style="fill:#e0e0e0"/><path d="M98.55,310.25a1.83,1.83,0,0,1-.32.34l-1,.91-3.61,3.28-12,10.72c-4.7,4.18-8.76,8.17-11.57,11.18-1.41,1.5-2.52,2.75-3.28,3.61l-.87,1a1.57,1.57,0,0,1-.33.33,2,2,0,0,1,.26-.38c.18-.24.45-.61.81-1.05.72-.91,1.8-2.19,3.18-3.72a151.52,151.52,0,0,1,11.51-11.3c4.71-4.17,9-7.92,12.12-10.62l3.7-3.18,1-.85A1.86,1.86,0,0,1,98.55,310.25Z" style="fill:#e0e0e0"/><path d="M76.55,329.75c-.13-.06.85-2.32,1.83-5.19s1.45-5.28,1.58-5.26a18.09,18.09,0,0,1-1.16,5.4,36.75,36.75,0,0,1-1.47,3.63A5.88,5.88,0,0,1,76.55,329.75Z" style="fill:#e0e0e0"/><path d="M63.56,348a5.35,5.35,0,0,1-.72-.84L61,344.79c-1.55-2-3.71-4.79-6.12-7.83s-4.63-5.77-6.24-7.74l-1.89-2.35a5.63,5.63,0,0,1-.66-.89,5.53,5.53,0,0,1,.78.78c.49.53,1.17,1.3,2,2.26,1.67,1.92,3.92,4.62,6.34,7.67s4.54,5.86,6,7.92c.75,1,1.34,1.87,1.74,2.46A4.53,4.53,0,0,1,63.56,348Z" style="fill:#e0e0e0"/><path d="M57.78,340.59a10.61,10.61,0,0,1-2.42-4.54,12.7,12.7,0,0,1-.55-4.57l.19,0c-.09.35-.15.53-.18.53s0-.2,0-.56H55a20.81,20.81,0,0,0,.78,4.45A34.67,34.67,0,0,0,57.78,340.59Z" style="fill:#e0e0e0"/><path d="M50.31,331.2a7.26,7.26,0,0,0-1.69-1,11.23,11.23,0,0,0-4.69-.38,28.41,28.41,0,0,0-4.73.77,14.73,14.73,0,0,1-2,.46,6.77,6.77,0,0,1,1.87-.76,21.69,21.69,0,0,1,4.77-.9,10.18,10.18,0,0,1,4.85.52A3,3,0,0,1,50.31,331.2Z" style="fill:#e0e0e0"/><path d="M48.54,328.92c0,.07-1-.39-2.59-.94a26.66,26.66,0,0,0-6.46-1.33,26.93,26.93,0,0,0-6.59.33c-1.68.3-2.69.62-2.71.54a2.49,2.49,0,0,1,.69-.29,15.74,15.74,0,0,1,2-.55,23,23,0,0,1,13.22,1,16,16,0,0,1,1.85.84A2.64,2.64,0,0,1,48.54,328.92Z" style="fill:#e0e0e0"/><path d="M63.5,319.3a55.69,55.69,0,0,1-1.89-6.57,53.36,53.36,0,0,1-1.46-6.67A55.69,55.69,0,0,1,62,312.63,53.36,53.36,0,0,1,63.5,319.3Z" style="fill:#e0e0e0"/><path d="M63.62,319.3a31.28,31.28,0,0,0-2.09-3.93,17.36,17.36,0,0,0-3.08-3.18,2.79,2.79,0,0,1,1.19.61,9.8,9.8,0,0,1,2.25,2.32A8.64,8.64,0,0,1,63.62,319.3Z" style="fill:#e0e0e0"/><path d="M63.53,405.79s-.13-.72-.47-2a28.64,28.64,0,0,0-2-5.23,72.14,72.14,0,0,0-10.7-15.07c-2.39-2.73-4.7-5.31-6.67-7.77a53.86,53.86,0,0,1-4.77-6.89,32.68,32.68,0,0,1-2.41-5.1c-.22-.63-.39-1.12-.48-1.46a3.41,3.41,0,0,1-.12-.52s.26.69.76,1.92a36.58,36.58,0,0,0,2.51,5A58.11,58.11,0,0,0,44,375.47c2,2.43,4.3,5,6.69,7.73a68.56,68.56,0,0,1,10.65,15.23,25.61,25.61,0,0,1,1.9,5.31,14.33,14.33,0,0,1,.27,1.52A2.12,2.12,0,0,1,63.53,405.79Z" style="fill:#e0e0e0"/><path d="M87.37,378.88a13.94,13.94,0,0,1-1.25.7,26.91,26.91,0,0,0-3.24,2.14,36.67,36.67,0,0,0-4.26,3.88c-1.49,1.58-3,3.41-4.6,5.37-3.14,3.94-6.07,7.42-7.83,10.21-.89,1.38-1.54,2.54-2,3.36a8.77,8.77,0,0,1-.69,1.25,1.5,1.5,0,0,1,.12-.35c.09-.23.22-.56.42-1A31.25,31.25,0,0,1,65.93,401a111.19,111.19,0,0,1,7.75-10.31c1.57-2,3.13-3.8,4.65-5.38a35.52,35.52,0,0,1,4.36-3.85,21.89,21.89,0,0,1,3.35-2c.41-.21.75-.34,1-.44S87.36,378.86,87.37,378.88Z" style="fill:#e0e0e0"/><path d="M87.83,387.61a19.64,19.64,0,0,1-2.64.38,34.94,34.94,0,0,0-6.26,1.23,18.71,18.71,0,0,0-5.6,2.95c-1.3,1-1.91,1.82-2,1.77a2.18,2.18,0,0,1,.39-.6,10.29,10.29,0,0,1,1.38-1.41,16.87,16.87,0,0,1,5.67-3.12,28.64,28.64,0,0,1,6.36-1.13A14.76,14.76,0,0,1,87.83,387.61Z" style="fill:#e0e0e0"/><path d="M72.13,393c-.13-.07,1.06-1.89,2-4.34s1.07-4.63,1.22-4.6a4,4,0,0,1,0,1.42,14.83,14.83,0,0,1-.77,3.33A16,16,0,0,1,73,391.85,4.06,4.06,0,0,1,72.13,393Z" style="fill:#e0e0e0"/><path d="M95.08,355.43s-.14.09-.42.23l-1.24.56c-.54.23-1.2.53-2,.92s-1.61.78-2.52,1.33l-1.44.82c-.5.28-1,.62-1.52.95-1.06.65-2.12,1.44-3.26,2.25a61.46,61.46,0,0,0-6.8,6,60.11,60.11,0,0,0-5.75,7c-.78,1.17-1.53,2.26-2.14,3.34-.31.54-.63,1-.9,1.55s-.53,1-.77,1.47c-.52.92-.88,1.8-1.24,2.56s-.64,1.43-.85,2-.39.93-.53,1.26a1.59,1.59,0,0,1-.21.43,2.17,2.17,0,0,1,.13-.46l.45-1.29a20.39,20.39,0,0,1,.79-2c.33-.78.68-1.67,1.18-2.61l.75-1.49c.26-.52.58-1,.89-1.57.6-1.1,1.35-2.21,2.11-3.38a60.12,60.12,0,0,1,5.77-7.09,59.22,59.22,0,0,1,6.88-6c1.15-.81,2.23-1.6,3.31-2.23.53-.33,1-.66,1.54-.94l1.46-.8c.92-.53,1.81-.91,2.57-1.28s1.43-.65,2-.86l1.28-.48A2.56,2.56,0,0,1,95.08,355.43Z" style="fill:#e0e0e0"/><path d="M76.22,368.07a3,3,0,0,1,1-1.55,6.58,6.58,0,0,1,4.18-1.6,11.32,11.32,0,0,1,4.4.86,6.4,6.4,0,0,1,1.66.81,10.26,10.26,0,0,1-1.77-.52,13.1,13.1,0,0,0-4.28-.71,6.79,6.79,0,0,0-4,1.4A12.1,12.1,0,0,0,76.22,368.07Z" style="fill:#e0e0e0"/><path d="M73.4,371a15.66,15.66,0,0,0,1.19-3.86,15.39,15.39,0,0,0-.27-4,2.46,2.46,0,0,1,.49,1.12,7.73,7.73,0,0,1,.21,3,7.81,7.81,0,0,1-.88,2.83C73.77,370.66,73.45,371,73.4,371Z" style="fill:#e0e0e0"/><path d="M42.69,410.12c.65,11.53,4.13,23.26,9.47,35.12H75.41c5.1-11.74,8.33-23.45,8.91-35.12Z" style="fill:#e0e0e0"/><path d="M80.55,428.78c0,.12-7.65.22-17.09.22s-17.1-.1-17.1-.22,7.65-.22,17.1-.22S80.55,428.66,80.55,428.78Z" style="fill:#fafafa"/><path d="M80,433c0,.12-7.18.22-16,.22s-16-.1-16-.22,7.17-.22,16-.22S80,432.84,80,433Z" style="fill:#fafafa"/><path d="M52.54,417.69a65.28,65.28,0,0,1,0,10.71,65.28,65.28,0,0,1,0-10.71Z" style="fill:#fafafa"/><path d="M65,417.69a70,70,0,0,1,0,11.09,70,70,0,0,1,0-11.09Z" style="fill:#fafafa"/><path d="M76.68,417.59a72.92,72.92,0,0,1,0,11.32,76.38,76.38,0,0,1,0-11.32Z" style="fill:#fafafa"/><path d="M83.58,417.69c0,.12-9,.22-20,.22s-20.05-.1-20.05-.22,9-.22,20.05-.22S83.58,417.57,83.58,417.69Z" style="fill:#fafafa"/></g><g id="freepik--Floor--inject-33"><path d="M466.77,447.81c0,.15-98.3.26-219.53.26S27.69,448,27.69,447.81s98.28-.26,219.55-.26S466.77,447.67,466.77,447.81Z" style="fill:#263238"/></g><g id="freepik--speech-bubble-2--inject-33"><path d="M391.2,140.88l-6.72,1.19a20.45,20.45,0,1,1,3.78-6.25h0Z" style="fill:#fff"/><path d="M391.2,140.88l-.22-.34-.59-1-2.21-3.7h.17a.12.12,0,0,1-.15,0,.1.1,0,0,1,0-.12,20.17,20.17,0,0,0-29.56-24.3,19.77,19.77,0,0,0-6.75,7A20.17,20.17,0,0,0,384.39,142l.07,0,5-.81,1.3-.21a4.6,4.6,0,0,1,.46-.06l-.41.09-1.26.25-5,1,.06,0a20.22,20.22,0,0,1-8.28,5.7,20.58,20.58,0,0,1-24.88-29.6,20.31,20.31,0,0,1,6.94-7.2,21.06,21.06,0,0,1,9-3.06,20.77,20.77,0,0,1,15.95,5.56,20.46,20.46,0,0,1,4.41,6.07,20.1,20.1,0,0,1,1.87,6.33,20.32,20.32,0,0,1-1.25,9.91l-.18-.1h0a.09.09,0,0,1,.14,0l0,0,2.14,3.83c.23.41.4.73.54,1A3.46,3.46,0,0,1,391.2,140.88Z" style="fill:#263238"/><path d="M363,129.13a2.07,2.07,0,1,0-2.07,2.07A2.07,2.07,0,0,0,363,129.13Z" style="fill:#263238"/><path d="M371.29,129.13a2.07,2.07,0,1,0-2.07,2.07A2.07,2.07,0,0,0,371.29,129.13Z" style="fill:#263238"/><path d="M379.55,130.16a2.07,2.07,0,1,0-2.82.76A2.07,2.07,0,0,0,379.55,130.16Z" style="fill:#263238"/></g><g id="freepik--speech-bubble-1--inject-33"><path d="M76,175l-6.64-1.32a20.3,20.3,0,1,1,5.75-4.42h0Z" style="fill:#fff"/><path d="M76,175s0-.14-.07-.4-.12-.64-.2-1.11c-.17-1-.41-2.4-.71-4.22l.16.07h0a.11.11,0,0,1-.15,0,.12.12,0,0,1,0-.13,20.11,20.11,0,0,0-9.34-32.73,20.46,20.46,0,0,0-9.23-.41,19.7,19.7,0,0,0-8.79,4.06,20,20,0,0,0,21.63,33.47.08.08,0,0,1,.08,0l4.9,1,1.28.28A2.41,2.41,0,0,1,76,175l-.41-.07-1.25-.22-5-.92h.08A20.08,20.08,0,0,1,59.67,176a20.42,20.42,0,0,1-12.34-36.35,19.93,19.93,0,0,1,9-4.16,20.94,20.94,0,0,1,9.47.43,20.62,20.62,0,0,1,12.75,10.89,20.37,20.37,0,0,1,1.89,7.21,20,20,0,0,1-.55,6.53,20.25,20.25,0,0,1-4.73,8.72l-.14-.16h0a.11.11,0,0,1,.15,0l0,.05c.25,1.85.45,3.3.59,4.31.06.46.11.82.15,1.09A1.64,1.64,0,0,1,76,175Z" style="fill:#263238"/><path d="M54.39,151.5h3.09a2.62,2.62,0,0,1,2.7-2.64,2.5,2.5,0,0,1,2.42,1.59,2.79,2.79,0,0,1-.22,2.51c-.52.86-1.67,1.65-3.76,1.28v7h3.06v-4.08A6,6,0,0,0,66,151.3c0-4.52-4.06-5.57-5.79-5.57C58.85,145.73,54.33,146.05,54.39,151.5Z" style="fill:#263238"/><rect x="58.61" y="162.65" width="3.1" height="2.9" style="fill:#263238"/></g><g id="freepik--serum-bags--inject-33"><rect x="86.33" y="87.99" width="34.25" height="51.55" rx="2.98" style="fill:#f5f5f5"/><path d="M117.6,139.54a3.39,3.39,0,0,0,1.57-.51,2.91,2.91,0,0,0,1.18-1.57,3.45,3.45,0,0,0,.13-1.27c0-.47,0-1,0-1.49,0-4.24,0-10.33-.08-17.84,0-3.77,0-7.89,0-12.32,0-2.21,0-4.5,0-6.86V92.26a15.13,15.13,0,0,0-.06-1.81,2.74,2.74,0,0,0-2.38-2.19c-1.22,0-2.55,0-3.84,0H89.31a2.73,2.73,0,0,0-2.7,2.35c0,1.35,0,2.81,0,4.19v8.27c0,5.42,0,10.65,0,15.63s0,9.71,0,14.14c0,1.1,0,2.19,0,3.26a3,3,0,0,0,1,2.64,2.83,2.83,0,0,0,1.29.57,13.93,13.93,0,0,0,1.46,0h2.89l17.84.08,4.85.05,1.26,0,.43,0a2.43,2.43,0,0,1-.43,0l-1.26,0-4.85,0-17.84.08H90.33a11.19,11.19,0,0,1-1.52,0,3,3,0,0,1-1.48-.64,3.08,3.08,0,0,1-1-1.32,3.84,3.84,0,0,1-.23-1.63c0-1.07,0-2.16,0-3.26,0-4.43,0-9.17,0-14.14s0-10.21,0-15.63V94.8c0-1.41,0-2.77,0-4.26a3.26,3.26,0,0,1,3.21-2.81h24.75c1.31,0,2.56,0,3.89,0a3.22,3.22,0,0,1,2.8,2.59,13.73,13.73,0,0,1,.06,1.9v1.83c0,1.21,0,2.41,0,3.59,0,2.36,0,4.65,0,6.86,0,4.43,0,8.55,0,12.32,0,7.51-.07,13.6-.08,17.84,0,.52,0,1,0,1.49a3.5,3.5,0,0,1-.16,1.31,3,3,0,0,1-1.27,1.61,2.86,2.86,0,0,1-1.2.42A2,2,0,0,1,117.6,139.54Z" style="fill:#263238"/><path d="M178,81.74a2.88,2.88,0,0,1-.41,0,8.77,8.77,0,0,1-5.49-3.2,4,4,0,0,0-3-1.35H112.39A4.94,4.94,0,0,0,109,78.54c-1.52,1.42-3.86,3.11-6.37,3.11-3.19,0-5.48-2.85-6.34-5.67l2.7-.82c.45,1.47,1.79,3.66,3.64,3.66,1.24,0,2.82-.83,4.44-2.35a7.81,7.81,0,0,1,5.34-2.13h56.73a6.85,6.85,0,0,1,5.11,2.3,6.22,6.22,0,0,0,3.68,2.27c1.5.16,3.33-3.39,4.05-6l2.73.75C184.45,74.49,182.33,81.74,178,81.74Z" style="fill:#e0e0e0"/><rect x="134.53" y="50.36" width="7.37" height="381.99" style="fill:#e0e0e0"/><path d="M134.53,432.36c0-1.42-.05-42.61-.15-111.51,0-69.07-.06-164.59-.11-270.49V50.1h7.9v.26c-.11,190-.2,348.13-.22,382v0h0l-7.37,0,7.37-.05,0,.05c0-33.87-.11-192-.22-382l.26.26h-7.36l.26-.26c-.05,105.82-.08,201.28-.11,270.29S134.54,430.94,134.53,432.36Z" style="fill:#263238"/><path d="M107.48,434.61h57.09a4.49,4.49,0,0,0-4.49-4.49H112a4.49,4.49,0,0,0-4.49,4.49Z" style="fill:#e0e0e0"/><path d="M154.71,438.75a6.38,6.38,0,1,0,6.38-6.39A6.38,6.38,0,0,0,154.71,438.75Z" style="fill:#263238"/><path d="M101.6,438.75a6.38,6.38,0,1,0,6.38-6.39A6.38,6.38,0,0,0,101.6,438.75Z" style="fill:#263238"/><path d="M129.64,438.79A6.39,6.39,0,1,0,136,432.4,6.38,6.38,0,0,0,129.64,438.79Z" style="fill:#263238"/><path d="M140.26,76.39c-.08.11-.54-.18-.46-.78s.63-.73.67-.6-.15.37-.19.68S140.35,76.29,140.26,76.39Z" style="fill:#263238"/><path d="M134.53,95.67c-.13,0-.24-6.44-.24-14.38s.11-14.39.24-14.39.25,6.44.25,14.39S134.67,95.67,134.53,95.67Z" style="fill:#263238"/><rect x="90.35" y="110.04" width="27.03" height="25.54" rx="2.13" style="fill:#FF725E"/><rect x="95.9" y="117.49" width="17.14" height="5.32" style="fill:#fff"/><path d="M105.28,91a1.91,1.91,0,1,1-1.91-1.91A1.91,1.91,0,0,1,105.28,91Z" style="fill:#263238"/><path d="M104,91.54a38.25,38.25,0,0,0-.34-13.62c-.17-.78-1.37-.45-1.21.34a36.36,36.36,0,0,1,.35,12.95c-.12.78,1.08,1.12,1.2.33Z" style="fill:#263238"/><rect x="161.42" y="87.99" width="34.25" height="51.55" rx="2.98" style="fill:#f5f5f5"/><path d="M192.69,139.54a3.39,3.39,0,0,0,1.57-.51,2.91,2.91,0,0,0,1.18-1.57,3.45,3.45,0,0,0,.13-1.27c0-.47,0-1,0-1.49,0-4.24-.05-10.33-.08-17.84,0-3.77,0-7.89,0-12.32q0-3.32,0-6.86c0-1.18,0-2.38,0-3.59V92.26a15.13,15.13,0,0,0-.06-1.81A2.74,2.74,0,0,0,193,88.26c-1.22,0-2.55,0-3.84,0H164.4a2.73,2.73,0,0,0-2.7,2.35c0,1.35,0,2.81,0,4.19v8.27c0,5.42,0,10.65,0,15.63s0,9.71,0,14.14c0,1.1,0,2.19,0,3.26a3,3,0,0,0,1,2.64,2.83,2.83,0,0,0,1.29.57,13.93,13.93,0,0,0,1.46,0h2.89l17.84.08,4.85.05,1.26,0,.43,0a2.43,2.43,0,0,1-.43,0l-1.26,0-4.85,0-17.84.08h-2.89a11.19,11.19,0,0,1-1.52,0,3,3,0,0,1-1.48-.64,3.08,3.08,0,0,1-1-1.32,3.84,3.84,0,0,1-.23-1.63c0-1.07,0-2.16,0-3.26,0-4.43,0-9.17,0-14.14s0-10.21,0-15.63V94.8c0-1.41,0-2.77,0-4.26a3.26,3.26,0,0,1,3.21-2.81h24.75c1.31,0,2.56,0,3.89,0a3.22,3.22,0,0,1,2.8,2.59,13.73,13.73,0,0,1,.06,1.9v1.83c0,1.21,0,2.41,0,3.59,0,2.36,0,4.65,0,6.86,0,4.43,0,8.55,0,12.32,0,7.51-.07,13.6-.08,17.84,0,.52,0,1,0,1.49a3.5,3.5,0,0,1-.16,1.31,3,3,0,0,1-1.27,1.61,2.86,2.86,0,0,1-1.2.42A2,2,0,0,1,192.69,139.54Z" style="fill:#263238"/><rect x="165.44" y="110.04" width="27.03" height="25.54" rx="2.13" style="fill:#e0e0e0"/><rect x="170.99" y="117.49" width="17.14" height="5.32" style="fill:#fff"/><path d="M180.37,91a1.91,1.91,0,1,1-1.91-1.91A1.91,1.91,0,0,1,180.37,91Z" style="fill:#263238"/><path d="M179.1,91.54a38.25,38.25,0,0,0-.34-13.62c-.17-.78-1.37-.45-1.21.34a36.36,36.36,0,0,1,.35,12.95c-.12.78,1.08,1.12,1.2.33Z" style="fill:#263238"/><path d="M189.36,106.46c.23.19-3.81,4.29-8.92,9.14-2.56,2.44-4.91,4.61-6.62,6.16-.86.78-1.56,1.4-2.06,1.82s-.77.64-.8.61a4.81,4.81,0,0,1,.67-.76l1.93-1.94c1.66-1.62,4-3.83,6.52-6.26Z" style="fill:#263238"/><path d="M188.85,102.75c.09.11-3.64,3.22-8.32,6.94s-8.55,6.64-8.64,6.53,3.63-3.22,8.32-6.94S188.76,102.63,188.85,102.75Z" style="fill:#263238"/></g><g id="freepik--Character2--inject-33"><path d="M244.55,208l-2,7.64-25,4.54v10.09s35.06,4.56,38.27,3,6.24-20.83,6.24-20.83Z" style="fill:#ffbf9d"/><path d="M243.06,216c-.07.12,1.4.91,2.76,2.34s2.08,2.88,2.22,2.82a6.06,6.06,0,0,0-1.85-3.14A6.62,6.62,0,0,0,243.06,216Z" style="fill:#ff9a6c"/><path d="M279.3,111.81a19.09,19.09,0,0,1,18.29-18.32l1,0c10.68.18,16.49,9.35,16,20l-1.35,42.95-16.88,6.44-6.52-6c0-3,0-9.23-.06-9.23s-10.31-1.17-10.86-11.4C278.66,131.28,278.94,121.06,279.3,111.81Z" style="fill:#ffbf9d"/><path d="M289.78,147.63A24.79,24.79,0,0,0,303,143.14s-2.89,7.83-13.15,7.33Z" style="fill:#ff9a6c"/><path d="M283.08,121a1.45,1.45,0,0,0,1.47,1.41A1.39,1.39,0,0,0,286,121a1.46,1.46,0,0,0-1.47-1.42A1.4,1.4,0,0,0,283.08,121Z" style="fill:#263238"/><path d="M281.67,116.24c.19.19,1.26-.68,2.83-.74s2.76.68,2.92.48-.11-.43-.63-.77a3.94,3.94,0,0,0-2.35-.62,3.82,3.82,0,0,0-2.25.83C281.72,115.81,281.57,116.16,281.67,116.24Z" style="fill:#263238"/><path d="M296.51,120.64a1.47,1.47,0,0,0,1.47,1.42,1.41,1.41,0,0,0,1.46-1.38,1.48,1.48,0,0,0-1.47-1.42A1.41,1.41,0,0,0,296.51,120.64Z" style="fill:#263238"/><path d="M297.1,116c.19.18,1.27-.68,2.84-.74s2.76.68,2.92.48-.12-.43-.64-.77a3.88,3.88,0,0,0-2.34-.62,3.82,3.82,0,0,0-2.25.83C297.16,115.54,297,115.89,297.1,116Z" style="fill:#263238"/><path d="M292,128.29a10.22,10.22,0,0,0-2.58-.35c-.4,0-.78-.09-.86-.36a2,2,0,0,1,.22-1.21c.34-1,.69-2,1.06-3.1,1.47-4.43,2.52-8.06,2.34-8.12s-1.52,3.49-3,7.91l-1,3.12a2.37,2.37,0,0,0-.14,1.59,1,1,0,0,0,.68.56,3,3,0,0,0,.69.07A10,10,0,0,0,292,128.29Z" style="fill:#263238"/><path d="M296.39,111.07c.23.39,1.74-.09,3.6-.21s3.42.11,3.59-.31c.07-.2-.26-.55-.93-.85a6.27,6.27,0,0,0-5.47.4C296.56,110.49,296.29,110.88,296.39,111.07Z" style="fill:#263238"/><path d="M281.4,111.62c.34.35,1.61-.06,3.15-.11s2.85.16,3.15-.22c.12-.19-.09-.54-.67-.86a5.27,5.27,0,0,0-5.07.26C281.42,111.08,281.25,111.45,281.4,111.62Z" style="fill:#263238"/><path d="M314.07,121.08c.17-.08,6.95-2.37,7,4.64s-7,5.63-7,5.43S314.07,121.08,314.07,121.08Z" style="fill:#ffbf9d"/><path d="M316.2,128.47s.12.09.33.18a1.22,1.22,0,0,0,.91,0,3,3,0,0,0,1.37-2.72,3.94,3.94,0,0,0-.35-1.75,1.44,1.44,0,0,0-.93-.93.64.64,0,0,0-.72.34c-.09.2,0,.34-.08.35s-.15-.11-.1-.4a.78.78,0,0,1,.27-.44.92.92,0,0,1,.68-.19,1.71,1.71,0,0,1,1.28,1.08,4,4,0,0,1,.44,1.94c0,1.42-.74,2.75-1.75,3.05a1.3,1.3,0,0,1-1.12-.18C316.21,128.64,316.18,128.49,316.2,128.47Z" style="fill:#ff9a6c"/><path d="M296.9,129.27c-.24,0-.25,1.59-1.63,2.73s-3.1.95-3.11,1.17.38.32,1.1.34a4,4,0,0,0,2.6-.89,3.47,3.47,0,0,0,1.26-2.29C297.19,129.66,297,129.26,296.9,129.27Z" style="fill:#263238"/><path d="M265.16,102.59a1.63,1.63,0,0,1,.77-1,5.06,5.06,0,0,1,2.61-.45,14.73,14.73,0,0,0,6.4-1.69,7.12,7.12,0,0,1-1.9-1.3,4.4,4.4,0,0,1-1.32-4.36,1,1,0,0,1,.54-.67c.46-.15.86.29,1.18.64A3.77,3.77,0,0,0,277,95.25a6.28,6.28,0,0,0,2.66-.81l.09-.1,1.05-1.1h0c2.6-2.64,4.85-4.48,7.17-5.45a23.75,23.75,0,0,1,12.7-1.14c3.58.89,6.82,3.75,7.36,7.4,2-1.71,5-1.73,7.43-.78l.06,0c2.73.94,4.3,3.79,5.13,6.54.05.16.09.31.13.46a10.84,10.84,0,0,0,3.69,3.53c.27.14.57.33.6.63s-.21.55-.45.73a5.49,5.49,0,0,1-2.19.94,13.2,13.2,0,0,0,.92,1.89c.31.52.69,1.13.42,1.68a1.14,1.14,0,0,1-1.19.53,3.41,3.41,0,0,1-1.27-.55c.31.72.62,1.44.94,2.16a6.59,6.59,0,0,1-3-.16c-.55,2.59-.92,7.39-1.57,9.15-1.86,0-2.32-.14-3.25.18-1.21.41-.72,2.56-2.31,2-.81-.31-2.07-3.34-2.35-4.16a39.93,39.93,0,0,1-1.93-16.91,12.94,12.94,0,0,0-4-2.83l.12.11c-2.88-1-6.13-1.9-8.83-.53-2.1,1.07-3.31,3.27-4.87,5A14.69,14.69,0,0,1,279.56,109c-.36,3.1-.43,8.16-.54,11l-2.54-5.75v0c-.2-.34-.37-.68-.53-1l-.06-.1h0a16.83,16.83,0,0,0-.83-1.64l0,0a1.81,1.81,0,0,1-2.67-2.38,4,4,0,0,1,.86-.89,2.87,2.87,0,0,1-2.71.74,2.24,2.24,0,0,1-1.6-2.2,1.87,1.87,0,0,1,1.11-1.54,6.45,6.45,0,0,1-3.66-.76C265.64,104.17,264.92,103.5,265.16,102.59Z" style="fill:#263238"/><path d="M304.84,95.26a10.09,10.09,0,0,1,1,.93,7.38,7.38,0,0,1,1.61,3.39,12.89,12.89,0,0,1,.3,2.6c0,.95-.05,2-.11,3a26.65,26.65,0,0,0,0,3.36,12,12,0,0,0,.25,1.77,3.81,3.81,0,0,0,.74,1.72,1.58,1.58,0,0,0,1.46.47,2.35,2.35,0,0,0,1.29-.75,5.41,5.41,0,0,0,1-2.62l-.22,0a8.27,8.27,0,0,0,1.28,2.13,3,3,0,0,0,2,1.06,2,2,0,0,0,1.06-.19,1.7,1.7,0,0,0,.71-.72,1.76,1.76,0,0,0,.21-.91,1.3,1.3,0,0,0-.34-.79l-.11.09a6.48,6.48,0,0,0,2.22,1.63,6.93,6.93,0,0,0,.69.26l.24.06s-.07,0-.23-.1-.38-.15-.66-.29a6.84,6.84,0,0,1-2.15-1.65l-.11.1a1.31,1.31,0,0,1,.09,1.52,1.5,1.5,0,0,1-.64.63,1.83,1.83,0,0,1-1,.17,2.87,2.87,0,0,1-1.87-1,8.7,8.7,0,0,1-1.22-2.09l-.15-.33-.07.36a5,5,0,0,1-.91,2.5,2,2,0,0,1-1.16.67,1.29,1.29,0,0,1-1.23-.4,3.49,3.49,0,0,1-.69-1.6,11.64,11.64,0,0,1-.25-1.73,28.42,28.42,0,0,1,0-3.34c.05-1.07.11-2.08.09-3a13.22,13.22,0,0,0-.33-2.64A7.3,7.3,0,0,0,306,96.13,4.11,4.11,0,0,0,304.84,95.26Z" style="fill:#455a64"/><path d="M273.23,105.6s0,0,.08.07l.26.19a3,3,0,0,0,.43.27,6.11,6.11,0,0,0,.63.32,9.06,9.06,0,0,0,4.4.74,11.67,11.67,0,0,0,6.17-2.35,20.18,20.18,0,0,0,5.24-6.19c.74-1.25,1.33-2.53,2-3.72a13.66,13.66,0,0,1,2.25-3.15A7,7,0,0,1,297.62,90a4.66,4.66,0,0,1,1.55-.2,5.41,5.41,0,0,1,1.43.26,5.82,5.82,0,0,1,2.16,1.26,5.66,5.66,0,0,1,1.17,1.49,7.33,7.33,0,0,1,.55,1.53.87.87,0,0,0,0-.11c0-.08,0-.19-.05-.31a5.43,5.43,0,0,0-.41-1.15,5.57,5.57,0,0,0-1.16-1.55,5.88,5.88,0,0,0-2.19-1.32,5.8,5.8,0,0,0-1.48-.29,5.07,5.07,0,0,0-1.62.2,7,7,0,0,0-3,1.86,13.52,13.52,0,0,0-2.31,3.19c-.66,1.19-1.26,2.47-2,3.71a20.18,20.18,0,0,1-5.18,6.13,11.52,11.52,0,0,1-6,2.36,9.17,9.17,0,0,1-4.35-.65A10.54,10.54,0,0,1,273.23,105.6Z" style="fill:#455a64"/><path d="M272.24,101.11a1.71,1.71,0,0,0,.37.25,8.7,8.7,0,0,0,1.1.54,11.09,11.09,0,0,0,1.73.55,13.36,13.36,0,0,0,2.21.27,12.88,12.88,0,0,0,2.22-.18,10.38,10.38,0,0,0,1.75-.48,8.56,8.56,0,0,0,1.11-.49c.26-.14.39-.22.38-.24s-.58.26-1.55.57a11.56,11.56,0,0,1-1.73.42,13.53,13.53,0,0,1-2.18.16,14.21,14.21,0,0,1-2.17-.25,11.94,11.94,0,0,1-1.71-.49C272.81,101.39,272.26,101.07,272.24,101.11Z" style="fill:#455a64"/><path d="M280.12,412.89l1.13,20.59s-20.55,8.06-20.71,11.88l40-.75-.44-32.15Z" style="fill:#455a64"/><path d="M293.59,431.51a1.63,1.63,0,0,1,1.16,1.84,1.55,1.55,0,0,1-1.81,1.17,1.72,1.72,0,0,1-1.23-2,1.63,1.63,0,0,1,2-1" style="fill:#e0e0e0"/><path d="M300.54,444.61l-.17-3.24-38.29,1.93s-1.76.81-1.54,2.06Z" style="fill:#263238"/><path d="M280.6,433.28c0,.2,1,.27,2,.88s1.5,1.42,1.68,1.34-.13-1.2-1.32-1.92S280.55,433.11,280.6,433.28Z" style="fill:#fff"/><path d="M276.44,435.1c0,.19.81.5,1.49,1.32s.88,1.68,1.08,1.67.3-1.12-.57-2.12S276.44,434.91,276.44,435.1Z" style="fill:#fff"/><path d="M274.15,440.16c.18,0,.43-.94-.09-2s-1.44-1.47-1.52-1.3.49.72.91,1.6S274,440.15,274.15,440.16Z" style="fill:#fff"/><path d="M280.86,428.56c.09.18,1-.11,2.09-.05s2,.38,2.07.21-.75-.85-2-.89S280.77,428.41,280.86,428.56Z" style="fill:#fff"/><path d="M321.93,409.15,324.09,434l-3.95,20.15a2.56,2.56,0,0,0,2.19,3h0a2.54,2.54,0,0,0,2.19-.8c3.57-3.89,16.61-18.26,16.35-20.07-.3-2.09-.54-26.36-.54-26.36Z" style="fill:#455a64"/><path d="M322.33,457.18l18.44-22.55.06,1.06a3.84,3.84,0,0,1-.75,2.55c-1.46,2-5.61,7.28-15.48,18.13a2.55,2.55,0,0,1-2.27.81Z" style="fill:#263238"/><g style="opacity:0.6000000000000001"><path d="M335.14,426.93a1.55,1.55,0,0,0-.29,2,1.48,1.48,0,0,0,2,.31,1.63,1.63,0,0,0,.3-2.16A1.55,1.55,0,0,0,335,427" style="fill:#fff"/></g><path d="M327.32,445.94a7.72,7.72,0,0,0-2.31-1.8,8.13,8.13,0,0,0-2.9-.37s.28-.27.85-.39a4.06,4.06,0,0,1,2.26.25,3.93,3.93,0,0,1,1.77,1.42C327.32,445.55,327.38,445.91,327.32,445.94Z" style="fill:#fff"/><path d="M325.76,449.38a22.6,22.6,0,0,0-2.27-.93,20.78,20.78,0,0,0-2.46-.15,2.82,2.82,0,0,1,2.58-.38C325.1,448.25,325.88,449.31,325.76,449.38Z" style="fill:#fff"/><path d="M330.35,441.45a26.16,26.16,0,0,0-3.42-1.67,23.73,23.73,0,0,0-3.74-.62,5.61,5.61,0,0,1,3.91.1A5.69,5.69,0,0,1,330.35,441.45Z" style="fill:#fff"/><path d="M330.32,433.84c-.06.15-1.47-.33-3.26-.28s-3.19.57-3.25.42a4.9,4.9,0,0,1,3.23-1A5,5,0,0,1,330.32,433.84Z" style="fill:#fff"/><path d="M329.87,426.53a12.61,12.61,0,0,0-3.39-.38,12.24,12.24,0,0,0-3.25,1c0-.05.21-.38.76-.75a5.46,5.46,0,0,1,2.43-.84A5.36,5.36,0,0,1,329,426C329.59,426.2,329.9,426.47,329.87,426.53Z" style="fill:#fff"/><path d="M326.43,424.75a2.16,2.16,0,0,1-.09-.94,6.55,6.55,0,0,1,.59-2.51,3,3,0,0,1,1.15-1.47,1,1,0,0,1,1.17.16,1.62,1.62,0,0,1,.47,1.1,3.6,3.6,0,0,1-3,3.53,4.17,4.17,0,0,1-4.24-1.92,1.43,1.43,0,0,1-.15-1.2,1,1,0,0,1,1-.6,3.52,3.52,0,0,1,1.69.75,7.25,7.25,0,0,1,1.83,1.82,2.11,2.11,0,0,1,.43.84,11.14,11.14,0,0,0-2.47-2.34,3.36,3.36,0,0,0-1.5-.62.53.53,0,0,0-.55.33,1,1,0,0,0,.14.78,3.75,3.75,0,0,0,3.7,1.63,3.16,3.16,0,0,0,2.55-3,1.2,1.2,0,0,0-.3-.78.56.56,0,0,0-.64-.1,2.65,2.65,0,0,0-1,1.23A9.74,9.74,0,0,0,326.43,424.75Z" style="fill:#fff"/><path d="M262.68,254.16S256,264.64,257,277.54c.38,5,17.9,151.25,17.9,151.25l29.87.24L294.53,291l1.86.41S306,341.46,307,350.42c.91,8.06,10.81,78.2,10.81,78.2l25.27.3-4.79-80.8-4.06-75.37-9.54-23.58Z" style="fill:#FF725E"/><polygon points="326.08 157.01 313.01 152.59 289.04 153.69 278.09 158.92 295.11 193.73 306.31 192.09 326.08 157.01" style="fill:#ffbf9d"/><path d="M239.81,208s16.35-43.49,18.31-44.28c3.93-1.59,29.43-11.47,29.43-11.47l11.81,11.38,14.78-10.94s24.38,5.61,25.53,8.79-8.23,58.45-8.23,58.45,3.91,31.19,3.6,45.14l3.48,14.46-84,.22s1.91-28.39,5.1-54.13l1.92-22.76-1.25,14.88Z" style="fill:#FF725E"/><path d="M264.7,168.06a2.11,2.11,0,0,0-.1.47c-.05.37-.12.82-.2,1.38-.17,1.2-.39,2.94-.64,5.09-.51,4.3-1.11,10.25-1.64,16.84s-.88,12.55-1.1,16.88c-.1,2.12-.17,3.85-.23,5.12,0,.57,0,1,0,1.39a2.66,2.66,0,0,0,0,.49,1.65,1.65,0,0,0,.07-.48c0-.37.07-.83.12-1.39.09-1.27.21-3,.36-5.11.3-4.32.7-10.29,1.23-16.87s1.08-12.53,1.51-16.84c.21-2.11.38-3.84.51-5.1.05-.56.09-1,.12-1.39A1.76,1.76,0,0,0,264.7,168.06Z" style="fill:#263238"/><path d="M332.42,158.15l4.05,1.16a15.55,15.55,0,0,1,11.12,11.95l7.55,42.45-23.91,8.66L323,215.92Z" style="fill:#FF725E"/><path d="M255,271.16l.2,0,.57.1,2.2.36c1.9.31,4.67.73,8.1,1a36.37,36.37,0,0,0,5.62,0,11.19,11.19,0,0,0,1.51-.21c.26,0,.52-.09.77-.16l.74-.25c1-.28,1.56-1.33,2-2.32a19.16,19.16,0,0,0,1-3.32c.26-1.15.47-2.35.64-3.58.35-2.45.57-5,.73-7.64.34-5.74.39-11.2.31-16l.2.2-16-.34-4.53-.12-1.2-.05-.42,0a1.5,1.5,0,0,1,.42,0h5.74l16,.17h.2v.19c.11,4.85.08,10.31-.26,16.07-.17,2.63-.39,5.2-.75,7.67-.18,1.24-.39,2.45-.66,3.62a19,19,0,0,1-1.05,3.38,7.27,7.27,0,0,1-.86,1.51,5.18,5.18,0,0,1-.61.63,3,3,0,0,1-.78.39l-.78.25c-.27.07-.53.11-.79.16a12.39,12.39,0,0,1-1.56.21,36.61,36.61,0,0,1-5.67-.05,75.26,75.26,0,0,1-8.11-1.12c-1-.17-1.69-.33-2.19-.45l-.56-.13Z" style="fill:#263238"/><path d="M279.34,244.69c0,.12-5.09.22-11.37.22s-11.38-.1-11.38-.22,5.1-.22,11.38-.22S279.34,244.56,279.34,244.69Z" style="fill:#263238"/><path d="M329.33,279.76c0,.12-16.48.22-36.82.22s-36.82-.1-36.82-.22,16.48-.22,36.82-.22S329.33,279.64,329.33,279.76Z" style="fill:#263238"/><rect x="307.67" y="193.73" width="16.62" height="11.84" transform="translate(631.95 399.29) rotate(180)" style="fill:#fff"/><path d="M318.23,200.15a1.83,1.83,0,1,0,1.83-1.82A1.82,1.82,0,0,0,318.23,200.15Z" style="fill:#e0e0e0"/><rect x="310.08" y="199.4" width="6.79" height="1.17" rx="0.45" transform="translate(626.94 399.98) rotate(180)" style="fill:#e0e0e0"/><polyline points="316.99 195.56 318.36 191.89 313.59 191.89 314.75 195.56 316.99 195.56" style="fill:#263238"/><path d="M287.43,189.86a2,2,0,0,0,.18.42l.59,1.16c.51,1,1.32,2.43,2.37,4.15s2.37,3.74,3.93,5.9,3.4,4.46,5.43,6.78,4.12,4.4,6.06,6.23,3.79,3.38,5.38,4.63,2.9,2.22,3.83,2.86l1.08.72c.25.17.38.25.39.23a2.18,2.18,0,0,0-.34-.3l-1-.79c-.9-.67-2.19-1.68-3.74-3s-3.36-2.86-5.29-4.68-4-3.93-6-6.22-3.85-4.6-5.44-6.73-2.93-4.13-4-5.83-1.92-3.09-2.47-4.07l-.67-1.12A2.63,2.63,0,0,0,287.43,189.86Z" style="fill:#263238"/><path d="M311.8,244.32a3,3,0,0,0-.38-.46l-1.15-1.25c-.51-.53-1.13-1.2-1.82-2s-1.51-1.66-2.36-2.67c-1.73-2-3.72-4.43-5.84-7.2s-4.33-5.91-6.52-9.29-4.11-6.71-5.78-9.78-3-5.89-4.14-8.3c-.57-1.19-1-2.29-1.46-3.25s-.77-1.79-1.05-2.47l-.67-1.57a2.38,2.38,0,0,0-.26-.54,3.64,3.64,0,0,0,.18.57l.59,1.6c.26.69.58,1.54,1,2.51s.85,2.08,1.41,3.28c1.06,2.42,2.44,5.26,4.07,8.36s3.58,6.42,5.76,9.82,4.44,6.52,6.56,9.3,4.17,5.19,5.93,7.16c.87,1,1.7,1.86,2.41,2.63s1.35,1.42,1.88,1.94l1.21,1.19A3.51,3.51,0,0,0,311.8,244.32Z" style="fill:#263238"/><path d="M338.54,175.08c-.12,0-2,11.35-4.21,25.38s-3.91,25.44-3.79,25.46,2-11.35,4.21-25.39S338.66,175.1,338.54,175.08Z" style="fill:#263238"/><path d="M333.82,308.9A1.38,1.38,0,0,0,336,309c.55-.51,1.13-6.1,1.13-6.1l1.3-7.48-.23,14.24s.15,1.35,1.2,1.4,1.77-1.51,1.77-1.51l1.53-14.67s-.49,8.16.05,8.58c.74.57,1.41.39,1.65-.24.49-1.27,1.2-8.61,1.2-8.61l.68-14,.71-6.73L334,273.07l-.59,4s-5.16,3.9-6.29,5.44-3.94,7-6,8.63a1.58,1.58,0,0,0,2.5,1.07,18.1,18.1,0,0,0,5.45-4.73c.88-1.34,1.8-.56,1.85.61s-.95,9.08-.95,9.08-2.48,8.79-1.81,9.78a1.6,1.6,0,0,0,2.51.12c.34-.46,3.12-7.81,3.12-7.81" style="fill:#ffbf9d"/><path d="M347.55,216.49s.89,27.7,1,32.06c.16,6.75-1.75,26.59-1.75,26.59l-13.41,1.92-.46-55.28Z" style="fill:#ffbf9d"/><path d="M197.42,211.38a9.82,9.82,0,0,1-2.73-1.81,2.62,2.62,0,0,1-.3-2.66l2.46.89a3.82,3.82,0,0,1-2-1.55,1.55,1.55,0,0,1,.23-2.25s4.27,1.71,5.95,2.25c.23.17,8.93,3.49,9.39,4l8.1,8.69,11.95-2.72,1.07,16.36s-15.07-1.55-17.61-2.29-9.11-7-9.11-7l-3-3.95-5.29-2.93c-.91-.64-1.86-1.8-1-2.94h0c-1.67-1.07-.8-3.18-.8-3.18Z" style="fill:#455a64"/><path d="M204.11,212.62a6.4,6.4,0,0,0,1.43-1l.19-.14-.21-.11a51.34,51.34,0,0,0-4.63-2.25c-1.75-.76-3.36-1.36-4.54-1.74a7.35,7.35,0,0,0-2-.5,10.12,10.12,0,0,0,1.84.81c1.15.46,2.73,1.11,4.47,1.86s3.55,1.58,4.67,2.09l0-.26A6.86,6.86,0,0,0,204.11,212.62Z" style="fill:#263238"/><path d="M200.44,212.62a10.78,10.78,0,0,0-2.78-1.4,10.61,10.61,0,0,0-3-1,10.75,10.75,0,0,0,2.79,1.4A10.5,10.5,0,0,0,200.44,212.62Z" style="fill:#263238"/><rect x="174.69" y="242.09" width="7.14" height="189.65" style="fill:#e0e0e0"/><path d="M181.83,431.74s0-.34,0-1,0-1.62,0-2.87c0-2.53,0-6.23,0-11,0-9.56,0-23.38-.08-40.51,0-34.21-.07-81.58-.11-134.27l.26.26h-7.14l.26-.26c0,91.39-.08,168.21-.19,189.65l-.07-.07,5.39,0,1.75,0s-.54,0-1.71,0l-5.43,0h-.06v-.07c-.11-21.44-.2-98.26-.2-189.65v-.26h7.66v.26c0,52.76-.08,100.2-.1,134.47,0,17.09-.07,30.9-.08,40.44,0,4.75,0,8.44,0,10.95,0,1.24,0,2.19,0,2.84S181.83,431.74,181.83,431.74Z" style="fill:#263238"/><path d="M152.2,434.53h55.29a4.34,4.34,0,0,0-4.34-4.35h-46.6a4.35,4.35,0,0,0-4.35,4.35Z" style="fill:#e0e0e0"/><path d="M197.94,438.54a6.19,6.19,0,1,0,6.18-6.18A6.18,6.18,0,0,0,197.94,438.54Z" style="fill:#263238"/><path d="M146.5,438.54a6.18,6.18,0,1,0,6.18-6.18A6.18,6.18,0,0,0,146.5,438.54Z" style="fill:#263238"/><circle cx="179.85" cy="438.58" r="6.18" style="fill:#263238"/><rect x="152.99" y="175.26" width="54.45" height="67.43" transform="translate(360.43 417.96) rotate(180)" style="fill:#e0e0e0"/><rect x="168.97" y="175.26" width="38.47" height="67.57" transform="translate(376.41 418.09) rotate(180)" style="fill:#f5f5f5"/><rect x="173.86" y="181.78" width="28.73" height="28.73" style="fill:#fff"/><path d="M173.86,210.52a3.28,3.28,0,0,1,0-.51c0-.38,0-.88,0-1.51,0-1.38,0-3.34-.06-5.81,0-5.09-.08-12.29-.13-20.91v-.24h.25l28.73,0,.28.29h0v7.72c0,2.54,0,5,0,7.43,0,4.82,0,9.38,0,13.56v.24h-.24l-20.91-.12-5.81-.07-1.51,0-.5,0a3.93,3.93,0,0,1,.55,0l1.56,0,5.87-.06,20.75-.13-.25.25c0-4.18,0-8.74,0-13.56q0-3.61,0-7.43v-7.72h0l.28.28-28.73,0,.24-.25c0,8.56-.09,15.7-.12,20.75,0,2.5,0,4.47-.07,5.87q0,1,0,1.56C173.87,210.32,173.86,210.51,173.86,210.52Z" style="fill:#263238"/><path d="M153.92,175.26c0-.15,12-.28,26.69-.28s26.68.13,26.68.28-11.94.29-26.68.29S153.92,175.42,153.92,175.26Z" style="fill:#263238"/><path d="M153,242.7c-.15,0-.28-15-.28-33.46s.13-33.47.28-33.47.28,15,.28,33.47S153.14,242.7,153,242.7Z" style="fill:#263238"/><path d="M169,242.7c-.16,0-.28-15-.28-33.46s.12-33.47.28-33.47.28,15,.28,33.47S169.13,242.7,169,242.7Z" style="fill:#263238"/><rect x="198.18" y="216.11" width="4.41" height="4.41" transform="translate(400.77 436.62) rotate(180)" style="fill:#455a64"/><rect x="192.1" y="216.11" width="4.41" height="4.41" transform="translate(388.61 436.62) rotate(180)" style="fill:#455a64"/><rect x="186.02" y="216.11" width="4.41" height="4.41" transform="translate(376.44 436.62) rotate(180)" style="fill:#455a64"/><rect x="179.94" y="216.11" width="4.41" height="4.41" transform="translate(364.28 436.62) rotate(180)" style="fill:#455a64"/><rect x="173.86" y="216.11" width="4.41" height="4.41" transform="translate(352.12 436.62) rotate(180)" style="fill:#455a64"/><rect x="198.18" y="221.95" width="4.41" height="4.41" transform="translate(400.77 448.3) rotate(180)" style="fill:#455a64"/><rect x="192.1" y="221.95" width="4.41" height="4.41" transform="translate(388.61 448.3) rotate(180)" style="fill:#455a64"/><rect x="186.02" y="221.95" width="4.41" height="4.41" transform="translate(376.44 448.3) rotate(180)" style="fill:#455a64"/><rect x="179.94" y="221.95" width="4.41" height="4.41" transform="translate(364.28 448.3) rotate(180)" style="fill:#455a64"/><rect x="173.86" y="221.95" width="4.41" height="4.41" transform="translate(352.12 448.3) rotate(180)" style="fill:#455a64"/><rect x="198.18" y="227.79" width="4.41" height="4.41" transform="translate(400.77 459.98) rotate(180)" style="fill:#455a64"/><rect x="192.1" y="227.79" width="4.41" height="4.41" transform="translate(388.61 459.98) rotate(180)" style="fill:#455a64"/><rect x="186.02" y="227.79" width="4.41" height="4.41" transform="translate(376.44 459.98) rotate(180)" style="fill:#455a64"/><rect x="173.86" y="227.79" width="10.49" height="4.41" transform="translate(358.2 459.98) rotate(180)" style="fill:#FF725E"/><path d="M175.3,196.62s.15-.07.47-.14.77-.16,1.37-.24a8.33,8.33,0,0,1,2.24,0A4.65,4.65,0,0,1,182,197.6a3.42,3.42,0,0,1,.82,1.58,7.91,7.91,0,0,1,.12,1.89,12.31,12.31,0,0,0,0,1.92,3.42,3.42,0,0,0,.81,1.73,1.43,1.43,0,0,0,1.68.41,2.9,2.9,0,0,0,1.3-1.57,18.68,18.68,0,0,0,1.1-4.59c.22-1.62,0-3.2.18-4.81a4,4,0,0,1,2.7-3.63,2.54,2.54,0,0,1,2.17.55,4.73,4.73,0,0,1,1.22,1.66c.52,1.22.7,2.39,1.19,3.32a4.31,4.31,0,0,0,2,1.89,4.91,4.91,0,0,0,2.07.46,6.24,6.24,0,0,0,1.81-.33s-.13.11-.42.24a3.91,3.91,0,0,1-1.38.31,4.73,4.73,0,0,1-2.21-.4,4.47,4.47,0,0,1-2.22-2c-.55-1-.76-2.19-1.27-3.3a4.09,4.09,0,0,0-1.11-1.47,2,2,0,0,0-1.74-.43,2.85,2.85,0,0,0-1.57,1.17,4.34,4.34,0,0,0-.69,2c-.15,1.48.05,3.14-.17,4.8a19,19,0,0,1-1.15,4.75,3.42,3.42,0,0,1-1.59,1.85,2,2,0,0,1-2.29-.55,4,4,0,0,1-.91-2,11.27,11.27,0,0,1,0-2,4.18,4.18,0,0,0-.78-3.19,4.3,4.3,0,0,0-2.42-1.3,7.74,7.74,0,0,0-2.15-.1C176,196.56,175.3,196.67,175.3,196.62Z" style="fill:#FF725E"/><rect x="155.68" y="279.27" width="49.03" height="11.99" style="fill:#e0e0e0"/><path d="M170.61,291.11a57,57,0,0,1,0-10.88,57,57,0,0,1,0,10.88Z" style="fill:#263238"/><path d="M204.19,279.26c0,.15-10.87.26-24.27.26s-24.27-.11-24.27-.26,10.87-.26,24.27-.26S204.19,279.12,204.19,279.26Z" style="fill:#263238"/><path d="M205.33,291.52c0,.14-11.25.26-25.11.26s-25.12-.12-25.12-.26,11.24-.26,25.12-.26S205.33,291.37,205.33,291.52Z" style="fill:#263238"/><path d="M210.35,216.73l-4.72-3.38-8.33-.48a4,4,0,0,0,2.3,3.11c2,.72,5.05,1.69,5.05,1.69s-.39,7.22,4.21,7.71l2.85-3.14Z" style="fill:#455a64"/><path d="M208.86,225.38a19.55,19.55,0,0,1-2.05-1.52,6.74,6.74,0,0,1-1.61-2.35,6.83,6.83,0,0,1-.41-3.59l0-.19-.17-.06-3.32-1.06a13.65,13.65,0,0,1-1.73-.63,3.85,3.85,0,0,1-1.41-1.15,2.6,2.6,0,0,1-.44-1.85l-.23.18,8.11.19-.11,0L209.3,216l1,.72a1.64,1.64,0,0,0,.38.23,8.4,8.4,0,0,0-1.31-1.12c-.86-.69-2.12-1.65-3.68-2.82l0,0h-.06l-8.11-.29h-.2l0,.19a3,3,0,0,0,.51,2.23,5.9,5.9,0,0,0,3.38,1.94l3.33,1-.14-.24a7,7,0,0,0,.5,3.82,6.66,6.66,0,0,0,1.76,2.39l.45.38.44.29a3.9,3.9,0,0,0,.7.41C208.63,225.31,208.85,225.41,208.86,225.38Z" style="fill:#263238"/></g><g id="freepik--character-1--inject-33"><circle cx="139.57" cy="452.7" r="12.65" transform="matrix(0.65, -0.76, 0.76, 0.65, -294.08, 262)" style="fill:#263238"/><path d="M147,447.87l.21-23.27H124.59l-.22,20.09a5,5,0,0,0,5,5h1.84a8.67,8.67,0,0,0-.48,3.82,9,9,0,0,0,8.94,8A8.83,8.83,0,0,0,147,447.87Z" style="fill:#e0e0e0"/><path d="M143.25,452.7a3.69,3.69,0,1,1-3.68-3.69A3.68,3.68,0,0,1,143.25,452.7Z" style="fill:#455a64"/><path d="M439.2,368.2h0a7.67,7.67,0,0,1-7.67-7.72l.74-105.81a7.67,7.67,0,0,1,7.67-7.61h0a7.67,7.67,0,0,1,7.67,7.72l-.75,105.8A7.66,7.66,0,0,1,439.2,368.2Z" style="fill:#e0e0e0"/><path d="M439.2,368.2a9.18,9.18,0,0,0,2.57-.51,7.67,7.67,0,0,0,2.66-1.67,7.57,7.57,0,0,0,2.11-3.7,10,10,0,0,0,.22-2.56c0-.91,0-1.87,0-2.87q0-3,0-6.5c0-4.68,0-10,.07-15.87.07-11.75.15-25.75.24-41.28,0-7.77.1-15.92.15-24.38q0-6.35.09-12.89a11,11,0,0,0-.26-3.2,7.19,7.19,0,0,0-1.47-2.8,7.4,7.4,0,0,0-11.34,0,7.29,7.29,0,0,0-1.47,2.81,12,12,0,0,0-.28,3.19q0,6.55-.09,12.9c-.07,8.46-.13,16.61-.19,24.38-.13,15.54-.24,29.53-.34,41.29-.06,5.87-.11,11.19-.15,15.86q0,3.5-.07,6.51c0,1,0,2,0,2.86a9.2,9.2,0,0,0,.21,2.56A7.41,7.41,0,0,0,434,366a7.52,7.52,0,0,0,2.66,1.67,9.18,9.18,0,0,0,2.57.51h-.67a7.07,7.07,0,0,1-1.93-.4,7.66,7.66,0,0,1-2.74-1.66,7.26,7.26,0,0,1-1.3-1.6,7.12,7.12,0,0,1-.9-2.16,9.62,9.62,0,0,1-.24-2.61c0-.91,0-1.87,0-2.87q0-3,0-6.5c0-4.67,0-10,.07-15.86.07-11.76.15-25.75.23-41.29.05-7.77.11-15.93.16-24.38q0-6.35.09-12.9a11.8,11.8,0,0,1,.29-3.33,7.92,7.92,0,0,1,13.71-3,7.83,7.83,0,0,1,1.57,3,11.47,11.47,0,0,1,.28,3.33q-.06,6.55-.1,12.89c-.06,8.46-.12,16.61-.18,24.38-.13,15.54-.25,29.53-.35,41.29-.05,5.87-.1,11.19-.15,15.86q0,3.5-.07,6.5c0,1,0,2,0,2.87a10.07,10.07,0,0,1-.24,2.61,7.69,7.69,0,0,1-4.94,5.42,7.14,7.14,0,0,1-1.93.4Z" style="fill:#263238"/><rect x="443.52" y="336.65" width="12.39" height="35.21" style="fill:#455a64"/><rect x="73.67" y="411.81" width="328.3" height="10.74" style="fill:#e0e0e0"/><path d="M402,422.55s0-.87,0-2.63,0-4.45,0-8.11l.06.06-328.28.2h0l.26-.26v10.74l-.26-.26,232.47.1,70.13.08,19,0,5,0c1.12,0,1.7,0,1.7,0h-1.66l-4.92,0-19,0-70.07.08-232.66.11h-.26V411.54h.28l328.28.2H402v.07c0,3.68,0,6.36,0,8.14S402,422.55,402,422.55Z" style="fill:#263238"/><rect x="121.32" y="373.78" width="11.19" height="35.98" style="fill:#e0e0e0"/><path d="M132.51,409.76s0-.26,0-.73,0-1.18,0-2c0-1.81,0-4.37-.07-7.55,0-6.43-.07-15.38-.12-25.66l.25.26H121.33c.51-.52.14-.13.25-.25h0v10.53c0,3.39,0,6.64,0,9.7,0,6.1,0,11.47-.07,15.73l-.17-.17,8.19.1,2.21,0,.79,0a7.13,7.13,0,0,1-.72,0l-2.18,0-8.29.09h-.16v-.17c0-4.26,0-9.63-.07-15.73,0-3.06,0-6.31,0-9.7,0-1.69,0-3.42,0-5.18V373.8h0c.12-.12-.26.25.27-.27h11.44v.25c-.05,10.35-.09,19.36-.12,25.83,0,3.16-.06,5.7-.07,7.5,0,.83,0,1.49,0,2A5.37,5.37,0,0,1,132.51,409.76Z" style="fill:#263238"/><rect x="112.97" y="407.43" width="45.82" height="19.5" style="fill:#e0e0e0"/><path d="M158.8,426.93a1.61,1.61,0,0,1,0-.37c0-.26,0-.59,0-1,0-.93,0-2.23,0-3.9,0-3.39-.06-8.24-.1-14.21l.19.18-45.83.08.26-.26h0v10c0,3.27,0,6.43,0,9.47l-.25-.25,32.81.12,9.54.06,2.57,0h.67l.24,0h-.21l-.64,0-2.52,0-9.48.07-33,.11h-.25v-.25q0-4.56,0-9.47v-10h0c-.06.05.5-.5.26-.27l45.83.08H159v.19c0,6-.08,10.9-.1,14.32,0,1.65,0,2.94,0,3.86,0,.41,0,.74,0,1S158.8,426.93,158.8,426.93Z" style="fill:#263238"/><circle cx="382.92" cy="453.64" r="12.65" transform="translate(-93.53 99.51) rotate(-13.21)" style="fill:#263238"/><path d="M375.52,448.81V424.6h22.59v21a5,5,0,0,1-5,5h-1.84a8.82,8.82,0,0,1,.48,3.82,9,9,0,0,1-8.94,8,8.84,8.84,0,0,1-7.26-13.67Z" style="fill:#e0e0e0"/><path d="M379.24,453.64a3.68,3.68,0,1,0,3.68-3.69A3.68,3.68,0,0,0,379.24,453.64Z" style="fill:#455a64"/><rect x="356.16" y="406.86" width="45.82" height="19.5" style="fill:#e0e0e0"/><path d="M356.16,426.37a1.19,1.19,0,0,1,0-.33c0-.25,0-.58,0-1,0-.92,0-2.21-.05-3.86,0-3.42-.06-8.3-.1-14.33v-.18h.19L402,406.6c-.23-.23.32.32.26.27h0v10q0,4.91,0,9.47v.25H402l-33-.11-9.48-.07-2.52,0-.64,0h-.2l.23,0h.67l2.57,0,9.54-.06,32.81-.12-.25.25q0-4.56,0-9.47v-10h0l.26.26-45.82-.08.18-.19c0,6-.07,10.83-.1,14.22,0,1.67,0,3,0,3.9,0,.43,0,.76,0,1S356.16,426.36,356.16,426.37Z" style="fill:#263238"/><path d="M157.65,338.23,35.28,223a9.39,9.39,0,1,0-12.87,13.67L144.1,351.25c2.73,2.58,6.46,2.68,9.87,2.44H433.21V338.23Z" style="fill:#e0e0e0"/><path d="M157.65,338.23l1.31,0h3.86l15,0,56.56-.07L433.21,338h.23v.23c0,4.78,0,10.1,0,15.46v.24h-.24l-181.66,0H156.28c-1,0-1.93,0-2.88,0a25.5,25.5,0,0,1-2.9,0,10.94,10.94,0,0,1-5.54-1.72,20.07,20.07,0,0,1-2.17-1.9l-2.08-2-4.13-3.89-16.34-15.38q-16.15-15.22-31.62-29.77L30.17,244.31l-6.8-6.41a12.55,12.55,0,0,1-3-3.55,9.61,9.61,0,0,1,3-12.34,9.64,9.64,0,0,1,12.35,1.17l3.13,2.95L45,232,57,243.2l73.69,69.48c8.69,8.22,15.45,14.59,20,18.92l5.2,4.93c1.18,1.12,1.77,1.7,1.77,1.7s-.61-.55-1.79-1.65l-5.22-4.88-20.08-18.84L56.73,243.49l-12-11.25-6.18-5.82-3.14-2.95a9.21,9.21,0,0,0-11.84-1.13,9.19,9.19,0,0,0-3.92,7.52,9,9,0,0,0,1.05,4.29,12.14,12.14,0,0,0,2.93,3.44L30.47,244,89,299l31.64,29.76,16.33,15.37,4.14,3.89,2.07,2a20.19,20.19,0,0,0,2.12,1.85,10.38,10.38,0,0,0,5.28,1.63,22.43,22.43,0,0,0,2.84,0c1-.07,1.93,0,2.89,0h95.28l181.67,0-.25.24c0-5.36,0-10.68,0-15.46l.24.24-198.9-.1-56.54-.07-15,0-3.85,0Z" style="fill:#263238"/><path d="M91.82,206a58.14,58.14,0,0,0-46.74-17.18c5.16,19.68,14,37.49,29,51.18A59.23,59.23,0,0,0,89.3,250.46a31.74,31.74,0,0,0,18.1,2.79A58.17,58.17,0,0,0,91.82,206Z" style="fill:#455a64"/><path d="M106.69,252.24l-.21-.11-.57-.34c-.5-.32-1.25-.76-2.17-1.4a90.56,90.56,0,0,1-7.56-5.72A126.91,126.91,0,0,1,86,235c-3.67-3.81-7.5-8.2-11.42-12.88l-11-13.26c-3.4-4-6.54-7.62-9.27-10.54s-5-5.2-6.65-6.74c-.8-.78-1.45-1.36-1.87-1.77l-.48-.46c-.1-.11-.16-.17-.15-.18a1,1,0,0,1,.19.14l.51.42c.45.39,1.12.94,1.94,1.7,1.67,1.5,4,3.75,6.77,6.64s6,6.45,9.37,10.49,7.11,8.54,11,13.22,7.72,9.07,11.36,12.89a138.26,138.26,0,0,0,10.13,9.71c3,2.59,5.61,4.55,7.44,5.84.9.66,1.63,1.12,2.11,1.47l.54.39A.94.94,0,0,1,106.69,252.24Z" style="fill:#263238"/><path d="M118,200.49a8.55,8.55,0,0,0-3.57-8.44c-.3-.2-.64-.41-.74-.76a1.53,1.53,0,0,1,.12-.91,6.34,6.34,0,0,0-.42-5,4.88,4.88,0,0,0-4.19-2.52c1.18-2.36-.39-5.51-2.88-6.4a6.59,6.59,0,0,0-7.07,2.24,3.75,3.75,0,0,0-3.49-2.82,7.42,7.42,0,0,0-4.5,1.45c-1.8,1.2-3.47,3.14-3.11,5.28-1-.88-2.57-.61-3.72,0A7.25,7.25,0,0,0,81.73,192,6.58,6.58,0,0,0,78,193.47a3.09,3.09,0,0,0-.74,3.7,4,4,0,0,0-3.71,1,4.87,4.87,0,0,0-1.72,2.27,2.38,2.38,0,0,0,.77,2.61A3.78,3.78,0,0,0,75,210.22a4.83,4.83,0,0,0,5.45,6.15,1.32,1.32,0,0,0,.7,2,2.59,2.59,0,0,0,2.29-.52l5.12,6.72a17.05,17.05,0,0,0,3.72,3.95,5.86,5.86,0,0,0,5.15,1" style="fill:#263238"/><path d="M113,194.05c-4.41-5.2-14.34-6.28-19.32-1.67L78.63,208.82l2.24,2.89L114,249.16l24.33-4-12.68-16.56s6.08-6.33.73-16.5C123.68,207.08,117.92,199.83,113,194.05Z" style="fill:#ffbf9d"/><path d="M116.45,203.74a1.45,1.45,0,0,1-.24,2,1.39,1.39,0,0,1-2-.15,1.45,1.45,0,0,1,.24-2A1.39,1.39,0,0,1,116.45,203.74Z" style="fill:#263238"/><path d="M114.29,199.1c0,.26-1.4.27-2.65,1.2s-1.69,2.25-1.94,2.19-.18-.4,0-1a4,4,0,0,1,1.42-1.94,3.73,3.73,0,0,1,2.25-.76C114,198.81,114.31,199,114.29,199.1Z" style="fill:#263238"/><path d="M105.82,212.49a1.44,1.44,0,0,1-.24,2,1.39,1.39,0,0,1-2-.16,1.45,1.45,0,0,1,.24-2A1.39,1.39,0,0,1,105.82,212.49Z" style="fill:#263238"/><path d="M102.41,208.74c0,.26-1.4.26-2.65,1.2s-1.69,2.24-1.94,2.19-.18-.4,0-1a4,4,0,0,1,1.42-1.95,3.87,3.87,0,0,1,2.25-.76C102.09,208.44,102.43,208.62,102.41,208.74Z" style="fill:#263238"/><path d="M113.66,214.42a10.2,10.2,0,0,1,1.76-1.88c.29-.27.55-.56.44-.82s-.49-.53-.92-.79l-2.77-1.74c-3.91-2.49-7-4.64-6.89-4.8s3.35,1.74,7.26,4.24l2.73,1.78c.4.28.91.53,1.11,1.13a1,1,0,0,1-.18.86,2.17,2.17,0,0,1-.48.48A9.78,9.78,0,0,1,113.66,214.42Z" style="fill:#263238"/><path d="M125.61,228.63a28.7,28.7,0,0,1-14.56,5.79s8.2,4.51,16.63-3.09Z" style="fill:#ff9a6c"/><path d="M115.39,217.84a2.84,2.84,0,0,0-2.65.66,2.63,2.63,0,0,0-.85,1.83,1.66,1.66,0,0,0,1,1.57,1.88,1.88,0,0,0,2-.81,5.94,5.94,0,0,0,.89-2.15,2,2,0,0,0,.08-.63.54.54,0,0,0-.35-.47" style="fill:#ff9a6c"/><path d="M110.63,218c.19-.16,1.21,1.2,3.1,1.3s3.21-1.13,3.37-.94-.13.5-.73,1a4.18,4.18,0,0,1-2.75.87,3.69,3.69,0,0,1-2.51-1.16C110.63,218.54,110.53,218.09,110.63,218Z" style="fill:#263238"/><path d="M99.44,204c.13.43-1.24,1.2-2.57,2.47s-2.22,2.55-2.65,2.39c-.19-.08-.23-.55,0-1.24a6.1,6.1,0,0,1,1.56-2.32,5.93,5.93,0,0,1,2.42-1.39C98.9,203.71,99.37,203.77,99.44,204Z" style="fill:#263238"/><path d="M111.12,195.82c0,.44-1.09.79-2.14,1.55s-1.77,1.61-2.19,1.47c-.2-.08-.27-.47-.09-1a3.79,3.79,0,0,1,3.49-2.43C110.77,195.4,111.11,195.6,111.12,195.82Z" style="fill:#263238"/><path d="M101.46,186.36a5.49,5.49,0,0,1-2.13,10,2.13,2.13,0,0,1,1.65,2.3,4,4,0,0,1-1.55,2.61,7.63,7.63,0,0,1-6.13,1.66,5.55,5.55,0,0,1-3.73,8.19,5.1,5.1,0,1,1-3.84,9,5.73,5.73,0,0,1-7.07-5.72,3.44,3.44,0,0,1-3.32-.81,6.89,6.89,0,0,1-1.82-3.05,10.9,10.9,0,0,1,.39-8.52,7.29,7.29,0,0,1,7.21-3.94,1.6,1.6,0,0,0,1,0,1.42,1.42,0,0,0,.55-1.17c.23-2,.45-4.1,1.67-5.68a5.36,5.36,0,0,1,6.52-1.41,6.24,6.24,0,0,1,3.63-6.52c2.5-1,5.79.62,6.25,3.26" style="fill:#263238"/><path d="M91.53,218.5a24.54,24.54,0,0,1,3,6.21,3,3,0,0,1-.13,2.79,2.09,2.09,0,0,1-2.46.33A5.51,5.51,0,0,1,90,226a70.37,70.37,0,0,1-4.86-8.15" style="fill:#263238"/><path d="M90.62,221.41c-.15,0-5.77,1.81-2.38,6.5s7.39.35,7.3.21S90.62,221.41,90.62,221.41Z" style="fill:#ffbf9d"/><path d="M92.83,227.37s0,.11-.13.28a1,1,0,0,1-.6.45A2.53,2.53,0,0,1,89.85,227a3.26,3.26,0,0,1-.61-1.33,1.14,1.14,0,0,1,.16-1.07.5.5,0,0,1,.64-.12c.16.08.19.2.22.19s0-.15-.13-.32a.64.64,0,0,0-.4-.16.77.77,0,0,0-.53.2,1.42,1.42,0,0,0-.33,1.35,3.42,3.42,0,0,0,.66,1.51,2.65,2.65,0,0,0,2.66,1.17,1.06,1.06,0,0,0,.65-.66C92.9,227.49,92.85,227.37,92.83,227.37Z" style="fill:#ff9a6c"/><path d="M92.39,202.17l.17-.07.48-.26a7.77,7.77,0,0,0,1.63-1.22,5.26,5.26,0,0,0,.91-1.16,4,4,0,0,0,.58-1.63,4.16,4.16,0,0,0-.23-2,3.15,3.15,0,0,0-1.45-1.66l0,.24A7.51,7.51,0,0,0,99,192.8a7.41,7.41,0,0,0,1.78-2,4.37,4.37,0,0,0,.55-1.29,2.56,2.56,0,0,0,0-1.45,3.89,3.89,0,0,0-.89-1.43,11,11,0,0,0-1.21-1.08,5.25,5.25,0,0,0-1.36-.82,1.85,1.85,0,0,0-1.56,0l.11.26a4.6,4.6,0,0,0,2.31-1.87,5,5,0,0,0,.79-2.6,4.14,4.14,0,0,0-.68-2.32,4.83,4.83,0,0,0-1.49-1.44,4.74,4.74,0,0,0-2.82-.71,3.09,3.09,0,0,0-1,.23,9.45,9.45,0,0,1,1-.14,4.73,4.73,0,0,1,2.71.77,4.61,4.61,0,0,1,1.42,1.4,3.94,3.94,0,0,1,.61,2.21,4.77,4.77,0,0,1-.77,2.46,4.26,4.26,0,0,1-2.18,1.74l.12.26a1.52,1.52,0,0,1,1.32,0,4.89,4.89,0,0,1,1.28.78,5.51,5.51,0,0,1,2,2.36,3,3,0,0,1-.48,2.51,7.38,7.38,0,0,1-6.06,3.52H93.9l.47.23a2.86,2.86,0,0,1,1.35,1.52A4,4,0,0,1,96,197.8a4,4,0,0,1-.53,1.57,5.57,5.57,0,0,1-.86,1.14A8.93,8.93,0,0,1,93,201.78,4.94,4.94,0,0,0,92.39,202.17Z" style="fill:#fff"/><path d="M105.16,189.49s.15,0,.42-.08a3,3,0,0,0,1-.6,2.89,2.89,0,0,0,.93-1.48,1.43,1.43,0,0,0-.14-1.08,1.09,1.09,0,0,0-1.06-.54l.07.28.1,0a4.56,4.56,0,0,0,2.67-2.78,3.8,3.8,0,0,0,.21-1.17,1.34,1.34,0,0,0,0-.43,8.45,8.45,0,0,1-.37,1.53,4.58,4.58,0,0,1-2.57,2.58l-.09,0-1.33.52,1.4-.24a.82.82,0,0,1,.77.41,1.2,1.2,0,0,1,.12.87,2.77,2.77,0,0,1-.81,1.39A4.93,4.93,0,0,1,105.16,189.49Z" style="fill:#fff"/><path d="M109.89,244.34a36.34,36.34,0,0,0,10.75-3.83,49.32,49.32,0,0,0,9.24-6.61l.58-.19,11.18,3.1c6,2.18,14.68,5,19.08,8,6.18,4.26,13.77,16.8,13.77,16.8l27.92,18.6s5.12,1.82,2.08,12.18-29.33,23.94-29.33,23.94-6.43,2.67-10.2-1.19c-3.25-3.33-19-18.32-19-18.32s-23.14-20.57-27.07-25.05C110.77,262.54,104.48,260.4,109.89,244.34Z" style="fill:#FF725E"/><path d="M155.39,305.25l21.22-42.53,26,6.23,27.74,10.15,69.09-5.9,111-.83a11.87,11.87,0,0,1,8.1,3.1c2.57,2.35,6.55,6.11,7.13,10.93,2.33,19.34,3.93,31.64,3.77,30.91L172.56,319Z" style="fill:#455a64"/><path d="M142.11,259.32c1,.52,21.24,22.63,21.24,22.63l46.59-12.36,3.59,12.31s-44.15,21.1-49,21.23-9.23-2.42-21.47-9.77c-12.69-7.61-17.45-20.91-17.45-20.91Z" style="fill:#ffbf9d"/><path d="M149.2,265,128,283.77s-10.8-14.15-15.33-21.3c-4-6.38-2.34-11.48,3.62-15.12s15.27,1.29,19,4C139.6,254.41,149.2,265,149.2,265Z" style="fill:#FF725E"/><path d="M149.2,265a2.45,2.45,0,0,1-.43-.37l-1.13-1.11c-1-1-2.38-2.4-4.15-4.11s-3.91-3.74-6.4-5.84a45.34,45.34,0,0,0-8.64-6,13.44,13.44,0,0,0-10.12-.93,10.49,10.49,0,0,0-6.44,5.19,9.38,9.38,0,0,0-.91,5.59,14.46,14.46,0,0,0,.56,2.05,5.6,5.6,0,0,1-.76-2,9.28,9.28,0,0,1,.78-5.79,10.74,10.74,0,0,1,6.62-5.48,13.93,13.93,0,0,1,5.15-.6,13.3,13.3,0,0,1,5.35,1.51,44,44,0,0,1,8.72,6.12c2.49,2.13,4.6,4.18,6.35,5.93s3.11,3.21,4,4.24l1.06,1.18A2.91,2.91,0,0,1,149.2,265Z" style="fill:#263238"/><polygon points="128.03 283.77 149.19 265.04 145.44 261.13 125.58 280.68 128.03 283.77" style="fill:#e0e0e0"/><path d="M109.18,246.57s9.9-1.36,15.11-5.37a80.05,80.05,0,0,0,8.32-7.1l-2.64-.55s-7.06,7.53-20.08,10.79Z" style="fill:#e0e0e0"/><path d="M110.8,245.5a1.56,1.56,0,0,1-.06.35,7.23,7.23,0,0,1-.31,1,9.25,9.25,0,0,1-2.11,3.14,9.54,9.54,0,0,1-2.13,1.59,1.19,1.19,0,0,1-.83.18.94.94,0,0,1-.64-.66,2.33,2.33,0,0,1,.39-1.64A9,9,0,0,1,110.5,245l2-.57-1.75,1a9.23,9.23,0,0,1-2,.88,20.75,20.75,0,0,1-7.76.45,1.56,1.56,0,0,1-1-.3.68.68,0,0,1-.23-.57.93.93,0,0,1,.2-.51,1.94,1.94,0,0,1,.72-.57,6.3,6.3,0,0,1,.75-.35,9.09,9.09,0,0,1,7.12.13,6.88,6.88,0,0,1,1,.57c.22.15.33.24.32.26s-.49-.28-1.42-.64a9.2,9.2,0,0,0-4.1-.6,8.63,8.63,0,0,0-2.77.68,3.13,3.13,0,0,0-1.27.79c-.14.2-.15.36,0,.47a1.17,1.17,0,0,0,.68.16,21.34,21.34,0,0,0,7.57-.46,9,9,0,0,0,1.86-.83l.21.47a8.63,8.63,0,0,0-5.13,4.16,2.07,2.07,0,0,0-.38,1.3.54.54,0,0,0,.33.38.78.78,0,0,0,.53-.14,9,9,0,0,0,2.08-1.47,9.72,9.72,0,0,0,2.17-3C110.63,246,110.76,245.49,110.8,245.5Z" style="fill:#e0e0e0"/><rect x="162.7" y="313.62" width="268.83" height="24.61" rx="4.68" style="fill:#455a64"/><path d="M414.81,313.62c0,.15-53,.5-118.27.79s-118.27.41-118.28.27,53-.5,118.28-.79S414.81,313.48,414.81,313.62Z" style="fill:#263238"/><path d="M431.82,271.51c.14,0,.26,21.51.26,48s-.12,48.05-.26,48.05-.26-21.51-.26-48.05S431.68,271.51,431.82,271.51Z" style="fill:#263238"/><path d="M157.65,338.23,44.11,231.46a5.32,5.32,0,0,1-.21-7.5L54,213.2a5.32,5.32,0,0,1,7.58-.19L174.75,322.29c2.11,2,3.67,9.6,1.62,11.71l-.1,4.23Z" style="fill:#455a64"/><rect x="34.97" y="353.69" width="382.41" height="22.31" style="fill:#e0e0e0"/><rect x="49.1" y="353.83" width="382.41" height="22.31" style="fill:#e0e0e0"/><g style="opacity:0.30000000000000004"><rect x="34.97" y="353.69" width="382.41" height="22.31"/></g><path d="M49.28,376.14H32V341.62a7.38,7.38,0,0,1,7.38-7.38h2.57a7.37,7.37,0,0,1,7.37,7.38Z" style="fill:#e0e0e0"/><path d="M49.28,376.14s0-.11,0-.3,0-.51,0-.87c0-.79,0-1.89,0-3.3,0-2.87-.05-7-.09-12s0-11.07-.07-17.74a7.15,7.15,0,0,0-5.83-7.29,15,15,0,0,0-2.71-.12,11.73,11.73,0,0,0-2.73.18,7.08,7.08,0,0,0-4.41,3.1,6.92,6.92,0,0,0-1,2.49,15.22,15.22,0,0,0-.13,2.72v5.42c0,3.55,0,7,0,10.26,0,6.55,0,12.46-.05,17.47L32,376l12.62.1,3.46,0,.92,0,.32,0a.79.79,0,0,1-.28,0l-.88,0-3.43.05-12.73.1h-.18v-.19c0-5,0-10.92-.06-17.47,0-3.27,0-6.71,0-10.26,0-1.78,0-3.59,0-5.42a15.91,15.91,0,0,1,.14-2.82,7.79,7.79,0,0,1,1.08-2.68,7.6,7.6,0,0,1,4.73-3.31,12.64,12.64,0,0,1,2.85-.2,15.55,15.55,0,0,1,2.8.14,7.65,7.65,0,0,1,6.22,7.79c0,6.73-.05,12.79-.07,17.89s-.07,9.13-.09,12c0,1.38,0,2.46,0,3.24,0,.34,0,.62,0,.83A1.15,1.15,0,0,1,49.28,376.14Z" style="fill:#263238"/><path d="M438.65,381.23l-21.19-20.39a14.23,14.23,0,0,0-9.87-4H350.72a18.54,18.54,0,0,0-12.11,4.48c-5.27,4.53-13.74,11.89-22.34,19.39-10.38,9-4,26.12,9.79,26.12H428.32A14.89,14.89,0,0,0,438.65,381.23ZM356.16,391a5.54,5.54,0,0,1-5.53,5.53H329.3a4.53,4.53,0,0,1-3.08-7.84l22.33-20.74a4.53,4.53,0,0,1,7.61,3.31Zm36,.18a4.79,4.79,0,0,1-4.79,4.79H369.15a4.78,4.78,0,0,1-4.79-4.79V371.5a4.78,4.78,0,0,1,4.79-4.79h18.27a4.79,4.79,0,0,1,4.79,4.79Zm34.73,5.35H405.61a5.53,5.53,0,0,1-5.52-5.53V371.24a4.52,4.52,0,0,1,7.6-3.31L430,388.67A4.52,4.52,0,0,1,426.94,396.51Z" style="fill:#e0e0e0"/><path d="M438.65,381.23l-21.19-20.39a14.23,14.23,0,0,0-9.87-4H350.72a18.54,18.54,0,0,0-12.11,4.48c-5.27,4.53-13.74,11.89-22.34,19.39-10.38,9-4,26.12,9.79,26.12H428.32A14.89,14.89,0,0,0,438.65,381.23ZM356.16,391a5.54,5.54,0,0,1-5.53,5.53H329.3a4.53,4.53,0,0,1-3.08-7.84l22.33-20.74a4.53,4.53,0,0,1,7.61,3.31Zm36,.18a4.79,4.79,0,0,1-4.79,4.79H369.15a4.78,4.78,0,0,1-4.79-4.79V371.5a4.78,4.78,0,0,1,4.79-4.79h18.27a4.79,4.79,0,0,1,4.79,4.79Zm34.73,5.35H405.61a5.53,5.53,0,0,1-5.52-5.53V371.24a4.52,4.52,0,0,1,7.6-3.31L430,388.67A4.52,4.52,0,0,1,426.94,396.51Z" style="fill:none"/><path d="M426.94,396.51s.37,0,1-.18a4.34,4.34,0,0,0,2.41-1.53,4.5,4.5,0,0,0,.72-4.3l-.28-.61-.39-.58c-.16-.17-.33-.34-.49-.52l-.56-.52-2.42-2.22-11.86-10.94-7-6.47a5.72,5.72,0,0,0-1.94-1.38,4.09,4.09,0,0,0-2.35-.19,4.25,4.25,0,0,0-3.32,3.2,12.61,12.61,0,0,0-.12,2.55v2.58c0,1.71,0,3.39,0,5,0,3.31,0,6.5,0,9.54a9.11,9.11,0,0,0,.13,2.18,5.19,5.19,0,0,0,.85,1.9,5.29,5.29,0,0,0,3.29,2.13,10.49,10.49,0,0,0,1.95.11h5.52l10.88.08,3,.05.77,0a.82.82,0,0,1,.26,0l-.26,0-.77,0-3,.05-10.88.08-3.6,0h-1.92a10.05,10.05,0,0,1-2-.09,5.76,5.76,0,0,1-3.58-2.29,5.68,5.68,0,0,1-.94-2.06,9.88,9.88,0,0,1-.15-2.29c0-3,0-6.23,0-9.54v-7.62a13.43,13.43,0,0,1,.13-2.66,4.75,4.75,0,0,1,3.72-3.6,4.65,4.65,0,0,1,2.64.22,6.32,6.32,0,0,1,2.11,1.48l7,6.5,11.79,11,2.39,2.25a11,11,0,0,1,1.07,1.09l.41.62c.1.23.2.44.29.66a4.67,4.67,0,0,1-.84,4.52,4.34,4.34,0,0,1-2.53,1.51A3.56,3.56,0,0,1,426.94,396.51Z" style="fill:#263238"/><path d="M392.21,391.16a.94.94,0,0,1,0-.27l0-.8c0-.75,0-1.78-.05-3.09,0-2.72-.05-6.59-.09-11.35,0-1.2,0-2.46,0-3.77a4.64,4.64,0,0,0-5.13-4.94H369.7a5.19,5.19,0,0,0-2.48.43,4.55,4.55,0,0,0-2.6,4.09c0,3.66,0,7.23,0,10.68v5.08c0,.83,0,1.65,0,2.46a15.13,15.13,0,0,0,.09,2.36,4.62,4.62,0,0,0,2.67,3.29,5,5,0,0,0,2.07.37h2.15l7.84,0,6.47,0a11.59,11.59,0,0,0,2.62-.11,4.55,4.55,0,0,0,1.93-.95,4.8,4.8,0,0,0,1.59-2.52c.17-.68.15-1.06.18-1.06a3.54,3.54,0,0,1-.07,1.08,4.81,4.81,0,0,1-3.58,3.69,12.08,12.08,0,0,1-2.67.17l-6.47,0-7.84,0h-2.15a5.38,5.38,0,0,1-2.25-.39,5.06,5.06,0,0,1-3-3.62,14.5,14.5,0,0,1-.11-2.45v-2.46c0-1.66,0-3.35,0-5.08V371.49a5.07,5.07,0,0,1,2.9-4.56,5.82,5.82,0,0,1,2.7-.48h2.61l9.94,0h4.63a5.06,5.06,0,0,1,5.53,5.4c0,1.31,0,2.57,0,3.77,0,4.76-.06,8.63-.08,11.35,0,1.31,0,2.34-.05,3.09l0,.8A.8.8,0,0,1,392.21,391.16Z" style="fill:#263238"/><path d="M356.16,391a.82.82,0,0,1,0-.26c0-.2,0-.45,0-.77,0-.71,0-1.7-.05-3,0-2.61,0-6.32-.08-10.88,0-1.15,0-2.35,0-3.6,0-.63,0-1.28-.06-1.89a4.27,4.27,0,0,0-4-3.66,4.17,4.17,0,0,0-2,.36,6.55,6.55,0,0,0-1.72,1.31l-14.47,13.46c-2.56,2.39-5.11,4.71-7.48,7a4.27,4.27,0,0,0,2.15,7.09,10.54,10.54,0,0,0,2.19.12h6.38l7.51,0,6.2,0a5.46,5.46,0,0,0,4.06-1.79A5.59,5.59,0,0,0,356,392c.13-.66.11-1,.15-1a3.57,3.57,0,0,1-.05,1,5.49,5.49,0,0,1-1.26,2.68,5.63,5.63,0,0,1-4.22,1.95l-6.2,0-7.51,0h-6.38a11.25,11.25,0,0,1-2.29-.12,4.76,4.76,0,0,1-2.42-7.91c2.41-2.31,4.93-4.6,7.5-7l14.49-13.43a7.09,7.09,0,0,1,1.86-1.38,4.6,4.6,0,0,1,2.24-.4,4.69,4.69,0,0,1,4.39,4.06c.07.69,0,1.32.05,1.95,0,1.25,0,2.45,0,3.6,0,4.56-.06,8.27-.08,10.88,0,1.26,0,2.25-.05,3,0,.32,0,.57,0,.77S356.16,391,356.16,391Z" style="fill:#263238"/><path d="M438.65,381.23s.2.19.56.59l.68.74.43.47.4.62a13.82,13.82,0,0,1,2.59,8.65,16,16,0,0,1-.38,3.13,17,17,0,0,1-1.22,3.27,15,15,0,0,1-5.16,5.88,15.39,15.39,0,0,1-8.64,2.45l-10.13,0-49.87.05-29.45,0H326.82a17.23,17.23,0,0,1-4-.33,14.49,14.49,0,0,1-7.11-3.67,15.67,15.67,0,0,1-4.24-6.92,15.23,15.23,0,0,1-.14-8.12,14.45,14.45,0,0,1,1.56-3.74,15.61,15.61,0,0,1,2.5-3.16c4-3.53,7.9-6.88,11.76-10.25l11.36-9.85a19.07,19.07,0,0,1,6.42-3.56,20.87,20.87,0,0,1,7.11-.89l49.88.05h5.19a14.79,14.79,0,0,1,4.91.72,14.07,14.07,0,0,1,4.16,2.17,39,39,0,0,1,3.23,3l10.4,10.06,6.55,6.37c.74.73,1.3,1.29,1.7,1.67s.56.58.56.58l-.6-.54-1.73-1.63-6.62-6.3-10.46-10a39.64,39.64,0,0,0-3.22-2.93,13.9,13.9,0,0,0-4.07-2.1,14.15,14.15,0,0,0-4.81-.69H402l-49.88.06a20.07,20.07,0,0,0-7,.88,18.42,18.42,0,0,0-6.25,3.47l-11.35,9.86c-3.84,3.36-7.82,6.74-11.73,10.23a15.54,15.54,0,0,0-2.42,3.05,14.65,14.65,0,0,0-1.5,3.61,14.8,14.8,0,0,0,.14,7.84,15.12,15.12,0,0,0,4.1,6.69,13.87,13.87,0,0,0,6.85,3.54,17.31,17.31,0,0,0,3.87.33h41.09l49.87.06,10.13,0a15.07,15.07,0,0,0,8.48-2.36,14.84,14.84,0,0,0,5.1-5.75,16.45,16.45,0,0,0,1.22-3.21,15.65,15.65,0,0,0,.39-3.09,13.78,13.78,0,0,0-2.46-8.58l-.39-.62-.43-.48-.65-.76C438.82,381.45,438.65,381.23,438.65,381.23Z" style="fill:#263238"/><rect x="282.33" y="327.79" width="10.22" height="26.04" style="fill:#e0e0e0"/><path d="M292.55,353.83a4,4,0,0,1,0-.53q0-.57,0-1.47c0-1.33,0-3.17-.07-5.45,0-4.66-.07-11.12-.12-18.59l.25.25H282.34c.51-.52.14-.14.25-.26h0v7.46c0,2.4,0,4.72,0,6.93,0,4.4,0,8.34-.06,11.64l-.18-.18,7.43.1,2.05,0a5.79,5.79,0,0,1,.74,0,6.35,6.35,0,0,1-.67,0l-2,0-7.54.1h-.18v-.18c0-3.3,0-7.24-.06-11.64,0-2.21,0-4.53,0-6.93,0-1.21,0-2.44,0-3.68V327.8h0l.27-.26H292.8v.25c-.05,7.54-.09,14.06-.12,18.76,0,2.26-.05,4.07-.07,5.39,0,.58,0,1.05,0,1.42A2.56,2.56,0,0,1,292.55,353.83Z" style="fill:#263238"/><rect x="191.11" y="327.79" width="10.22" height="26.04" style="fill:#e0e0e0"/><path d="M201.32,353.83a4,4,0,0,1,0-.53q0-.57,0-1.47c0-1.33,0-3.17-.07-5.45,0-4.66-.07-11.12-.12-18.59l.25.25H191.11l.26-.26h0v3.78c0,1.24,0,2.47,0,3.68,0,2.4,0,4.72,0,6.93,0,4.4,0,8.34-.06,11.64l-.18-.18,7.43.1,2,0a5.6,5.6,0,0,1,.74,0,5.75,5.75,0,0,1-.67,0l-2,0-7.54.1h-.18v-.18c0-3.3,0-7.24-.06-11.64,0-2.21,0-4.53,0-6.93V327.8h0l.26-.26h10.46v.25c0,7.54-.08,14.06-.11,18.76,0,2.26-.06,4.07-.07,5.39,0,.58,0,1.05,0,1.42A2.56,2.56,0,0,1,201.32,353.83Z" style="fill:#263238"/><path d="M338.7,284.24H147.26c-14.06,0-20.52,14.9-10.33,25.65l21.72,22.59A14.88,14.88,0,0,0,169,336.65H312.85a19.48,19.48,0,0,0,12.7-4.7c5.51-4.74,15.08-14.61,23.49-23.11C359,298.73,355,284.24,338.7,284.24ZM175.29,323.07a4.74,4.74,0,0,1-8.21,3.23l-21.74-23.41a4.74,4.74,0,0,1,3.47-8h20.7a5.78,5.78,0,0,1,5.78,5.79Zm38.29-1.68a5,5,0,0,1-5,5H189.41a5,5,0,0,1-5-5V300.77a5,5,0,0,1,5-5h19.15a5,5,0,0,1,5,5Zm89.69-1.2a5,5,0,0,1-5,5H279.1a5,5,0,0,1-5-5V299.58a5,5,0,0,1,5-5h19.15a5,5,0,0,1,5,5Zm39.05-18.49-21.74,23.4a4.74,4.74,0,0,1-8.21-3.22V299.51a5.78,5.78,0,0,1,5.78-5.78h20.7A4.74,4.74,0,0,1,342.32,301.7Z" style="fill:#e0e0e0"/><path d="M338.7,284.24H147.26c-14.06,0-20.52,14.9-10.33,25.65l21.72,22.59A14.88,14.88,0,0,0,169,336.65H312.85a19.48,19.48,0,0,0,12.7-4.7c5.51-4.74,15.08-14.61,23.49-23.11C359,298.73,355,284.24,338.7,284.24ZM175.29,323.07a4.74,4.74,0,0,1-8.21,3.23l-21.74-23.41a4.74,4.74,0,0,1,3.47-8h20.7a5.78,5.78,0,0,1,5.78,5.79Zm38.29-1.68a5,5,0,0,1-5,5H189.41a5,5,0,0,1-5-5V300.77a5,5,0,0,1,5-5h19.15a5,5,0,0,1,5,5Zm89.69-1.2a5,5,0,0,1-5,5H279.1a5,5,0,0,1-5-5V299.58a5,5,0,0,1,5-5h19.15a5,5,0,0,1,5,5Zm39.05-18.49-21.74,23.4a4.74,4.74,0,0,1-8.21-3.22V299.51a5.78,5.78,0,0,1,5.78-5.78h20.7A4.74,4.74,0,0,1,342.32,301.7Z" style="fill:none"/><path d="M342.32,301.7s.25-.29.59-.9a4.66,4.66,0,0,0-2.26-6.56,7,7,0,0,0-2.95-.35l-3.44,0-7.88,0H319.7a19.78,19.78,0,0,0-2.32.07,5.56,5.56,0,0,0-3.84,2.42,5.46,5.46,0,0,0-.85,2.24,21,21,0,0,0-.07,2.53c0,3.47,0,7.06,0,10.73,0,1.84,0,3.65,0,5.44v2.67c0,.87,0,1.78.06,2.58A4.46,4.46,0,0,0,320,325.3c4.37-4.55,8.27-8.82,11.57-12.31l7.82-8.3,2.15-2.24.56-.57q.19-.19.21-.18a1.1,1.1,0,0,1-.17.22l-.53.6-2.07,2.31-7.7,8.41c-3.28,3.54-7.1,7.78-11.52,12.43a5.06,5.06,0,0,1-2.26,1.11,5.05,5.05,0,0,1-5.89-4.06,23.88,23.88,0,0,1-.07-2.66v-2.67c0-1.79,0-3.6,0-5.44,0-3.67,0-7.26,0-10.73a20.71,20.71,0,0,1,.08-2.6,6,6,0,0,1,.93-2.44,6.06,6.06,0,0,1,4.19-2.63,21.54,21.54,0,0,1,2.39-.06h6.68l7.88,0,3.44,0a7.25,7.25,0,0,1,3.07.41,4.93,4.93,0,0,1,2.88,3.86,4.66,4.66,0,0,1-.65,3,3.16,3.16,0,0,1-.49.65A1.17,1.17,0,0,1,342.32,301.7Z" style="fill:#263238"/><path d="M303.27,320.19a1.07,1.07,0,0,1,0-.28c0-.22,0-.5,0-.85,0-.77,0-1.86-.05-3.23,0-2.85-.05-6.91-.08-11.9,0-1.26,0-2.58,0-3.95a4.94,4.94,0,0,0-1.38-3.75,5,5,0,0,0-4-1.44h-4.85l-10.42,0h-2.74a5.41,5.41,0,0,0-2.59.45,4.79,4.79,0,0,0-2.74,4.31c0,3.83,0,7.57,0,11.19v5.32c0,.87,0,1.73,0,2.58a16.54,16.54,0,0,0,.09,2.47,4.84,4.84,0,0,0,2.81,3.46,5.21,5.21,0,0,0,2.18.39h2.25l8.22,0,6.78,0a12.06,12.06,0,0,0,2.74-.11,4.9,4.9,0,0,0,2-1,5,5,0,0,0,1.67-2.65c.17-.71.15-1.11.18-1.11a3.72,3.72,0,0,1-.08,1.13,5.07,5.07,0,0,1-3.74,3.87,13.3,13.3,0,0,1-2.8.17l-6.78,0-8.22,0H279.4A5.71,5.71,0,0,1,277,325a5.33,5.33,0,0,1-3.1-3.78,17.17,17.17,0,0,1-.11-2.57v-2.58c0-1.74,0-3.51,0-5.32V299.58a5.27,5.27,0,0,1,3-4.77,5.9,5.9,0,0,1,2.81-.51h18a5.48,5.48,0,0,1,4.32,1.6,5.37,5.37,0,0,1,1.47,4.05c0,1.37,0,2.69,0,3.95,0,5-.06,9.05-.08,11.9,0,1.37,0,2.46-.05,3.23l0,.85A1.07,1.07,0,0,1,303.27,320.19Z" style="fill:#263238"/><path d="M213.58,321.39a1.11,1.11,0,0,1,0-.29c0-.22,0-.5,0-.84,0-.78,0-1.86-.05-3.24,0-2.85,0-6.9-.08-11.9,0-1.26,0-2.57,0-3.94a4.93,4.93,0,0,0-1.38-3.75,5,5,0,0,0-4-1.45l-4.85,0H190a5.41,5.41,0,0,0-2.59.46,4.77,4.77,0,0,0-2.74,4.3c0,3.84,0,7.58,0,11.19v5.33c0,.87,0,1.73,0,2.58a16.41,16.41,0,0,0,.09,2.46,4.82,4.82,0,0,0,2.81,3.46,5.21,5.21,0,0,0,2.18.39H192l8.22,0,6.78,0a12.63,12.63,0,0,0,2.74-.12,4.78,4.78,0,0,0,2-1,5,5,0,0,0,1.67-2.65c.17-.71.15-1.11.18-1.1a3.72,3.72,0,0,1-.08,1.13,5,5,0,0,1-3.74,3.86,12.09,12.09,0,0,1-2.8.17l-6.78,0-8.22,0h-2.25a5.73,5.73,0,0,1-2.36-.42,5.29,5.29,0,0,1-3.1-3.78,17,17,0,0,1-.11-2.56v-2.58c0-1.74,0-3.52,0-5.33V300.77a5.29,5.29,0,0,1,3-4.77,5.77,5.77,0,0,1,2.81-.5h2.74l10.42,0H208a5.44,5.44,0,0,1,4.32,1.6,5.35,5.35,0,0,1,1.47,4.05c0,1.37,0,2.68,0,3.94,0,5-.06,9.05-.08,11.9,0,1.38,0,2.46-.05,3.24,0,.34,0,.62,0,.84A1.11,1.11,0,0,1,213.58,321.39Z" style="fill:#263238"/><path d="M175.29,323.07a1.39,1.39,0,0,1,0-.27l0-.81c0-.75,0-1.79-.05-3.1,0-2.74-.05-6.62-.08-11.41,0-1.2,0-2.47,0-3.78v-2a10.61,10.61,0,0,0-.12-2,5.56,5.56,0,0,0-2.23-3.46,5.48,5.48,0,0,0-2-.89,9.5,9.5,0,0,0-2.29-.14h-18a14.64,14.64,0,0,0-2.67.12,4.49,4.49,0,0,0-3.38,3.49,4.41,4.41,0,0,0,.2,2.47,6.25,6.25,0,0,0,1.45,2.05l6.79,7.33,11.47,12.43,2.33,2.53.54.59.55.52c.2.14.41.27.6.41l.65.29a4.72,4.72,0,0,0,4.51-.76,4.58,4.58,0,0,0,1.6-2.52c.17-.68.15-1.06.18-1.06a1.16,1.16,0,0,1,0,.28,3.92,3.92,0,0,1-.08.8,4.57,4.57,0,0,1-1.59,2.66,4.91,4.91,0,0,1-4.73.88l-.69-.31-.65-.43-.6-.54-.55-.58-2.35-2.51L152.51,311l-6.81-7.31a6.65,6.65,0,0,1-1.56-2.2,4.9,4.9,0,0,1-.22-2.76,5,5,0,0,1,3.77-3.89,13.9,13.9,0,0,1,2.78-.14h8l10,0a10.28,10.28,0,0,1,2.4.16,6,6,0,0,1,4.55,4.73,11,11,0,0,1,.1,2.12c0,.68,0,1.35,0,2,0,1.31,0,2.58,0,3.78,0,4.79-.07,8.67-.08,11.41,0,1.31,0,2.35-.05,3.1l0,.81A.94.94,0,0,1,175.29,323.07Z" style="fill:#263238"/><path d="M338.7,284.24l1.28.05,1.58.08,2.16.37a6.44,6.44,0,0,1,1.27.33l1.4.45a14.45,14.45,0,0,1,1.46.68l.77.38c.24.16.48.34.73.52a11.58,11.58,0,0,1,4.79,6.68,13.17,13.17,0,0,1,.32,5,16.07,16.07,0,0,1-1.72,5.23,21.08,21.08,0,0,1-3.51,4.86l-4.53,4.61c-3.13,3.19-6.48,6.59-10.08,10.16-1.8,1.79-3.66,3.61-5.61,5.44-1,.91-2,1.84-3,2.74a20.07,20.07,0,0,1-3.4,2.46,19.61,19.61,0,0,1-8.26,2.53c-1.49.11-3,.05-4.48.07h-4.55l-19.13,0-42.22,0-46.64,0H169.5a17.1,17.1,0,0,1-3.18-.24,15,15,0,0,1-5.91-2.42,14.52,14.52,0,0,1-2.45-2.1l-2.21-2.3-4.44-4.63L142.44,316l-4.39-4.57c-.73-.76-1.47-1.51-2.13-2.34-.33-.42-.69-.81-1-1.24l-.85-1.34-.42-.68-.33-.72-.65-1.45-.44-1.52-.22-.76-.1-.78a13.86,13.86,0,0,1,.39-6.24,14.23,14.23,0,0,1,8-9,16.27,16.27,0,0,1,2.93-.91c.5-.1,1-.22,1.5-.3l1.52-.11c1-.09,2-.05,3-.06h37.61l79,.06,53.26.08,14.48.05,3.77,0,1.28,0-1.28,0-3.77,0-14.48,0-53.26.09-79,.05H149.3c-1,0-2,0-3,.06l-1.48.1c-.49.08-1,.2-1.46.29a15.75,15.75,0,0,0-2.83.89,13.71,13.71,0,0,0-7.75,8.66,13.32,13.32,0,0,0-.37,6l.1.76.21.73.43,1.47.63,1.41.32.7.41.65.82,1.31c.3.42.66.8,1,1.2a30.48,30.48,0,0,0,2.11,2.32c1.45,1.52,2.92,3,4.38,4.56l8.87,9.22,4.44,4.63a32.81,32.81,0,0,0,4.58,4.34,14.65,14.65,0,0,0,5.71,2.34,16,16,0,0,0,3.09.23H244l42.22,0h23.68c1.51,0,3,.05,4.45-.05a19.36,19.36,0,0,0,8.11-2.47,36.19,36.19,0,0,0,6.35-5.13c2-1.83,3.82-3.65,5.62-5.42,3.6-3.56,7-7,10.1-10.13l4.54-4.6a20.62,20.62,0,0,0,3.49-4.79,16.08,16.08,0,0,0,1.72-5.14,13,13,0,0,0-.3-4.89,11.5,11.5,0,0,0-4.68-6.61l-.72-.51-.76-.38a15.6,15.6,0,0,0-1.44-.69l-1.38-.46a6.23,6.23,0,0,0-1.26-.34l-2.15-.4-1.57-.1C339.13,284.29,338.7,284.24,338.7,284.24Z" style="fill:#263238"/><path d="M306.25,289.55c0,.14-34.8.26-77.72.26s-77.73-.12-77.73-.26,34.79-.26,77.73-.26S306.25,289.4,306.25,289.55Z" style="fill:#fff"/><path d="M209.77,269.58l4.86-.63c.8.18,20.67,5.83,20.67,5.83l6.78,7.92a2,2,0,0,1-2.25,1.06,4.62,4.62,0,0,1-3-1.73l-3.35-3.29-5.43-1.82,5.85,4.13L239,287.2s-.16,1.39-1.27,1.66-2.26-1.15-2.26-1.15-.25,1.78-1.44,1.93-7.09-3.09-7.09-3.09-4.12-3.15-4-2.91,3.29,3.33,3.29,3.33,4.79,2.73,4.59,3.63a2,2,0,0,1-.94,1.37c-.25.15-6.22-3-7.28-3.4s-10.3-6.15-10.3-6.15l-4.2-4.09Z" style="fill:#ffbf9d"/><path d="M225,280.59a5.92,5.92,0,0,0,1.59,1,42.18,42.18,0,0,1,3.9,2.31c1.4,1.05,2.56,2.2,3.49,2.92a5.16,5.16,0,0,0,1.6,1,11.83,11.83,0,0,0-1.37-1.31,43,43,0,0,0-3.42-3.06,26,26,0,0,0-4-2.22A9.53,9.53,0,0,0,225,280.59Z" style="fill:#ff9a6c"/><path d="M107.94,253.51s-.07,0-.23,0l-.69.05c-.61,0-1.5.14-2.66.08a38.32,38.32,0,0,1-9.67-1.39,49.84,49.84,0,0,1-13.23-5.89A61.74,61.74,0,0,1,68,234.87a87.61,87.61,0,0,1-10.25-14.49,120.49,120.49,0,0,1-6.42-13c-1.6-3.8-2.73-6.94-3.46-9.13-.37-1.09-.62-2-.8-2.53l-.19-.67a.82.82,0,0,1,0-.23.9.9,0,0,1,.1.22l.24.64c.22.61.52,1.45.89,2.5.79,2.16,2,5.28,3.61,9.05a123.86,123.86,0,0,0,6.5,12.9,89.17,89.17,0,0,0,10.22,14.39A62.43,62.43,0,0,0,81.72,246a51,51,0,0,0,13.07,5.94,39.84,39.84,0,0,0,9.58,1.53c1.15.1,2,0,2.65,0h.69Z" style="fill:#263238"/></g><g id="freepik--character-3--inject-33"><path d="M442.56,441.66l.16,23.81-44.12.17c.32-4.83,22.27-14.72,22.27-14.72l-.59-9.11Z" style="fill:#455a64"/><path d="M434.68,448.68A2.07,2.07,0,0,1,436,451a1.91,1.91,0,0,1-2.25,1.42,2.19,2.19,0,0,1-1.43-2.51,2,2,0,0,1,2.5-1.21" style="fill:#fff"/><path d="M442.72,465.47l0-3.8-41.89.93s-2.43,1.46-2.2,3Z" style="fill:#263238"/><path d="M416.18,453.23c-.06.24,1,.67,1.77,1.72s1,2.16,1.26,2.15.4-1.4-.62-2.69S416.19,453,416.18,453.23Z" style="fill:#263238"/><path d="M412.9,459.78c.22.06.56-1.18,0-2.53s-1.71-1.91-1.81-1.7.58.93,1.06,2.05S412.67,459.76,412.9,459.78Z" style="fill:#263238"/><path d="M420.43,444.6c.1.22,1.19-.11,2.54,0s2.39.56,2.51.35-.87-1.1-2.46-1.2S420.31,444.4,420.43,444.6Z" style="fill:#263238"/><path d="M419.37,452.43a3.31,3.31,0,0,1,.24-1.44,8,8,0,0,1,2.14-3.34,7.73,7.73,0,0,1,2.33-1.47,1.7,1.7,0,0,1,1.68.12,1.81,1.81,0,0,1,.56,1.75,6.31,6.31,0,0,1-5.49,4.4,6.23,6.23,0,0,1-6-3.44,4.45,4.45,0,0,1-.51-1.63,1.58,1.58,0,0,1,.22-.93,1.13,1.13,0,0,1,.81-.51,2.12,2.12,0,0,1,1.45.5,9.26,9.26,0,0,1,1,.89,10.24,10.24,0,0,1,2.08,3.3,3.6,3.6,0,0,1,.35,1.4,13.86,13.86,0,0,0-2.78-4.33c-.55-.52-1.26-1.23-2-1.17-.32.05-.52.36-.48.8a3.78,3.78,0,0,0,.46,1.36,5.65,5.65,0,0,0,5.36,3,5.74,5.74,0,0,0,4.91-3.79,1.18,1.18,0,0,0-.32-1.14,1.13,1.13,0,0,0-1.11-.05,7,7,0,0,0-2.19,1.29,8.45,8.45,0,0,0-2.21,3C419.52,451.93,419.43,452.44,419.37,452.43Z" style="fill:#263238"/><path d="M459.77,285l-1.65-7.76L412,278.49l6.84,84.74,4.24,81.68,24.7.86c1.26-15.76,4.63-78.13,4.63-78.13h0l4.24-32.95c.48-2.08,2.22-12.47,4-20.8C461.69,309.11,461.84,299.24,459.77,285Z" style="fill:#263238"/><path d="M442.73,435.87l6,23.05-42.73,11c-.87-4.76,18-19.73,18-19.73l-2.81-8.69Z" style="fill:#455a64"/><path d="M438.73,444.6a2.09,2.09,0,0,1,1.9,2,1.91,1.91,0,0,1-1.84,1.92,2.2,2.2,0,0,1-2-2.09c.09-1,1.18-2,2.13-1.78" style="fill:#fff"/><path d="M448.72,458.92l-1-3.69L407.37,466.4s-2,2-1.38,3.49Z" style="fill:#263238"/><path d="M420,453.55c0,.25,1.11.41,2.14,1.24s1.52,1.84,1.75,1.77,0-1.46-1.26-2.46S419.94,453.32,420,453.55Z" style="fill:#263238"/><path d="M418.42,460.7c.22,0,.25-1.27-.67-2.44s-2.12-1.43-2.17-1.21.79.77,1.53,1.74S418.18,460.74,418.42,460.7Z" style="fill:#263238"/><path d="M422,444.14c.15.19,1.13-.4,2.46-.62s2.46,0,2.53-.29-1.12-.85-2.68-.56S421.83,444,422,444.14Z" style="fill:#263238"/><path d="M422.88,452a3.56,3.56,0,0,1-.11-1.45,7.84,7.84,0,0,1,1.26-3.76,7.29,7.29,0,0,1,1.9-2,1.68,1.68,0,0,1,1.65-.3,1.86,1.86,0,0,1,1,1.56,6.32,6.32,0,0,1-4.26,5.61,6.2,6.2,0,0,1-6.63-1.86,4.34,4.34,0,0,1-.89-1.46,1.57,1.57,0,0,1,0-1,1.16,1.16,0,0,1,.66-.69,2.08,2.08,0,0,1,1.53.13,8.71,8.71,0,0,1,1.14.63,10,10,0,0,1,2.83,2.69,3.92,3.92,0,0,1,.69,1.27,14,14,0,0,0-3.77-3.52c-.65-.36-1.52-.89-2.21-.64-.3.12-.42.47-.27.89a3.89,3.89,0,0,0,.78,1.21,5.63,5.63,0,0,0,5.94,1.62,5.7,5.7,0,0,0,3.83-4.87,1.18,1.18,0,0,0-.58-1,1.12,1.12,0,0,0-1.09.23,7.14,7.14,0,0,0-1.81,1.78,8.39,8.39,0,0,0-1.39,3.5C422.91,451.47,422.94,452,422.88,452Z" style="fill:#263238"/><path d="M411.27,282.39s-20.82,80.6-21.39,88.2,28.24,74.92,28.24,74.92L445,439.45l-21.66-72.58s11.29-24.42,11-25.14c-.67-1.9,5.23-49.5,5.23-49.5Z" style="fill:#263238"/><path d="M390.31,372.43s.05.12.14.37.22.62.38,1.09l1.44,4.23c1.25,3.69,3.1,9,5.5,15.64,4.77,13.24,11.88,31.52,20.64,51.9l-.29-.15,11.72-2.86L444.66,439l-.18.31c-6-20.53-11.18-38.61-14.93-51.57-1.85-6.46-3.34-11.65-4.36-15.24L424,368.42l-.28-1.07a2.75,2.75,0,0,1-.09-.37,2.38,2.38,0,0,1,.13.36l.33,1.05c.29,1,.7,2.33,1.24,4.09l4.5,15.2c3.8,12.95,9.09,31,15.1,51.52l.07.25-.25.07L430,443.14,418.24,446l-.21.05-.08-.2c-8.75-20.38-15.8-38.71-20.5-52-2.35-6.63-4.15-12-5.35-15.69-.58-1.84-1-3.27-1.36-4.26l-.33-1.11A1.64,1.64,0,0,1,390.31,372.43Z" style="fill:#455a64"/><path d="M400,161.56c.12-2.47-.81-4.85-1.58-7.2s-1.43-4.89-.77-7.27c.83-3,3.53-5.08,5-7.83s1.56-6,1.81-9.13.79-6.41,2.85-8.75c2.61-3,9.45-3.51,12.67-1.22.5,17.7,4.69,35.63.91,52.93a47.06,47.06,0,0,1-24.9-6C398.39,166.65,399.89,164,400,161.56Z" style="fill:#263238"/><path d="M437.73,178.68l2.44-48.88a3.78,3.78,0,0,0-3.28-3.94l-19.95-5.65c-6.42-.86-10.92,6.94-11.51,13.39-.66,7.16-1.18,15.94-.48,21.31,1.4,10.82,9.62,12.43,9.62,12.43,0,10.65-.23,11.44-.23,11.44l4.07,8.38Z" style="fill:#ae7461"/><path d="M407.83,142.54a1.37,1.37,0,0,0,1.29,1.43,1.32,1.32,0,0,0,1.46-1.2,1.4,1.4,0,0,0-1.29-1.44A1.32,1.32,0,0,0,407.83,142.54Z" style="fill:#263238"/><path d="M407.2,138.22c.17.19,1.24-.56,2.72-.51s2.56.82,2.72.64-.08-.41-.55-.77a3.79,3.79,0,0,0-2.17-.74,3.63,3.63,0,0,0-2.17.64C407.28,137.82,407.12,138.14,407.2,138.22Z" style="fill:#263238"/><path d="M420.43,143a1.37,1.37,0,0,0,1.29,1.43,1.33,1.33,0,0,0,1.46-1.21,1.37,1.37,0,0,0-1.29-1.43A1.33,1.33,0,0,0,420.43,143Z" style="fill:#263238"/><path d="M421.8,138.91c.17.19,1.24-.56,2.72-.51s2.55.82,2.72.64-.08-.41-.55-.77a3.82,3.82,0,0,0-2.17-.73,3.64,3.64,0,0,0-2.17.63C421.88,138.51,421.72,138.83,421.8,138.91Z" style="fill:#263238"/><path d="M416.09,149.78a10,10,0,0,0-2.4-.5c-.38-.05-.73-.14-.79-.4a1.94,1.94,0,0,1,.29-1.12l1.2-2.86c1.68-4.07,2.9-7.42,2.74-7.48s-1.66,3.18-3.34,7.25c-.4,1-.79,2-1.15,2.87a2.17,2.17,0,0,0-.24,1.49.93.93,0,0,0,.61.57,2.77,2.77,0,0,0,.64.11A10,10,0,0,0,416.09,149.78Z" style="fill:#263238"/><path d="M414.57,167.34a27.42,27.42,0,0,0,14.53-3.44c.64-1.49-2.89,5.37-14.59,6.26Z" style="fill:#6f4439"/><path d="M416.21,153.32a3.64,3.64,0,0,1,3.06-1.51,2.37,2.37,0,0,1,1.92,1.12,2.18,2.18,0,0,1-2.54,3.2,5.43,5.43,0,0,1-2.15-1.42,1.7,1.7,0,0,1-.45-.57.75.75,0,0,1,.08-.75" style="fill:#6f4439"/><path d="M420.44,150.93c-.24,0-.29,1.59-1.71,2.7s-3.12.88-3.14,1.1.37.33,1.1.37a4.07,4.07,0,0,0,2.62-.83,3.56,3.56,0,0,0,1.33-2.27C420.72,151.33,420.55,150.93,420.44,150.93Z" style="fill:#263238"/><path d="M421.32,132.78c.13.4,1.62.25,3.36.51s3.13.78,3.37.42c.11-.17-.12-.55-.68-1a5.64,5.64,0,0,0-2.48-.95,5.71,5.71,0,0,0-2.65.23C421.59,132.27,421.26,132.58,421.32,132.78Z" style="fill:#e0e0e0"/><path d="M407.87,133.12c.25.35,1.28,0,2.52,0s2.26.29,2.51,0c.11-.17,0-.51-.49-.85a3.62,3.62,0,0,0-4.05,0C407.91,132.61,407.76,133,407.87,133.12Z" style="fill:#263238"/><path d="M414.56,120.14c1.85-4.42,5.85-5.36,10.14-5.82s10.65,1.32,14.19,3.64a32.87,32.87,0,0,1,7.86,6.66c1.9,2.45,2.75,5.26,3.93,8.08,1.83,4.41,1.72,9.28,2,14a84.8,84.8,0,0,0,2.84,17.6c.56,2.06,1.13,4.53-1.79,5.72a6.6,6.6,0,0,1-1.7.41c-4.54.55-8.93,2-14,2.34h-3.12c-3.94,0-6-2.54-5.82-5.76.4-9.73,5.15-25.7,5.67-28.77C434.77,138.24,436.41,117.26,414.56,120.14Z" style="fill:#263238"/><path d="M416,120a6.3,6.3,0,0,1,2.26,4.45c.23,1.7.14,3.43.45,5.11a10.72,10.72,0,0,0,6.16,7.71c1,.44,2.38.61,3-.29a5.91,5.91,0,0,0,3.6,5.64c1.59.64,3.38.54,5.06.91s3.44,1.53,3.53,3.25l.7-12-3.36-10.57-10.33-6.15Z" style="fill:#263238"/><path d="M434.3,139.74a7.11,7.11,0,0,1-1-.8,7.24,7.24,0,0,1-1.63-3,24.9,24.9,0,0,1-.72-5.09,41.07,41.07,0,0,0-.73-6.3,12,12,0,0,0-2.81-5.65,7.33,7.33,0,0,0-2.26-1.62,7.09,7.09,0,0,0-2.35-.58,5.62,5.62,0,0,0-3.37.8,4.81,4.81,0,0,0-.45.33,1.55,1.55,0,0,0-.29.27,1.83,1.83,0,0,0-.23.25,7.91,7.91,0,0,1,1-.78,5.65,5.65,0,0,1,3.32-.72,6.81,6.81,0,0,1,4.48,2.18,12,12,0,0,1,2.75,5.57,41.48,41.48,0,0,1,.74,6.26,24.5,24.5,0,0,0,.77,5.12,7,7,0,0,0,1.72,3A3.61,3.61,0,0,0,434.3,139.74Z" style="fill:#fff"/><path d="M443.28,138.3a6.07,6.07,0,0,1-1.58-.39,8.26,8.26,0,0,1-3.3-2.9,16,16,0,0,1-1.52-2.67,12.26,12.26,0,0,1-.84-3.41c-.15-1.23-.2-2.55-.34-3.9a18.76,18.76,0,0,0-.33-2.06,11.24,11.24,0,0,0-.69-2,11,11,0,0,0-5.77-5.56,10.45,10.45,0,0,0-6.57-.44,10.72,10.72,0,0,0-4,1.94,7.89,7.89,0,0,0-1.2,1.13l.08-.07.24-.22c.1-.09.22-.21.38-.34s.33-.28.55-.43a10.71,10.71,0,0,1,4-1.87,10.41,10.41,0,0,1,6.46.47A11,11,0,0,1,434.5,121a11.19,11.19,0,0,1,.67,2,20.61,20.61,0,0,1,.33,2c.14,1.35.2,2.66.35,3.9a12.37,12.37,0,0,0,.88,3.46,15.74,15.74,0,0,0,1.55,2.68,8.07,8.07,0,0,0,3.39,2.89,4.91,4.91,0,0,0,1.18.3l.32,0Z" style="fill:#455a64"/><path d="M427.86,137v.1l0,.3c0,.13,0,.3.06.49l.14.65a7.1,7.1,0,0,0,.68,1.71,6.1,6.1,0,0,0,1.63,1.83,9.62,9.62,0,0,0,6.2,1.53,17.64,17.64,0,0,0,3.84-.59,15.35,15.35,0,0,0,3.92-1.58l.25-.14-.28,0a15,15,0,0,1-4.5-1.4l-.08,0-.06.2a14.3,14.3,0,0,0,9.31-1.67l.19-.11-.21-.06a17.77,17.77,0,0,1-5.52-2.8,8.2,8.2,0,0,1-3.36-7c0-.35,0-.64.07-.84v-.29a.31.31,0,0,0,0,.07l0,.22c0,.2-.06.48-.1.84a8.6,8.6,0,0,0,.43,3.16,8.9,8.9,0,0,0,2.89,3.92,17.86,17.86,0,0,0,5.56,2.86v-.18a14.15,14.15,0,0,1-9.19,1.64l-.69-.12.63.31.08,0a15.42,15.42,0,0,0,4.56,1.41l0-.19a15.64,15.64,0,0,1-3.86,1.56,18.08,18.08,0,0,1-3.8.61,9.62,9.62,0,0,1-6.12-1.46,5.94,5.94,0,0,1-1.62-1.78,7.27,7.27,0,0,1-.71-1.68c0-.24-.1-.46-.15-.64s-.05-.35-.07-.48l-.05-.3Z" style="fill:#455a64"/><path d="M450,166.44c.06,0-.59-5.76-1.46-12.85s-1.6-12.84-1.66-12.84.6,5.76,1.46,12.86S449.91,166.45,450,166.44Z" style="fill:#455a64"/><path d="M344.24,294.49a10.13,10.13,0,0,1-2.71,1.84,2.64,2.64,0,0,1-2.58-.74l1.76-1.93a3.82,3.82,0,0,1-2.2,1.28,1.55,1.55,0,0,1-2-1.07s3.2-3.3,4.33-4.65c.24-.15,6.62-6.94,7.26-7.18l11.11-4.19,8.53-11.05L381.06,273S369.63,284.34,368,286.4s-10,5.77-10,5.77l-4.79,1.25-4.72,3.78c-.93.61-2.36,1.05-3.11-.15h0c-1.63,1.15-3.25-.46-3.25-.46Z" style="fill:#ae7461"/><path d="M346.54,292.16a20.6,20.6,0,0,0-4.38,4.43,20.6,20.6,0,0,0,4.38-4.43Z" style="fill:#c17560"/><path d="M348.09,285.76a45.62,45.62,0,0,1-4,4.52,44,44,0,0,1-4.19,4.33,29,29,0,0,1,3.81-4.68A28,28,0,0,1,348.09,285.76Z" style="fill:#6f4439"/><path d="M351.83,288.25a29.73,29.73,0,0,1-4.06,3.69,28.88,28.88,0,0,1-4.39,3.29,58,58,0,0,1,8.45-7Z" style="fill:#6f4439"/><path d="M455,188.65a18.69,18.69,0,0,1,5.87,10.65c2.13,12.27,6.56,38.27,6.31,41.08-.34,3.69-2.19,9.57-6.38,10.58a18.42,18.42,0,0,1-8.06,0l-2.93-67Z" style="fill:#e0e0e0"/><path d="M455.22,256.84l-.05-65.76s-.95-2.69-4.81-6.63c-1.77-1.81-10.16-7.66-10.16-7.66l-.71-4.34a19.78,19.78,0,0,0-10.91-3.39c-11.07.15-17.78,5.1-17.78,5.1l-1.09,4.29L404.3,180l-8.78,35.94-3.09,48.89-9.1,99.73,80.91-1.85-2.39-65.32A119,119,0,0,0,459.54,278Z" style="fill:#e0e0e0"/><path d="M409.71,178.45l.3-.07.87-.23c.75-.19,1.85-.45,3.22-.71a90.24,90.24,0,0,1,10.78-1.33,74.33,74.33,0,0,1,10.86,0c1.39.12,2.5.3,3.27.43l.88.18a1,1,0,0,0,.31,0l-.3-.09-.87-.22a30.21,30.21,0,0,0-3.27-.52,68.17,68.17,0,0,0-10.89-.11,81.08,81.08,0,0,0-10.81,1.41c-1.37.29-2.46.58-3.21.8l-.85.27C409.8,178.4,409.7,178.44,409.71,178.45Z" style="fill:#263238"/><g style="opacity:0.30000000000000004"><path d="M440,176.74c-9.15,1.62-18.42,0-28.1,1.16,9.35-1.93,19.08-2.85,28.1-1.16"/></g><path d="M455.17,194.07c.13,0,.19,13.78.12,30.78s-.23,30.79-.37,30.79-.2-13.78-.13-30.79S455,194.07,455.17,194.07Z" style="fill:#263238"/><path d="M400,364.54a2.21,2.21,0,0,1,0-.38c0-.28,0-.65,0-1.13,0-1,.07-2.47.13-4.32.14-3.78.34-9.2.59-15.88.54-13.44,1.3-31.95,2.13-52.4s1.69-39,2.27-52.39c.32-6.68.57-12.1.75-15.88.1-1.85.18-3.3.23-4.31,0-.48.06-.85.07-1.12a1.69,1.69,0,0,1,0-.39,3.81,3.81,0,0,1,0,.39c0,.28,0,.65,0,1.12,0,1-.07,2.47-.13,4.32-.14,3.78-.34,9.2-.59,15.88-.55,13.44-1.3,31.95-2.13,52.41s-1.69,39-2.28,52.39c-.31,6.68-.57,12.1-.74,15.87-.1,1.85-.18,3.3-.23,4.32,0,.47-.06.84-.07,1.12A1.65,1.65,0,0,1,400,364.54Z" style="fill:#263238"/><path d="M454.92,255.64a7.56,7.56,0,0,1-1.27.31c-.81.17-2,.37-3.49.59a84.16,84.16,0,0,1-11.65.84,81.26,81.26,0,0,1-11.65-.84c-1.48-.21-2.67-.42-3.49-.6a5.29,5.29,0,0,1-1.26-.31,6.75,6.75,0,0,1,1.29.12c.83.12,2,.27,3.51.44a103.09,103.09,0,0,0,11.6.68,105.56,105.56,0,0,0,11.61-.69l3.5-.43A6.25,6.25,0,0,1,454.92,255.64Z" style="fill:#263238"/><path d="M440.2,176.79l.22.1.62.32c.54.29,1.32.74,2.3,1.38a76.46,76.46,0,0,1,7.86,6,57.62,57.62,0,0,1,4.92,4.73,18.12,18.12,0,0,1,2.32,3.05,13.21,13.21,0,0,1,.82,1.84c.2.64.43,1.29.62,1.95,1.52,5.31,2.71,11.25,3.87,17.5s2.06,12.23,2.76,17.7c.34,2.73.64,5.33.84,7.77a14.76,14.76,0,0,1-.76,6.79,8.39,8.39,0,0,1-3.75,4.18,12.09,12.09,0,0,1-4.06,1.29,13,13,0,0,1-2.68.14c-.31,0-.54,0-.7-.05l-.23,0s.32,0,.93,0a16.08,16.08,0,0,0,2.65-.23,12,12,0,0,0,3.95-1.35,8.15,8.15,0,0,0,3.56-4.07,14.49,14.49,0,0,0,.68-6.61c-.22-2.43-.54-5-.89-7.75-.72-5.45-1.68-11.43-2.8-17.67s-2.33-12.18-3.81-17.46c-.19-.65-.41-1.29-.61-1.93a13,13,0,0,0-.78-1.78,18.57,18.57,0,0,0-2.24-3,56.13,56.13,0,0,0-4.85-4.74,83.72,83.72,0,0,0-7.73-6.07c-1-.67-1.72-1.14-2.24-1.46l-.6-.37C440.26,176.85,440.19,176.8,440.2,176.79Z" style="fill:#263238"/><path d="M455.22,256.84s0,.17.13.5.19.83.33,1.47c.28,1.32.7,3.24,1.24,5.73s1.2,5.58,2,9.18,1.77,7.71,2.43,12.39c.33,2.33.58,4.81.73,7.4s.19,5.3.3,8.11c.2,5.63.41,11.7.64,18.15.45,12.9.95,27.34,1.49,42.91v.24h-.24l-57.56,1.33-23.35.53h-.28l0-.28c3.48-39.69,6.55-74.74,8.75-99.88,1.12-12.55,2-22.63,2.64-29.59.32-3.46.57-6.14.74-8,.09-.9.15-1.59.2-2.06s.09-.7.09-.7,0,.24,0,.7-.09,1.17-.16,2.07c-.15,1.83-.37,4.52-.65,8-.58,7-1.43,17-2.49,29.6l-8.58,99.89-.26-.27,23.36-.54,57.56-1.3-.23.25c-.52-15.57-1-30-1.42-42.92q-.31-9.67-.59-18.15-.15-4.22-.27-8.1c-.14-2.59-.38-5-.7-7.38-.63-4.66-1.65-8.77-2.36-12.38s-1.38-6.69-1.9-9.2-.9-4.43-1.17-5.74c-.13-.65-.22-1.14-.29-1.48Z" style="fill:#263238"/><path d="M400,274.79h-12.5s-5.8,35.93.49,38.27a6.81,6.81,0,0,0,8.89-3.12Z" style="fill:#e0e0e0"/><path d="M400,274.79a5.36,5.36,0,0,1,0,.65c0,.47-.08,1.12-.14,1.93-.14,1.74-.33,4.21-.58,7.29-.53,6.31-1.27,15.12-2.13,25.3V310a8,8,0,0,1-2.14,2.52,6.59,6.59,0,0,1-3.16,1.28,7.86,7.86,0,0,1-3.46-.4,3.19,3.19,0,0,1-.85-.35,2.86,2.86,0,0,1-.7-.64,5.83,5.83,0,0,1-.86-1.61,20.58,20.58,0,0,1-1-5.31c-.13-1.76-.16-3.49-.14-5.19,0-3.4.26-6.65.53-9.71.54-6.13,1.28-11.53,2-15.87l0-.14h.15l9.24.1,2.44,0h.62c.14,0,.21,0,.2,0l-.23,0h-.65l-2.49,0-9.13.1.16-.14c-.64,4.33-1.34,9.73-1.86,15.85-.25,3.06-.45,6.3-.49,9.67,0,1.69,0,3.41.15,5.15a20.82,20.82,0,0,0,.94,5.18c.4,1.06,1,2.08,2.1,2.29a7.2,7.2,0,0,0,3.24.38,6.57,6.57,0,0,0,4.92-3.5l0,.08c.94-10.11,1.76-18.85,2.35-25.11.3-3.1.54-5.58.72-7.34.08-.83.15-1.49.2-2S400,274.8,400,274.79Z" style="fill:#263238"/><path d="M395.05,189.72,383.9,234.64l-27.57,41.29L374,289.17l29.14-38.32c-.05,4.28,11.4-44.71,11.4-44.71L425.73,184c-8.22-4.77-17.69-7.27-25.65-1.71A12.85,12.85,0,0,0,395.05,189.72Z" style="fill:#e0e0e0"/><path d="M398.45,184.53a1,1,0,0,1,.18-.29,6.44,6.44,0,0,1,.65-.75,7.83,7.83,0,0,1,3.14-1.82,9.5,9.5,0,0,1,5.39-.07,10.8,10.8,0,0,1,5.4,3.77,14,14,0,0,1,2.7,6,18.06,18.06,0,0,1,.16,5.38,21,21,0,0,1-.7,3.55,5.2,5.2,0,0,1-.44,1.25c-.1,0,.51-1.83.78-4.84a19.34,19.34,0,0,0-.27-5.25,13.73,13.73,0,0,0-2.64-5.79,10.52,10.52,0,0,0-5.12-3.63,9.38,9.38,0,0,0-5.15,0,8.3,8.3,0,0,0-3.11,1.62C398.78,184.18,398.5,184.57,398.45,184.53Z" style="fill:#263238"/><path d="M414,206.14a1.58,1.58,0,0,1,0,.29c-.05.23-.1.51-.17.87-.17.79-.41,1.9-.71,3.31-.65,2.9-1.57,7-2.7,12.15l-4.07,18c-.41,1.68-.72,3.43-1.26,5.2a25.8,25.8,0,0,1-2.23,5.14,44,44,0,0,1-3.32,4.75l-3.58,4.74-21.71,28.7-.12.16-.16-.12L361,279.6l-3.51-2.69-.91-.72c-.2-.16-.3-.25-.29-.26l.33.21.94.67,3.58,2.61,13,9.59-.28,0,21.62-28.76,3.57-4.74a42.86,42.86,0,0,0,3.29-4.69,24.91,24.91,0,0,0,2.21-5c.53-1.71.85-3.48,1.26-5.16,1.57-6.76,3-12.85,4.18-18s2.18-9.22,2.86-12.12c.34-1.4.61-2.5.81-3.29.09-.35.16-.63.22-.85S414,206.13,414,206.14Z" style="fill:#263238"/></g></svg>