<svg xmlns="http://www.w3.org/2000/svg" viewBox="32 31.29 425.08 437.78"><g id="freepik--background-complete--inject-21"><rect x="62.77" y="56.04" width="35.16" height="11.19" style="fill:#ebebeb"/><path d="M249.83,370.16H213.67V358h36.16Zm-35.16-1h34.16V359H214.67Z" style="fill:#ebebeb"/><path d="M78.32,41.93c-5.84.1-20.81.35-26.45.42l-8.71,0,.46-.46,0,11.19-.5-.5c5.84,0,20.73.08,26.37.16l8.79.11-.24.23.24-11.19Zm0,0,.23,11.19v.24h-.24c-4.39.06-13.2.16-17.58.19l-17.58.07h-.5v-.5l0-11.19v-.45h.45l8.87,0c5.6.06,20.5.31,26.29.41Z" style="fill:#ebebeb"/><path d="M264.76,174.73c-5.84.1-20.81.35-26.45.42l-8.71,0,.46-.46,0,11.19-.5-.5c5.84,0,20.73.07,26.37.16l8.79.1-.24.24.24-11.19Zm0,0,.24,11.19v.24h-.24c-4.39.06-13.19.16-17.58.19l-17.58.07h-.5v-.5l.05-11.19v-.46h.45l8.87,0c5.6.06,20.51.31,26.29.41Z" style="fill:#ebebeb"/><path d="M245.15,160.62c-5.84.1-20.81.35-26.45.42l-8.71,0,.46-.46,0,11.19-.5-.5c5.84,0,20.73.07,26.37.16l8.79.1-.24.24.24-11.19Zm0,0,.24,11.19v.24h-.24c-4.39.06-13.2.16-17.58.19l-17.58.07h-.5v-.5l0-11.19v-.46H210l8.87,0c5.6.06,20.5.31,26.29.41Z" style="fill:#ebebeb"/><rect x="190.46" y="174.73" width="35.16" height="11.19" style="fill:#ebebeb"/><rect x="421.68" y="41.93" width="35.16" height="11.19" style="fill:#ebebeb"/><rect x="402.07" y="433.89" width="35.16" height="11.19" style="fill:#ebebeb"/><path d="M456.84,419.78c-5.84.1-20.81.35-26.45.42l-8.71,0,.46-.46,0,11.19-.5-.5c5.84,0,20.73.07,26.37.16l8.79.1-.24.24.24-11.19Zm0,0,.24,11.19v.24h-.24c-4.39.06-13.19.16-17.58.19l-17.58.07h-.5V431l.05-11.19v-.46h.45l8.87,0c5.6.06,20.51.31,26.29.41Z" style="fill:#ebebeb"/><path d="M78.32,433.89c-5.84.1-20.81.35-26.45.41l-8.71.05.46-.46,0,11.19-.5-.5c5.84,0,20.73.07,26.37.15l8.79.11-.24.24.24-11.19Zm0,0,.23,11.19v.24h-.24c-4.39.06-13.2.16-17.58.19l-17.58.07h-.5v-.5l0-11.19v-.46h.45l8.87,0c5.6.06,20.5.31,26.29.41Z" style="fill:#ebebeb"/><circle cx="207.34" cy="69.76" r="32.74" transform="translate(98.55 259.56) rotate(-78.77)" style="fill:#ebebeb"/><circle cx="208.84" cy="70.49" r="31.24" transform="matrix(0.16, -0.99, 0.99, 0.16, 106.12, 265.51)" style="fill:#dbdbdb"/><circle cx="208.84" cy="70.49" r="29.27" style="fill:#fff"/><path d="M237.45,64.28C224.12,72.35,202.22,85.6,190,92.86a29.25,29.25,0,0,1-8-10.75l40.49-37.53A29.31,29.31,0,0,1,237.45,64.28Z" style="fill:#ebebeb;opacity:0.5"/><path d="M238.09,71.51A29.07,29.07,0,0,1,236.16,81L199.65,98.29a29.91,29.91,0,0,1-4.61-2C206.07,89.93,226.22,78.34,238.09,71.51Z" style="fill:#ebebeb;opacity:0.5"/><rect x="208.56" y="43.35" width="0.57" height="4.44" style="fill:#c7c7c7"/><rect x="196.1" y="46.69" width="0.57" height="4.44" transform="translate(1.85 104.73) rotate(-30)" style="fill:#c7c7c7"/><rect x="186.98" y="55.81" width="0.57" height="4.44" transform="translate(43.37 191.17) rotate(-60)" style="fill:#c7c7c7"/><rect x="181.7" y="70.21" width="4.44" height="0.57" style="fill:#c7c7c7"/><rect x="185.04" y="82.67" width="4.44" height="0.57" transform="matrix(0.87, -0.5, 0.5, 0.87, -16.39, 104.76)" style="fill:#c7c7c7"/><rect x="194.16" y="91.79" width="4.44" height="0.57" transform="translate(18.55 216.25) rotate(-60.05)" style="fill:#c7c7c7"/><rect x="208.56" y="93.2" width="0.57" height="4.44" style="fill:#c7c7c7"/><rect x="221.02" y="89.86" width="0.57" height="4.44" transform="matrix(0.87, -0.5, 0.5, 0.87, -16.39, 122.99)" style="fill:#c7c7c7"/><rect x="230.15" y="80.73" width="0.57" height="4.44" transform="matrix(0.5, -0.87, 0.87, 0.5, 43.36, 241.02)" style="fill:#c7c7c7"/><rect x="231.55" y="70.21" width="4.44" height="0.57" style="fill:#c7c7c7"/><rect x="228.21" y="57.74" width="4.44" height="0.57" transform="translate(1.85 122.96) rotate(-29.99)" style="fill:#c7c7c7"/><rect x="219.09" y="48.62" width="4.44" height="0.57" transform="matrix(0.5, -0.87, 0.87, 0.5, 68.36, 216.16)" style="fill:#c7c7c7"/><polygon points="209.27 45.36 210.23 72.47 207.46 72.43 208.51 45.35 209.27 45.36" style="fill:#c7c7c7"/><polygon points="226.16 61.04 207.92 72.68 206.59 70.24 225.8 60.37 226.16 61.04" style="fill:#a6a6a6"/><path d="M209.79,70.49a.95.95,0,1,1-.95-.95A.95.95,0,0,1,209.79,70.49Z" style="fill:#c7c7c7"/><rect x="271.56" y="67.23" width="182.95" height="367.57" style="fill:#ebebeb"/><rect x="287.23" y="84.46" width="151.62" height="258.4" style="fill:#fff"/><rect x="287.23" y="154.65" width="151.62" height="2.35" style="fill:#ebebeb"/><rect x="287.23" y="215.23" width="151.62" height="2.35" style="fill:#ebebeb"/><rect x="287.23" y="275.81" width="151.62" height="2.35" style="fill:#ebebeb"/><rect x="361.3" y="84.46" width="3.49" height="258.4" style="fill:#ebebeb"/><rect x="368.16" y="185.33" width="17.96" height="29.9" transform="translate(754.28 400.55) rotate(180)" style="fill:#ebebeb"/><rect x="365.69" y="180.24" width="22.89" height="5.09" transform="translate(754.28 365.56) rotate(180)" style="fill:#dbdbdb"/><rect x="370.46" y="191.91" width="13.35" height="18.44" transform="translate(754.28 402.26) rotate(180)" style="fill:#c7c7c7"/><rect x="392.37" y="185.33" width="17.96" height="29.9" transform="translate(802.71 400.55) rotate(180)" style="fill:#ebebeb"/><rect x="389.91" y="180.24" width="22.89" height="5.09" transform="translate(802.7 365.56) rotate(180)" style="fill:#dbdbdb"/><rect x="394.68" y="191.91" width="13.35" height="18.44" transform="translate(802.71 402.26) rotate(180)" style="fill:#c7c7c7"/><rect x="416.58" y="185.33" width="17.96" height="29.9" transform="translate(851.13 400.55) rotate(180)" style="fill:#ebebeb"/><rect x="414.12" y="180.24" width="22.89" height="5.09" transform="translate(851.13 365.56) rotate(180)" style="fill:#dbdbdb"/><rect x="418.89" y="191.91" width="13.35" height="18.44" transform="translate(851.13 402.26) rotate(180)" style="fill:#c7c7c7"/><path d="M290.36,243.52h23.81a0,0,0,0,1,0,0v27a5.31,5.31,0,0,1-5.31,5.31H295.67a5.31,5.31,0,0,1-5.31-5.31v-27A0,0,0,0,1,290.36,243.52Z" transform="translate(604.54 519.33) rotate(180)" style="fill:#ebebeb"/><rect x="295.37" y="240.33" width="13.8" height="3.29" transform="translate(604.54 483.94) rotate(180)" style="fill:#ebebeb"/><rect x="291.85" y="236.81" width="20.83" height="3.52" transform="translate(604.54 477.14) rotate(180)" style="fill:#dbdbdb"/><rect x="294.18" y="251.34" width="19.99" height="17.43" transform="translate(608.35 520.11) rotate(180)" style="fill:#c7c7c7"/><path d="M317,243.52h23.81a0,0,0,0,1,0,0v27a5.31,5.31,0,0,1-5.31,5.31H322.29A5.31,5.31,0,0,1,317,270.5v-27A0,0,0,0,1,317,243.52Z" transform="translate(657.77 519.33) rotate(180)" style="fill:#ebebeb"/><rect x="321.99" y="240.33" width="13.8" height="3.29" transform="translate(657.77 483.94) rotate(180)" style="fill:#ebebeb"/><rect x="318.47" y="236.81" width="20.83" height="3.52" transform="translate(657.77 477.14) rotate(180)" style="fill:#dbdbdb"/><rect x="320.8" y="251.34" width="19.99" height="17.43" transform="translate(661.59 520.11) rotate(180)" style="fill:#c7c7c7"/><rect x="367.12" y="304.26" width="29.84" height="38.6" transform="translate(764.08 647.12) rotate(180)" style="fill:#ebebeb"/><polygon points="367.12 304.26 396.96 304.26 391.24 296.39 372.85 296.39 367.12 304.26" style="fill:#ebebeb"/><rect x="369.44" y="288.73" width="25.21" height="7.66" transform="translate(764.08 585.12) rotate(180)" style="fill:#c7c7c7"/><rect x="371.38" y="312.85" width="25.58" height="17.35" transform="translate(768.34 643.05) rotate(180)" style="fill:#dbdbdb"/><rect x="399.2" y="304.26" width="29.84" height="38.6" transform="translate(828.24 647.12) rotate(180)" style="fill:#ebebeb"/><polygon points="399.2 304.26 429.04 304.26 423.31 296.39 404.93 296.39 399.2 304.26" style="fill:#ebebeb"/><rect x="401.52" y="288.73" width="25.21" height="7.66" transform="translate(828.24 585.12) rotate(180)" style="fill:#c7c7c7"/><rect x="403.46" y="312.85" width="25.58" height="17.35" transform="translate(832.5 643.05) rotate(180)" style="fill:#dbdbdb"/><path d="M350.9,154.65H297.42a5.57,5.57,0,0,1-5.57-5.57h0a5.58,5.58,0,0,1,5.57-5.57H350.9a5.58,5.58,0,0,1,5.57,5.57h0A5.57,5.57,0,0,1,350.9,154.65Z" style="fill:#dbdbdb"/><path d="M350.9,142.79H297.42a5.57,5.57,0,0,1-5.57-5.57h0a5.58,5.58,0,0,1,5.57-5.57H350.9a5.58,5.58,0,0,1,5.57,5.57h0A5.57,5.57,0,0,1,350.9,142.79Z" style="fill:#dbdbdb"/><path d="M350,130.93H298.35a4,4,0,0,1-4-4h0a4,4,0,0,1,4-4H350a4,4,0,0,1,4,4h0A4,4,0,0,1,350,130.93Z" style="fill:#ebebeb"/><path d="M350,122.22H298.35a4,4,0,0,1-4-4h0a4,4,0,0,1,4-4H350a4,4,0,0,1,4,4h0A4,4,0,0,1,350,122.22Z" style="fill:#ebebeb"/><path d="M438.85,361.13c-22.72.35-45.43.44-68.14.48l.48-.48c0,6.87,0,16.78-.07,23.75-.1,7.92-.19,15.84-.42,23.76-.22-7.92-.31-15.84-.41-23.76,0-7-.13-16.84-.07-23.75v-.49h.48c22.71,0,45.42.12,68.14.48Z" style="fill:#c7c7c7"/><path d="M370.7,415.42c22.72-.37,45.43-.44,68.15-.48l-.49.48c0-6.74.05-16.46.08-23.3.09-7.77.18-15.54.41-23.31.22,7.77.31,15.54.41,23.31,0,6.88.13,16.52.07,23.3v.49h-.48c-22.72,0-45.43-.11-68.15-.48Z" style="fill:#c7c7c7"/><rect x="378.34" y="380.58" width="5.16" height="13.71" transform="translate(761.84 774.87) rotate(180)" style="fill:#c7c7c7"/><path d="M287.23,361.13c22.72-.36,45.43-.45,68.15-.48h.47v.49c.06,6.87-.06,16.78-.07,23.75-.1,7.92-.18,15.84-.41,23.76-.23-7.92-.32-15.84-.42-23.76,0-7-.1-16.84-.06-23.75l.48.48c-22.72,0-45.43-.13-68.15-.48Z" style="fill:#c7c7c7"/><path d="M355.38,415.42c-22.72.37-45.43.44-68.15.48h-.48v-.49c-.06-6.74.07-16.46.08-23.3.09-7.77.18-15.54.4-23.31.23,7.77.32,15.54.41,23.31,0,6.88.1,16.52.08,23.3l-.49-.48c22.72,0,45.43.11,68.15.48Z" style="fill:#c7c7c7"/><rect x="342.58" y="380.58" width="5.16" height="13.71" style="fill:#c7c7c7"/><polygon points="290.6 467.19 279.36 467.19 279.36 434.8 299.36 434.8 290.6 467.19" style="fill:#ebebeb"/><polygon points="299.36 434.8 296.13 446.74 279.35 446.74 279.35 434.8 299.36 434.8" style="fill:#dbdbdb"/><polygon points="435.48 467.19 446.72 467.19 446.72 434.8 426.72 434.8 435.48 467.19" style="fill:#ebebeb"/><polygon points="426.72 434.8 429.95 446.74 446.73 446.74 446.73 434.8 426.72 434.8" style="fill:#dbdbdb"/><path d="M335.39,87.68c-10.71,11.66-22,22.93-33.65,33.64,10.72-11.66,22-22.93,33.65-33.64Z" style="fill:#ebebeb"/><path d="M378.12,101.41c-10.71,11.66-22,22.93-33.65,33.64,10.72-11.66,22-22.93,33.65-33.64Z" style="fill:#ebebeb"/><path d="M420.28,269.31c-10.71,11.66-22,22.93-33.64,33.65,10.71-11.67,22-22.94,33.64-33.65Z" style="fill:#ebebeb"/><path d="M376.16,185.53c-10.71,11.66-22,22.94-33.64,33.65,10.71-11.67,22-22.93,33.64-33.65Z" style="fill:#ebebeb"/><path d="M381.92,86.5c-29.06,30-61.9,62.82-91.91,91.91,29.1-30,61.91-62.84,91.91-91.91Z" style="fill:#ebebeb"/><path d="M415.4,243.23c-29.07,30-61.91,62.82-91.92,91.92,29.1-30,61.91-62.85,91.92-91.92Z" style="fill:#ebebeb"/><path d="M383.86,122.34c-19.75,20.7-42.26,43.18-62.95,63,19.78-20.7,42.25-43.2,62.95-63Z" style="fill:#ebebeb"/><path d="M374.17,270c-19.75,20.7-42.26,43.18-63,63,19.79-20.7,42.26-43.2,63-63Z" style="fill:#ebebeb"/><path d="M433,159.3c-19.76,20.7-42.26,43.18-63,63,19.78-20.7,42.25-43.2,63-63Z" style="fill:#ebebeb"/><rect x="43.16" y="78.38" width="114.11" height="143.43" style="fill:#ebebeb"/><rect x="48.98" y="84.1" width="102.47" height="132" style="fill:#fff"/><path d="M121.84,145.93a67.49,67.49,0,0,1-21.69,18.82,67.54,67.54,0,0,1-21.67-18.82c-7.64-10.1-7.26-25.92,3.66-29.34,12.08-3.78,18,14.4,18,14.4s6-18.3,18-14.4C129.06,120.13,129.48,135.83,121.84,145.93Z" style="fill:#ebebeb"/><path d="M91.62,129.2a7,7,0,0,0-4.05,1.08,8.69,8.69,0,0,0-1.18.91,3.39,3.39,0,0,1,5.23-2Z" style="fill:#a6a6a6"/><path d="M108.68,129.2a3.4,3.4,0,0,1,5.24,2,9.42,9.42,0,0,0-1.19-.91,7,7,0,0,0-4-1.08Z" style="fill:#a6a6a6"/><path d="M104.19,133.48a8.7,8.7,0,0,1-1.83,3.73,3,3,0,0,1-1.52,1,3.05,3.05,0,0,1-2.9-1,7.69,7.69,0,0,1-1.82-3.35,5.76,5.76,0,0,0,4.41,1.68A5.5,5.5,0,0,0,104.19,133.48Z" style="fill:#a6a6a6"/><path d="M102.36,137.21a3,3,0,0,1-1.52,1,3.05,3.05,0,0,1-2.9-1,2.79,2.79,0,0,1,2.55-1.14A2.68,2.68,0,0,1,102.36,137.21Z" style="fill:#fff"/><path d="M86.5,137.5a4.76,4.76,0,0,1,1.83-3.77,3.2,3.2,0,0,1,4.16.77,5,5,0,0,1,1.09,2.59A7.62,7.62,0,0,0,92,135a2.79,2.79,0,0,0-3.29-.56,6.34,6.34,0,0,0-2.23,3.11Z" style="fill:#a6a6a6"/><path d="M106.73,137.09a4.46,4.46,0,0,1,2.26-3.52,3.1,3.1,0,0,1,4,1.24,5.62,5.62,0,0,1,.79,2.69,10,10,0,0,0-1.31-2.32,2.71,2.71,0,0,0-3.19-.9,5.67,5.67,0,0,0-2.58,2.81Z" style="fill:#a6a6a6"/><path d="M79.13,138.74c2.25-2.12,6-2.7,8.41-.57a7.3,7.3,0,0,1,1.84,2.37,12.06,12.06,0,0,0-2.15-2c-2.49-1.76-5.55-1.19-8.1.17Z" style="opacity:0.1"/><path d="M121.17,138.74c-2.54-1.36-5.61-1.93-8.1-.17a12,12,0,0,0-2.14,2,7.16,7.16,0,0,1,1.84-2.37c2.45-2.13,6.15-1.54,8.4.57Z" style="opacity:0.1"/><path d="M96.44,141c1.67,1.29,3.8,2.19,5.8,1.14a10.25,10.25,0,0,0,1.8-1.2,5.12,5.12,0,0,1-1.54,1.64c-2.06,1.44-4.8.41-6.06-1.58Z" style="opacity:0.1"/><path d="M100.19,171.25A34.77,34.77,0,1,1,135,136.48,34.81,34.81,0,0,1,100.19,171.25Zm0-68a33.22,33.22,0,1,0,33.22,33.22A33.26,33.26,0,0,0,100.19,103.26Z" style="fill:#ebebeb"/><path d="M98.44,176.17c-.53,0-1,0-1.58-.1l.13-1.54,1.52.1ZM104,176l-.15-1.54,1.52-.17.2,1.53C105,175.92,104.51,176,104,176Zm-12.59-.8c-.52-.12-1-.24-1.54-.38l.4-1.49c.49.13,1,.25,1.48.36Zm19.59-.5-.42-1.49,1.45-.44.48,1.47ZM84.61,173l-1.45-.65.67-1.4c.45.22.92.43,1.39.63Zm33-.85-.68-1.4q.67-.33,1.35-.69l.73,1.36C118.57,171.71,118.1,172,117.63,172.19Zm-39.29-2.53c-.45-.29-.88-.59-1.31-.89l.9-1.26c.41.3.83.58,1.26.86Zm45.37-1.16-.92-1.25c.41-.3.82-.61,1.21-.92l1,1.21C124.55,167.87,124.14,168.19,123.71,168.5Zm-50.94-3.27c-.39-.37-.76-.74-1.13-1.12L72.75,163l1.08,1.07ZM129,163.79l-1.12-1.07c.35-.37.69-.74,1-1.12l1.17,1C129.76,163,129.41,163.4,129,163.79Zm-61-3.91c-.31-.43-.62-.86-.91-1.3l1.28-.86c.29.42.58.83.88,1.24Zm65.38-1.68-1.3-.85q.42-.63.81-1.29l1.33.8C134,157.31,133.75,157.76,133.46,158.2Zm-69.05-4.42c-.23-.48-.45-.95-.66-1.44l1.42-.62q.3.71.63,1.38Zm72.4-1.87-1.43-.6c.2-.47.39-.94.56-1.41l1.45.54C137.21,150.94,137,151.43,136.81,151.91ZM61.9,147.12q-.21-.76-.39-1.53l1.5-.36c.12.5.25,1,.38,1.48Zm77.07-2-1.51-.33c.11-.5.21-1,.3-1.49l1.52.27C139.19,144.09,139.09,144.61,139,145.12Zm-78.35-5c0-.53-.08-1.05-.11-1.58l1.55-.08c0,.51.06,1,.1,1.52Zm79.26-2.05-1.54-.07c0-.5,0-1,0-1.52v-.16h1.54v.15C139.91,137,139.9,137.54,139.88,138.07Zm-77.73-4.94L60.61,133c0-.53.1-1.05.17-1.57l1.53.19C62.25,132.12,62.2,132.63,62.15,133.13ZM138,131c-.07-.51-.15-1-.25-1.51l1.52-.28c.1.52.19,1,.26,1.56ZM63.35,126.4,61.86,126c.14-.51.29-1,.45-1.52l1.47.47C63.63,125.42,63.49,125.91,63.35,126.4Zm73.05-2c-.16-.48-.33-1-.51-1.43l1.45-.55c.18.49.36,1,.53,1.49ZM65.74,120l-1.39-.67c.23-.48.47-.95.71-1.42l1.37.73C66.19,119.08,66,119.53,65.74,120Zm67.92-1.89c-.25-.45-.5-.89-.76-1.32l1.32-.8c.28.45.54.91.79,1.37Zm-64.41-4L68,113.2c.31-.43.63-.85,1-1.27l1.21,1C69.85,113.29,69.54,113.7,69.25,114.11Zm60.59-1.68c-.32-.4-.65-.78-1-1.17l1.16-1c.34.4.69.8,1,1.21Zm-56.1-3.49-1.07-1.11c.38-.37.77-.72,1.16-1.08l1,1.16Zm51.33-1.42-1.18-1,1-1.21c.41.33.82.66,1.22,1Zm-46-2.86-.86-1.28c.44-.3.88-.58,1.33-.85l.81,1.32C79.92,104.11,79.5,104.38,79.08,104.66Zm40.42-1.12c-.43-.26-.88-.51-1.33-.74l.73-1.37c.47.25.93.51,1.39.78ZM85.09,101.4,84.47,100l1.46-.59.56,1.44C86,101,85.55,101.2,85.09,101.4Zm28.22-.78c-.47-.18-1-.34-1.44-.5l.47-1.47q.76.24,1.5.51ZM91.58,99.28l-.35-1.51c.52-.12,1-.23,1.55-.33L93.07,99C92.57,99.06,92.07,99.16,91.58,99.28Zm15.12-.43c-.5-.08-1-.16-1.51-.22l.2-1.54c.53.07,1,.15,1.57.24Zm-8.34-.51-.08-1.54c.53,0,1.06,0,1.59,0V98.3Z" style="fill:#ebebeb"/><rect x="113.58" y="143.39" width="3.66" height="15.95" style="fill:#dbdbdb"/><rect x="113.58" y="143.39" width="3.66" height="15.95" transform="translate(266.77 35.96) rotate(90)" style="fill:#dbdbdb"/><path d="M139.29,187.8h-6.8v-7.34h-7.33v-6.8h7.33v-7.33h6.8v7.33h7.34v6.8h-7.34Zm-5.83-1h4.86v-7.34h7.34v-4.86h-7.34v-7.34h-4.86v7.34h-7.34v4.86h7.34Z" style="fill:#ebebeb"/><path d="M69.83,113.26H63v-7.33H55.7v-6.8H63V91.79h6.8v7.34h7.33v6.8H69.83Zm-5.83-1h4.86V105H76.2v-4.87H68.86V92.76H64v7.33H56.66V105H64Z" style="fill:#ebebeb"/><path d="M77.94,186.41q22.26-.84,44.55,0-22.27.85-44.55,0Z" style="fill:#ebebeb"/><path d="M67.13,195.75c21.34-.55,44.83-.56,66.17,0-21.34.55-44.83.55-66.17,0Z" style="fill:#ebebeb"/><path d="M67.13,200.75c21.34-.54,44.83-.55,66.17,0-21.34.56-44.83.55-66.17,0Z" style="fill:#ebebeb"/><path d="M67.13,205.76c21.34-.55,44.83-.55,66.17,0-21.34.55-44.83.55-66.17,0Z" style="fill:#ebebeb"/></g><g id="freepik--Floor--inject-21"><path d="M45.48,467.2c131-.62,278-.62,409,0-131,.61-278,.61-409,0Z" style="fill:#263238"/></g><g id="freepik--Plant--inject-21"><path d="M80.27,304.49a80.52,80.52,0,0,1,1.87-13.12,29.09,29.09,0,0,1,4.69-11.07A14,14,0,0,1,96,274.58c3.6-.44,7,1.16,9.67,3.43,3.34,2.8,5.89,6.52,8.29,10.13a123,123,0,0,1,7.15,12.53.12.12,0,1,1-.21.11,79.13,79.13,0,0,0-6.4-10.48,66.27,66.27,0,0,0-7.37-8.92c-2.47-2.41-5.61-4.67-9.19-4.78a11.27,11.27,0,0,0-9,4.63c-2.4,3.07-3.62,6.9-4.53,10.63a80.93,80.93,0,0,0-1.85,12.49c-.7,8.65-.89,17.34-1.09,26-.11,4.91-.17,9.81-.22,14.72l-.06,7.45c0,2.4.11,56.88-.28,59.25-.09.48-.88.43-1,0-.39-2.23-.29-12.91-.33-15.18s-.06-48.39-.08-50.75q-.06-6.87,0-13.74C79.54,322.88,79.65,313.66,80.27,304.49Z" style="fill:#263238"/><path d="M92,302.15c.54-2.9,1.52-6.69,3.18-8.93,3-4.05,6.18-2.29,3.21,2.19a26.62,26.62,0,0,0-4.17,11s5,7.14,11,10.66c-.25-2.75-1-7-.49-11,1.16-8.82,6.49-8.32,5.17-1.32-1.06,5.62-1.49,11.58-1.21,14.17a30.5,30.5,0,0,0,6.45,3.16c-.35-1-.71-2.25-1.12-3.74-2.14-7.91,3.13-10.37,3.3-5.92a62.08,62.08,0,0,0,2.05,11.21c2.89,1,5.29,1.64,6.76,2.15a24.71,24.71,0,0,1,9.89,6.76,31.15,31.15,0,0,0,6.73-8.72c-1.84-1.58-4.75-3.94-8.8-6.8-7.58-5.35-4.94-12.1,1.07-7.9,4.34,3,7.7,8.65,9.23,11.53a47,47,0,0,0,3.44-15.78c-6-5.59-20.68-13.38-16.24-13.38,4,0,12.93,5.86,16.21,8.12a41.56,41.56,0,0,0-.51-4.59c-5.61-3.68-23.83-9.39-20.92-11,3.19-1.8,15.9,4.08,19.74,5.95a22.91,22.91,0,0,0-3.37-7c-7.74-10.37-21.72-13.95-27.81-12-4.31,1.4-3,12.34-4,12C93.51,276,85.63,280.9,92,302.15Zm42.47-1.2c1.23-1.48,6.92,2.89,5.27,5.27S132.89,302.86,134.48,301Zm-29.71-9.33c1.49.95-.72,6.48-3,4.81C99.78,295,103.26,290.66,104.77,291.62Z" style="fill:#FFC727"/><path d="M107,293.31c.79-1.54,1.6-3.08,2.5-4.57a26.16,26.16,0,0,1,2.86-4.15l-.74-.91a.12.12,0,0,1,.18-.17c.29.33.57.67.85,1a.3.3,0,0,1,.12.15q1.61,1.92,3,3.95a45.94,45.94,0,0,1,5,1.46c1.7.57,3.39,1.16,5,1.86.17.07.08.35-.09.28-1.63-.73-3.29-1.43-5-2s-3.24-1-4.86-1.42c.53.75,1,1.5,1.54,2.26a59.32,59.32,0,0,1,8.9,3.63c3,1.43,5.9,3.09,8.78,4.76.17.09,0,.34-.15.25a96.12,96.12,0,0,0-8.73-4.52c-2.79-1.31-5.68-2.38-8.49-3.62,7.08,11,11.32,23.78,17,35.58.08.17-.19.31-.26.14-1.73-4.14-3.73-8.17-5.61-12.24-1.7-3.65-3.35-7.32-5-11-.5-1.07-1-2.13-1.53-3.2.31,5.9.18,11.9,1.15,17.73a.15.15,0,1,1-.29,0c-.41-6.3-1.52-12.51-1.47-18.84a.24.24,0,0,1,0-.09c-1.2-2.41-2.48-4.78-3.86-7.1-2.35,5.52-4.81,11.13-5.9,17.05,0,.18-.33.1-.28-.08,1.59-5.94,3.07-11.89,5.93-17.38a67.15,67.15,0,0,0-5-7.19c-.79,1.47-1.8,2.86-2.69,4.26s-1.73,2.75-2.54,4.16a60.08,60.08,0,0,0-4.43,9.35c-.06.18-.35.09-.28-.08C104.12,299.52,105.49,296.37,107,293.31Z" style="fill:#263238"/><path d="M65.29,328c3.82-3.83,8.26-8.86,14.16-8.85,5.7,0,9.9,4.6,12.31,9.33,2.52,4.95,3.43,10.56,4.14,16a196.09,196.09,0,0,1,1.51,19.68c.1,3.66.09,7.32,0,11s-.18,51.11-.84,54.75c-.11.59-1,.61-1.09,0-.17-3.08,0-49.86,0-52.94s0-6.06-.14-9.1c-.23-6.13-.67-12.25-1.39-18.35-.63-5.32-1.13-10.8-2.72-15.94-1.44-4.64-4.14-9.94-8.84-12-6.42-2.78-12.68,2.3-16.88,6.59C65.37,328.29,65.17,328.13,65.29,328Z" style="fill:#263238"/><path d="M32,344.36v0c0,1.05.1,2.1.17,3.12a18.6,18.6,0,0,1,8.45-3.5c7.31-.78,6.85,4.78,2,5a27.74,27.74,0,0,0-10,2c1.19,9.66,3.85,17.42,4.25,17.53a142.53,142.53,0,0,0,19.33-2.44c-1.82-3.88-6-9-3.85-9.45s4.42,4.17,5.59,9.09a91,91,0,0,0,14.06-3.87c-3.22-2.78-8.19-6.25-6.29-7.72s5.85,3.4,8.21,6.95a28.66,28.66,0,0,0,6.08-3.39c-4.34-6.37-14.91-7.67-13.53-12.27s11.27,1.78,15.71,10.31c5.21-5.41,6.74-13.06,6.19-19.6-4.54-.53-13.28.43-12.65-2.83.6-3.1,7-2.64,12.12-.74a18.29,18.29,0,0,0-3-7.18c-4.79-6.15-19.39,1.67-19.39,1.67s1.56-14.68-4-17.22c-3.21-1.46-8.88-1.44-14.56,1.9,3.19.27,7,1.27,8.59,3.49,2,2.82-1.15,4.35-3.13,3.05-1.4-.92-4-3.83-8.73-4.21a28.85,28.85,0,0,0-5.27,5.84c-.54.75-1,1.56-1.54,2.42a20.11,20.11,0,0,1,17.1.31c6.33,3.15,2.79,9.72-2.66,7.17s-10.63-5.07-16.41-3.62c-2.12,4.89-2.82,10.67-2.77,16.37a28.46,28.46,0,0,1,9.38-4.5c6.29-1.65,8.19,2.11,1.28,2.81A27.65,27.65,0,0,0,32,344.36Zm7.66-10.1c-.44-2,4-2.63,4.77-1C45,334.7,40,336.3,39.61,334.26ZM77.8,345.55c.42-1.11,3.41.16,3.14,1.54C80.56,349,77.39,346.67,77.8,345.55Zm-21.09,7.16c2.18-.87,5.58,4.54,3.21,5.78S54.93,353.42,56.71,352.71Z" style="fill:#FFC727"/><path d="M37.59,367.44c3.28-5.48,6.53-11,10-16.38,1.6-2.51,3.29-5,5-7.38l-.78-.18c-.43-.09-.87-.18-1.31-.25-1-.18-2-.32-3-.43s-1.92-.15-2.88-.16a15.12,15.12,0,0,0-3.08.16.08.08,0,1,1,0-.16c1,0,2.07-.09,3.1-.11s2,0,3,.07,1.86.15,2.79.3c.51.07,1,.16,1.53.26.3.06.62.11.92.2q2.67-3.67,5.53-7.19a66.05,66.05,0,0,0-18-5.73c-.11,0-.07-.18,0-.16a60.83,60.83,0,0,1,18.22,5.53q1.57-1.93,3.16-3.85c1.19-1.42,2.46-2.82,3.53-4.33.07-.1.22,0,.14.09a64.3,64.3,0,0,0-4.17,5.1h0A62.45,62.45,0,0,1,68,338.21q3.27,2.9,6.38,6c.08.07,0,.19-.11.12-2-2-4.17-4-6.39-5.82s-4.55-3.53-6.78-5.36c0,0,0,0,0,0l-1.53,2c-.26.34-.52.67-.77,1l-.06.07-2.55,3.34a26.58,26.58,0,0,1,2.54,4.58c.73,1.55,1.37,3.14,2,4.75a70.16,70.16,0,0,1,2.74,10.28c0,.11-.14.15-.16.05a60.13,60.13,0,0,0-3-10.08c-.63-1.67-1.36-3.31-2.11-4.94s-1.51-2.91-2.14-4.41c-.74,1-1.47,2-2.19,3l-.62.87c0,.06,0,.15-.07.15h0c-2.26,3.15-4.4,6.37-6.49,9.63a3.2,3.2,0,0,1,.29.71c.13.39.26.79.37,1.19a20.71,20.71,0,0,1,.57,2.45c.14.77.25,1.55.33,2.33a21.35,21.35,0,0,0,.2,2.66c0,.13-.19.14-.16,0a9,9,0,0,0-.18-2.48c-.12-.84-.28-1.69-.48-2.52s-.38-1.5-.6-2.24q-.16-.57-.36-1.11c-.07-.2-.16-.4-.23-.61-1,1.53-1.94,3.07-2.89,4.62-1.89,3.06-3.76,6.14-5.65,9.21A.14.14,0,0,1,37.59,367.44Z" style="fill:#263238"/><path d="M85.13,429.11c.06-2.3.61-48.3.68-50.6a99.94,99.94,0,0,1,2.54-20.23,19.31,19.31,0,0,1,5.42-10,8.86,8.86,0,0,1,5.31-2.54,9.25,9.25,0,0,1,5.65,1.74,19.87,19.87,0,0,1,4.75,5,48.71,48.71,0,0,1,3.7,6c0,.08-.08.13-.13.05a30.67,30.67,0,0,0-8-9A9.44,9.44,0,0,0,100,347.5a7.49,7.49,0,0,0-5.25,1.65c-2.69,2.34-4.11,5.69-5,9.06-1.1,4-2.45,14.35-2.74,20-.12,2.45-.52,48.6-1,51A.4.4,0,0,1,85.13,429.11Z" style="fill:#263238"/><path d="M96.47,367.53a12.83,12.83,0,0,0,2.5,2.56c-.38-2.25-.83-6.25.3-8.37,1.76-3.31,3.85-1.66,2.8,1.21a23.59,23.59,0,0,0-1.7,8.15,35.3,35.3,0,0,0,7.66,3.61,13,13,0,0,1-.25-3.94c.35-3.53,3-3.47,2.35.21a22.58,22.58,0,0,0-.37,4.31A78.71,78.71,0,0,0,121.69,378a34.81,34.81,0,0,0,4.94-8.79c-2.88-.72-8.7-.88-8.57-2.94.16-2.76,5.8-.63,9.1,1.37a22,22,0,0,0,1-7.44,37.48,37.48,0,0,0-7.93-1.31c-5.92-.51-5.63-3.87-1.34-3.79,3.16.06,7.17,2,9.06,3-1.23-8.05-7.37-13.21-12.3-13.41-8.28-.33-5.3,10-5.3,10s-5.61-3.94-10.9-3.84S90.81,359.65,96.47,367.53Zm22.11-14.89c-.18-1.16,3.51-1.44,3.7,0C122.51,354.35,118.77,353.82,118.58,352.64Zm6,12.08c-.08-.75,1.52-.89,1.88.07C126.65,365.41,124.59,365.47,124.53,364.72Zm-19.88.71c1.24.17,1.95,4.64-.2,4.55C102.82,369.91,103.59,365.28,104.65,365.43Z" style="fill:#FFC727"/><path d="M106.37,370.38c.21-.55.39-1.12.57-1.68a17.37,17.37,0,0,0-.41,1.73A.08.08,0,1,1,106.37,370.38Z" style="fill:#263238"/><path d="M108.56,363.21c.39-1.14.82-2.27,1.27-3.4.23-.59.48-1.19.74-1.78a7.14,7.14,0,0,1,.74-1.49,12.57,12.57,0,0,1-.67-1.45s0-.08.08,0a17.18,17.18,0,0,1,1.61,2.5c.23.39.45.79.67,1.18a11,11,0,0,1,1.4.22c.49.09,1,.19,1.48.3l1.47.34c.49.12,1,.28,1.47.36.12,0,.07.19,0,.15a9,9,0,0,0-1.55-.4c-.47-.11-1-.19-1.43-.26s-1-.13-1.45-.18l-1.09-.08c.19.34.4.69.59,1l.09.16a4.78,4.78,0,0,1,1.19.14c.43.08.85.16,1.28.26.86.19,1.72.39,2.57.63,1.8.5,3.56,1.07,5.33,1.65.1,0,0,.18-.06.15a51.67,51.67,0,0,0-5.35-1.49l-2.55-.56-1.27-.27a8.33,8.33,0,0,1-1-.22c.91,1.68,1.77,3.39,2.56,5.14,1.71,3.8,3.16,7.71,4.63,11.61a.08.08,0,1,1-.15.06,105.45,105.45,0,0,0-4.93-11.35l-1-2c0,.13-.07.27-.09.41-.09.46-.17.92-.25,1.38-.15.92-.31,1.85-.45,2.77a32.08,32.08,0,0,0-.66,5.76c0,.12-.18.11-.16,0a26.35,26.35,0,0,0,.2-2.8c.06-1,.13-1.94.25-2.91s.22-1.86.38-2.78c.07-.46.16-.92.24-1.38a2.74,2.74,0,0,1,.26-1c-.48-1-1-1.95-1.46-2.92s-.92-1.82-1.39-2.72c-.2-.39-.42-.77-.63-1.16a11.16,11.16,0,0,1-.55,1.39c-.21.53-.43,1-.64,1.57-.48,1.15-.92,2.32-1.36,3.49-.63,1.66-1.32,3.35-1.83,5.08C107.56,366.6,108,364.88,108.56,363.21Z" style="fill:#263238"/><path d="M106.94,368.7c0-.14.08-.27.12-.4Z" style="fill:#263238"/><polygon points="68.88 413.9 69.47 426.31 70.98 461.94 103.97 461.94 105.48 426.31 106.07 413.9 68.88 413.9" style="fill:#455a64"/><polygon points="68.88 413.9 69.38 424.41 105.7 421.59 106.07 413.9 68.88 413.9" style="fill:#37474f"/><rect x="66.54" y="408.88" width="41.88" height="10.03" transform="translate(174.95 827.8) rotate(180)" style="fill:#455a64"/><rect x="95.51" y="461.94" width="5.79" height="5.25" style="fill:#455a64"/><rect x="95.51" y="461.94" width="5.79" height="2.63" style="fill:#263238"/><rect x="73.65" y="461.94" width="5.79" height="5.25" style="fill:#455a64"/><rect x="73.65" y="461.94" width="5.79" height="2.63" style="fill:#263238"/></g><g id="freepik--character-2--inject-21"><polygon points="285.29 321.21 282.17 339.92 261.04 467.19 257.63 467.19 273 339.92 275.27 321.21 285.29 321.21" style="fill:#dbdbdb"/><polygon points="275.27 321.21 285.29 321.21 282.17 339.92 273 339.92 275.27 321.21" style="fill:#a6a6a6"/><polygon points="351.66 467.19 348.25 467.19 327.12 339.92 324 321.21 334.02 321.21 336.29 339.92 351.66 467.19" style="fill:#dbdbdb"/><polygon points="334.02 321.21 336.29 339.92 327.12 339.92 324 321.21 334.02 321.21" style="fill:#a6a6a6"/><polygon points="415.05 467.19 411.64 467.19 390.51 339.92 387.39 321.21 397.41 321.21 399.68 339.92 415.05 467.19" style="fill:#dbdbdb"/><polygon points="399.68 339.92 390.51 339.92 387.39 321.21 397.41 321.21 399.68 339.92" style="fill:#a6a6a6"/><polygon points="409.65 330 254.78 330 254.78 313.68 312.76 313.68 332.24 200.32 403.74 200.32 409.65 330" style="fill:#dbdbdb"/><polygon points="409.65 330 401.2 330 395.7 200.32 403.74 200.32 409.65 330" style="fill:#a6a6a6"/><path d="M167,430c2.69,1.57,85.48,18.88,89.06,17.54,1.36-.5,4.58-12.41,8.07-26.91.75-3.13,1.51-6.37,2.26-9.66,4.91-21.38,9.62-44.17,9.62-44.17l-55.35-11.74-8.09,44.49-1.79,9.77s-34.66,7.55-38.42,9.43S164.33,428.46,167,430Z" style="fill:#d3766a"/><path d="M262.8,426.19c-2.95,11.9-5.54,20.94-6.72,21.39-3.57,1.33-86.37-16-89.06-17.56s1.61-9.34,5.35-11.24c2.32-1.15,16.41-4.48,26.86-6.85-9.13,2.18-26.16,8.37,9.06,10.92C237.41,425,256.62,425.92,262.8,426.19Z" style="fill:#FFC727"/><path d="M238.49,467.39c3,1,87.54.77,90.76-1.28,1.23-.77.15-19.38-.58-22.68-2.45-11.18-18-60.54-18-60.54l-54.7,1L277,438.09s-32.34,14.57-35.64,17.19S235.54,466.41,238.49,467.39Z" style="fill:#d3766a"/><path d="M329.25,466.11c-3.22,2.05-87.79,2.26-90.76,1.29s-.37-9.5,2.91-12.12c1.54-1.22,9.37-5,17.3-8.74-10,5-25.92,16.4,70.66-.61C329.75,455.63,329.91,465.7,329.25,466.11Z" style="fill:#FFC727"/><path d="M372.78,305.31c-16.83,18.76-73.4,3.95-76.78,11.41C293,323.3,331.62,429,331.62,429l-61.77,6.66S216.53,318.92,235.59,285.2c10.3-18.22,55.66-11,83-14.29,8.25-1,12.13-18,12.13-18h48.92S392,283.88,372.78,305.31Z" style="fill:#37474f"/><path d="M252.76,274.75l51.87,39.69c17.23-.37,54.93,5.6,68.15-9.13,19.25-21.44,6.9-52.43,6.9-52.43H330.76s-3.87,17-12.13,18C299.41,273.24,271.36,270.37,252.76,274.75Z" style="fill:#263238"/><path d="M267.49,421.88c1.71-.53,17.72-2.32,21.26-2.7,7.07-.77,29.33-2.85,33.36-2.83a.09.09,0,0,1,0,.18c-3.5.74-17.71,2.4-21.24,2.76-7.08.73-31.4,3.09-33.37,2.89A.15.15,0,0,1,267.49,421.88Z" style="fill:#263238"/><path d="M288.51,310.53c4-2,34.08-1,55.68-3,7-.66,14.1-2.16,19.47-6.78a32.07,32.07,0,0,0,9.61-15.83c2.08-7.38,1.87-15.08,1.51-22.64-.09-1.86-.21-3.72-.33-5.58,0-.11.18-.13.2,0,1.64,13.54,2.9,28.67-5.91,40.41A28.37,28.37,0,0,1,353,307.4c-13,3.42-62,2.57-63.74,3.9-2.06,1.57,29.61,98,30.24,99.82.12.34-.49.58-.63.23C315.73,404,285.05,312.25,288.51,310.53Z" style="fill:#263238"/><path d="M233.38,288.46c2.91-7.39,9.55-12,19.32-13.76.17,0,.16.21,0,.26-8.53,2.49-14.63,5.92-18,13.12-1.56,3.36-2.38,8.08-2.78,14.41-2,31.57,25.52,103.22,26.08,104.47a.1.1,0,0,1-.17.09C254,400.52,221.35,319,233.38,288.46Z" style="fill:#263238"/><path d="M211,396.75l46.78,9.95s-36.91-110.13-19.57-124.34c4.8-3.94,15.27-5.31,27.72.06,18.58,8,40.1,24.39,60.37,30.38,19,5.6,41.54.45,49.3-8.09,16.3-17.94,4-51.85,4-51.85l-63.79-2.52s1,.81-2.21,3.66c0,0-43-9-60.19,1.53C222.51,274.46,211,396.75,211,396.75Z" style="fill:#37474f"/><path d="M350.62,256.79a.12.12,0,0,1,.23,0,38.11,38.11,0,0,0,.59,7.54,13.06,13.06,0,0,0,3.38,6.27c3.69,3.73,9,5,13.81,6.52.26.08.21.53-.08.49-5.36-.82-11-2.18-14.92-6.21a13,13,0,0,1-3.47-6.75A16.15,16.15,0,0,1,350.62,256.79Z" style="fill:#263238"/><path d="M239.41,280.26c7.19-4.51,18.43-1.09,23.81,1,.11,0,.06.22-.05.18-4.95-1.78-17.27-4.48-23.86.19-15.22,10.78,5.15,84.51,18.51,125.09.2.63-.3.46-.58-.15-2.2-4.81-19.42-56.08-23.91-90C232.64,311.33,229,286.76,239.41,280.26Z" style="fill:#263238"/><path d="M216.38,384.32c1.41,0,13.53,2.63,16.2,3.23,5.34,1.21,17.72,4.41,20.61,5.51.08,0,0,.19-.05.18-2.78-.26-9.23-1.68-11.89-2.29-5.34-1.24-23.62-5.63-25-6.34C216.17,384.54,216.24,384.32,216.38,384.32Z" style="fill:#263238"/><path d="M241.7,278.34c4.84-2.64,10.59-3.07,16-2.41A56,56,0,0,1,274,281c10.95,5,21.37,11.12,32.32,16.1s22.52,8.81,34.53,9.18c10.26.32,23.25-1.49,29.84-10.72,10.17-14.22,4.25-38.74,4.13-40.33,0-.12.16-.11.19,0,7.88,30.14-2.26,41.84-9.11,46.76-5.44,3.91-13.25,4.9-18.41,5.33-12,1-23.92-1.91-35-6.32-11.34-4.52-22-10.6-32.84-16.16-10.43-5.33-22-10.83-33.94-7.78a28.91,28.91,0,0,0-4,1.36C241.68,278.49,241.64,278.38,241.7,278.34Z" style="fill:#263238"/><path d="M318.14,139.24c8.44,9.08,3,17.63,6.63,20.51,9.5,7.52,3.48,10.83,6,13.63,2.1,2.3,9.93,3.76,7.73,12.65l-35.32,2.2c-1.43-5.74,4.22-9.22,4.33-13.35s-5-7.9,2.21-17.14C314.45,151.74,314.09,134.88,318.14,139.24Z" style="fill:#263238"/><path d="M336.88,187.64C329.21,210,317.75,235,312.64,239c-6.46,5-39.71,11.29-41.66,11.29-4.85,0-7-30-4.17-30.3,8.48-.72,29.57-4.26,31.45-5.82s11.78-14.38,25.85-30.08C333.82,173.24,341.64,173.8,336.88,187.64Z" style="fill:#d3766a"/><path d="M273.66,250c-3.5.92-22.4,6.07-27.14,5.83s-18.35-1.95-18.53-5.61,3.84-3.47,3.84-3.47-5.63-1.63-5.47-5.32,6.4-3.21,6.4-3.21-5.66-2.1-5.24-5.77,6.62-2.13,6.62-2.13-5.27-1.68-3.65-4.56c1.95-3.46,11.3.72,16.56.6,1.2,0,24.17-2.27,24.17-2.27Z" style="fill:#d3766a"/><path d="M233.6,230.19c6.89,3.06,10.43,3.2,17.78,2.13.14,0,.2.19.06.22-7.1,1.71-11.57,2.16-18-2C233.12,230.31,233.28,230,233.6,230.19Z" style="fill:#263238"/><path d="M232.22,238c7.43,2.55,11.27,2.74,19,2.18.11,0,.14.18,0,.2-7.58,1.18-12,1.54-19.14-2C231.83,238.19,231.88,237.84,232.22,238Z" style="fill:#263238"/><path d="M232.23,246.7c7.37,2,11.57,2.34,19.05.83a.14.14,0,0,1,.07.27c-7.47,2.29-12.72,1.83-19.16-.87C231.75,246.74,231.76,246.58,232.23,246.7Z" style="fill:#263238"/><path d="M275.51,219.89s-8.41-4.31-12.52-5.39-20.9.53-20.76,4.18c.19,4.71,10.06,5.68,15,5.53,0,0,.41,10.89,7.35,13.13S275.51,219.89,275.51,219.89Z" style="fill:#d3766a"/><path d="M242.71,220c3.26,4.18,9.68,3.56,14.45,3.77.36,0,.47.31.41.59.48,4.55,2.48,10.84,6.71,13.17a.11.11,0,1,1-.09.2c-4.88-1.89-7.35-7.9-7.55-12.92-4.89-.14-11.36.2-14-4.78A0,0,0,0,1,242.71,220Z" style="fill:#263238"/><path d="M270.94,214.65l5.93,38.89s29.83-7,36.42-12.71,18.65-36.34,23.55-51.94-3.21-16.07-11.69-6.8S298,212.62,296.88,213,270.94,214.65,270.94,214.65Z" style="fill:#FFC727"/><path d="M317.65,227.32a.66.66,0,0,1,.64.67.65.65,0,0,1-.67.63A.66.66,0,0,1,317,228,.65.65,0,0,1,317.65,227.32Zm-11.54-5.57a.65.65,0,1,0,.67-.63A.65.65,0,0,0,306.11,221.75Zm19.8-6.76a1.76,1.76,0,0,0-.19,3.52c.44-1,.87-2,1.3-3.08A1.69,1.69,0,0,0,325.91,215Zm-13.53-12.13a1.77,1.77,0,1,0,1.81-1.71A1.76,1.76,0,0,0,312.38,202.86Zm-1.15,32.72a1.76,1.76,0,1,0,1.81-1.71A1.76,1.76,0,0,0,311.23,235.58ZM325,190.11a.66.66,0,1,0,1.31,0,.65.65,0,0,0-.63-.67A.67.67,0,0,0,325,190.11Zm-1.28-6.4-2.13,2.35a1.32,1.32,0,0,0,.44.08,1.77,1.77,0,0,0,1.82-1.72A1.69,1.69,0,0,0,323.68,183.71Zm-35.41,44.72a.65.65,0,1,0,.67-.63A.65.65,0,0,0,288.27,228.43ZM280.85,251a.66.66,0,1,0,.67-.63A.65.65,0,0,0,280.85,251Zm17.52-11.83a.65.65,0,1,0,.67-.63A.65.65,0,0,0,298.37,239.14Zm-23.22,0a.65.65,0,1,0,.67-.63A.65.65,0,0,0,275.15,239.14Zm22.47-16.64a1.76,1.76,0,1,0,1.81-1.72A1.76,1.76,0,0,0,297.62,222.5Zm-12.27,23.68a1.76,1.76,0,1,0,1.81-1.71A1.76,1.76,0,0,0,285.35,246.18Zm-10.52-27.71a1.76,1.76,0,1,0,1.81-1.71A1.76,1.76,0,0,0,274.83,218.47Zm59.93-25.73a1.75,1.75,0,0,0-1.81,1.71,1.73,1.73,0,0,0,1.44,1.78c.4-1.13.77-2.23,1.13-3.29A1.79,1.79,0,0,0,334.76,192.74Z" style="fill:#fff"/><path d="M282.12,236.4c-.6-4.21-1.23-8.41-1.68-12.63-.25-2.4-.52-4.8-.75-7.2,0-.09.15-.12.16,0,.77,4.2,1.53,8.41,2.11,12.64s1.18,8.41,1.7,12.63c.29,2.4.52,4.79.67,7.2,0,.05-.08.06-.09,0C283.34,244.85,282.72,240.63,282.12,236.4Z" style="fill:#263238"/><path d="M336.83,188.89c-4.89,15.61-17,46.2-23.55,51.94s-36.41,12.71-36.41,12.71l-.28-1.84L334.81,176h0C338.18,176,339.65,179.94,336.83,188.89Z" style="fill:#050400;opacity:0.1"/><path d="M312.17,253.55l4.38-26.83s-6.16-5.93-4.95-13.72c.93-6,16.74-30.52,21.59-35.55s13.29-4.6,18.61,2.34c13.58,17.73,27,47.32,31.78,79.7Z" style="fill:#FFC727"/><path d="M383.58,259.49l-35.25-2.93-2.46-.21h0l-33.69-2.8,4.38-26.83s-6.16-5.93-4.95-13.72c.27-1.77,1.86-5.18,4.08-9.23a1.09,1.09,0,0,0,.08-.15c5.28-9.58,14-22.65,17.43-26.17,5-5.15,13.29-4.6,18.61,2.34a119.37,119.37,0,0,1,7.12,10.45h0c.1.15.19.31.27.46h0C370,208.5,379.65,233.06,383.58,259.49Z" style="fill:#FFC727"/><path d="M355.28,241.89a.66.66,0,0,1,.64.67.65.65,0,0,1-.67.63.66.66,0,0,1-.64-.67A.65.65,0,0,1,355.28,241.89ZM332,232.15a.65.65,0,1,0,.67-.64A.66.66,0,0,0,332,232.15Zm27.23-41.44c-.08-.15-.17-.31-.27-.46h0a.58.58,0,0,0-.34-.11.65.65,0,1,0,.63.67v-.08Zm-21.43-5.26a.66.66,0,1,0,.67-.64A.66.66,0,0,0,337.77,185.45ZM317,228a.66.66,0,0,0,.64.67.65.65,0,0,0,.67-.63.66.66,0,0,0-.64-.67A.65.65,0,0,0,317,228Zm-1.76,23a.65.65,0,1,0,.67-.63A.65.65,0,0,0,315.22,251Zm30-40.89a.65.65,0,0,0,.63.67.65.65,0,1,0,0-1.3A.65.65,0,0,0,345.18,210.08Zm-12.48-1.37a.66.66,0,1,0,.67-.64A.66.66,0,0,0,332.7,208.71Zm23,13.13a.65.65,0,1,0,1.3,0,.66.66,0,0,0-.63-.68A.66.66,0,0,0,355.72,221.84ZM324.1,216.7a1.77,1.77,0,1,0,1.81-1.71A1.77,1.77,0,0,0,324.1,216.7Zm23.15,36.76a1.76,1.76,0,0,0-1.81,1.71,1.71,1.71,0,0,0,.42,1.18h0l2.46.21a1.75,1.75,0,0,0-1.08-3.1ZM340,228.31a1.77,1.77,0,1,0,1.81-1.71A1.77,1.77,0,0,0,340,228.31Zm-15.9,16.11a1.77,1.77,0,1,0,1.81-1.72A1.76,1.76,0,0,0,324.1,244.42Zm46.24-21.89a.65.65,0,0,0,1.3,0,.65.65,0,1,0-1.3,0Zm-1.61,26.74a.66.66,0,0,0,.64.67.65.65,0,0,0,.67-.63.67.67,0,0,0-.64-.68A.66.66,0,0,0,368.73,249.27ZM325,190.11a.66.66,0,1,0,1.31,0,.65.65,0,0,0-.63-.67A.67.67,0,0,0,325,190.11Zm49.44,51.62a1.76,1.76,0,1,0,1.81-1.71A1.76,1.76,0,0,0,374.4,241.73ZM363,230.41a1.77,1.77,0,1,0,1.81-1.71A1.76,1.76,0,0,0,363,230.41ZM354,204.62a1.76,1.76,0,1,0,1.81-1.71A1.76,1.76,0,0,0,354,204.62Zm-21-10.17a1.76,1.76,0,0,0,3.52.1,1.76,1.76,0,1,0-3.52-.1Z" style="fill:#fff"/><path d="M325.08,222.78a56.12,56.12,0,0,1,8.49.83c1.39.26,2.76.58,4.13.93.69.18,1.37.33,2.06.48a9,9,0,0,0,2.19.27.05.05,0,0,1,0,.1,16,16,0,0,1-2.08.1,14.92,14.92,0,0,1-2-.25c-1.42-.25-2.82-.56-4.23-.83-2.84-.53-5.69-1.07-8.57-1.39C324.93,223,325,222.78,325.08,222.78Z" style="fill:#263238"/><path d="M318.26,225.75a60.79,60.79,0,0,1,7-.8c1.18-.07,2.34-.06,3.52,0,.56,0,1.12,0,1.68.07s1.23.16,1.84.19c.07,0,.07.1,0,.1-.58,0-1.17.08-1.75.1l-1.76.07c-1.17,0-2.33.11-3.51.15-2.34.08-4.67.17-7,.33C318.14,226,318.14,225.77,318.26,225.75Z" style="fill:#263238"/><path d="M354.56,183.77c12.43,17.4,27.78,47.75,25.34,54.08-6.11,15.87-23,33.75-31.09,39.94-4.73,3.61-25-20.42-21-23.84,6.38-5.38,22.69-23.25,24.62-25.63,1-1.26-5.33-23.27-8.16-38C341.22,174.28,348.5,175.28,354.56,183.77Z" style="fill:#d3766a"/><path d="M316.91,270.46c.87-1.86-.1-2.33-3.35-.68s-14.73,10.9-17.62,6.63S309.42,259.3,315,257s15.54-4.11,15.54-4.11C327.89,256,322.1,264.24,316.91,270.46Z" style="fill:#d3766a"/><path d="M351.37,275.06c-7.89,8.56-17.19,19.7-29.76,23.5a6.48,6.48,0,0,1-4.26-.06c-5.6,1.81-8.14-.29-8.14-.29-5.73.08-8-2.43-8-2.43s-6.6,2.05-8.5-1.73c-2.15-4.24,7.54-6.29,12.18-10.67,10.64-10.05,22.94-27.31,25.72-30.51Z" style="fill:#d3766a"/><path d="M323.41,280.68A95.56,95.56,0,0,1,313.6,289a95,95,0,0,1-12.36,6.68.11.11,0,0,0,.08.21,49.68,49.68,0,0,0,22.22-15C323.68,280.66,323.57,280.53,323.41,280.68Z" style="fill:#263238"/><path d="M330.41,286.21c-3.26,2.65-9,7.26-21.25,11.87,0,0,0,.08,0,.07a44.59,44.59,0,0,0,21.35-11.78C330.72,286.19,330.62,286,330.41,286.21Z" style="fill:#263238"/><path d="M334.11,289.26c-5.71,4.28-9.86,6.26-16.74,9.21,0,0,0,.08,0,.07,8.18-2.52,10.86-4.36,16.89-9.11C334.49,289.27,334.33,289.09,334.11,289.26Z" style="fill:#263238"/><path d="M355.66,278.38,329.3,249.9l21.63-21.83c-3-12-9-35.93-9.82-44.52-1-10.09,6-11.42,12.49-3.43,14.93,18.28,31.51,52.73,31.3,58.63C384.59,247.2,355.66,278.38,355.66,278.38Z" style="fill:#FFC727"/><path d="M352.69,271.38a.65.65,0,0,1,0,1.3.65.65,0,1,1,0-1.3Zm1.92-28.86a.66.66,0,0,0,.64.67.65.65,0,0,0,.67-.63.66.66,0,0,0-.64-.67A.65.65,0,0,0,354.61,242.52Zm3.3-51.76a.65.65,0,1,0,.67-.63A.65.65,0,0,0,357.91,190.76Zm-20.67,66.41a.63.63,0,0,0-.66.59l.65.71a.65.65,0,0,0,0-1.3Zm32.14-51.61a.66.66,0,0,0,.64.67.65.65,0,1,0-.64-.67Zm-13.66,16.28a.65.65,0,1,0,1.3,0,.66.66,0,0,0-.63-.68A.66.66,0,0,0,355.72,221.84Zm-10.28,33.33a1.76,1.76,0,1,0,1.81-1.71A1.76,1.76,0,0,0,345.44,255.17Zm19.92,6.12a1.77,1.77,0,1,0,1.81-1.71A1.77,1.77,0,0,0,365.36,261.29Zm5-38.76a.65.65,0,0,0,1.3,0,.65.65,0,1,0-1.3,0Zm-1.61,26.74a.66.66,0,0,0,.64.67.65.65,0,0,0,.67-.63.67.67,0,0,0-.64-.68A.66.66,0,0,0,368.73,249.27Zm5.67-7.54a1.76,1.76,0,1,0,1.81-1.71A1.76,1.76,0,0,0,374.4,241.73ZM363,230.41a1.77,1.77,0,1,0,1.81-1.71A1.76,1.76,0,0,0,363,230.41ZM354,204.62a1.76,1.76,0,1,0,1.81-1.71A1.76,1.76,0,0,0,354,204.62Z" style="fill:#fff"/><path d="M366.94,265.59c6.22-7.82,13.07-15.51,17.19-24.68,1.08-2.61-.14-5.26-1-7.77q-1-2.56-2.08-5.06c-6.13-13.32-13.54-26-20.7-38.77,8,12.31,15.54,25,21.52,38.41.73,1.69,1.43,3.39,2,5.14.79,2.58,1.92,5.6.76,8.25a39.3,39.3,0,0,1-4.07,7.24,186.1,186.1,0,0,1-13.68,17.24Z" style="fill:#263238"/><path d="M344.27,199.39c2,8.07,4.63,17.39,6.52,25.51.23,1,.48,2,.62,3.08a.75.75,0,0,1-.14.5c-4.91,5.65-11,11.08-16.42,16.29l-5.54,5.1v-.07l.66.81-.73-.74,0,0,0,0,5.26-5.38c5.14-5.33,11.15-10.94,16-16.46,0-.09,0,.1,0,.12-.05-.37-.13-.74-.22-1.13-2-9-4.5-18.48-6-27.56Z" style="fill:#263238"/><path d="M343.71,201.16c.7,1.22,1.17,2.61,1.8,3.86a10.28,10.28,0,0,1-1.8-3.86Z" style="fill:#263238"/><path d="M350.77,261c-2.82-3.17-5.66-6.32-8.37-9.6-1.53-1.86-3.08-3.72-4.6-5.59-.06-.07.06-.18.12-.11,3,3.07,5.92,6.17,8.73,9.37s5.64,6.37,8.4,9.59c1.57,1.84,3.08,3.71,4.53,5.64a0,0,0,0,1-.06.06C356.46,267.39,353.61,264.21,350.77,261Z" style="fill:#263238"/><path d="M344.88,178c-.19,1.31-5.6,10.15-11.49,10.38-1.92.07-2.77-10.38-2.77-10.38l-.24-.76L327,166.63l12-9.22,1.75-1.23s.72,2.95,1.58,6.65c0,.17.08.34.13.52s.1.41.14.6c.14.55.28,1.12.4,1.68s.19.84.28,1.3.18.89.28,1.34A71,71,0,0,1,344.88,178Z" style="fill:#d3766a"/><path d="M342.37,162.83a22.22,22.22,0,0,1-12,14.39L327,166.63l12-9.22,1.75-1.23S341.51,159.13,342.37,162.83Z" style="fill:#263238"/><path d="M313,137.21s-4.34,2.43-5,5.82c-1,5.52,1.8,13.82,1.8,13.82Z" style="fill:#263238"/><path d="M309.65,152.57c-.23,19.5,11.43,21.84,15.64,21.89,3.81,0,16.82-.3,19.06-19.66s-6.75-25.64-15.47-26.2S309.88,133.08,309.65,152.57Z" style="fill:#d3766a"/><path d="M313.29,149.65c.45-.08.86-.23,1.3-.35a2.18,2.18,0,0,0,1.25-.61.69.69,0,0,0,0-.85,1.7,1.7,0,0,0-1.71-.3,2.48,2.48,0,0,0-1.54,1A.74.74,0,0,0,313.29,149.65Z" style="fill:#263238"/><path d="M326.27,149.22a11.85,11.85,0,0,1-1.33-.2,2.22,2.22,0,0,1-1.32-.46.71.71,0,0,1-.05-.85,1.74,1.74,0,0,1,1.67-.5,2.57,2.57,0,0,1,1.64.8A.74.74,0,0,1,326.27,149.22Z" style="fill:#263238"/><path d="M323.71,154.2s.1.06.1.11c0,1.33.24,2.85,1.45,3.25,0,0,0,.08,0,.07C323.78,157.48,323.5,155.46,323.71,154.2Z" style="fill:#263238"/><path d="M324.84,152.77c2.13-.23,2.45,4,.48,4.26S323.06,153,324.84,152.77Z" style="fill:#263238"/><path d="M325.7,152.93c.39.22.79.62,1.24.63s.89-.46,1.2-.92c0,0,.07,0,.07.05.08.81-.18,1.68-1,1.86s-1.42-.51-1.68-1.32C325.43,153.08,325.54,152.85,325.7,152.93Z" style="fill:#263238"/><path d="M315.92,154.35s-.1.06-.1.12c0,1.33-.14,2.85-1.34,3.29a0,0,0,0,0,0,.08C316,157.63,316.17,155.6,315.92,154.35Z" style="fill:#263238"/><path d="M314.74,153c-2.14-.16-2.31,4.12-.33,4.27S316.53,153.1,314.74,153Z" style="fill:#263238"/><path d="M313.89,153.15c-.38.23-.77.64-1.22.67s-.9-.43-1.22-.88c0-.05-.08,0-.08.05-.05.82.24,1.67,1.11,1.83s1.4-.56,1.64-1.37C314.17,153.29,314,153.06,313.89,153.15Z" style="fill:#263238"/><path d="M324.58,164.55c-.28.35-.54.81-1,.91a3.63,3.63,0,0,1-1.46-.16s-.08,0,0,.07a1.78,1.78,0,0,0,1.76.52,1.42,1.42,0,0,0,.89-1.29A.07.07,0,0,0,324.58,164.55Z" style="fill:#263238"/><path d="M318.74,160.11s-.15,2-.09,2.92c0,.09.23.12.55.12h0a4.45,4.45,0,0,0,4.21-1.93c.06-.09-.06-.18-.14-.12a6.68,6.68,0,0,1-4,1.41c-.08-.25.38-3.41.23-3.41a8.27,8.27,0,0,0-2.09.61c.19-4.16,1.05-8.26,1.18-12.41a.13.13,0,0,0-.25-.05,67.79,67.79,0,0,0-1.84,13.32C316.5,161.11,318.37,160.29,318.74,160.11Z" style="fill:#263238"/><path d="M325.62,127.88c9.28-1.24,17.15.27,21.2,4.62,8.44,9.09,5,25.72,8.6,28.6,9.49,7.52,3.48,10.83,6,13.63,2.1,2.3,9.93,3.76,7.74,12.65l-35.33,2.2c-1.42-5.74,4.22-9.22,4.33-13.35s-5-7.9,2.21-17.14C345.09,153.09,325.62,127.88,325.62,127.88Z" style="fill:#263238"/><path d="M345.17,154.2c-2.22.34-7.41,1.08-10.9-1.38-1.93-1.36-3.71-3.78-5-8.27-2.3-7.86-8.11-12.66-16.26-7.34,0,0-2.36-7.26,2.41-10.57s10.22,1.24,10.22,1.24,11-2,17.51,5.93S345.17,154.2,345.17,154.2Z" style="fill:#263238"/><path d="M339.08,155.12s3.79-6.39,6.66-5.08.34,10.34-2.81,11.79a3.31,3.31,0,0,1-4.54-1.44Z" style="fill:#d3766a"/><path d="M345,152.61c.05,0,.07.07,0,.09-2.2,1.08-3.23,3.27-3.9,5.52a1.82,1.82,0,0,1,2.68-.7c.06,0,0,.13-.06.12a2,2,0,0,0-2.17.87,9.4,9.4,0,0,0-.93,1.88c-.09.21-.47.13-.41-.11,0,0,0,0,0-.05C339.92,157.34,341.87,153.13,345,152.61Z" style="fill:#263238"/></g><g id="freepik--character-3--inject-21"><path d="M276.64,221.69c1.13,1.18,6.82,8.89,12.4,10.57,5.94,1.79,11.15,2.27,13.47,1.14,6.36-3.07,3.68-9.9-.36-11.07-5.09-1.48-7.93-.53-10.82-1.34-.34-.09-6.49-4.4-9.57-5.28C279.79,215.15,275.23,220.22,276.64,221.69Z" style="fill:#f7a9a0"/><path d="M282.86,216.26c.16-.8-.28-2.3-.08-2.93s.57-2.55-.18-2.44-1.72,2.52-1.94,3.07-2.15-2.86-3.22-1.84.57,3.06.35,3.27-2.22-1.55-3.09-.59,1.57,2.49,1.51,2.57-1.13-2-2-1.24,1.16,3,1,3.12-1.84-.33-2.37.66,2.35,1.31,2.58,1.39,1.69,1.15,2.21.89A41.54,41.54,0,0,0,282.86,216.26Z" style="fill:#f7a9a0"/><path d="M288.51,219.23a8.6,8.6,0,0,1,2.88,1.71c.22.19.41.39.61.59s.38.42.54.66a6.8,6.8,0,0,1,.85,1.45,14.92,14.92,0,0,0-1-1.32,12.7,12.7,0,0,0-1.16-1.16,14.33,14.33,0,0,0-1.3-1C289.46,219.81,289,219.51,288.51,219.23Z" style="fill:#263238"/><path d="M278.92,221.53a9.41,9.41,0,0,0,1.93-1.57,9.2,9.2,0,0,0,1.39-2.13c0-.06-.06-.12-.08-.07a10.6,10.6,0,0,1-1.45,2,9.35,9.35,0,0,1-1.84,1.66S278.88,221.55,278.92,221.53Z" style="fill:#263238"/><path d="M292.41,267.33c-2,2.31-15.46.74-15-2.73.34-2.79,10.17-6.44,13.61-4C293.26,262.28,293.82,265.72,292.41,267.33Z" style="fill:#f7a9a0"/><path d="M308.33,236.88c4.47,2.79,4.43,9.73-.68,13.91-4,3.25-11.89,4.83-11.89,4.83s-.47,7.48-.66,9.15c-.3,2.59-6.59,5.22-9.13,2.26-1.82-2.13-5.83-9.23-4-18.92S302.32,233.13,308.33,236.88Z" style="fill:#f7a9a0"/><g style="opacity:0.1"><path d="M292.41,267.33c-2,2.31-15.46.74-15-2.73.34-2.79,10.17-6.44,13.61-4C293.26,262.28,293.82,265.72,292.41,267.33Z" style="fill:#050400"/><path d="M308.33,236.88c4.47,2.79,4.43,9.73-.68,13.91-4,3.25-11.89,4.83-11.89,4.83s-.47,7.48-.66,9.15c-.3,2.59-6.59,5.22-9.13,2.26-1.82-2.13-5.83-9.23-4-18.92S302.32,233.13,308.33,236.88Z" style="fill:#050400"/></g><path d="M298.92,254.86a12.35,12.35,0,0,1-4.15.41,19.32,19.32,0,0,1-2-.23,12.14,12.14,0,0,1-2.13-.48.06.06,0,1,0,0,.11c.34.14.66.33,1,.45a10.52,10.52,0,0,0,1.06.3,9.35,9.35,0,0,0,2.11.24,12.53,12.53,0,0,0,4.16-.74S299,254.85,298.92,254.86Z" style="fill:#263238"/><path d="M286.19,265.76a9.61,9.61,0,0,1-2.09-2.29c-.26-.41-.49-.83-.71-1.25a7,7,0,0,1-.6-1.42c0-.05-.11,0-.1,0,.06.25.07.5.14.75a7.09,7.09,0,0,0,.26.73,6.61,6.61,0,0,0,.75,1.31,10.07,10.07,0,0,0,2.32,2.18S286.21,265.77,286.19,265.76Z" style="fill:#263238"/><path d="M294.53,239.58c.13-.35,7,2.35,13.34,2,7.7-.38,12.25-2.26,12.69-2,.91.49,3.14,9.4,1.34,14.51s-8.49,8.86-14.19,8.26S287.47,258.58,294.53,239.58Z" style="fill:#FFC727"/><g style="opacity:0.6000000000000001"><path d="M294.53,239.58c.13-.35,7,2.35,13.34,2,7.7-.38,12.25-2.26,12.69-2,.91.49,3.14,9.4,1.34,14.51s-8.49,8.86-14.19,8.26S287.47,258.58,294.53,239.58Z" style="fill:#fff"/></g><path d="M320.56,239.6c-9.4,4.66-25.38.89-26,0,0,0-.75-5.57,7-16.54,2.18-3.06,10.22-2.93,12.46-.61C320,228.68,320.72,239.52,320.56,239.6Z" style="fill:#FFC727"/><g style="opacity:0.6000000000000001"><path d="M320.56,239.6c-9.4,4.66-25.38.89-26,0,0,0-.75-5.57,7-16.54,2.18-3.06,10.22-2.93,12.46-.61C320,228.68,320.72,239.52,320.56,239.6Z" style="fill:#fff"/></g><path d="M303.65,229.08a6.76,6.76,0,0,0,1.87,3.21,6.76,6.76,0,0,0,3.31-1.7c1-1.1,1-2.6.1-3.2-1.32-.85-2.43,1.54-2.43,1.54s.37-2.61-1.2-2.59C304.2,226.35,303.39,227.61,303.65,229.08Z" style="fill:#FFC727"/><path d="M300,234.49a4.17,4.17,0,0,0,1.82,1.46,4.36,4.36,0,0,0,1.56-1.76,1.34,1.34,0,0,0-.68-1.9c-1-.2-1.06,1.46-1.06,1.46s-.38-1.61-1.3-1.24A1.33,1.33,0,0,0,300,234.49Z" style="fill:#FFC727"/><path d="M299.63,229.36a1.12,1.12,0,0,0,2-1c0-.63-.44-1.09-.88-1-.65.11-.3,1.16-.3,1.16s-.64-.91-1.11-.45A.88.88,0,0,0,299.63,229.36Z" style="fill:#FFC727"/><path d="M302.84,222.55c-.61.75-.11,2.29,3.27,2.25,2,0,5-.67,5.31-2.54C311.63,220.85,304,221.14,302.84,222.55Z" style="fill:#FFC727"/><path d="M301.69,221.14c1.13.35,1.49.84,1.76,2.11s5.77,1.29,7.16-.7a6.8,6.8,0,0,1,2.87-2.57C314.41,219.51,301.69,221.14,301.69,221.14Z" style="fill:#f7a9a0"/><path d="M321.37,213c-2.75,5.77-9,7.67-12.26,8.12-5.11.71-19,.18-21.43-9a23.1,23.1,0,0,1-.1-8.38c.83-6.14,3.1-12.93,5.32-15.28,4.71-5,15.63-6.74,24-1.58C323.63,191,324.19,207.08,321.37,213Z" style="fill:#f7a9a0"/><path d="M313.93,193.39a17.92,17.92,0,0,1-5,1,14.12,14.12,0,0,1-5.37-.94c-2.74-1-5.61-2.77-8.59-1.78,0,0,0,0,0,0,3.83-.85,6.95,2.32,10.52,3.12a11.48,11.48,0,0,0,8.52-1.22C314.17,193.53,314.07,193.35,313.93,193.39Z" style="fill:#263238"/><path d="M316.76,209.86a7.51,7.51,0,0,0-1.7-3.33,13.23,13.23,0,0,1-2.68-3.67,11.31,11.31,0,0,1,1.06-9.66c0-.08-.1-.17-.15-.09-1.71,2.5-2.73,5.41-2,8.47a8.64,8.64,0,0,0,2,3.68c1.35,1.51,2.67,2.65,3.29,4.63C316.63,210,316.78,210,316.76,209.86Z" style="fill:#263238"/><path d="M318.77,215.24c-1.13-.49-3.39-3-3.14-5.21a7.78,7.78,0,0,0-.91-4.17c-.15-.57-4.35-3.21-2.07-11.62a17.57,17.57,0,0,1-9.53-1.78,12.22,12.22,0,0,0-12.66.4c-1.26.87,1.14-6.92,8.48-9.22,3.16-1,5.68-.82,7.62-1.06a7.48,7.48,0,0,0,2.4-.68,4.18,4.18,0,0,0,1.5-5.57c-2.26-4-7.74-4.36-10.89-1.42,0,0-.06,0,0,0a7.23,7.23,0,0,1,2.71-1.78s0,0,0,0a11.66,11.66,0,0,1,3.11-.73,11.56,11.56,0,0,0-4.63,1.3s-.09,0-.05-.06a11.74,11.74,0,0,1,8.5-1.38,9.42,9.42,0,0,0-6.37-.07s-.06,0,0-.06a9,9,0,0,1,8.62.76,4.87,4.87,0,0,1,1.46,1.73,6.13,6.13,0,0,1,.95,2.37,8.73,8.73,0,0,1,11.84-1.29c.05,0,0,.11-.07.07a8.13,8.13,0,0,0-8.92-.39,8.27,8.27,0,0,0-1.9,1.51,5.79,5.79,0,0,1,.79-.49c3.43-1.78,7.6-.16,10,2.58a0,0,0,0,1,0,0,14.28,14.28,0,0,0-1.86-1.42,5.9,5.9,0,0,1,1.4,1.38,0,0,0,0,1,0,0,6.48,6.48,0,0,0-2.2-1.45,7.19,7.19,0,0,1,2.75,2.54c.05.09-.08.19-.14.09a6.61,6.61,0,0,0-7.53-2.64,6.19,6.19,0,0,0-.8.34,7.48,7.48,0,0,0-1.35,1,3.09,3.09,0,0,0-.77,1.59h0a.24.24,0,0,0,0,.07,3.79,3.79,0,0,0,0,.95s0,0,0,.05a2,2,0,0,0,.06.35c0,.08,0,.17.05.26s0,.09,0,.13a10.64,10.64,0,0,0,2.86,4.55c2.49,2.54,10.24,7.47,7.05,19.43C323.68,211.47,318.77,215.24,318.77,215.24Z" style="fill:#263238"/><path d="M310.83,176.36c-1.47-3-5.78-3.79-8.66-2.4-.06,0,0,.13,0,.1,2.6-1.12,6.44-.32,7.89,2.23,1.61,2.85.18,5.76-2.69,7a.13.13,0,0,0,.09.25C310.58,182.51,312.31,179.38,310.83,176.36Z" style="fill:#263238"/><path d="M322.51,178.72s.05,0,0,0c-2.2-1.06-6-1.77-7.56.68s-.26,6,2.09,7.54c.14.08.37-.07.24-.21-1.63-1.83-3.12-4-2.11-6.59C316.33,177.25,320.24,177.74,322.51,178.72Z" style="fill:#263238"/><path d="M326.75,201c-.16-4.9-3.28-8.93-6.79-12.07h0c3.23,3.27,6.18,6.87,6.33,11.68.07,2.56-.14,5.43-1.48,7.67s-3.51,3.8-5.56,5.37a.17.17,0,0,0,.19.28,19.11,19.11,0,0,0,5.72-5.24C326.58,206.44,326.83,203.58,326.75,201Z" style="fill:#263238"/><path d="M308.43,182.3a14.53,14.53,0,0,1-5.57.54,18.83,18.83,0,0,0-6.13.74c-3.07,1.11-5.88,4.59-5.75,7.9,0,.14.25.15.26,0a8.52,8.52,0,0,1,2.44-5.27,8.73,8.73,0,0,1,5.55-2.74,40.89,40.89,0,0,1,5.19-.36,9.19,9.19,0,0,0,4-.77S308.45,182.29,308.43,182.3Z" style="fill:#263238"/><path d="M320.61,218.49c-2.65-2.8.61-6.18,2.34-8.52.05-.07-.05-.15-.1-.08-1.86,2.27-6,6-2.4,8.78C320.57,218.77,320.71,218.6,320.61,218.49Z" style="fill:#263238"/><path d="M318.55,219c-.92-2.43.43-4.83,1.89-6.7a.18.18,0,0,0-.27-.23c-1.75,2-2.75,4.39-1.68,6.95C318.5,219,318.56,219,318.55,219Z" style="fill:#263238"/><path d="M320.77,217.4c-2-2.34,1-5.43,2.38-7.22.11-.14-.09-.34-.22-.21-1.57,1.47-4.78,5.5-2.2,7.48C320.76,217.47,320.79,217.43,320.77,217.4Z" style="fill:#263238"/><path d="M313.91,207.58s3.23-4.82,6.22-4.68c3.16.15,3.31,5.93.95,8.11-2.78,2.57-6.57,1.21-6.57,1.21Z" style="fill:#f7a9a0"/><path d="M318.88,206.17a7.58,7.58,0,0,1,1.58-.92c.06,0,0-.14,0-.12-2.34.72-4.61,2.91-4.51,5.54a.08.08,0,0,0,.16,0l.23-.66a4.8,4.8,0,0,1,1.54-1.5A4.09,4.09,0,0,1,320,208c.09,0,.09-.12,0-.13a4.08,4.08,0,0,0-3.23.93,6.34,6.34,0,0,1,.95-1.56,7.69,7.69,0,0,1,1.17-1.11" style="fill:#263238"/><path d="M315.15,212.16a0,0,0,1,0,0,0S315.17,212.17,315.15,212.16Z" style="fill:#263238"/><path d="M311,180.81s-1.65-7.48-3-5.27a5.18,5.18,0,0,0-.86,4s-2,2.27-1.35,3.13,4.42.34,4.73-.3A8,8,0,0,0,311,180.81Z" style="fill:#FFC727"/><path d="M311,180.81a8.44,8.44,0,0,1-.51,1.54c-.16.31-1.11.59-2.14.7a10.27,10.27,0,0,1,.17-2.07c.18-.83,1.42-1.67,2-2C310.85,180,311,180.81,311,180.81Z" style="fill:#050400;opacity:0.1"/><path d="M312.22,181.24s7.66-4.85,7.68-2a4.28,4.28,0,0,1-2,3.89s.71,3.37-.73,3.57-5.62-3.06-5.52-3.82A6.09,6.09,0,0,1,312.22,181.24Z" style="fill:#FFC727"/><path d="M313.81,182.91a3.69,3.69,0,0,1-.94,1.46c-.73-.63-1.24-1.21-1.2-1.49a6.12,6.12,0,0,1,.54-1.63s.51-.32,1.26-.75A4.16,4.16,0,0,1,313.81,182.91Z" style="fill:#050400;opacity:0.1"/><path d="M313.09,182.54a2.06,2.06,0,1,1-1.31-2.6A2.08,2.08,0,0,1,313.09,182.54Z" style="fill:#FFC727"/><path d="M293.08,206a2.16,2.16,0,1,1-2.15-2.16A2.15,2.15,0,0,1,293.08,206Z" style="fill:#ff9cbd;opacity:0.5"/><path d="M313.2,208a2.38,2.38,0,1,1-2.37-2.38A2.37,2.37,0,0,1,313.2,208Z" style="fill:#ff9cbd;opacity:0.5"/><path d="M306.12,200.84a9.72,9.72,0,0,1-1.08-.51,1.91,1.91,0,0,1-1-.72.62.62,0,0,1,.18-.74,1.52,1.52,0,0,1,1.54,0,2.28,2.28,0,0,1,1.19,1.1C307.21,200.48,306.62,201,306.12,200.84Z" style="fill:#263238"/><path d="M293.73,198.9a11.66,11.66,0,0,0,1.17-.14,1.91,1.91,0,0,0,1.18-.38.6.6,0,0,0,.06-.74,1.51,1.51,0,0,0-1.46-.48,2.2,2.2,0,0,0-1.45.66A.65.65,0,0,0,293.73,198.9Z" style="fill:#263238"/><path d="M301.41,209.93a3.41,3.41,0,0,1,.07.51c0,.69,0,1.88-1.1,2.15a1.87,1.87,0,0,1-1.21-.13,5.11,5.11,0,0,1-1.9-1.73A4.65,4.65,0,0,0,301.41,209.93Z" style="fill:#263238"/><path d="M301.48,210.44c0,.69,0,1.88-1.1,2.15a1.87,1.87,0,0,1-1.21-.13,2.81,2.81,0,0,1,1-1.44A3.15,3.15,0,0,1,301.48,210.44Z" style="fill:#ff9cbd"/><path d="M297.21,201c-.6,2.47-.3,1.6-1,4-.56,0-3.08-.26-2.92,0a22.42,22.42,0,0,0,2.4,2.5c-.37.64-1.59,1.24-1.54,1.3,2.75,3.5,6.05,2.1,7.22,1.2.23-.18.15-.19,0-.11-1.14.61-4.38,1.37-6.34-1a3.6,3.6,0,0,0,1.15-1.33c0-.07-1.39-1.42-1.94-2.12.77,0,1.71.16,2.28.2a12.76,12.76,0,0,0,.93-4.6A.12.12,0,0,0,297.21,201Z" style="fill:#263238"/><path d="M304.36,202.58c2,.26,1.38,4.33-.51,4.09S302.64,202.36,304.36,202.58Z" style="fill:#263238"/><path d="M305,202.83c.31.22.59.59,1,.64s.78-.29,1.08-.63c0,0,.06,0,.06,0,0,.68-.32,1.37-1.05,1.43s-1.12-.56-1.26-1.25C304.74,202.93,304.86,202.75,305,202.83Z" style="fill:#263238"/><path d="M294.79,201.18c-1.75-.41-2.53,3.49-.91,3.87S296.26,201.52,294.79,201.18Z" style="fill:#263238"/><path d="M294.28,201.18c-.35.12-.74.38-1.11.32s-.65-.51-.83-.93c0,0-.06,0-.07,0a1.29,1.29,0,0,0,.57,1.68c.62.26,1.24-.2,1.58-.82C294.48,201.35,294.42,201.14,294.28,201.18Z" style="fill:#263238"/><path d="M299.68,244.51c4.1-3.92,11.8-4.29,16.79.16s4.71,15-7.25,17.13S294,250,299.68,244.51Z" style="fill:#FFC727"/><path d="M292,270.27c-2.65,1.53-14.86-4.33-13.34-7.46,1.23-2.53,11.71-2.8,14.16.65C294.44,265.76,293.85,269.19,292,270.27Z" style="fill:#f7a9a0"/><path d="M301.79,241.68c4.77-.1,13.68,1.75,15.57,6.67s-.61,10.66-7.08,12c-5,1-12,0-12,0a32.53,32.53,0,0,1-1.73,6.2c-1.22,2.31-5.14,5.52-8.25,3.16-2.21-1.69-6.49-15.54,0-23C292,242.46,296.31,241.79,301.79,241.68Z" style="fill:#f7a9a0"/><path d="M298.62,254.94a9.35,9.35,0,0,1,.11,3.06,11.92,11.92,0,0,1-.26,1.35,6.65,6.65,0,0,1-.44,1.37s.05.1.08.06c.12-.2.26-.38.37-.59a6.66,6.66,0,0,0,.26-.67,5.86,5.86,0,0,0,.27-1.42,10.52,10.52,0,0,0-.34-3.15S298.62,254.91,298.62,254.94Z" style="fill:#263238"/><path d="M287.8,266.19a9.41,9.41,0,0,1-1.74-2.57,13.72,13.72,0,0,1-.52-1.34,7.28,7.28,0,0,1-.39-1.49c0-.05-.1-.05-.1,0,0,.26,0,.51,0,.77a6.63,6.63,0,0,0,.15.75,5.84,5.84,0,0,0,.56,1.41,9.7,9.7,0,0,0,2,2.49S287.82,266.21,287.8,266.19Z" style="fill:#263238"/><path d="M311.66,223.57A6.39,6.39,0,0,0,308,233.4c2.66,4.16,8.29,3.3,9.87.07C320.14,228.89,316.7,222.3,311.66,223.57Z" style="fill:#FFC727"/><path d="M289.85,243.57c1.68,0,11.46,1.13,16.65-1.88,5.52-3.2,9.54-6.77,10.33-9.3,2.17-6.93-4.84-9.73-8.57-7.52-4.68,2.78-6,5.58-8.61,7.18-.3.19-7.86,1.77-10.69,3.47C287.16,236.6,287.75,243.59,289.85,243.57Z" style="fill:#f7a9a0"/><path d="M290.14,235.08c-.48-.68-1.92-1.41-2.24-2s-1.52-2.23-2-1.58.68,3.06.95,3.61-3.67-.4-3.64,1.12,2.69,1.73,2.7,2-2.73.58-2.62,1.9,3,.57,3,.67-2.28-.53-2.32.61,3,1.21,3.06,1.43-1.54,1.15-1.17,2.25,2.63-.85,2.85-1,2.06-.46,2.23-1S290.49,235.56,290.14,235.08Z" style="fill:#f7a9a0"/><path d="M296.35,232.93a8.72,8.72,0,0,1,3.31-1,8.44,8.44,0,0,1,.87,0,6.26,6.26,0,0,1,.87,0,6.92,6.92,0,0,1,1.69.39,14,14,0,0,0-1.7-.16,12,12,0,0,0-1.7,0,13.9,13.9,0,0,0-1.68.25A16.13,16.13,0,0,0,296.35,232.93Z" style="fill:#263238"/><path d="M299.65,232.05c.53-.6,1.09-1.16,1.67-1.7s1.16-1.07,1.75-1.59,1.2-1,1.82-1.51,1.24-1,1.9-1.42a17.88,17.88,0,0,1-1.6,1.76c-.56.56-1.15,1.09-1.74,1.61s-1.21,1-1.84,1.5A22.64,22.64,0,0,1,299.65,232.05Z" style="fill:#263238"/><path d="M305.59,226a4,4,0,0,1-.43,1.07,3.76,3.76,0,0,1-.68.93,4.21,4.21,0,0,1,.43-1.07A4.35,4.35,0,0,1,305.59,226Z" style="fill:#263238"/><path d="M314,236.24a54,54,0,0,1-4.68,3.71,27.58,27.58,0,0,1-2.52,1.61c-.22.13-.45.24-.68.35s-.47.22-.71.3l-.72.23q-.36.12-.72.21a40.92,40.92,0,0,1-5.89,1.08c-1,.1-2,.17-3,.18h-.74l-.75,0-.75-.07c-.24,0-.49-.08-.73-.13a15.4,15.4,0,0,0,3,0c1-.08,2-.21,2.94-.35a56,56,0,0,0,5.79-1.19c.24-.06.48-.12.71-.2s.47-.14.7-.22.44-.18.66-.27l.66-.32c.86-.45,1.7-1,2.53-1.51C310.76,238.5,312.4,237.38,314,236.24Z" style="fill:#263238"/><path d="M313.66,237.18a4.74,4.74,0,0,1-1.09.71,4.39,4.39,0,0,1-1.24.4,6.63,6.63,0,0,1,1.11-.66A6.12,6.12,0,0,1,313.66,237.18Z" style="fill:#263238"/><path d="M291.33,241.74a9.55,9.55,0,0,0,.18-2.56,9.08,9.08,0,0,0-.62-2.54c0-.06-.13,0-.11,0a11.08,11.08,0,0,1,.52,2.52,9.81,9.81,0,0,1-.06,2.54C291.24,241.77,291.32,241.78,291.33,241.74Z" style="fill:#263238"/></g><g id="freepik--character-1--inject-21"><polygon points="221.96 321.21 225.08 339.92 246.21 467.19 249.62 467.19 234.25 339.92 231.98 321.21 221.96 321.21" style="fill:#dbdbdb"/><polygon points="231.98 321.21 221.96 321.21 225.08 339.92 234.25 339.92 231.98 321.21" style="fill:#a6a6a6"/><polygon points="155.59 467.19 159 467.19 180.13 339.92 183.25 321.21 173.23 321.21 170.96 339.92 155.59 467.19" style="fill:#dbdbdb"/><polygon points="173.23 321.21 170.96 339.92 180.13 339.92 183.25 321.21 173.23 321.21" style="fill:#a6a6a6"/><polygon points="92.2 467.19 95.6 467.19 116.74 339.92 119.86 321.21 109.84 321.21 107.56 339.92 92.2 467.19" style="fill:#dbdbdb"/><polygon points="107.56 339.92 116.74 339.92 119.86 321.21 109.84 321.21 107.56 339.92" style="fill:#a6a6a6"/><polygon points="97.6 330 252.46 330 252.46 313.68 194.49 313.68 175.01 200.32 103.5 200.32 97.6 330" style="fill:#dbdbdb"/><polygon points="97.6 330 106.04 330 111.54 200.32 103.5 200.32 97.6 330" style="fill:#a6a6a6"/><path d="M258.86,466.62c-2.94-.07-79.91-28.34-82.1-31.2-.27-.32,2.14-7.34,5.6-16.88l.06-.19c2.17-6.05,22.47-52.53,22.47-52.53l46.56,15.73-17,47.49s8.83,8.12,16.33,15.73c0,0,0,0,0,0,4.64,4.67,8.61,8.85,9.41,10.14C262.22,458.32,261.79,466.71,258.86,466.62Z" style="fill:#ad6359"/><path d="M176.76,435.42c2.19,2.86,79.16,31.13,82.11,31.2s3.34-8.3,1.29-11.67c-.8-1.3-4.77-5.49-9.4-10.16l0,0c-2.88-2.91-5.94-5.9-8.64-8.48,9.14,11.06,13.74,26.51-58.64-20.17a19.61,19.61,0,0,0-1,2.24l-.07.19C178.91,428.08,176.49,435.09,176.76,435.42Z" style="fill:#263238"/><path d="M237.16,426.59,184.66,410s36.16-87,34.8-91.86c-.91-3.24-64.11-4.1-80.4-20.91-19.42-20-3.74-55.32-3.74-55.32l57.53.6s-1.18,12,1,13.89c1.43,1.27,65.52,8.22,77.41,24.67C288.59,305,237.16,426.59,237.16,426.59Z" style="fill:#263238"/><path d="M236.71,413.46c-1.21-.72-16.88-5.9-19.65-6.81-5.56-1.82-22.45-7.52-22.85-7.45-.19,0-.26.39-.1.46,5.38,2.24,10.87,4.15,16.36,6.09s24.46,7.81,26.16,8A.15.15,0,0,0,236.71,413.46Z" style="fill:#37474f"/><path d="M141.24,245.09c-4.37,12.79-7.19,28.47-.73,41,2.12,4.25,6.3,6.76,10.46,8.72,8.52,3.87,17.74,6,26.88,8,13.8,2.84,27.8,4.58,41.72,6.75,3.52.65,7.06,1,10.44,2.3a1.6,1.6,0,0,1,.86.82,6.28,6.28,0,0,1,0,2.86A105.08,105.08,0,0,1,227,329.1c-7.62,22.24-16.59,44-25.66,65.66,8.65-21.83,17.33-43.68,24.84-65.93a106,106,0,0,0,3.76-13.5A6.18,6.18,0,0,0,230,313c-.89-.81-2.46-.93-3.69-1.28-2.28-.49-4.59-.86-6.91-1.23-13.94-2.09-27.93-3.92-41.75-6.8-9.2-2-18.46-4.14-27-8.16-4.23-2-8.56-4.74-10.68-9.11-6.47-12.78-3.34-28.4,1.28-41.28Z" style="fill:#37474f"/><path d="M215,469.07c-2.94,0-80.72-25.93-83-28.73-.28-.31,1.92-7.39,5.09-17l.06-.19c2-6.11,24.92-54.58,24.92-54.58L211,384.18l-21.51,48.06s9.07,7.85,16.8,15.23c0,0,0,0,0,0,4.77,4.53,8.87,8.59,9.71,9.86C218.14,460.67,218,469.07,215,469.07Z" style="fill:#ad6359"/><path d="M137.44,422.23c-.09.36-.19.65-.26.88l-.07.2C134,433,131.75,440,132,440.34c2.28,2.81,80.06,28.75,83,28.72s3.11-8.39.95-11.69c-.84-1.28-4.94-5.35-9.71-9.87,0,0,0,0,0,0-3.3-3.14-6.81-6.37-9.78-9C206.7,449,215,466.57,137.44,422.23Z" style="fill:#263238"/><path d="M194.74,421.59,144.36,404S188,316.2,184.85,313.1c-2.06-2-35.54-2.22-52.81-18-17.71-16.17-2.18-53.33-2.18-53.33l57,.64s.77,7.22-3,17.29c0,0,35.63,6.48,51.51,17.17,3.35,2.25,11,12.19,10,20.27C240.67,337.77,194.74,421.59,194.74,421.59Z" style="fill:#263238"/><path d="M172.37,265.85a106.37,106.37,0,0,1,10-5.92A41.35,41.35,0,0,1,190,257c1.83-.41,2.63-.53.91.25l-4.63,2.11,1,0c1.22,0,2.45-.07,3.68-.08,2.4,0,4.81,0,7.21.05,4.88.05,9.7.58,14.56.9a.1.1,0,0,1,0,.2c-4.85-.23-9.73-.05-14.59-.14-2.4,0-4.8,0-7.21,0h-3.52a27,27,0,0,1-3,0l-1.35.62c-3.56,1.61-7.11,3.29-10.55,5.16C172.37,266.05,172.27,265.91,172.37,265.85Z" style="fill:#37474f"/><path d="M189.05,240.39c-.68,2.94-1.27,5.9-2.06,8.81-.36,1.34-.71,2.7-1.19,4-.4,1.1-1,2.35-2.28,2.62-1.45.3-1.88-.93-1.79-2.13.11-1.35.43-2.69.67-4,.28-1.53.56-3.05.8-4.58.13-.77.26-1.53.37-2.3,0-.19.15-1.65.25-2.07,0,0,0,.07.08.06h0a.1.1,0,0,0,.09-.07c0-.12,0-.14-.08-.22a.11.11,0,0,0-.13,0c-.28.16-.29.54-.38.82-.22.74-.45,1.49-.65,2.24-.38,1.4-.75,2.81-1.08,4.22s-.65,2.84-1,4.25a6.57,6.57,0,0,0-.22,3.26,2.5,2.5,0,0,0,2.33,1.83,2.49,2.49,0,0,0-.15.28c-.12.29-.21.6-.31.9s-.21.61-.29.92a2.34,2.34,0,0,0-.07.45c0,.17,0,.34,0,.51a.25.25,0,0,0,.46.15c.07-.15.18-.27.26-.41a2.18,2.18,0,0,0,.2-.5,6.74,6.74,0,0,0,.24-.88c.07-.3.16-.6.21-.9a4.9,4.9,0,0,0,0-.54,3.38,3.38,0,0,0,1.68-.67,5.68,5.68,0,0,0,1.7-2.71c.42-1.22.74-2.49,1-3.74a54.41,54.41,0,0,0,1.7-9.46A.27.27,0,0,0,189.05,240.39Z" style="fill:#37474f"/><path d="M158.8,248.32c-.24,1.46-.38,2.93-.69,4.37s-.66,2.83-1.1,4.21a15,15,0,0,1-1.72,3.8,14.1,14.1,0,0,1-2.78,2.94,24.25,24.25,0,0,1-6.8,3.95,33.46,33.46,0,0,1-3.8,1.19c-.67.16-1.35.29-2,.39a4.4,4.4,0,0,0-1.64.41.34.34,0,0,0,0,.57,6,6,0,0,0,3,0,22.08,22.08,0,0,0,3.24-.63,23.85,23.85,0,0,0,6.09-2.69,19.61,19.61,0,0,0,5-4.29,14.56,14.56,0,0,0,2.63-6.06,29.65,29.65,0,0,0,.75-8.18C159.07,248.18,158.82,248.16,158.8,248.32Z" style="fill:#37474f"/><path d="M196,409c-1.22-.72-16.89-5.91-19.65-6.81-5.56-1.82-22.45-7.52-22.85-7.45-.2,0-.27.39-.1.46,5.38,2.23,10.87,4.15,16.36,6.09s24.46,7.8,26.16,8A.14.14,0,0,0,196,409Z" style="fill:#37474f"/><path d="M134.09,244.28c-4,12.9-7,30.54,1.09,42.35,6.12,7.82,18.49,10.55,27.76,12.84,8.15,1.86,16.44,3,24.68,4.82,2.54.67,5.36,1.09,7.55,2.76,6.55,6.81-30.25,73.92-36,84.85,7.71-14.87,15.21-29.88,22.28-45.07,2.61-6.13,16.51-34.53,13.11-39.07-2-1.47-4.68-1.87-7.12-2.5-8.16-1.77-16.48-3-24.67-4.9-9.55-2.41-21.84-5.12-28.12-13.32-8.21-12.22-4.84-29.64-.52-42.76Z" style="fill:#37474f"/><path d="M198.74,415.16l-.87-.49c26.4-46.24,45.84-102.6,47.11-119.59.5-6.63-6.72-16.55-13-20.34-10.91-6.55-47.84-14.46-48.21-14.54l.21-1c1.52.32,37.46,8,48.51,14.66,6.55,3.93,14,14.3,13.51,21.27C244.7,312.23,225.21,368.8,198.74,415.16Z" style="fill:#37474f"/><path d="M188.59,173.37a4.19,4.19,0,0,0,4.67-6,3.85,3.85,0,0,0,4.23-2.08,3.7,3.7,0,0,0-1.54-4.66s0,0,0,0a3.79,3.79,0,0,1,1.27,4.5,3.42,3.42,0,0,1-3.24,1.93,4.67,4.67,0,0,0,2.72-2.51,3.59,3.59,0,0,0-.8-3.89,5.29,5.29,0,0,0,1.69-4.43,3.58,3.58,0,0,0-2.6-2.95,4,4,0,0,0-3.91-6.26,3.37,3.37,0,0,0-2.7-5,2.29,2.29,0,0,0-.63-2.37,3.83,3.83,0,0,0-2.78-.87,2.71,2.71,0,0,0-1.74-1.92,2.45,2.45,0,0,0-2.93,1.25,6.83,6.83,0,0,0-4.57-1.54,3.56,3.56,0,0,0-3.05,2.43,4.88,4.88,0,0,0-6.8,2.64,3.4,3.4,0,0,0-3.21,1.16,5,5,0,0,0-1.17,2.15,2.56,2.56,0,0,0-2.6,1.5,3.39,3.39,0,0,0,.15,2.9,2,2,0,0,1-.31.81,4.46,4.46,0,0,0-.38,4.19,3,3,0,0,0-.1,4.56,3.43,3.43,0,0,0,1,4.69,5,5,0,0,0-.23,4.14,2.88,2.88,0,0,0,2.45,2,1.76,1.76,0,0,0,1,2.08,4.3,4.3,0,0,0,.92.3,3.43,3.43,0,0,1,1.19.31c.34.22.46.67.66,1a4.38,4.38,0,0,0,6.14,1.26,3.66,3.66,0,0,0,3.77,1.3,7.55,7.55,0,0,0,1.32-.35,1.94,1.94,0,0,1,1.19-.12c.26.07.5.19.76.26a3.08,3.08,0,0,0,2.43-.57C183.14,178.49,187.7,176.88,188.59,173.37ZM159,147.07a2.71,2.71,0,0,1,2.43-2c0,.09,0,.14,0,.14s-.35.13-.51.21a3.66,3.66,0,0,0-.81.59,3.55,3.55,0,0,0-1,1.79,4.07,4.07,0,0,0-.06.92v.12A3.33,3.33,0,0,1,159,147.07Zm24.4-9.29a2.57,2.57,0,0,0-2.94.5l-.07-.05a2.24,2.24,0,0,1,4.22.59h0A2.81,2.81,0,0,0,183.43,137.78Zm-2.37,37.36,0,0a4.7,4.7,0,0,0,6.54-.43C186,176.83,183.28,177.7,181.06,175.14Z" style="fill:#263238"/><path d="M206.78,182.1c8.38-17.67,8.48-22.35,7.34-24.78a12.81,12.81,0,0,0-3.7-4.34l-.8,1.13.4-.56-.4.56a11.21,11.21,0,0,1,3.25,3.8c.83,1.75,1,6.11-7.33,23.6Z" style="fill:#c7c7c7"/><rect x="208.35" y="151.03" width="2.93" height="4.75" rx="1.11" transform="translate(461.76 89.53) rotate(129.6)" style="fill:#263238"/><path d="M194.06,254l1.88-28.7s7.3-4.46,7.8-12.32c.38-6-10.08-31.87-13.72-37.82-3.74-6.11-12-7.38-18.68-1.75-17.1,14.37-31.53,40.71-43.24,71.28Z" style="fill:#455a64"/><polygon points="194.3 255.19 125.74 245.55 129.97 237.63 194.56 246.7 194.3 255.19" style="fill:#FFC727"/><g style="opacity:0.2"><polygon points="194.3 255.19 125.74 245.55 129.97 237.63 194.56 246.7 194.3 255.19" style="fill:#050400"/></g><path d="M192.41,256l-18.27-2.3,1.38-11,18.27,2.29Zm-15.68-4.31,13.67,1.72.81-6.43-13.68-1.71Z" style="fill:#a6a6a6"/><path d="M188.43,221a57.87,57.87,0,0,0-8.53.28c-1.4.17-2.79.4-4.18.66-.69.13-1.38.24-2.08.35a9.56,9.56,0,0,1-2.2.12.05.05,0,0,0,0,.1,16.14,16.14,0,0,0,2.08.23,15.2,15.2,0,0,0,2-.11c1.43-.16,2.85-.38,4.27-.55,2.88-.35,5.75-.7,8.64-.84C188.57,221.19,188.56,221,188.43,221Z" style="fill:#263238"/><path d="M195.05,224.37a60.64,60.64,0,0,0-6.93-1.25c-1.17-.14-2.33-.22-3.51-.26-.56,0-1.12,0-1.68,0s-1.24.08-1.85.07c-.07,0-.08.1,0,.1.58,0,1.16.15,1.74.22l1.74.18c1.17.12,2.33.26,3.49.37,2.34.23,4.66.48,7,.79C195.15,224.58,195.16,224.4,195.05,224.37Z" style="fill:#263238"/><path d="M88.56,343.33l62,14.54S179.48,217.78,180.49,203c.72-10.66-2.39-33-2.39-33s-7.56-1.2-27.45,24.49C111,245.69,88.56,343.33,88.56,343.33Z" style="fill:#ebebeb"/><path d="M118,296.81c-1.71,8.75-2.93,18.77-1.36,20.9,2.94,4,12.32,5.24,15.25,5.69s13.4,2.16,16.73-2.83c1.47-2.2,3.76-14.43,4.44-18.79.28-1.76,1.3-10.51,1.33-11.5,0-.24-.62-.31-.67-.16-.31,1-.8,4.58-1,5.26-17.18-.59-27.3-4.1-32.53-6,.27-1.62.47-2.89.71-4.51A93.54,93.54,0,0,0,136.6,289c5.84,1,14.76,1.51,17.69,1.61.13,0,.14-.65-.06-.68-2.2-.33-9.92-.83-17.58-2.08a142,142,0,0,1-16.16-3.95C120.23,283.9,118.8,292.62,118,296.81Zm-.18,20.07c-1.51-2.44-.73-8.62-.13-12.29.83-5.06,1.51-9.1,2.35-14.16,12.46,5.13,27,6,32.55,5.77,0,.21-1.68,10.91-2.33,14.29-.84,4.32-1.62,8.23-3.66,10.21-1.74,1.7-6.09,3-15.36,1.46C124.51,321.06,119.07,318.92,117.8,316.88Z" style="fill:#dbdbdb"/><path d="M177.77,170.16c-.54,1.78-1.07,3.58-1.6,5.37l-1.57,5.39q-1.56,5.39-3.09,10.81l-.09.33.16.24c1.07,1.6,2.14,3.18,3.23,4.76l0-.76-3.52,7.1-.12.24.05.28q1.13,6.09,2.29,12.13.59,3,1.2,6c.41,2,.8,4,1.23,6-.31-2.06-.65-4.11-1-6.17s-.67-4.09-1-6.14q-1-6.12-2.13-12.22l-.06.51,3.52-7.09.21-.42-.23-.34q-1.64-2.35-3.28-4.68l.07.57c1-3.64,2-7.29,2.91-11l1.43-5.49Q177.08,172.93,177.77,170.16Z" style="fill:#dbdbdb"/><path d="M188.76,173.27l6,23.39-1.34,58.79a3.89,3.89,0,0,0,.54,1,6.2,6.2,0,0,0,1.72.59s.54-30.56.67-31.09,8.76-6.91,8.27-15.14C204.07,200.91,191.25,174.47,188.76,173.27Z" style="fill:#ebebeb"/><path d="M190.55,177c.61,1.57,1.25,3.13,1.88,4.69s1.27,3.12,1.92,4.67q2,4.65,4,9.28l.14-.58a28.51,28.51,0,0,0-3.62,3.89l2.65,7.25-.06-.34q-.91,5.85-1.7,11.73-.41,2.93-.77,5.87c-.23,2-.48,3.93-.68,5.89.42-1.93.78-3.87,1.17-5.81s.74-3.88,1.09-5.83q1-5.83,2-11.68l0-.18-.09-.16L196,199.16a24.69,24.69,0,0,1,3.05-3.35l.3-.25-.16-.33q-2.1-4.59-4.26-9.16c-.72-1.52-1.46-3-2.19-4.55S191.31,178.49,190.55,177Z" style="fill:#dbdbdb"/><path d="M179.71,172.15c0,1.33,4.14,10.83,9.94,11.87,1.89.33,4.18-9.9,4.18-9.9l.34-.71,4.77-10-10.61-10.79-1.55-1.47s-1.13,2.84-2.49,6.37l-.2.51c-.08.2-.16.38-.23.57-.21.53-.42,1.07-.62,1.61s-.31.81-.45,1.24l-.47,1.3A72,72,0,0,0,179.71,172.15Z" style="fill:#ad6359"/><path d="M184.29,157.49a22.27,22.27,0,0,0,9.88,15.92l4.77-10-10.61-10.79-1.55-1.47S185.65,154,184.29,157.49Z" style="fill:#263238"/><path d="M218.11,151.86c-2.47,19.34-14.33,20-18.51,19.52-3.78-.49-16.62-2.62-16.16-22.11s10.23-24.46,18.95-23.81S220.58,132.52,218.11,151.86Z" style="fill:#ad6359"/><path d="M214.92,148.47c-.44-.15-.82-.35-1.24-.53a2.19,2.19,0,0,1-1.16-.79.69.69,0,0,1,.16-.83,1.74,1.74,0,0,1,1.75-.06,2.53,2.53,0,0,1,1.38,1.19A.74.74,0,0,1,214.92,148.47Z" style="fill:#263238"/><path d="M202.11,146.24a12.16,12.16,0,0,0,1.35,0,2.16,2.16,0,0,0,1.37-.28.69.69,0,0,0,.17-.83,1.73,1.73,0,0,0-1.59-.72,2.52,2.52,0,0,0-1.73.56A.74.74,0,0,0,202.11,146.24Z" style="fill:#263238"/><path d="M204,151.53c0-.06-.12,0-.12.09-.19,1.32-.63,2.79-1.89,3a0,0,0,0,0,0,.08C203.44,154.76,204,152.8,204,151.53Z" style="fill:#263238"/><path d="M203,150c-2.08-.53-3,3.66-1.06,4.15S204.78,150.4,203,150Z" style="fill:#263238"/><path d="M202.17,150c-.42.16-.87.5-1.32.45s-.81-.58-1.06-1.08c0-.05-.06,0-.08,0-.18.8-.05,1.69.78,2s1.48-.31,1.86-1.07C202.42,150.19,202.33,149.94,202.17,150Z" style="fill:#263238"/><path d="M211.66,152.76s.09.07.08.13c-.22,1.3-.26,2.84.88,3.44,0,0,0,.09,0,.07C211.17,156,211.23,154,211.66,152.76Z" style="fill:#263238"/><path d="M213,151.54c2.14.13,1.72,4.4-.26,4.28S211.23,151.43,213,151.54Z" style="fill:#263238"/><path d="M213.83,151.85c.35.28.68.74,1.12.83s1-.31,1.33-.7c0,0,.08,0,.07.05-.06.82-.46,1.63-1.35,1.67s-1.31-.75-1.44-1.59C213.54,152,213.69,151.74,213.83,151.85Z" style="fill:#263238"/><path d="M201.45,161.86c.23.38.43.88.89,1a3.58,3.58,0,0,0,1.46,0,0,0,0,0,1,0,.08,1.8,1.8,0,0,1-1.81.27,1.41,1.41,0,0,1-.71-1.4C201.32,161.81,201.42,161.81,201.45,161.86Z" style="fill:#263238"/><path d="M208.07,158.06s-.13,2-.31,2.92c0,.08-.25.08-.56,0h0a4.45,4.45,0,0,1-3.9-2.49c0-.1.09-.17.16-.1a6.64,6.64,0,0,0,3.75,2c.11-.24.1-3.43.25-3.41a7.83,7.83,0,0,1,2,.9c.39-4.16.11-8.34.55-12.47,0-.14.24-.15.25,0a67.92,67.92,0,0,1,0,13.45C210.15,159.37,208.41,158.3,208.07,158.06Z" style="fill:#263238"/><path d="M207,160.61a5.25,5.25,0,0,1-2.28,1.33,2.29,2.29,0,0,1-1.41-.1c-1-.4-.89-1.34-.59-2.11a5.41,5.41,0,0,1,.61-1.17A6.7,6.7,0,0,0,207,160.61Z" style="fill:#263238"/><path d="M204.72,161.94a2.29,2.29,0,0,1-1.41-.1c-1-.4-.89-1.34-.59-2.11A2.39,2.39,0,0,1,204.72,161.94Z" style="fill:#ff9cbd"/><path d="M183.24,151.48c3.59,1.29,6.42-7,6.42-7s16.34.84,20.53-11.69a22.21,22.21,0,0,0,8.31,14.31s2.57-14.18-8-19.39c0,0-12.71-8.11-22.93,1.13S180.83,150.61,183.24,151.48Z" style="fill:#263238"/><path d="M210.46,131.89a14.33,14.33,0,0,1-2,5.69,14.82,14.82,0,0,1-4.12,4.52,13.62,13.62,0,0,1-1.3.83l-.66.39c-.23.12-.47.22-.7.32-.48.2-.94.42-1.42.59s-1,.29-1.47.42l-.74.2-.75.11-1.5.22c-1,.06-2,.06-3,0,1-.19,2-.28,3-.48l1.45-.34.72-.18c.23-.07.46-.16.69-.24.46-.17.92-.34,1.39-.49s.88-.42,1.32-.63l.66-.31.62-.39a11.14,11.14,0,0,0,1.22-.8,17.11,17.11,0,0,0,4.08-4.15,18.47,18.47,0,0,0,1.49-2.55A17.56,17.56,0,0,0,210.46,131.89Z" style="fill:#263238"/><path d="M210.44,153.1c.56-3.44,2.86-5.93,5.14-5.56s3.67,3.46,3.11,6.9-2.87,5.93-5.14,5.56S209.88,156.54,210.44,153.1Zm.84.14c-.49,3,.59,5.63,2.41,5.93s3.68-1.89,4.16-4.86-.6-5.64-2.41-5.94S211.76,150.26,211.28,153.24Z" style="fill:#37474f"/><path d="M195.61,150.61a5.91,5.91,0,1,1,4.81,7.18A6.13,6.13,0,0,1,195.61,150.61Zm.84.13a5.07,5.07,0,1,0,5.86-4.58A5.28,5.28,0,0,0,196.45,150.74Z" style="fill:#37474f"/><path d="M206.92,152c2.8-.65,3.83.54,3.83.56l.54-.58c0-.06-1.25-1.53-4.48-.79Z" style="fill:#37474f"/><path d="M195.79,150.14l.18-.81c-.61-.11-10-2.13-11.57-2.22s-5.5,1.73-5.93,1.93l.45.73c1.1-.53,4.14-1.86,5.35-1.84h.07C185.54,148,190.65,149.23,195.79,150.14Z" style="fill:#37474f"/><path d="M188.61,150.31s-2.87-6.85-5.89-5.95-1.76,10.2,1.15,12.06a3.3,3.3,0,0,0,4.7-.79Z" style="fill:#ad6359"/><path d="M183.15,147c-.05,0-.08,0,0,.08,2,1.38,2.75,3.69,3.11,6a1.83,1.83,0,0,0-2.56-1.07c-.06,0,0,.14,0,.14a2,2,0,0,1,2,1.16,9.89,9.89,0,0,1,.66,2c.06.22.45.19.42-.05,0,0,0,0,0-.06C187.47,152.4,186.13,148,183.15,147Z" style="fill:#263238"/><path d="M188.67,180.27c-6.1-13.42-8.63-20.58-7.27-23.35a11.44,11.44,0,0,1,3.31-3.75l-.77-1.13a12.61,12.61,0,0,0-3.77,4.28c-1.62,3.29.7,10.13,7.25,24.52Z" style="fill:#c7c7c7"/><rect x="183.07" y="150.09" width="2.93" height="4.75" rx="1.11" transform="translate(188.39 -86.87) rotate(51.36)" style="fill:#263238"/><path d="M198.13,195.5a5.49,5.49,0,0,1-4.71-2.69l-6.81-12.7a1,1,0,0,1,.41-1.36,1,1,0,0,1,1.36.41l6.79,12.67a3.46,3.46,0,0,0,3,1.67c1.33,0,2.28-.39,3.21-2.27l4.89-11.38a1,1,0,0,1,1.84.79l-4.91,11.43c-1.19,2.4-2.68,3.41-5,3.43Z" style="fill:#263238"/><path d="M169,185.27c3.94,20.9,15.45,54,21.22,58.92,5.12,4.37,31.93,3.68,43.78,2.38,4.43-.48-1-34.46-5.75-33.85-5.68.73-22.53,2.31-23.6,1.25s-13.2-20.18-23.37-33.66C172.07,168.1,167.51,177.36,169,185.27Z" style="fill:#ad6359"/><path d="M243.39,209.58c10.41-.68,13.19.74,21.66-4.51,5.56-3.44,10.15-1.36,6.69,4.49-5.65,9.59-18.89,13.29-23.85,13.25Z" style="fill:#ad6359"/><path d="M282.54,217.65c-.82,4.67-4.6,7.92-8.45,7.25s-6.33-5-5.51-9.68,4.59-7.92,8.45-7.25S283.35,213,282.54,217.65Z" style="fill:#263238"/><path d="M278.87,217c-.63,3.61-3.55,6.12-6.53,5.6s-4.89-3.86-4.26-7.47,3.55-6.12,6.53-5.6S279.49,213.4,278.87,217Z" style="fill:#a6a6a6"/><path d="M277.21,216.72c-.58,3.36-3.3,5.69-6.07,5.21s-4.55-3.59-4-7,3.3-5.69,6.07-5.21S277.79,213.36,277.21,216.72Z" style="fill:#c7c7c7"/><path d="M213.94,217.17a23.81,23.81,0,0,1-5.49-.53c-10.9-2.7-11.74-14.1-11.26-20.65a1,1,0,0,1,1.07-.92,1,1,0,0,1,.92,1.07c-.43,5.92.27,16.21,9.75,18.55,5.52,1.37,16.94-.5,27-2.15a158.31,158.31,0,0,1,17.1-2.23c11-.4,15.22,2.26,18.27,4.2l.54.34a1,1,0,1,1-1.06,1.7l-.55-.35c-2.83-1.8-6.71-4.27-17.13-3.89a153.37,153.37,0,0,0-16.84,2.21C228.26,215.83,220.05,217.17,213.94,217.17Z" style="fill:#263238"/><path d="M215.31,217.51s12-5.58,23.06-7.41c7.62-1.27,24.5-2.17,39.31,15.49,3.51,4.19,5.54,12.66-2.68,7.9-5.84-3.39-8.52-7.3-12.28-8.64,0,0,1.31,11.07-3,14.42a101.21,101.21,0,0,1-12,8,21.69,21.69,0,0,1-1.69-2.1s-4.34,2.75-12.05,1.44Z" style="fill:#ad6359"/><path d="M245.83,210.05c3.45,2.13,10.67,6.76,15.26,12.6,5.11,6.49,13.18,20.36,8.35,24.08-3.54,2.72-7.09-2.3-7.09-2.3s2.13,6.44-1.6,8.2c-3.41,1.6-5.92-2.45-5.92-2.45s.62,4.13-3,5c-4.3,1.1-4.9-7.73-10.22-10.38C240.46,244.24,245.83,210.05,245.83,210.05Z" style="fill:#ad6359"/><path d="M253.34,226.89c2.91,2.54,8,10,9.08,17.38,0,.17-.09.27-.14.13a80.94,80.94,0,0,0-9-17.46S253.31,226.87,253.34,226.89Z" style="fill:#263238"/><path d="M246.94,232.23c2.29,2.45,7.24,10.36,8,17.89,0,.17-.11.27-.15.12a86.66,86.66,0,0,0-7.95-18S246.91,232.2,246.94,232.23Z" style="fill:#263238"/><path d="M262.5,213.4a56.12,56.12,0,0,1,10.41,6.93c3.12,2.78,6.26,5.82,7.78,9.83.82,2.06.72,5.44-2.33,5.1-2.2-.31-4-1.62-5.68-2.92-3.25-2.61-6.42-5.32-10.1-7.2l.41-.48a70.32,70.32,0,0,1,5.85,10.26c1.18,2.69,2.33,5.56,2.22,8.54a4.21,4.21,0,0,1-1.05,2.7c1.32-1.55,1-3.77.55-5.6-1.75-6.05-5.3-11.43-8.84-16.58l1.15.57c4.78,2.31,8.42,6.15,12.8,9,3.44,2.09,5.79,1.07,4.39-3.13a17.94,17.94,0,0,0-3.15-5.24A53.11,53.11,0,0,0,262.5,213.4Z" style="fill:#263238"/><path d="M230.74,252.15l-3.57-40.33L205.36,213c-7.16-10.71-19.74-28.78-25.8-35.44-7.12-7.82-13-3.39-11.4,7.26,3.68,24.35,17,58,21.68,61.93C196.59,252.38,230.74,252.15,230.74,252.15Z" style="fill:#ebebeb"/><path d="M223.73,247.75c-.69-2.44-1.8-12.86-2-15.46s-.89-13.06-1.13-15.74c0-.14.19-.2.2-.06.29,2.64,1.76,13.07,2,15.66s1.25,13,1.08,15.58A.07.07,0,0,1,223.73,247.75Z" style="fill:#263238"/><path d="M216.15,251.76c-3.53-.2-7.06-.51-10.57-.91-5.21-.77-10.8-1-15.49-3.66-4-3.68-5.77-9-8-13.78a331.84,331.84,0,0,1-13.34-40.3c4.33,13.45,8.67,26.93,14,40,2.14,4.67,3.91,10,7.62,13.68,4.59,2.57,10.12,3,15.24,3.82,3.51.47,7,.85,10.55,1.12Z" style="fill:#263238"/><path d="M170.43,198.93a9.3,9.3,0,0,1-1.8-3.56c.58,1.18,1.32,2.33,1.8,3.56Z" style="fill:#263238"/><path d="M187.47,187.44c6.19,8.11,11.47,16.9,17.69,25,.2.2.19.32.52.31,2.74,0,5.5-.16,8.25-.28l13.24-.66h0v0l.07,1-.11-1,0,0c-6.6.59-13.21,1.13-19.84,1.37a5.86,5.86,0,0,1-2.21-.13c-3.83-4.56-6.9-9.73-10.28-14.63-2.15-3.2-5.13-7.93-7.37-11Z" style="fill:#263238"/><path d="M189.62,188.9a9.45,9.45,0,0,1,1.38,3.76c-.44-1.24-1-2.48-1.38-3.76Z" style="fill:#263238"/></g><g id="freepik--speech-bubble--inject-21"><path d="M279.15,125.71a26.5,26.5,0,0,1-44.28,16.77l-13.26,1.94L228.25,133a26.5,26.5,0,1,1,50.9-7.25Z" style="fill:#fff"/><path d="M279.15,125.71a26.66,26.66,0,0,1-5.35,13.44,28.58,28.58,0,0,1-2.4,2.76,30.22,30.22,0,0,1-2.8,2.37,26.77,26.77,0,0,1-13.53,5.26,25.1,25.1,0,0,1-3.68.07,23.92,23.92,0,0,1-3.67-.38,26.84,26.84,0,0,1-13.11-6.47l.32.09-13.25,2-1,.14.49-.84,6.59-11.49,0,.46a26.76,26.76,0,1,1,51.38-7.45Zm0,0A26.21,26.21,0,0,0,249.1,97a26,26,0,0,0-10.95,4.33,27.3,27.3,0,0,0-7.93,8.64,26.14,26.14,0,0,0-3.36,11.22,26.46,26.46,0,0,0,1.86,11.54l.1.24-.13.22L222,144.66l-.48-.7,13.28-1.86.18,0,.13.13a26.09,26.09,0,0,0,12.69,6.53,23,23,0,0,0,3.6.44,24.31,24.31,0,0,0,3.62,0,26.08,26.08,0,0,0,7.08-1.55,24.69,24.69,0,0,0,6.39-3.45,24.1,24.1,0,0,0,5.21-5.07A26.69,26.69,0,0,0,279.15,125.71Z" style="fill:#263238"/><path d="M239.14,122.94a2.44,2.44,0,1,0,2.44-2.44A2.43,2.43,0,0,0,239.14,122.94Z" style="fill:#263238"/><path d="M250.84,122.94a2.44,2.44,0,1,0,2.44-2.44A2.43,2.43,0,0,0,250.84,122.94Z" style="fill:#263238"/><path d="M262.54,122.94A2.44,2.44,0,1,0,265,120.5,2.43,2.43,0,0,0,262.54,122.94Z" style="fill:#263238"/></g></svg>