<svg width="18" height="22" viewBox="0 0 18 22" fill="none" xmlns="http://www.w3.org/2000/svg">
<path d="M17.4411 15.5036C16.0803 14.3321 15.3 12.6198 15.3 10.8057V8.25C15.3 5.02425 12.9474 2.354 9.9 1.90667V0.916667C9.9 0.40975 9.4968 0 9 0C8.5032 0 8.1 0.40975 8.1 0.916667V1.90667C5.0517 2.354 2.7 5.02425 2.7 8.25V10.8057C2.7 12.6198 1.9197 14.3321 0.5508 15.5109C0.2007 15.8162 0 16.2598 0 16.7292C0 17.6138 0.7065 18.3333 1.575 18.3333H16.425C17.2935 18.3333 18 17.6138 18 16.7292C18 16.2598 17.7993 15.8162 17.4411 15.5036Z" fill="#00888A"/>
<path d="M9 22C10.6299 22 11.9934 20.8166 12.3066 19.25H5.6934C6.0066 20.8166 7.3701 22 9 22Z" fill="#00888A"/>
</svg>
